G04 DipTrace 2.2.0.9*
%INBottomMask.gbr*%
%MOIN*%
%ADD23C,0.04*%
%ADD39C,0.0669*%
%ADD43C,0.0669*%
%FSLAX44Y44*%
%SFA1B1*%
%OFA0B0*%
G04*
G70*
G90*
G75*
G01*
%LNBotMask*%
%LPD*%
D23*
X11737Y15687D3*
X7427Y33427D3*
X9177Y30832D3*
X7562Y29427D3*
X24986Y11062D3*
X10927Y11037D3*
X16037Y10057D3*
X23802Y11942D3*
X6312Y10117D3*
X13792Y11682D3*
X17937Y12596D3*
X25437Y9562D3*
X13781Y12937D3*
X15187Y5937D3*
X13822Y21427D3*
X9832Y28937D3*
X8292Y28427D3*
D43*
X8437Y37937D3*
X9437D3*
D39*
X10437Y35437D3*
Y36437D3*
X12937Y35437D3*
Y36437D3*
X10437Y33437D3*
Y34437D3*
X12937Y33437D3*
Y34437D3*
X9937Y25437D3*
Y26437D3*
X10437Y28437D3*
Y29437D3*
Y30437D3*
Y31437D3*
X12437Y25437D3*
Y26437D3*
X9937Y22937D3*
Y23937D3*
X12437Y22937D3*
Y23937D3*
X12937Y29437D3*
Y30437D3*
Y31437D3*
X11937Y37937D3*
X12937D3*
X5437Y8562D3*
Y7562D3*
Y6562D3*
Y5562D3*
X9437Y19187D3*
Y20187D3*
Y21187D3*
X12937Y19187D3*
Y20187D3*
Y21187D3*
X9437Y15687D3*
Y16687D3*
Y17687D3*
X12937Y15687D3*
Y16687D3*
Y17687D3*
X6937Y37937D3*
Y36937D3*
Y35937D3*
Y34937D3*
Y33937D3*
Y32937D3*
Y31937D3*
Y30937D3*
Y29937D3*
Y28937D3*
Y27937D3*
Y26937D3*
Y25937D3*
Y24937D3*
Y23937D3*
Y22937D3*
Y21937D3*
Y20937D3*
Y19937D3*
Y18937D3*
Y17937D3*
Y16937D3*
Y15937D3*
X24937D3*
Y16937D3*
Y17937D3*
Y18937D3*
Y19937D3*
Y20937D3*
Y21937D3*
Y22937D3*
Y23937D3*
Y24937D3*
Y25937D3*
Y26937D3*
Y27937D3*
Y28937D3*
Y29937D3*
Y30937D3*
Y31937D3*
Y32937D3*
Y33937D3*
Y34937D3*
Y35937D3*
Y36937D3*
Y37937D3*
X5937D3*
Y36937D3*
Y35937D3*
Y34937D3*
Y33937D3*
Y32937D3*
Y31937D3*
Y30937D3*
Y29937D3*
Y28937D3*
Y27937D3*
Y26937D3*
Y25937D3*
Y24937D3*
Y23937D3*
Y22937D3*
Y21937D3*
Y20937D3*
Y19937D3*
Y18937D3*
Y17937D3*
Y16937D3*
Y15937D3*
X25937Y37937D3*
Y36937D3*
Y35937D3*
Y34937D3*
Y33937D3*
Y32937D3*
Y31937D3*
Y30937D3*
Y29937D3*
Y28937D3*
Y27937D3*
Y26937D3*
Y25937D3*
Y24937D3*
Y23937D3*
Y22937D3*
Y21937D3*
Y20937D3*
Y19937D3*
Y18937D3*
Y17937D3*
Y16937D3*
Y15937D3*
X14437Y37937D3*
Y36937D3*
Y35937D3*
Y34937D3*
Y33937D3*
Y32937D3*
Y31937D3*
Y30937D3*
Y29937D3*
Y28937D3*
Y27937D3*
Y26937D3*
Y25937D3*
Y24937D3*
Y23937D3*
Y22937D3*
Y21937D3*
Y20937D3*
Y19937D3*
Y18937D3*
X23437D3*
Y19937D3*
Y20937D3*
Y21937D3*
Y22937D3*
Y23937D3*
Y24937D3*
Y25937D3*
Y26937D3*
Y27937D3*
Y28937D3*
Y29937D3*
Y30937D3*
Y31937D3*
Y32937D3*
Y33937D3*
Y34937D3*
Y35937D3*
Y36937D3*
Y37937D3*
M02*
