M48
INCH
T01C0.0191
T02C0.0354
%
T01
X+011737Y+015687
X+013781Y+012937
X+013792Y+011682
X+016037Y+010057
X+017937Y+012596
X+023802Y+011942
X+024986Y+011062
X+025437Y+009562
X+015187Y+005937
X+010927Y+011037
X+006312Y+010117
X+013822Y+021427
X+009832Y+028937
X+008292Y+028427
X+007562Y+029427
X+009177Y+030832
X+007427Y+033427
T02
X+008437Y+037937
X+009437Y+037937
X+010437Y+036437
X+010437Y+035437
X+010437Y+034437
X+010437Y+033437
X+010437Y+031437
X+010437Y+030437
X+010437Y+029437
X+010437Y+028437
X+009937Y+026437
X+009937Y+025437
X+009937Y+023937
X+009937Y+022937
X+009437Y+021187
X+009437Y+020187
X+009437Y+019187
X+009437Y+017687
X+009437Y+016687
X+009437Y+015687
X+006937Y+015937
X+006937Y+016937
X+006937Y+017937
X+006937Y+018937
X+006937Y+019937
X+006937Y+020937
X+006937Y+021937
X+006937Y+022937
X+006937Y+023937
X+006937Y+024937
X+006937Y+025937
X+006937Y+026937
X+006937Y+027937
X+006937Y+028937
X+006937Y+029937
X+006937Y+030937
X+005937Y+030937
X+005937Y+029937
X+005937Y+028937
X+005937Y+027937
X+005937Y+026937
X+005937Y+025937
X+005937Y+024937
X+005937Y+023937
X+005937Y+022937
X+005937Y+021937
X+005937Y+020937
X+005937Y+019937
X+005937Y+018937
X+005937Y+017937
X+005937Y+016937
X+005937Y+015937
X+012937Y+015687
X+012937Y+016687
X+012937Y+017687
X+012937Y+019187
X+012937Y+020187
X+012937Y+021187
X+014437Y+020937
X+014437Y+019937
X+014437Y+018937
X+014437Y+021937
X+014437Y+022937
X+014437Y+023937
X+014437Y+024937
X+014437Y+025937
X+014437Y+026937
X+014437Y+027937
X+014437Y+028937
X+014437Y+029937
X+014437Y+030937
X+014437Y+031937
X+014437Y+032937
X+014437Y+033937
X+014437Y+034937
X+014437Y+035937
X+014437Y+036937
X+014437Y+037937
X+012937Y+037937
X+011937Y+037937
X+012937Y+036437
X+012937Y+035437
X+012937Y+034437
X+012937Y+033437
X+012937Y+031437
X+012937Y+030437
X+012937Y+029437
X+012437Y+026437
X+012437Y+025437
X+012437Y+023937
X+012437Y+022937
X+006937Y+031937
X+006937Y+032937
X+006937Y+033937
X+006937Y+034937
X+006937Y+035937
X+006937Y+036937
X+006937Y+037937
X+005937Y+037937
X+005937Y+036937
X+005937Y+035937
X+005937Y+034937
X+005937Y+033937
X+005937Y+032937
X+005937Y+031937
X+023437Y+031937
X+023437Y+030937
X+023437Y+029937
X+023437Y+028937
X+023437Y+027937
X+023437Y+026937
X+023437Y+025937
X+023437Y+024937
X+023437Y+023937
X+023437Y+022937
X+023437Y+021937
X+023437Y+020937
X+023437Y+019937
X+023437Y+018937
X+024937Y+018937
X+024937Y+019937
X+025937Y+019937
X+025937Y+018937
X+025937Y+017937
X+025937Y+016937
X+025937Y+015937
X+024937Y+015937
X+024937Y+016937
X+024937Y+017937
X+024937Y+020937
X+024937Y+021937
X+024937Y+022937
X+024937Y+023937
X+024937Y+024937
X+024937Y+025937
X+024937Y+026937
X+024937Y+027937
X+024937Y+028937
X+025937Y+028937
X+025937Y+027937
X+025937Y+026937
X+025937Y+025937
X+025937Y+024937
X+025937Y+023937
X+025937Y+022937
X+025937Y+021937
X+025937Y+020937
X+025937Y+029937
X+025937Y+030937
X+024937Y+030937
X+024937Y+029937
X+024937Y+031937
X+024937Y+032937
X+024937Y+033937
X+025937Y+033937
X+025937Y+032937
X+025937Y+031937
X+023437Y+032937
X+023437Y+033937
X+023437Y+034937
X+023437Y+035937
X+023437Y+036937
X+023437Y+037937
X+024937Y+037937
X+024937Y+036937
X+024937Y+035937
X+024937Y+034937
X+025937Y+034937
X+025937Y+035937
X+025937Y+036937
X+025937Y+037937
X+005437Y+008562
X+005437Y+007562
X+005437Y+006562
X+005437Y+005562
T00
M30
