G04 DipTrace 2.2.0.9*
%INTop.gbr*%
%MOIN*%
%ADD13C,0.013*%
%ADD14C,0.025*%
%ADD15C,0.0591*%
%ADD16R,0.0512X0.0591*%
%ADD17C,0.0591*%
%ADD18R,0.0591X0.0512*%
%ADD19R,0.11X0.053*%
%ADD20R,0.303X0.256*%
%ADD21R,0.053X0.11*%
%ADD22R,0.256X0.303*%
%ADD23C,0.04*%
%FSLAX44Y44*%
%SFA1B1*%
%OFA0B0*%
G04*
G70*
G90*
G75*
G01*
%LNTop*%
%LPD*%
X10437Y28437D2*
D13*
X14667D1*
X14927Y28697D1*
Y30177D1*
X14667Y30437D1*
X22167Y37937D1*
X23437D1*
X9437Y15687D2*
X11737D1*
X14667Y30437D2*
X12937D1*
X11737Y15687D2*
X12937D1*
X9937Y25437D2*
X10947Y24427D1*
X22947D1*
X23437Y23937D1*
X12437Y25437D2*
X23667D1*
X23927Y25177D1*
Y23427D1*
X23437Y22937D1*
X9937D2*
X10447Y22427D1*
X20043D1*
X20533Y21937D1*
X23437D1*
X12437Y22937D2*
X12942D1*
X13432Y23427D1*
X22001D1*
X23001Y22427D1*
X23667D1*
X23927Y22167D1*
Y21427D1*
X23437Y20937D1*
X7427Y33427D2*
X8185Y34185D1*
X8687D1*
X9177Y30832D2*
Y29437D1*
X8687D1*
X10437Y35437D2*
X8687D1*
X12937D2*
X13427Y34947D1*
Y32707D1*
X13167Y32447D1*
X10187D1*
X9177Y31437D1*
X8687D1*
X12937Y33437D2*
X12207Y32707D1*
X8947D1*
X8687Y32967D1*
Y33437D1*
X5937Y35937D2*
X6447Y35427D1*
X7427D1*
X8185Y36185D1*
X8687D1*
X5937Y26937D2*
X5187Y27687D1*
Y31167D1*
X5447Y31427D1*
X7427D1*
X8185Y32185D1*
X8687D1*
X7562Y29427D2*
Y29925D1*
X7822Y30185D1*
X8687D1*
X25437Y7437D2*
Y8052D1*
X25177Y8312D1*
X24986D1*
Y10437D1*
X25437D1*
Y13937D2*
X24061D1*
X23802Y13677D1*
Y11942D1*
X25437Y10437D2*
Y10862D1*
X25237Y11062D1*
X24986D1*
X16037Y10057D2*
Y10937D1*
X11937Y11037D2*
X14337D1*
X15317Y10057D1*
X16037D1*
X10927Y11037D2*
X11937D1*
X23802Y11942D2*
X20537D1*
Y10937D1*
X26185Y5937D2*
Y7437D1*
Y13937D2*
Y14427D1*
X25925Y14687D1*
X23222D1*
X22962Y14427D1*
Y13316D1*
X22702Y13056D1*
X20337D1*
X20077Y12796D1*
Y10272D1*
X19817Y10012D1*
X16987D1*
Y10937D1*
X9437Y17687D2*
X12937D1*
X9937Y23937D2*
X12437D1*
X12937Y29437D2*
X10437D1*
Y34437D2*
X12937D1*
Y37937D2*
X14437D1*
X11937Y11987D2*
X10872D1*
X9002Y10117D1*
X6312D1*
X13792Y11682D2*
X13393D1*
X13088Y11987D1*
X11937D1*
X16987Y10937D2*
Y11682D1*
X13792D1*
X20077Y10272D2*
X20337Y10012D1*
X21487D1*
Y10937D1*
X26185Y12437D2*
Y13937D1*
Y10437D2*
Y12437D1*
Y8937D2*
Y10437D1*
Y7437D2*
Y8937D1*
X17937Y12596D2*
Y10937D1*
X25437Y9562D2*
Y8937D1*
X17937Y10937D2*
D3*
X13781Y12937D2*
X11937D1*
X15187Y5937D2*
X25437D1*
Y12437D2*
Y11717D1*
X25177Y11457D1*
X23009D1*
X22784Y11682D1*
X22437D1*
Y10937D1*
Y8822D1*
X22177Y8562D1*
X5437D1*
X9437Y20187D2*
X8687Y20937D1*
Y23167D1*
X8947Y23427D1*
X12672D1*
X13182Y23937D1*
X14437D1*
X13822Y21427D2*
Y17437D1*
X13562Y17177D1*
X9927D1*
X9437Y16687D1*
X5937Y28937D2*
X6447Y28427D1*
X8292D1*
X9832Y28937D2*
X14437D1*
X8292Y28427D2*
X9322D1*
X9832Y28937D1*
X14437Y29937D2*
X10937D1*
X10437Y30437D1*
X9437Y29437D1*
Y29197D1*
X9177Y28937D1*
X6937D1*
D23*
X11737Y15687D3*
X7427Y33427D3*
X9177Y30832D3*
X7562Y29427D3*
X24986Y11062D3*
X10927Y11037D3*
X16037Y10057D3*
X23802Y11942D3*
X6312Y10117D3*
X13792Y11682D3*
X17937Y12596D3*
X25437Y9562D3*
X13781Y12937D3*
X15187Y5937D3*
X13822Y21427D3*
X9832Y28937D3*
X8292Y28427D3*
X4337Y38313D2*
D14*
X5496D1*
X6378D2*
X6495D1*
X7378D2*
X7996D1*
X8878D2*
X8995D1*
X9878D2*
X11496D1*
X12378D2*
X12495D1*
X13378D2*
X13996D1*
X14878D2*
X22996D1*
X23878D2*
X24496D1*
X25378D2*
X25495D1*
X26378D2*
X28039D1*
X4337Y38065D2*
X5367D1*
X7507D2*
X7867D1*
X10007D2*
X11367D1*
X15007D2*
X21805D1*
X24007D2*
X24367D1*
X26507D2*
X28039D1*
X4337Y37816D2*
X5367D1*
X7507D2*
X7867D1*
X10007D2*
X11367D1*
X15007D2*
X21555D1*
X24007D2*
X24367D1*
X26507D2*
X28039D1*
X4337Y37567D2*
X5492D1*
X6382D2*
X6489D1*
X7382D2*
X7992D1*
X8882D2*
X8989D1*
X9882D2*
X11492D1*
X12382D2*
X12489D1*
X13382D2*
X13992D1*
X14882D2*
X21305D1*
X22288D2*
X22992D1*
X23882D2*
X24492D1*
X25382D2*
X25489D1*
X26382D2*
X28039D1*
X4337Y37319D2*
X5504D1*
X6370D2*
X6500D1*
X7370D2*
X14004D1*
X14870D2*
X21058D1*
X22042D2*
X23004D1*
X23870D2*
X24504D1*
X25370D2*
X25500D1*
X26370D2*
X28039D1*
X4337Y37070D2*
X5367D1*
X7507D2*
X13867D1*
X15007D2*
X20808D1*
X21792D2*
X22867D1*
X24007D2*
X24367D1*
X26507D2*
X28039D1*
X4337Y36821D2*
X5363D1*
X7511D2*
X10004D1*
X10870D2*
X12504D1*
X13370D2*
X13863D1*
X15011D2*
X20558D1*
X21542D2*
X22863D1*
X24011D2*
X24363D1*
X26511D2*
X28039D1*
X4337Y36573D2*
X5488D1*
X6386D2*
X6490D1*
X7386D2*
X8101D1*
X9273D2*
X9867D1*
X11007D2*
X12367D1*
X13507D2*
X13988D1*
X14886D2*
X20312D1*
X21296D2*
X22988D1*
X23886D2*
X24488D1*
X25386D2*
X25490D1*
X26386D2*
X28039D1*
X4337Y36324D2*
X5508D1*
X6366D2*
X6506D1*
X7366D2*
X7832D1*
X9273D2*
X9863D1*
X11011D2*
X12363D1*
X13511D2*
X14008D1*
X14866D2*
X20062D1*
X21046D2*
X23008D1*
X23866D2*
X24508D1*
X25366D2*
X25506D1*
X26366D2*
X28039D1*
X4337Y36075D2*
X5371D1*
X7503D2*
X7587D1*
X9273D2*
X9984D1*
X10890D2*
X12484D1*
X13390D2*
X13871D1*
X15003D2*
X19812D1*
X20796D2*
X22871D1*
X24003D2*
X24371D1*
X26503D2*
X28039D1*
X4337Y35826D2*
X5363D1*
X9273D2*
X10008D1*
X10866D2*
X12508D1*
X13366D2*
X13863D1*
X15011D2*
X19566D1*
X20550D2*
X22863D1*
X24011D2*
X24363D1*
X26511D2*
X28039D1*
X4337Y35578D2*
X5484D1*
X11003D2*
X12371D1*
X13503D2*
X13984D1*
X14890D2*
X19316D1*
X20300D2*
X22984D1*
X23890D2*
X24484D1*
X25390D2*
X25485D1*
X26390D2*
X28039D1*
X4337Y35329D2*
X5512D1*
X7819D2*
X8101D1*
X11011D2*
X12363D1*
X13538D2*
X14012D1*
X14862D2*
X19066D1*
X20050D2*
X23012D1*
X23862D2*
X24512D1*
X25362D2*
X25512D1*
X26362D2*
X28039D1*
X4337Y35080D2*
X5371D1*
X7503D2*
X8101D1*
X9273D2*
X9980D1*
X10894D2*
X12480D1*
X13753D2*
X13870D1*
X15003D2*
X18820D1*
X19804D2*
X22871D1*
X24003D2*
X24371D1*
X26503D2*
X28039D1*
X4337Y34832D2*
X5363D1*
X7511D2*
X10016D1*
X10858D2*
X12516D1*
X13780D2*
X13864D1*
X15011D2*
X18570D1*
X19554D2*
X22863D1*
X24011D2*
X24363D1*
X26511D2*
X28039D1*
X4337Y34583D2*
X5476D1*
X6398D2*
X6481D1*
X7398D2*
X8101D1*
X9273D2*
X9871D1*
X13780D2*
X13976D1*
X14898D2*
X18320D1*
X19304D2*
X22976D1*
X23898D2*
X24476D1*
X25398D2*
X25481D1*
X26398D2*
X28039D1*
X4337Y34334D2*
X5516D1*
X6358D2*
X6519D1*
X7358D2*
X7844D1*
X9273D2*
X9863D1*
X13780D2*
X14016D1*
X14858D2*
X18074D1*
X19058D2*
X23016D1*
X23858D2*
X24516D1*
X25358D2*
X25519D1*
X26358D2*
X28039D1*
X4337Y34086D2*
X5371D1*
X7503D2*
X7593D1*
X9273D2*
X9976D1*
X10898D2*
X12476D1*
X13780D2*
X13869D1*
X15003D2*
X17824D1*
X18808D2*
X22871D1*
X24003D2*
X24371D1*
X26503D2*
X28039D1*
X4337Y33837D2*
X5359D1*
X9273D2*
X10019D1*
X10855D2*
X12519D1*
X13780D2*
X13864D1*
X15015D2*
X17574D1*
X18558D2*
X22859D1*
X24015D2*
X24359D1*
X26515D2*
X28039D1*
X4337Y33588D2*
X5473D1*
X9273D2*
X9871D1*
X11003D2*
X12371D1*
X13780D2*
X13973D1*
X14901D2*
X17328D1*
X18312D2*
X22973D1*
X23901D2*
X24473D1*
X26401D2*
X28039D1*
X4337Y33340D2*
X5523D1*
X6351D2*
X6526D1*
X7909D2*
X8101D1*
X9273D2*
X9859D1*
X11015D2*
X12348D1*
X13780D2*
X14023D1*
X14851D2*
X17078D1*
X18062D2*
X23023D1*
X23851D2*
X24523D1*
X25351D2*
X25526D1*
X26351D2*
X28039D1*
X4337Y33091D2*
X5375D1*
X7773D2*
X8101D1*
X9273D2*
X9973D1*
X10901D2*
X12101D1*
X13780D2*
X13875D1*
X14999D2*
X16828D1*
X17812D2*
X22875D1*
X23999D2*
X24375D1*
X26499D2*
X28039D1*
X4337Y32842D2*
X5359D1*
X7515D2*
X8355D1*
X13780D2*
X13858D1*
X15015D2*
X16582D1*
X17566D2*
X22859D1*
X24015D2*
X24359D1*
X26515D2*
X28039D1*
X4337Y32594D2*
X5469D1*
X7405D2*
X8101D1*
X13761D2*
X13969D1*
X14905D2*
X16332D1*
X17316D2*
X22969D1*
X23905D2*
X24469D1*
X26405D2*
X28039D1*
X4337Y32345D2*
X5527D1*
X6347D2*
X6526D1*
X7347D2*
X7855D1*
X9273D2*
X9594D1*
X13558D2*
X14027D1*
X14847D2*
X16082D1*
X17066D2*
X23027D1*
X23847D2*
X24527D1*
X25347D2*
X25526D1*
X26347D2*
X28039D1*
X4337Y32096D2*
X5375D1*
X7499D2*
X7605D1*
X10327D2*
X13875D1*
X14999D2*
X15836D1*
X16819D2*
X22875D1*
X23999D2*
X24375D1*
X26499D2*
X28039D1*
X4337Y31847D2*
X5359D1*
X10843D2*
X12531D1*
X13343D2*
X13859D1*
X15015D2*
X15586D1*
X16569D2*
X22859D1*
X24015D2*
X24359D1*
X26515D2*
X28039D1*
X4337Y31599D2*
X5129D1*
X10999D2*
X12375D1*
X13499D2*
X13965D1*
X14909D2*
X15336D1*
X16319D2*
X22965D1*
X23909D2*
X24465D1*
X26409D2*
X28039D1*
X4337Y31350D2*
X4887D1*
X7843D2*
X8101D1*
X9581D2*
X9859D1*
X11015D2*
X12359D1*
X13515D2*
X14035D1*
X14839D2*
X15090D1*
X16073D2*
X23035D1*
X23839D2*
X24535D1*
X25339D2*
X25533D1*
X26339D2*
X28039D1*
X4337Y31101D2*
X4832D1*
X7503D2*
X8101D1*
X9581D2*
X9965D1*
X10909D2*
X12465D1*
X13409D2*
X13875D1*
X15823D2*
X22875D1*
X23999D2*
X24375D1*
X26499D2*
X28039D1*
X4337Y30853D2*
X4832D1*
X7515D2*
X8687D1*
X9667D2*
X10035D1*
X10839D2*
X12535D1*
X13339D2*
X13859D1*
X15573D2*
X22859D1*
X24015D2*
X24359D1*
X26515D2*
X28039D1*
X4337Y30604D2*
X4832D1*
X7413D2*
X8101D1*
X9608D2*
X9879D1*
X10995D2*
X12379D1*
X15327D2*
X22961D1*
X23913D2*
X24461D1*
X26413D2*
X28039D1*
X4337Y30355D2*
X4832D1*
X6335D2*
X6539D1*
X7335D2*
X7500D1*
X9530D2*
X9859D1*
X11015D2*
X12359D1*
X15230D2*
X23039D1*
X23835D2*
X24539D1*
X25335D2*
X25539D1*
X26335D2*
X28039D1*
X4337Y30107D2*
X4832D1*
X9530D2*
X9614D1*
X15280D2*
X22879D1*
X23995D2*
X24379D1*
X26495D2*
X28039D1*
X4337Y29858D2*
X4832D1*
X15280D2*
X22859D1*
X24015D2*
X24359D1*
X26515D2*
X28039D1*
X4337Y29609D2*
X4832D1*
X8015D2*
X8103D1*
X15280D2*
X22957D1*
X23917D2*
X24457D1*
X26417D2*
X28039D1*
X4337Y29361D2*
X4832D1*
X6327D2*
X6547D1*
X13519D2*
X14047D1*
X15280D2*
X23047D1*
X23827D2*
X24547D1*
X25327D2*
X25547D1*
X26327D2*
X28039D1*
X4337Y29112D2*
X4832D1*
X15280D2*
X22879D1*
X23995D2*
X24379D1*
X26495D2*
X28039D1*
X4337Y28863D2*
X4832D1*
X15280D2*
X22855D1*
X24019D2*
X24355D1*
X26519D2*
X28039D1*
X4337Y28615D2*
X4832D1*
X15273D2*
X22953D1*
X23921D2*
X24453D1*
X26421D2*
X28039D1*
X4337Y28366D2*
X4832D1*
X9753D2*
X9856D1*
X15089D2*
X23051D1*
X23823D2*
X24551D1*
X25323D2*
X25551D1*
X26323D2*
X28039D1*
X4337Y28117D2*
X4832D1*
X9460D2*
X9953D1*
X14991D2*
X22883D1*
X23991D2*
X24383D1*
X26491D2*
X28039D1*
X4337Y27868D2*
X4832D1*
X7519D2*
X13855D1*
X15019D2*
X22855D1*
X24019D2*
X24355D1*
X26519D2*
X28039D1*
X4337Y27620D2*
X4840D1*
X7425D2*
X13949D1*
X14925D2*
X22949D1*
X23925D2*
X24449D1*
X26425D2*
X28039D1*
X4337Y27371D2*
X5012D1*
X6316D2*
X6558D1*
X7316D2*
X14058D1*
X14816D2*
X23058D1*
X23816D2*
X24558D1*
X25316D2*
X25558D1*
X26316D2*
X28039D1*
X4337Y27122D2*
X5262D1*
X7491D2*
X13883D1*
X14991D2*
X22883D1*
X23991D2*
X24383D1*
X26491D2*
X28039D1*
X4337Y26874D2*
X5355D1*
X7519D2*
X9562D1*
X10312D2*
X12062D1*
X12812D2*
X13855D1*
X15019D2*
X22855D1*
X24019D2*
X24355D1*
X26519D2*
X28039D1*
X4337Y26625D2*
X5445D1*
X7429D2*
X9383D1*
X10491D2*
X11883D1*
X12991D2*
X13945D1*
X14929D2*
X22945D1*
X23929D2*
X24445D1*
X26429D2*
X28039D1*
X4337Y26376D2*
X5566D1*
X6308D2*
X6566D1*
X7308D2*
X9355D1*
X10519D2*
X11855D1*
X13019D2*
X14066D1*
X14808D2*
X23066D1*
X23808D2*
X24566D1*
X25308D2*
X25566D1*
X26308D2*
X28039D1*
X4337Y26128D2*
X5387D1*
X7487D2*
X9445D1*
X10429D2*
X11945D1*
X12929D2*
X13887D1*
X14987D2*
X22887D1*
X23987D2*
X24387D1*
X26487D2*
X28039D1*
X4337Y25879D2*
X5355D1*
X7519D2*
X9566D1*
X10308D2*
X12066D1*
X12808D2*
X13855D1*
X15019D2*
X22855D1*
X24019D2*
X24355D1*
X26519D2*
X28039D1*
X4337Y25630D2*
X5445D1*
X7429D2*
X9387D1*
X10487D2*
X11887D1*
X23964D2*
X24445D1*
X26429D2*
X28039D1*
X4337Y25382D2*
X5570D1*
X6304D2*
X6570D1*
X7304D2*
X9355D1*
X10519D2*
X11855D1*
X24210D2*
X24570D1*
X25304D2*
X25570D1*
X26304D2*
X28039D1*
X4337Y25133D2*
X5387D1*
X7487D2*
X9441D1*
X10733D2*
X11941D1*
X24280D2*
X24386D1*
X26487D2*
X28039D1*
X4337Y24884D2*
X5355D1*
X7519D2*
X9824D1*
X10980D2*
X12324D1*
X12550D2*
X13855D1*
X15019D2*
X22855D1*
X26519D2*
X28039D1*
X4337Y24635D2*
X5441D1*
X7433D2*
X10246D1*
X24280D2*
X24441D1*
X26433D2*
X28039D1*
X4337Y24387D2*
X5578D1*
X6296D2*
X6578D1*
X7296D2*
X9578D1*
X10296D2*
X10496D1*
X24280D2*
X24578D1*
X25296D2*
X25578D1*
X26296D2*
X28039D1*
X4337Y24138D2*
X5391D1*
X7483D2*
X9391D1*
X24280D2*
X24386D1*
X26483D2*
X28039D1*
X4337Y23889D2*
X5355D1*
X7519D2*
X9355D1*
X15019D2*
X22855D1*
X26519D2*
X28039D1*
X4337Y23641D2*
X5437D1*
X7437D2*
X8668D1*
X22280D2*
X22937D1*
X24280D2*
X24437D1*
X26437D2*
X28039D1*
X4337Y23392D2*
X5586D1*
X6288D2*
X6586D1*
X7288D2*
X8422D1*
X22526D2*
X23086D1*
X24280D2*
X24586D1*
X25288D2*
X25586D1*
X26288D2*
X28039D1*
X4337Y23143D2*
X5391D1*
X7483D2*
X8332D1*
X22776D2*
X22892D1*
X24136D2*
X24391D1*
X26483D2*
X28039D1*
X4337Y22895D2*
X5355D1*
X7519D2*
X8332D1*
X9042D2*
X9355D1*
X10519D2*
X11855D1*
X13390D2*
X13855D1*
X15019D2*
X22043D1*
X24019D2*
X24355D1*
X26519D2*
X28039D1*
X4337Y22646D2*
X5433D1*
X7441D2*
X8332D1*
X9042D2*
X9433D1*
X20316D2*
X22293D1*
X23941D2*
X24433D1*
X26441D2*
X28039D1*
X4337Y22397D2*
X5594D1*
X6280D2*
X6594D1*
X7280D2*
X8332D1*
X9042D2*
X9762D1*
X20566D2*
X22539D1*
X24187D2*
X24594D1*
X25280D2*
X25594D1*
X26280D2*
X28039D1*
X4337Y22149D2*
X5394D1*
X7480D2*
X8332D1*
X9042D2*
X10246D1*
X24280D2*
X24392D1*
X26480D2*
X28039D1*
X4337Y21900D2*
X5351D1*
X7523D2*
X8332D1*
X9042D2*
X13851D1*
X15023D2*
X20078D1*
X26523D2*
X28039D1*
X4337Y21651D2*
X5430D1*
X7444D2*
X8332D1*
X9776D2*
X12598D1*
X13276D2*
X13392D1*
X14944D2*
X20344D1*
X24280D2*
X24430D1*
X26444D2*
X28039D1*
X4337Y21403D2*
X5601D1*
X6273D2*
X6601D1*
X7273D2*
X8332D1*
X9980D2*
X12394D1*
X14773D2*
X23101D1*
X24280D2*
X24601D1*
X25273D2*
X25601D1*
X26273D2*
X28039D1*
X4337Y21154D2*
X5394D1*
X7480D2*
X8332D1*
X10023D2*
X12351D1*
X14980D2*
X22894D1*
X24144D2*
X24394D1*
X26480D2*
X28039D1*
X4337Y20905D2*
X5351D1*
X7523D2*
X8332D1*
X9944D2*
X12430D1*
X15023D2*
X22851D1*
X24023D2*
X24351D1*
X26523D2*
X28039D1*
X4337Y20656D2*
X5426D1*
X7448D2*
X8476D1*
X9769D2*
X12605D1*
X13269D2*
X13469D1*
X14948D2*
X22926D1*
X23948D2*
X24426D1*
X26448D2*
X28039D1*
X4337Y20408D2*
X5609D1*
X6265D2*
X6609D1*
X7265D2*
X8726D1*
X9976D2*
X12398D1*
X14765D2*
X23109D1*
X23765D2*
X24609D1*
X25265D2*
X25609D1*
X26265D2*
X28039D1*
X4337Y20159D2*
X5398D1*
X7476D2*
X8851D1*
X10023D2*
X12351D1*
X14976D2*
X22898D1*
X23976D2*
X24398D1*
X26476D2*
X28039D1*
X4337Y19910D2*
X5351D1*
X7523D2*
X8926D1*
X9948D2*
X12426D1*
X15023D2*
X22851D1*
X24023D2*
X24351D1*
X26523D2*
X28039D1*
X4337Y19662D2*
X5426D1*
X7448D2*
X9113D1*
X9761D2*
X12613D1*
X13261D2*
X13469D1*
X14948D2*
X22926D1*
X23948D2*
X24426D1*
X26448D2*
X28039D1*
X4337Y19413D2*
X5617D1*
X6257D2*
X6617D1*
X7257D2*
X8898D1*
X9976D2*
X12398D1*
X14757D2*
X23117D1*
X23757D2*
X24617D1*
X25257D2*
X25617D1*
X26257D2*
X28039D1*
X4337Y19164D2*
X5398D1*
X7476D2*
X8851D1*
X10023D2*
X12351D1*
X14976D2*
X22898D1*
X23976D2*
X24398D1*
X26476D2*
X28039D1*
X4337Y18916D2*
X5351D1*
X7523D2*
X8922D1*
X9952D2*
X12422D1*
X15023D2*
X22851D1*
X24023D2*
X24351D1*
X26523D2*
X28039D1*
X4337Y18667D2*
X5422D1*
X7452D2*
X9203D1*
X9671D2*
X12703D1*
X13171D2*
X13469D1*
X14952D2*
X22922D1*
X23952D2*
X24422D1*
X26452D2*
X28039D1*
X4337Y18418D2*
X5625D1*
X6249D2*
X6625D1*
X7249D2*
X13469D1*
X14675D2*
X23199D1*
X23675D2*
X24625D1*
X25249D2*
X25625D1*
X26249D2*
X28039D1*
X4337Y18170D2*
X5402D1*
X7472D2*
X9129D1*
X9745D2*
X12629D1*
X13245D2*
X13469D1*
X14175D2*
X24402D1*
X26472D2*
X28039D1*
X4337Y17921D2*
X5351D1*
X7523D2*
X8902D1*
X14175D2*
X24351D1*
X26523D2*
X28039D1*
X4337Y17672D2*
X5418D1*
X7456D2*
X8851D1*
X14175D2*
X24418D1*
X26456D2*
X28039D1*
X4337Y17424D2*
X5633D1*
X6241D2*
X6633D1*
X7241D2*
X8918D1*
X14175D2*
X24633D1*
X25241D2*
X25633D1*
X26241D2*
X28039D1*
X4337Y17175D2*
X5406D1*
X7468D2*
X9137D1*
X14050D2*
X24406D1*
X26468D2*
X28039D1*
X4337Y16926D2*
X5351D1*
X7523D2*
X8906D1*
X13800D2*
X24351D1*
X26523D2*
X28039D1*
X4337Y16677D2*
X5414D1*
X7460D2*
X8851D1*
X10023D2*
X12351D1*
X13523D2*
X15418D1*
X18558D2*
X19918D1*
X23058D2*
X24414D1*
X26460D2*
X28039D1*
X4337Y16429D2*
X5644D1*
X6230D2*
X6644D1*
X7230D2*
X8914D1*
X9960D2*
X12414D1*
X13460D2*
X15418D1*
X18558D2*
X19918D1*
X23058D2*
X24644D1*
X25230D2*
X25644D1*
X26230D2*
X28039D1*
X4337Y16180D2*
X5406D1*
X7468D2*
X9148D1*
X9726D2*
X12648D1*
X13226D2*
X15418D1*
X18558D2*
X19918D1*
X23058D2*
X24406D1*
X26468D2*
X28039D1*
X4337Y15931D2*
X5351D1*
X7523D2*
X8906D1*
X13468D2*
X15418D1*
X18558D2*
X19918D1*
X23058D2*
X24351D1*
X26523D2*
X28039D1*
X4337Y15683D2*
X5414D1*
X7460D2*
X8851D1*
X13523D2*
X15418D1*
X18558D2*
X19918D1*
X23058D2*
X24414D1*
X26460D2*
X28039D1*
X4337Y15434D2*
X5664D1*
X6210D2*
X6664D1*
X7210D2*
X8914D1*
X13460D2*
X15418D1*
X18558D2*
X19918D1*
X23058D2*
X24664D1*
X25210D2*
X25664D1*
X26210D2*
X28039D1*
X4337Y15185D2*
X9164D1*
X9710D2*
X12664D1*
X13210D2*
X15418D1*
X18558D2*
X19918D1*
X23058D2*
X28039D1*
X4337Y14937D2*
X15418D1*
X18558D2*
X19918D1*
X26167D2*
X28039D1*
X4337Y14688D2*
X15418D1*
X18558D2*
X19918D1*
X26417D2*
X28039D1*
X4337Y14439D2*
X15418D1*
X18558D2*
X19918D1*
X26730D2*
X28039D1*
X4337Y14191D2*
X15418D1*
X18558D2*
X19918D1*
X23316D2*
X23824D1*
X26730D2*
X28039D1*
X4337Y13942D2*
X15418D1*
X18558D2*
X19918D1*
X23316D2*
X23574D1*
X26730D2*
X28039D1*
X4337Y13693D2*
X15418D1*
X18558D2*
X19918D1*
X23316D2*
X23449D1*
X26730D2*
X28039D1*
X4337Y13445D2*
X5953D1*
X9562D2*
X11098D1*
X12776D2*
X15418D1*
X18558D2*
X19918D1*
X23316D2*
X23445D1*
X24155D2*
X24891D1*
X26730D2*
X28039D1*
X4337Y13196D2*
X5953D1*
X9562D2*
X11098D1*
X14191D2*
X19984D1*
X23292D2*
X23445D1*
X24155D2*
X25832D1*
X26538D2*
X28039D1*
X4337Y12947D2*
X5953D1*
X9562D2*
X11098D1*
X14269D2*
X17605D1*
X18269D2*
X19758D1*
X23085D2*
X23445D1*
X24155D2*
X24891D1*
X26730D2*
X28039D1*
X4337Y12698D2*
X5953D1*
X9562D2*
X11098D1*
X14206D2*
X17457D1*
X18417D2*
X19723D1*
X20472D2*
X23445D1*
X24155D2*
X24891D1*
X26730D2*
X28039D1*
X4337Y12450D2*
X5953D1*
X9562D2*
X11098D1*
X12776D2*
X17473D1*
X18401D2*
X19723D1*
X20433D2*
X23445D1*
X24155D2*
X24891D1*
X26730D2*
X28039D1*
X4337Y12201D2*
X5953D1*
X9562D2*
X10594D1*
X13366D2*
X17582D1*
X18292D2*
X19723D1*
X24214D2*
X24891D1*
X26730D2*
X28039D1*
X4337Y11952D2*
X5953D1*
X9562D2*
X10348D1*
X17202D2*
X17582D1*
X18292D2*
X19723D1*
X24292D2*
X24891D1*
X26730D2*
X28039D1*
X4337Y11704D2*
X5953D1*
X9562D2*
X10098D1*
X18491D2*
X19723D1*
X26538D2*
X28039D1*
X4337Y11455D2*
X5953D1*
X9562D2*
X9848D1*
X12776D2*
X13129D1*
X18491D2*
X19723D1*
X25667D2*
X25832D1*
X26538D2*
X28039D1*
X4337Y11206D2*
X5953D1*
X14659D2*
X15480D1*
X18491D2*
X19723D1*
X25585D2*
X25832D1*
X26538D2*
X28039D1*
X4337Y10958D2*
X5953D1*
X10335D2*
X10445D1*
X14909D2*
X15480D1*
X18491D2*
X19723D1*
X22991D2*
X24508D1*
X26730D2*
X28039D1*
X4337Y10709D2*
X5953D1*
X10085D2*
X10574D1*
X15155D2*
X15480D1*
X18491D2*
X19723D1*
X22991D2*
X24660D1*
X26730D2*
X28039D1*
X4337Y10460D2*
X5953D1*
X9835D2*
X14422D1*
X15405D2*
X15483D1*
X18491D2*
X19723D1*
X22991D2*
X24633D1*
X26730D2*
X28039D1*
X4337Y10212D2*
X5832D1*
X9589D2*
X14672D1*
X22991D2*
X24633D1*
X26730D2*
X28039D1*
X4337Y9963D2*
X5848D1*
X9339D2*
X14922D1*
X16519D2*
X16635D1*
X21839D2*
X22082D1*
X22792D2*
X24633D1*
X26730D2*
X28039D1*
X4337Y9714D2*
X6055D1*
X6569D2*
X15699D1*
X16374D2*
X16820D1*
X19983D2*
X20168D1*
X21655D2*
X22082D1*
X22792D2*
X24633D1*
X26538D2*
X28039D1*
X4337Y9466D2*
X22082D1*
X22792D2*
X24633D1*
X26730D2*
X28039D1*
X4337Y9217D2*
X22082D1*
X22792D2*
X24633D1*
X26730D2*
X28039D1*
X4337Y8968D2*
X5027D1*
X5847D2*
X22082D1*
X22792D2*
X24633D1*
X26730D2*
X28039D1*
X4337Y8719D2*
X4875D1*
X22776D2*
X24633D1*
X26730D2*
X28039D1*
X4337Y8471D2*
X4859D1*
X22577D2*
X24633D1*
X26730D2*
X28039D1*
X4337Y8222D2*
X4969D1*
X5905D2*
X24644D1*
X25745D2*
X25827D1*
X26538D2*
X28039D1*
X4337Y7973D2*
X5031D1*
X5843D2*
X24891D1*
X26730D2*
X28039D1*
X4337Y7725D2*
X4875D1*
X5999D2*
X24891D1*
X26730D2*
X28039D1*
X4337Y7476D2*
X4859D1*
X6015D2*
X24891D1*
X26730D2*
X28039D1*
X4337Y7227D2*
X4965D1*
X5909D2*
X24891D1*
X26730D2*
X28039D1*
X4337Y6979D2*
X5039D1*
X5835D2*
X24891D1*
X26730D2*
X28039D1*
X4337Y6730D2*
X4879D1*
X5995D2*
X25832D1*
X26538D2*
X28039D1*
X4337Y6481D2*
X4859D1*
X6015D2*
X24891D1*
X26730D2*
X28039D1*
X4337Y6233D2*
X4961D1*
X5913D2*
X14805D1*
X26730D2*
X28039D1*
X4337Y5984D2*
X5043D1*
X5831D2*
X14699D1*
X26730D2*
X28039D1*
X4337Y5735D2*
X4879D1*
X5995D2*
X14742D1*
X26730D2*
X28039D1*
X4337Y5487D2*
X4855D1*
X6019D2*
X15047D1*
X15326D2*
X24891D1*
X26730D2*
X28039D1*
X4337Y5238D2*
X4957D1*
X5917D2*
X28039D1*
X4337Y4989D2*
X28039D1*
X4337Y4740D2*
X28039D1*
X4337Y4492D2*
X28039D1*
X8936Y37685D2*
X8876Y37589D1*
X8788Y37501D1*
X8683Y37434D1*
X8566Y37392D1*
X8442Y37377D1*
X8318Y37390D1*
X8200Y37430D1*
X8093Y37495D1*
X8004Y37582D1*
X7936Y37686D1*
X7893Y37803D1*
X7877Y37927D1*
X7889Y38051D1*
X7927Y38170D1*
X7992Y38277D1*
X8078Y38367D1*
X8182Y38436D1*
X8299Y38480D1*
X8422Y38497D1*
X8546Y38486D1*
X8665Y38449D1*
X8773Y38385D1*
X8864Y38300D1*
X8938Y38186D1*
X8992Y38277D1*
X9078Y38367D1*
X9182Y38436D1*
X9299Y38480D1*
X9422Y38497D1*
X9546Y38486D1*
X9665Y38449D1*
X9773Y38385D1*
X9864Y38300D1*
X9933Y38197D1*
X9979Y38080D1*
X9997Y37937D1*
X9983Y37813D1*
X9942Y37695D1*
X9876Y37589D1*
X9788Y37501D1*
X9683Y37434D1*
X9566Y37392D1*
X9442Y37377D1*
X9318Y37390D1*
X9200Y37430D1*
X9093Y37495D1*
X9004Y37582D1*
X8938Y37683D1*
X25852Y11877D2*
X25764D1*
X25767Y11717D1*
X25743Y11595D1*
X25670Y11484D1*
X25475Y11289D1*
X25672Y11092D1*
X25729Y11013D1*
X25789Y10997D1*
X25858D1*
X25855Y11878D1*
X25852Y8377D2*
X25579D1*
X25670Y8285D1*
X25740Y8182D1*
X25767Y8052D1*
Y7993D1*
X25856Y7997D1*
X25855Y8378D1*
X25664Y8381D1*
X25765Y8088D1*
X25767Y8052D1*
X10183Y34940D2*
X10093Y34995D1*
X9989Y35105D1*
X9246Y35107D1*
X9247Y34916D1*
X8127D1*
Y35662D1*
X7660Y35194D1*
X7554Y35123D1*
X7479Y35080D1*
X7497Y34937D1*
X7483Y34813D1*
X7442Y34695D1*
X7376Y34589D1*
X7288Y34501D1*
X7187Y34436D1*
X7273Y34385D1*
X7364Y34300D1*
X7433Y34197D1*
X7479Y34080D1*
X7496Y33961D1*
X7952Y34418D1*
X8058Y34489D1*
X8127Y34539D1*
Y34706D1*
X9247D1*
X9243Y33664D1*
X9247Y33583D1*
Y33040D1*
X10045Y33037D1*
X10004Y33082D1*
X9936Y33186D1*
X9893Y33303D1*
X9877Y33427D1*
X9889Y33551D1*
X9927Y33670D1*
X9992Y33777D1*
X10078Y33867D1*
X10186Y33937D1*
X10093Y33995D1*
X10004Y34082D1*
X9936Y34186D1*
X9893Y34303D1*
X9877Y34427D1*
X9889Y34551D1*
X9927Y34670D1*
X9992Y34777D1*
X10078Y34867D1*
X10186Y34937D1*
X10983Y33313D2*
X10942Y33195D1*
X10876Y33089D1*
X10824Y33037D1*
X12068D1*
X12385Y33352D1*
X12377Y33427D1*
X12389Y33551D1*
X12427Y33670D1*
X12492Y33777D1*
X12578Y33867D1*
X12686Y33937D1*
X12593Y33995D1*
X12489Y34105D1*
X11187Y34107D1*
X10886D1*
X10788Y34001D1*
X10687Y33936D1*
X10773Y33885D1*
X10864Y33800D1*
X10933Y33697D1*
X10979Y33580D1*
X10997Y33437D1*
X10983Y33313D1*
X10472Y23098D2*
X10497Y22957D1*
X10488Y22856D1*
X10582Y22759D1*
X11904Y22757D1*
X11877Y22927D1*
X11889Y23051D1*
X11904Y23099D1*
X10473Y23097D1*
X13483Y29313D2*
X13467Y29265D1*
X13984Y29267D1*
X14078Y29367D1*
X14186Y29437D1*
X14093Y29495D1*
X13989Y29605D1*
X13472Y29607D1*
X13497Y29437D1*
X13483Y29313D1*
X9016Y21552D2*
X9078Y21617D1*
X9182Y21686D1*
X9299Y21730D1*
X9422Y21747D1*
X9546Y21736D1*
X9665Y21699D1*
X9773Y21635D1*
X9864Y21550D1*
X9933Y21447D1*
X9979Y21330D1*
X9997Y21187D1*
X9983Y21063D1*
X9942Y20945D1*
X9876Y20839D1*
X9788Y20751D1*
X9689Y20685D1*
X9773Y20635D1*
X9864Y20550D1*
X9933Y20447D1*
X9979Y20330D1*
X9997Y20187D1*
X9983Y20063D1*
X9942Y19945D1*
X9876Y19839D1*
X9788Y19751D1*
X9689Y19685D1*
X9773Y19635D1*
X9864Y19550D1*
X9933Y19447D1*
X9979Y19330D1*
X9997Y19187D1*
X9983Y19063D1*
X9942Y18945D1*
X9876Y18839D1*
X9788Y18751D1*
X9683Y18684D1*
X9566Y18642D1*
X9442Y18627D1*
X9318Y18640D1*
X9200Y18680D1*
X9093Y18745D1*
X9004Y18832D1*
X8936Y18936D1*
X8893Y19053D1*
X8877Y19177D1*
X8889Y19301D1*
X8927Y19420D1*
X8992Y19527D1*
X9078Y19617D1*
X9186Y19687D1*
X9093Y19745D1*
X9004Y19832D1*
X8936Y19936D1*
X8893Y20053D1*
X8877Y20177D1*
X8886Y20274D1*
X8454Y20704D1*
X8384Y20807D1*
X8357Y20937D1*
Y23167D1*
X8381Y23289D1*
X8454Y23401D1*
X8714Y23660D1*
X8816Y23730D1*
X8947Y23757D1*
X9410Y23756D1*
X9393Y23803D1*
X9377Y23927D1*
X9389Y24051D1*
X9427Y24170D1*
X9492Y24277D1*
X9578Y24367D1*
X9682Y24436D1*
X9799Y24480D1*
X9922Y24497D1*
X10046Y24486D1*
X10165Y24449D1*
X10273Y24385D1*
X10364Y24300D1*
X10388Y24264D1*
X10644Y24267D1*
X10026Y24882D1*
X9942Y24877D1*
X9818Y24890D1*
X9700Y24930D1*
X9593Y24995D1*
X9504Y25082D1*
X9436Y25186D1*
X9393Y25303D1*
X9377Y25427D1*
X9389Y25551D1*
X9427Y25670D1*
X9492Y25777D1*
X9578Y25867D1*
X9686Y25937D1*
X9593Y25995D1*
X9504Y26082D1*
X9436Y26186D1*
X9393Y26303D1*
X9377Y26427D1*
X9389Y26551D1*
X9427Y26670D1*
X9492Y26777D1*
X9578Y26867D1*
X9682Y26936D1*
X9799Y26980D1*
X9922Y26997D1*
X10046Y26986D1*
X10165Y26949D1*
X10273Y26885D1*
X10364Y26800D1*
X10433Y26697D1*
X10479Y26580D1*
X10497Y26437D1*
X10483Y26313D1*
X10442Y26195D1*
X10376Y26089D1*
X10288Y26001D1*
X10187Y25936D1*
X10273Y25885D1*
X10364Y25800D1*
X10433Y25697D1*
X10479Y25580D1*
X10497Y25437D1*
X10488Y25356D1*
X11085Y24756D1*
X13904Y24757D1*
X13877Y24927D1*
X13889Y25051D1*
X13907Y25107D1*
X12890D1*
X12788Y25001D1*
X12683Y24934D1*
X12566Y24892D1*
X12442Y24877D1*
X12318Y24890D1*
X12200Y24930D1*
X12093Y24995D1*
X12004Y25082D1*
X11936Y25186D1*
X11893Y25303D1*
X11877Y25427D1*
X11889Y25551D1*
X11927Y25670D1*
X11992Y25777D1*
X12078Y25867D1*
X12186Y25937D1*
X12093Y25995D1*
X12004Y26082D1*
X11936Y26186D1*
X11893Y26303D1*
X11877Y26427D1*
X11889Y26551D1*
X11927Y26670D1*
X11992Y26777D1*
X12078Y26867D1*
X12182Y26936D1*
X12299Y26980D1*
X12422Y26997D1*
X12546Y26986D1*
X12665Y26949D1*
X12773Y26885D1*
X12864Y26800D1*
X12933Y26697D1*
X12979Y26580D1*
X12997Y26437D1*
X12983Y26313D1*
X12942Y26195D1*
X12876Y26089D1*
X12788Y26001D1*
X12687Y25936D1*
X12773Y25885D1*
X12864Y25800D1*
X12888Y25764D1*
X13902Y25767D1*
X13877Y25927D1*
X13889Y26051D1*
X13927Y26170D1*
X13992Y26277D1*
X14078Y26367D1*
X14186Y26437D1*
X14093Y26495D1*
X14004Y26582D1*
X13936Y26686D1*
X13893Y26803D1*
X13877Y26927D1*
X13889Y27051D1*
X13927Y27170D1*
X13992Y27277D1*
X14078Y27367D1*
X14186Y27437D1*
X14093Y27495D1*
X14004Y27582D1*
X13936Y27686D1*
X13893Y27803D1*
X13877Y27927D1*
X13889Y28051D1*
X13907Y28107D1*
X10890D1*
X10788Y28001D1*
X10683Y27934D1*
X10566Y27892D1*
X10442Y27877D1*
X10318Y27890D1*
X10200Y27930D1*
X10093Y27995D1*
X10004Y28082D1*
X9936Y28186D1*
X9893Y28303D1*
X9877Y28427D1*
X9882Y28478D1*
X9800Y28439D1*
X9555Y28194D1*
X9452Y28124D1*
X9322Y28097D1*
X8614Y28092D1*
X8513Y28018D1*
X8397Y27974D1*
X8272Y27963D1*
X8150Y27985D1*
X8037Y28038D1*
X7970Y28097D1*
X7476D1*
X7497Y27937D1*
X7483Y27813D1*
X7442Y27695D1*
X7376Y27589D1*
X7288Y27501D1*
X7187Y27436D1*
X7273Y27385D1*
X7364Y27300D1*
X7433Y27197D1*
X7479Y27080D1*
X7497Y26937D1*
X7483Y26813D1*
X7442Y26695D1*
X7376Y26589D1*
X7288Y26501D1*
X7187Y26436D1*
X7273Y26385D1*
X7364Y26300D1*
X7433Y26197D1*
X7479Y26080D1*
X7497Y25937D1*
X7483Y25813D1*
X7442Y25695D1*
X7376Y25589D1*
X7288Y25501D1*
X7187Y25436D1*
X7273Y25385D1*
X7364Y25300D1*
X7433Y25197D1*
X7479Y25080D1*
X7497Y24937D1*
X7483Y24813D1*
X7442Y24695D1*
X7376Y24589D1*
X7288Y24501D1*
X7187Y24436D1*
X7273Y24385D1*
X7364Y24300D1*
X7433Y24197D1*
X7479Y24080D1*
X7497Y23937D1*
X7483Y23813D1*
X7442Y23695D1*
X7376Y23589D1*
X7288Y23501D1*
X7187Y23436D1*
X7273Y23385D1*
X7364Y23300D1*
X7433Y23197D1*
X7479Y23080D1*
X7497Y22937D1*
X7483Y22813D1*
X7442Y22695D1*
X7376Y22589D1*
X7288Y22501D1*
X7187Y22436D1*
X7273Y22385D1*
X7364Y22300D1*
X7433Y22197D1*
X7479Y22080D1*
X7497Y21937D1*
X7483Y21813D1*
X7442Y21695D1*
X7376Y21589D1*
X7288Y21501D1*
X7187Y21436D1*
X7273Y21385D1*
X7364Y21300D1*
X7433Y21197D1*
X7479Y21080D1*
X7497Y20937D1*
X7483Y20813D1*
X7442Y20695D1*
X7376Y20589D1*
X7288Y20501D1*
X7187Y20436D1*
X7273Y20385D1*
X7364Y20300D1*
X7433Y20197D1*
X7479Y20080D1*
X7497Y19937D1*
X7483Y19813D1*
X7442Y19695D1*
X7376Y19589D1*
X7288Y19501D1*
X7187Y19436D1*
X7273Y19385D1*
X7364Y19300D1*
X7433Y19197D1*
X7479Y19080D1*
X7497Y18937D1*
X7483Y18813D1*
X7442Y18695D1*
X7376Y18589D1*
X7288Y18501D1*
X7187Y18436D1*
X7273Y18385D1*
X7364Y18300D1*
X7433Y18197D1*
X7479Y18080D1*
X7497Y17937D1*
X7483Y17813D1*
X7442Y17695D1*
X7376Y17589D1*
X7288Y17501D1*
X7187Y17436D1*
X7273Y17385D1*
X7364Y17300D1*
X7433Y17197D1*
X7479Y17080D1*
X7497Y16937D1*
X7483Y16813D1*
X7442Y16695D1*
X7376Y16589D1*
X7288Y16501D1*
X7187Y16436D1*
X7273Y16385D1*
X7364Y16300D1*
X7433Y16197D1*
X7479Y16080D1*
X7497Y15937D1*
X7483Y15813D1*
X7442Y15695D1*
X7376Y15589D1*
X7288Y15501D1*
X7183Y15434D1*
X7066Y15392D1*
X6942Y15377D1*
X6818Y15390D1*
X6700Y15430D1*
X6593Y15495D1*
X6504Y15582D1*
X6438Y15683D1*
X6376Y15589D1*
X6288Y15501D1*
X6183Y15434D1*
X6066Y15392D1*
X5942Y15377D1*
X5818Y15390D1*
X5700Y15430D1*
X5593Y15495D1*
X5504Y15582D1*
X5436Y15686D1*
X5393Y15803D1*
X5377Y15927D1*
X5389Y16051D1*
X5427Y16170D1*
X5492Y16277D1*
X5578Y16367D1*
X5686Y16437D1*
X5593Y16495D1*
X5504Y16582D1*
X5436Y16686D1*
X5393Y16803D1*
X5377Y16927D1*
X5389Y17051D1*
X5427Y17170D1*
X5492Y17277D1*
X5578Y17367D1*
X5686Y17437D1*
X5593Y17495D1*
X5504Y17582D1*
X5436Y17686D1*
X5393Y17803D1*
X5377Y17927D1*
X5389Y18051D1*
X5427Y18170D1*
X5492Y18277D1*
X5578Y18367D1*
X5686Y18437D1*
X5593Y18495D1*
X5504Y18582D1*
X5436Y18686D1*
X5393Y18803D1*
X5377Y18927D1*
X5389Y19051D1*
X5427Y19170D1*
X5492Y19277D1*
X5578Y19367D1*
X5686Y19437D1*
X5593Y19495D1*
X5504Y19582D1*
X5436Y19686D1*
X5393Y19803D1*
X5377Y19927D1*
X5389Y20051D1*
X5427Y20170D1*
X5492Y20277D1*
X5578Y20367D1*
X5686Y20437D1*
X5593Y20495D1*
X5504Y20582D1*
X5436Y20686D1*
X5393Y20803D1*
X5377Y20927D1*
X5389Y21051D1*
X5427Y21170D1*
X5492Y21277D1*
X5578Y21367D1*
X5686Y21437D1*
X5593Y21495D1*
X5504Y21582D1*
X5436Y21686D1*
X5393Y21803D1*
X5377Y21927D1*
X5389Y22051D1*
X5427Y22170D1*
X5492Y22277D1*
X5578Y22367D1*
X5686Y22437D1*
X5593Y22495D1*
X5504Y22582D1*
X5436Y22686D1*
X5393Y22803D1*
X5377Y22927D1*
X5389Y23051D1*
X5427Y23170D1*
X5492Y23277D1*
X5578Y23367D1*
X5686Y23437D1*
X5593Y23495D1*
X5504Y23582D1*
X5436Y23686D1*
X5393Y23803D1*
X5377Y23927D1*
X5389Y24051D1*
X5427Y24170D1*
X5492Y24277D1*
X5578Y24367D1*
X5686Y24437D1*
X5593Y24495D1*
X5504Y24582D1*
X5436Y24686D1*
X5393Y24803D1*
X5377Y24927D1*
X5389Y25051D1*
X5427Y25170D1*
X5492Y25277D1*
X5578Y25367D1*
X5686Y25437D1*
X5593Y25495D1*
X5504Y25582D1*
X5436Y25686D1*
X5393Y25803D1*
X5377Y25927D1*
X5389Y26051D1*
X5427Y26170D1*
X5492Y26277D1*
X5578Y26367D1*
X5686Y26437D1*
X5593Y26495D1*
X5504Y26582D1*
X5436Y26686D1*
X5393Y26803D1*
X5377Y26927D1*
X5386Y27024D1*
X4954Y27454D1*
X4884Y27557D1*
X4857Y27687D1*
Y31167D1*
X4881Y31289D1*
X4954Y31401D1*
X5214Y31660D1*
X5320Y31731D1*
X5296Y31720D1*
X5393Y31803D1*
X5377Y31927D1*
X5389Y32051D1*
X5427Y32170D1*
X5492Y32277D1*
X5578Y32367D1*
X5686Y32437D1*
X5593Y32495D1*
X5504Y32582D1*
X5436Y32686D1*
X5393Y32803D1*
X5377Y32927D1*
X5389Y33051D1*
X5427Y33170D1*
X5492Y33277D1*
X5578Y33367D1*
X5686Y33437D1*
X5593Y33495D1*
X5504Y33582D1*
X5436Y33686D1*
X5393Y33803D1*
X5377Y33927D1*
X5389Y34051D1*
X5427Y34170D1*
X5492Y34277D1*
X5578Y34367D1*
X5686Y34437D1*
X5593Y34495D1*
X5504Y34582D1*
X5436Y34686D1*
X5393Y34803D1*
X5377Y34927D1*
X5389Y35051D1*
X5427Y35170D1*
X5492Y35277D1*
X5578Y35367D1*
X5686Y35437D1*
X5593Y35495D1*
X5504Y35582D1*
X5436Y35686D1*
X5393Y35803D1*
X5377Y35927D1*
X5389Y36051D1*
X5427Y36170D1*
X5492Y36277D1*
X5578Y36367D1*
X5686Y36437D1*
X5593Y36495D1*
X5504Y36582D1*
X5436Y36686D1*
X5393Y36803D1*
X5377Y36927D1*
X5389Y37051D1*
X5427Y37170D1*
X5492Y37277D1*
X5578Y37367D1*
X5686Y37437D1*
X5593Y37495D1*
X5504Y37582D1*
X5436Y37686D1*
X5393Y37803D1*
X5377Y37927D1*
X5389Y38051D1*
X5427Y38170D1*
X5492Y38277D1*
X5578Y38367D1*
X5682Y38436D1*
X5799Y38480D1*
X5922Y38497D1*
X6046Y38486D1*
X6165Y38449D1*
X6273Y38385D1*
X6364Y38300D1*
X6438Y38186D1*
X6492Y38277D1*
X6578Y38367D1*
X6682Y38436D1*
X6799Y38480D1*
X6922Y38497D1*
X7046Y38486D1*
X7165Y38449D1*
X7273Y38385D1*
X7364Y38300D1*
X7433Y38197D1*
X7479Y38080D1*
X7497Y37937D1*
X7483Y37813D1*
X7442Y37695D1*
X7376Y37589D1*
X7288Y37501D1*
X7187Y37436D1*
X7273Y37385D1*
X7364Y37300D1*
X7433Y37197D1*
X7479Y37080D1*
X7497Y36937D1*
X7483Y36813D1*
X7442Y36695D1*
X7376Y36589D1*
X7288Y36501D1*
X7187Y36436D1*
X7273Y36385D1*
X7364Y36300D1*
X7433Y36197D1*
X7479Y36080D1*
X7496Y35961D1*
X7952Y36418D1*
X8058Y36489D1*
X8127Y36539D1*
Y36706D1*
X9247D1*
Y35764D1*
X9986Y35767D1*
X10078Y35867D1*
X10186Y35937D1*
X10093Y35995D1*
X10004Y36082D1*
X9936Y36186D1*
X9893Y36303D1*
X9877Y36427D1*
X9889Y36551D1*
X9927Y36670D1*
X9992Y36777D1*
X10078Y36867D1*
X10182Y36936D1*
X10299Y36980D1*
X10422Y36997D1*
X10546Y36986D1*
X10665Y36949D1*
X10773Y36885D1*
X10864Y36800D1*
X10933Y36697D1*
X10979Y36580D1*
X10997Y36437D1*
X10983Y36313D1*
X10942Y36195D1*
X10876Y36089D1*
X10788Y36001D1*
X10687Y35936D1*
X10773Y35885D1*
X10864Y35800D1*
X10933Y35697D1*
X10979Y35580D1*
X10997Y35437D1*
X10983Y35313D1*
X10942Y35195D1*
X10876Y35089D1*
X10788Y35001D1*
X10687Y34936D1*
X10773Y34885D1*
X10864Y34800D1*
X10888Y34764D1*
X12187Y34767D1*
X12488D1*
X12578Y34867D1*
X12686Y34937D1*
X12593Y34995D1*
X12504Y35082D1*
X12436Y35186D1*
X12393Y35303D1*
X12377Y35427D1*
X12389Y35551D1*
X12427Y35670D1*
X12492Y35777D1*
X12578Y35867D1*
X12686Y35937D1*
X12593Y35995D1*
X12504Y36082D1*
X12436Y36186D1*
X12393Y36303D1*
X12377Y36427D1*
X12389Y36551D1*
X12427Y36670D1*
X12492Y36777D1*
X12578Y36867D1*
X12682Y36936D1*
X12799Y36980D1*
X12922Y36997D1*
X13046Y36986D1*
X13165Y36949D1*
X13273Y36885D1*
X13364Y36800D1*
X13433Y36697D1*
X13479Y36580D1*
X13497Y36437D1*
X13483Y36313D1*
X13442Y36195D1*
X13376Y36089D1*
X13288Y36001D1*
X13187Y35936D1*
X13273Y35885D1*
X13364Y35800D1*
X13433Y35697D1*
X13479Y35580D1*
X13497Y35437D1*
X13488Y35356D1*
X13660Y35180D1*
X13730Y35077D1*
X13757Y34947D1*
Y32707D1*
X13734Y32585D1*
X13660Y32473D1*
X13401Y32214D1*
X13298Y32144D1*
X13167Y32117D1*
X10320D1*
X9428Y31221D1*
X9464Y31198D1*
X9551Y31108D1*
X9611Y30999D1*
X9642Y30832D1*
X9625Y30708D1*
X9576Y30594D1*
X9506Y30505D1*
X9507Y29976D1*
X9886Y30353D1*
X9877Y30427D1*
X9889Y30551D1*
X9927Y30670D1*
X9992Y30777D1*
X10078Y30867D1*
X10186Y30937D1*
X10093Y30995D1*
X10004Y31082D1*
X9936Y31186D1*
X9893Y31303D1*
X9877Y31427D1*
X9889Y31551D1*
X9927Y31670D1*
X9992Y31777D1*
X10078Y31867D1*
X10182Y31936D1*
X10299Y31980D1*
X10422Y31997D1*
X10546Y31986D1*
X10665Y31949D1*
X10773Y31885D1*
X10864Y31800D1*
X10933Y31697D1*
X10979Y31580D1*
X10997Y31437D1*
X10983Y31313D1*
X10942Y31195D1*
X10876Y31089D1*
X10788Y31001D1*
X10687Y30936D1*
X10773Y30885D1*
X10864Y30800D1*
X10933Y30697D1*
X10979Y30580D1*
X10997Y30437D1*
X10988Y30356D1*
X11076Y30264D1*
X12402Y30267D1*
X12377Y30427D1*
X12389Y30551D1*
X12427Y30670D1*
X12492Y30777D1*
X12578Y30867D1*
X12686Y30937D1*
X12593Y30995D1*
X12504Y31082D1*
X12436Y31186D1*
X12393Y31303D1*
X12377Y31427D1*
X12389Y31551D1*
X12427Y31670D1*
X12492Y31777D1*
X12578Y31867D1*
X12682Y31936D1*
X12799Y31980D1*
X12922Y31997D1*
X13046Y31986D1*
X13165Y31949D1*
X13273Y31885D1*
X13364Y31800D1*
X13433Y31697D1*
X13479Y31580D1*
X13497Y31437D1*
X13483Y31313D1*
X13442Y31195D1*
X13376Y31089D1*
X13288Y31001D1*
X13187Y30936D1*
X13273Y30885D1*
X13364Y30800D1*
X13388Y30764D1*
X13902Y30767D1*
X13877Y30927D1*
X13889Y31051D1*
X13927Y31170D1*
X13992Y31277D1*
X14078Y31367D1*
X14186Y31437D1*
X14093Y31495D1*
X14004Y31582D1*
X13936Y31686D1*
X13893Y31803D1*
X13877Y31927D1*
X13889Y32051D1*
X13927Y32170D1*
X13992Y32277D1*
X14078Y32367D1*
X14186Y32437D1*
X14093Y32495D1*
X14004Y32582D1*
X13936Y32686D1*
X13893Y32803D1*
X13877Y32927D1*
X13889Y33051D1*
X13927Y33170D1*
X13992Y33277D1*
X14078Y33367D1*
X14186Y33437D1*
X14093Y33495D1*
X14004Y33582D1*
X13936Y33686D1*
X13893Y33803D1*
X13877Y33927D1*
X13889Y34051D1*
X13927Y34170D1*
X13992Y34277D1*
X14078Y34367D1*
X14186Y34437D1*
X14093Y34495D1*
X14004Y34582D1*
X13936Y34686D1*
X13893Y34803D1*
X13877Y34927D1*
X13889Y35051D1*
X13927Y35170D1*
X13992Y35277D1*
X14078Y35367D1*
X14186Y35437D1*
X14093Y35495D1*
X14004Y35582D1*
X13936Y35686D1*
X13893Y35803D1*
X13877Y35927D1*
X13889Y36051D1*
X13927Y36170D1*
X13992Y36277D1*
X14078Y36367D1*
X14186Y36437D1*
X14093Y36495D1*
X14004Y36582D1*
X13936Y36686D1*
X13893Y36803D1*
X13877Y36927D1*
X13889Y37051D1*
X13927Y37170D1*
X13992Y37277D1*
X14078Y37367D1*
X14186Y37437D1*
X14093Y37495D1*
X13989Y37605D1*
X13386Y37607D1*
X13288Y37501D1*
X13183Y37434D1*
X13066Y37392D1*
X12942Y37377D1*
X12818Y37390D1*
X12700Y37430D1*
X12593Y37495D1*
X12504Y37582D1*
X12438Y37683D1*
X12376Y37589D1*
X12288Y37501D1*
X12183Y37434D1*
X12066Y37392D1*
X11942Y37377D1*
X11818Y37390D1*
X11700Y37430D1*
X11593Y37495D1*
X11504Y37582D1*
X11436Y37686D1*
X11393Y37803D1*
X11377Y37927D1*
X11389Y38051D1*
X11427Y38170D1*
X11492Y38277D1*
X11578Y38367D1*
X11682Y38436D1*
X11799Y38480D1*
X11922Y38497D1*
X12046Y38486D1*
X12165Y38449D1*
X12273Y38385D1*
X12364Y38300D1*
X12438Y38186D1*
X12492Y38277D1*
X12578Y38367D1*
X12682Y38436D1*
X12799Y38480D1*
X12922Y38497D1*
X13046Y38486D1*
X13165Y38449D1*
X13273Y38385D1*
X13364Y38300D1*
X13388Y38264D1*
X13988Y38267D1*
X14078Y38367D1*
X14182Y38436D1*
X14299Y38480D1*
X14422Y38497D1*
X14546Y38486D1*
X14665Y38449D1*
X14773Y38385D1*
X14864Y38300D1*
X14933Y38197D1*
X14979Y38080D1*
X14997Y37937D1*
X14983Y37813D1*
X14942Y37695D1*
X14876Y37589D1*
X14788Y37501D1*
X14687Y37436D1*
X14773Y37385D1*
X14864Y37300D1*
X14933Y37197D1*
X14979Y37080D1*
X14997Y36937D1*
X14983Y36813D1*
X14942Y36695D1*
X14876Y36589D1*
X14788Y36501D1*
X14687Y36436D1*
X14773Y36385D1*
X14864Y36300D1*
X14933Y36197D1*
X14979Y36080D1*
X14997Y35937D1*
X14983Y35813D1*
X14942Y35695D1*
X14876Y35589D1*
X14788Y35501D1*
X14687Y35436D1*
X14773Y35385D1*
X14864Y35300D1*
X14933Y35197D1*
X14979Y35080D1*
X14997Y34937D1*
X14983Y34813D1*
X14942Y34695D1*
X14876Y34589D1*
X14788Y34501D1*
X14687Y34436D1*
X14773Y34385D1*
X14864Y34300D1*
X14933Y34197D1*
X14979Y34080D1*
X14997Y33937D1*
X14983Y33813D1*
X14942Y33695D1*
X14876Y33589D1*
X14788Y33501D1*
X14687Y33436D1*
X14773Y33385D1*
X14864Y33300D1*
X14933Y33197D1*
X14979Y33080D1*
X14997Y32937D1*
X14983Y32813D1*
X14942Y32695D1*
X14876Y32589D1*
X14788Y32501D1*
X14687Y32436D1*
X14773Y32385D1*
X14864Y32300D1*
X14933Y32197D1*
X14979Y32080D1*
X14997Y31937D1*
X14983Y31813D1*
X14942Y31695D1*
X14876Y31589D1*
X14788Y31501D1*
X14687Y31436D1*
X14773Y31385D1*
X14864Y31300D1*
X14941Y31178D1*
X21934Y38170D1*
X22037Y38240D1*
X22167Y38267D1*
X22984D1*
X23078Y38367D1*
X23182Y38436D1*
X23299Y38480D1*
X23422Y38497D1*
X23546Y38486D1*
X23665Y38449D1*
X23773Y38385D1*
X23864Y38300D1*
X23933Y38197D1*
X23979Y38080D1*
X23997Y37937D1*
X23983Y37813D1*
X23942Y37695D1*
X23876Y37589D1*
X23788Y37501D1*
X23687Y37436D1*
X23773Y37385D1*
X23864Y37300D1*
X23933Y37197D1*
X23979Y37080D1*
X23997Y36937D1*
X23983Y36813D1*
X23942Y36695D1*
X23876Y36589D1*
X23788Y36501D1*
X23687Y36436D1*
X23773Y36385D1*
X23864Y36300D1*
X23933Y36197D1*
X23979Y36080D1*
X23997Y35937D1*
X23983Y35813D1*
X23942Y35695D1*
X23876Y35589D1*
X23788Y35501D1*
X23687Y35436D1*
X23773Y35385D1*
X23864Y35300D1*
X23933Y35197D1*
X23979Y35080D1*
X23997Y34937D1*
X23983Y34813D1*
X23942Y34695D1*
X23876Y34589D1*
X23788Y34501D1*
X23687Y34436D1*
X23773Y34385D1*
X23864Y34300D1*
X23933Y34197D1*
X23979Y34080D1*
X23997Y33937D1*
X23983Y33813D1*
X23942Y33695D1*
X23876Y33589D1*
X23788Y33501D1*
X23687Y33436D1*
X23773Y33385D1*
X23864Y33300D1*
X23933Y33197D1*
X23979Y33080D1*
X23997Y32937D1*
X23983Y32813D1*
X23942Y32695D1*
X23876Y32589D1*
X23788Y32501D1*
X23687Y32436D1*
X23773Y32385D1*
X23864Y32300D1*
X23933Y32197D1*
X23979Y32080D1*
X23997Y31937D1*
X23983Y31813D1*
X23942Y31695D1*
X23876Y31589D1*
X23788Y31501D1*
X23687Y31436D1*
X23773Y31385D1*
X23864Y31300D1*
X23933Y31197D1*
X23979Y31080D1*
X23997Y30937D1*
X23983Y30813D1*
X23942Y30695D1*
X23876Y30589D1*
X23788Y30501D1*
X23687Y30436D1*
X23773Y30385D1*
X23864Y30300D1*
X23933Y30197D1*
X23979Y30080D1*
X23997Y29937D1*
X23983Y29813D1*
X23942Y29695D1*
X23876Y29589D1*
X23788Y29501D1*
X23687Y29436D1*
X23773Y29385D1*
X23864Y29300D1*
X23933Y29197D1*
X23979Y29080D1*
X23997Y28937D1*
X23983Y28813D1*
X23942Y28695D1*
X23876Y28589D1*
X23788Y28501D1*
X23687Y28436D1*
X23773Y28385D1*
X23864Y28300D1*
X23933Y28197D1*
X23979Y28080D1*
X23997Y27937D1*
X23983Y27813D1*
X23942Y27695D1*
X23876Y27589D1*
X23788Y27501D1*
X23687Y27436D1*
X23773Y27385D1*
X23864Y27300D1*
X23933Y27197D1*
X23979Y27080D1*
X23997Y26937D1*
X23983Y26813D1*
X23942Y26695D1*
X23876Y26589D1*
X23788Y26501D1*
X23687Y26436D1*
X23773Y26385D1*
X23864Y26300D1*
X23933Y26197D1*
X23979Y26080D1*
X23997Y25937D1*
X23983Y25813D1*
X23942Y25695D1*
X23916Y25652D1*
X24160Y25410D1*
X24230Y25308D1*
X24257Y25177D1*
Y23427D1*
X24234Y23305D1*
X24160Y23194D1*
X23992Y23025D1*
X23997Y22937D1*
X23983Y22813D1*
X23942Y22695D1*
X23911Y22646D1*
X24160Y22401D1*
X24230Y22298D1*
X24257Y22167D1*
Y21427D1*
X24234Y21305D1*
X24160Y21194D1*
X23992Y21025D1*
X23997Y20937D1*
X23983Y20813D1*
X23942Y20695D1*
X23876Y20589D1*
X23788Y20501D1*
X23687Y20436D1*
X23773Y20385D1*
X23864Y20300D1*
X23933Y20197D1*
X23979Y20080D1*
X23997Y19937D1*
X23983Y19813D1*
X23942Y19695D1*
X23876Y19589D1*
X23788Y19501D1*
X23687Y19436D1*
X23773Y19385D1*
X23864Y19300D1*
X23933Y19197D1*
X23979Y19080D1*
X23997Y18937D1*
X23983Y18813D1*
X23942Y18695D1*
X23876Y18589D1*
X23788Y18501D1*
X23683Y18434D1*
X23566Y18392D1*
X23442Y18377D1*
X23318Y18390D1*
X23200Y18430D1*
X23093Y18495D1*
X23004Y18582D1*
X22936Y18686D1*
X22893Y18803D1*
X22877Y18927D1*
X22889Y19051D1*
X22927Y19170D1*
X22992Y19277D1*
X23078Y19367D1*
X23186Y19437D1*
X23093Y19495D1*
X23004Y19582D1*
X22936Y19686D1*
X22893Y19803D1*
X22877Y19927D1*
X22889Y20051D1*
X22927Y20170D1*
X22992Y20277D1*
X23078Y20367D1*
X23186Y20437D1*
X23093Y20495D1*
X23004Y20582D1*
X22936Y20686D1*
X22893Y20803D1*
X22877Y20927D1*
X22889Y21051D1*
X22927Y21170D1*
X22992Y21277D1*
X23078Y21367D1*
X23186Y21437D1*
X23093Y21495D1*
X22989Y21605D1*
X21687Y21607D1*
X20533D1*
X20411Y21631D1*
X20300Y21704D1*
X19905Y22099D1*
X14977Y22097D1*
X14997Y21937D1*
X14983Y21813D1*
X14942Y21695D1*
X14876Y21589D1*
X14788Y21501D1*
X14687Y21436D1*
X14773Y21385D1*
X14864Y21300D1*
X14933Y21197D1*
X14979Y21080D1*
X14997Y20937D1*
X14983Y20813D1*
X14942Y20695D1*
X14876Y20589D1*
X14788Y20501D1*
X14687Y20436D1*
X14773Y20385D1*
X14864Y20300D1*
X14933Y20197D1*
X14979Y20080D1*
X14997Y19937D1*
X14983Y19813D1*
X14942Y19695D1*
X14876Y19589D1*
X14788Y19501D1*
X14687Y19436D1*
X14773Y19385D1*
X14864Y19300D1*
X14933Y19197D1*
X14979Y19080D1*
X14997Y18937D1*
X14983Y18813D1*
X14942Y18695D1*
X14876Y18589D1*
X14788Y18501D1*
X14683Y18434D1*
X14566Y18392D1*
X14442Y18377D1*
X14318Y18390D1*
X14200Y18430D1*
X14150Y18460D1*
X14152Y17437D1*
X14129Y17315D1*
X14055Y17204D1*
X13795Y16944D1*
X13693Y16874D1*
X13562Y16847D1*
X13472D1*
X13497Y16687D1*
X13483Y16563D1*
X13442Y16445D1*
X13376Y16339D1*
X13288Y16251D1*
X13187Y16186D1*
X13273Y16135D1*
X13364Y16050D1*
X13433Y15947D1*
X13479Y15830D1*
X13497Y15687D1*
X13483Y15563D1*
X13442Y15445D1*
X13376Y15339D1*
X13288Y15251D1*
X13183Y15184D1*
X13066Y15142D1*
X12942Y15127D1*
X12818Y15140D1*
X12700Y15180D1*
X12593Y15245D1*
X12489Y15355D1*
X12066Y15357D1*
X11958Y15278D1*
X11841Y15234D1*
X11717Y15223D1*
X11594Y15244D1*
X11482Y15298D1*
X11414Y15357D1*
X9889D1*
X9788Y15251D1*
X9683Y15184D1*
X9566Y15142D1*
X9442Y15127D1*
X9318Y15140D1*
X9200Y15180D1*
X9093Y15245D1*
X9004Y15332D1*
X8936Y15436D1*
X8893Y15553D1*
X8877Y15677D1*
X8889Y15801D1*
X8927Y15920D1*
X8992Y16027D1*
X9078Y16117D1*
X9186Y16187D1*
X9093Y16245D1*
X9004Y16332D1*
X8936Y16436D1*
X8893Y16553D1*
X8877Y16677D1*
X8889Y16801D1*
X8927Y16920D1*
X8992Y17027D1*
X9078Y17117D1*
X9186Y17187D1*
X9093Y17245D1*
X9004Y17332D1*
X8936Y17436D1*
X8893Y17553D1*
X8877Y17677D1*
X8889Y17801D1*
X8927Y17920D1*
X8992Y18027D1*
X9078Y18117D1*
X9182Y18186D1*
X9299Y18230D1*
X9422Y18247D1*
X9546Y18236D1*
X9665Y18199D1*
X9773Y18135D1*
X9864Y18050D1*
X9888Y18014D1*
X11187Y18017D1*
X12488D1*
X12578Y18117D1*
X12682Y18186D1*
X12799Y18230D1*
X12922Y18247D1*
X13046Y18236D1*
X13165Y18199D1*
X13273Y18135D1*
X13364Y18050D1*
X13433Y17947D1*
X13479Y17830D1*
X13493Y17734D1*
X13492Y19113D1*
X13442Y18945D1*
X13376Y18839D1*
X13288Y18751D1*
X13183Y18684D1*
X13066Y18642D1*
X12942Y18627D1*
X12818Y18640D1*
X12700Y18680D1*
X12593Y18745D1*
X12504Y18832D1*
X12436Y18936D1*
X12393Y19053D1*
X12377Y19177D1*
X12389Y19301D1*
X12427Y19420D1*
X12492Y19527D1*
X12578Y19617D1*
X12686Y19687D1*
X12593Y19745D1*
X12504Y19832D1*
X12436Y19936D1*
X12393Y20053D1*
X12377Y20177D1*
X12389Y20301D1*
X12427Y20420D1*
X12492Y20527D1*
X12578Y20617D1*
X12686Y20687D1*
X12593Y20745D1*
X12504Y20832D1*
X12436Y20936D1*
X12393Y21053D1*
X12377Y21177D1*
X12389Y21301D1*
X12427Y21420D1*
X12492Y21527D1*
X12578Y21617D1*
X12682Y21686D1*
X12799Y21730D1*
X12922Y21747D1*
X13046Y21736D1*
X13165Y21699D1*
X13273Y21635D1*
X13370Y21540D1*
X13444Y21698D1*
X13530Y21789D1*
X13636Y21853D1*
X13756Y21887D1*
X13877Y21888D1*
X13889Y22051D1*
X13904Y22099D1*
X10793Y22097D1*
X10447D1*
X10325Y22121D1*
X10214Y22194D1*
X10023Y22384D1*
X9942Y22377D1*
X9818Y22390D1*
X9700Y22430D1*
X9593Y22495D1*
X9504Y22582D1*
X9436Y22686D1*
X9393Y22803D1*
X9377Y22927D1*
X9389Y23051D1*
X9404Y23099D1*
X9082Y23097D1*
X9017Y23031D1*
Y21554D1*
X13189Y19685D2*
X13273Y19635D1*
X13364Y19550D1*
X13433Y19447D1*
X13479Y19330D1*
X13493Y19234D1*
X13492Y20113D1*
X13442Y19945D1*
X13376Y19839D1*
X13288Y19751D1*
X13187Y19686D1*
X13189Y20685D2*
X13273Y20635D1*
X13364Y20550D1*
X13433Y20447D1*
X13479Y20330D1*
X13493Y20234D1*
X13492Y21097D1*
X13442Y20945D1*
X13376Y20839D1*
X13288Y20751D1*
X13187Y20686D1*
X9689Y16185D2*
X9773Y16135D1*
X9864Y16050D1*
X9888Y16014D1*
X11187Y16017D1*
X11410D1*
X11444Y16049D1*
X11551Y16113D1*
X11671Y16147D1*
X11796Y16148D1*
X11916Y16116D1*
X12023Y16053D1*
X12059Y16017D1*
X12483D1*
X12578Y16117D1*
X12686Y16187D1*
X12593Y16245D1*
X12504Y16332D1*
X12436Y16436D1*
X12393Y16553D1*
X12377Y16677D1*
X12389Y16801D1*
X12404Y16849D1*
X10066Y16847D1*
X9997Y16707D1*
X9983Y16563D1*
X9942Y16445D1*
X9876Y16339D1*
X9788Y16251D1*
X9687Y16186D1*
X6683Y37440D2*
X6593Y37495D1*
X6504Y37582D1*
X6438Y37683D1*
X6376Y37589D1*
X6288Y37501D1*
X6187Y37436D1*
X6273Y37385D1*
X6364Y37300D1*
X6438Y37186D1*
X6492Y37277D1*
X6578Y37367D1*
X6686Y37437D1*
X6683Y36440D2*
X6593Y36495D1*
X6504Y36582D1*
X6438Y36683D1*
X6376Y36589D1*
X6288Y36501D1*
X6187Y36436D1*
X6273Y36385D1*
X6364Y36300D1*
X6438Y36186D1*
X6492Y36277D1*
X6578Y36367D1*
X6686Y36437D1*
X6683Y34440D2*
X6593Y34495D1*
X6504Y34582D1*
X6438Y34683D1*
X6376Y34589D1*
X6288Y34501D1*
X6187Y34436D1*
X6273Y34385D1*
X6364Y34300D1*
X6438Y34186D1*
X6492Y34277D1*
X6578Y34367D1*
X6686Y34437D1*
X6683Y33440D2*
X6593Y33495D1*
X6504Y33582D1*
X6438Y33683D1*
X6376Y33589D1*
X6288Y33501D1*
X6187Y33436D1*
X6273Y33385D1*
X6364Y33300D1*
X6438Y33186D1*
X6492Y33277D1*
X6578Y33367D1*
X6686Y33437D1*
X7483Y32813D2*
X7442Y32695D1*
X7376Y32589D1*
X7288Y32501D1*
X7187Y32436D1*
X7273Y32385D1*
X7364Y32300D1*
X7433Y32197D1*
X7479Y32080D1*
X7496Y31961D1*
X7952Y32418D1*
X8058Y32489D1*
X8127Y32539D1*
Y32706D1*
X8482D1*
X8384Y32836D1*
X8395Y32815D1*
X8247Y32916D1*
X8127D1*
Y33662D1*
X7891Y33424D1*
X7875Y33304D1*
X7826Y33189D1*
X7749Y33092D1*
X7648Y33018D1*
X7532Y32974D1*
X7497Y32971D1*
X7483Y32813D1*
X6683Y32440D2*
X6593Y32495D1*
X6504Y32582D1*
X6438Y32683D1*
X6376Y32589D1*
X6288Y32501D1*
X6187Y32436D1*
X6273Y32385D1*
X6364Y32300D1*
X6438Y32186D1*
X6492Y32277D1*
X6578Y32367D1*
X6686Y32437D1*
X7483Y30813D2*
X7442Y30695D1*
X7376Y30589D1*
X7288Y30501D1*
X7187Y30436D1*
X7273Y30385D1*
X7364Y30300D1*
X7405Y30239D1*
X7589Y30418D1*
X7692Y30488D1*
X7822Y30515D1*
X8131D1*
X8127Y30706D1*
X8732D1*
X8720Y30747D1*
X8714Y30871D1*
X8723Y30913D1*
X8127Y30916D1*
Y31662D1*
X7660Y31194D1*
X7554Y31123D1*
X7479Y31080D1*
X7497Y30937D1*
X7483Y30813D1*
X6683Y30440D2*
X6593Y30495D1*
X6504Y30582D1*
X6438Y30683D1*
X6376Y30589D1*
X6288Y30501D1*
X6187Y30436D1*
X6273Y30385D1*
X6364Y30300D1*
X6438Y30186D1*
X6492Y30277D1*
X6578Y30367D1*
X6686Y30437D1*
X6683Y29440D2*
X6593Y29495D1*
X6504Y29582D1*
X6438Y29683D1*
X6376Y29589D1*
X6288Y29501D1*
X6187Y29436D1*
X6273Y29385D1*
X6364Y29300D1*
X6438Y29186D1*
X6492Y29277D1*
X6578Y29367D1*
X6686Y29437D1*
X6683Y27440D2*
X6593Y27495D1*
X6504Y27582D1*
X6438Y27683D1*
X6376Y27589D1*
X6288Y27501D1*
X6187Y27436D1*
X6273Y27385D1*
X6364Y27300D1*
X6438Y27186D1*
X6492Y27277D1*
X6578Y27367D1*
X6686Y27437D1*
X6683Y26440D2*
X6593Y26495D1*
X6504Y26582D1*
X6438Y26683D1*
X6376Y26589D1*
X6288Y26501D1*
X6187Y26436D1*
X6273Y26385D1*
X6364Y26300D1*
X6438Y26186D1*
X6492Y26277D1*
X6578Y26367D1*
X6686Y26437D1*
X6683Y25440D2*
X6593Y25495D1*
X6504Y25582D1*
X6438Y25683D1*
X6376Y25589D1*
X6288Y25501D1*
X6187Y25436D1*
X6273Y25385D1*
X6364Y25300D1*
X6438Y25186D1*
X6492Y25277D1*
X6578Y25367D1*
X6686Y25437D1*
X6683Y24440D2*
X6593Y24495D1*
X6504Y24582D1*
X6438Y24683D1*
X6376Y24589D1*
X6288Y24501D1*
X6187Y24436D1*
X6273Y24385D1*
X6364Y24300D1*
X6438Y24186D1*
X6492Y24277D1*
X6578Y24367D1*
X6686Y24437D1*
X6683Y23440D2*
X6593Y23495D1*
X6504Y23582D1*
X6438Y23683D1*
X6376Y23589D1*
X6288Y23501D1*
X6187Y23436D1*
X6273Y23385D1*
X6364Y23300D1*
X6438Y23186D1*
X6492Y23277D1*
X6578Y23367D1*
X6686Y23437D1*
X6683Y22440D2*
X6593Y22495D1*
X6504Y22582D1*
X6438Y22683D1*
X6376Y22589D1*
X6288Y22501D1*
X6187Y22436D1*
X6273Y22385D1*
X6364Y22300D1*
X6438Y22186D1*
X6492Y22277D1*
X6578Y22367D1*
X6686Y22437D1*
X6683Y21440D2*
X6593Y21495D1*
X6504Y21582D1*
X6438Y21683D1*
X6376Y21589D1*
X6288Y21501D1*
X6187Y21436D1*
X6273Y21385D1*
X6364Y21300D1*
X6438Y21186D1*
X6492Y21277D1*
X6578Y21367D1*
X6686Y21437D1*
X6683Y20440D2*
X6593Y20495D1*
X6504Y20582D1*
X6438Y20683D1*
X6376Y20589D1*
X6288Y20501D1*
X6187Y20436D1*
X6273Y20385D1*
X6364Y20300D1*
X6438Y20186D1*
X6492Y20277D1*
X6578Y20367D1*
X6686Y20437D1*
X6683Y19440D2*
X6593Y19495D1*
X6504Y19582D1*
X6438Y19683D1*
X6376Y19589D1*
X6288Y19501D1*
X6187Y19436D1*
X6273Y19385D1*
X6364Y19300D1*
X6438Y19186D1*
X6492Y19277D1*
X6578Y19367D1*
X6686Y19437D1*
X6683Y18440D2*
X6593Y18495D1*
X6504Y18582D1*
X6438Y18683D1*
X6376Y18589D1*
X6288Y18501D1*
X6187Y18436D1*
X6273Y18385D1*
X6364Y18300D1*
X6438Y18186D1*
X6492Y18277D1*
X6578Y18367D1*
X6686Y18437D1*
X6683Y17440D2*
X6593Y17495D1*
X6504Y17582D1*
X6438Y17683D1*
X6376Y17589D1*
X6288Y17501D1*
X6187Y17436D1*
X6273Y17385D1*
X6364Y17300D1*
X6438Y17186D1*
X6492Y17277D1*
X6578Y17367D1*
X6686Y17437D1*
X6683Y16440D2*
X6593Y16495D1*
X6504Y16582D1*
X6438Y16683D1*
X6376Y16589D1*
X6288Y16501D1*
X6187Y16436D1*
X6273Y16385D1*
X6364Y16300D1*
X6438Y16186D1*
X6492Y16277D1*
X6578Y16367D1*
X6686Y16437D1*
X25436Y15685D2*
X25376Y15589D1*
X25288Y15501D1*
X25183Y15434D1*
X25066Y15392D1*
X24942Y15377D1*
X24818Y15390D1*
X24700Y15430D1*
X24593Y15495D1*
X24504Y15582D1*
X24436Y15686D1*
X24393Y15803D1*
X24377Y15927D1*
X24389Y16051D1*
X24427Y16170D1*
X24492Y16277D1*
X24578Y16367D1*
X24686Y16437D1*
X24593Y16495D1*
X24504Y16582D1*
X24436Y16686D1*
X24393Y16803D1*
X24377Y16927D1*
X24389Y17051D1*
X24427Y17170D1*
X24492Y17277D1*
X24578Y17367D1*
X24686Y17437D1*
X24593Y17495D1*
X24504Y17582D1*
X24436Y17686D1*
X24393Y17803D1*
X24377Y17927D1*
X24389Y18051D1*
X24427Y18170D1*
X24492Y18277D1*
X24578Y18367D1*
X24686Y18437D1*
X24593Y18495D1*
X24504Y18582D1*
X24436Y18686D1*
X24393Y18803D1*
X24377Y18927D1*
X24389Y19051D1*
X24427Y19170D1*
X24492Y19277D1*
X24578Y19367D1*
X24686Y19437D1*
X24593Y19495D1*
X24504Y19582D1*
X24436Y19686D1*
X24393Y19803D1*
X24377Y19927D1*
X24389Y20051D1*
X24427Y20170D1*
X24492Y20277D1*
X24578Y20367D1*
X24686Y20437D1*
X24593Y20495D1*
X24504Y20582D1*
X24436Y20686D1*
X24393Y20803D1*
X24377Y20927D1*
X24389Y21051D1*
X24427Y21170D1*
X24492Y21277D1*
X24578Y21367D1*
X24686Y21437D1*
X24593Y21495D1*
X24504Y21582D1*
X24436Y21686D1*
X24393Y21803D1*
X24377Y21927D1*
X24389Y22051D1*
X24427Y22170D1*
X24492Y22277D1*
X24578Y22367D1*
X24686Y22437D1*
X24593Y22495D1*
X24504Y22582D1*
X24436Y22686D1*
X24393Y22803D1*
X24377Y22927D1*
X24389Y23051D1*
X24427Y23170D1*
X24492Y23277D1*
X24578Y23367D1*
X24686Y23437D1*
X24593Y23495D1*
X24504Y23582D1*
X24436Y23686D1*
X24393Y23803D1*
X24377Y23927D1*
X24389Y24051D1*
X24427Y24170D1*
X24492Y24277D1*
X24578Y24367D1*
X24686Y24437D1*
X24593Y24495D1*
X24504Y24582D1*
X24436Y24686D1*
X24393Y24803D1*
X24377Y24927D1*
X24389Y25051D1*
X24427Y25170D1*
X24492Y25277D1*
X24578Y25367D1*
X24686Y25437D1*
X24593Y25495D1*
X24504Y25582D1*
X24436Y25686D1*
X24393Y25803D1*
X24377Y25927D1*
X24389Y26051D1*
X24427Y26170D1*
X24492Y26277D1*
X24578Y26367D1*
X24686Y26437D1*
X24593Y26495D1*
X24504Y26582D1*
X24436Y26686D1*
X24393Y26803D1*
X24377Y26927D1*
X24389Y27051D1*
X24427Y27170D1*
X24492Y27277D1*
X24578Y27367D1*
X24686Y27437D1*
X24593Y27495D1*
X24504Y27582D1*
X24436Y27686D1*
X24393Y27803D1*
X24377Y27927D1*
X24389Y28051D1*
X24427Y28170D1*
X24492Y28277D1*
X24578Y28367D1*
X24686Y28437D1*
X24593Y28495D1*
X24504Y28582D1*
X24436Y28686D1*
X24393Y28803D1*
X24377Y28927D1*
X24389Y29051D1*
X24427Y29170D1*
X24492Y29277D1*
X24578Y29367D1*
X24686Y29437D1*
X24593Y29495D1*
X24504Y29582D1*
X24436Y29686D1*
X24393Y29803D1*
X24377Y29927D1*
X24389Y30051D1*
X24427Y30170D1*
X24492Y30277D1*
X24578Y30367D1*
X24686Y30437D1*
X24593Y30495D1*
X24504Y30582D1*
X24436Y30686D1*
X24393Y30803D1*
X24377Y30927D1*
X24389Y31051D1*
X24427Y31170D1*
X24492Y31277D1*
X24578Y31367D1*
X24686Y31437D1*
X24593Y31495D1*
X24504Y31582D1*
X24436Y31686D1*
X24393Y31803D1*
X24377Y31927D1*
X24389Y32051D1*
X24427Y32170D1*
X24492Y32277D1*
X24578Y32367D1*
X24686Y32437D1*
X24593Y32495D1*
X24504Y32582D1*
X24436Y32686D1*
X24393Y32803D1*
X24377Y32927D1*
X24389Y33051D1*
X24427Y33170D1*
X24492Y33277D1*
X24578Y33367D1*
X24686Y33437D1*
X24593Y33495D1*
X24504Y33582D1*
X24436Y33686D1*
X24393Y33803D1*
X24377Y33927D1*
X24389Y34051D1*
X24427Y34170D1*
X24492Y34277D1*
X24578Y34367D1*
X24686Y34437D1*
X24593Y34495D1*
X24504Y34582D1*
X24436Y34686D1*
X24393Y34803D1*
X24377Y34927D1*
X24389Y35051D1*
X24427Y35170D1*
X24492Y35277D1*
X24578Y35367D1*
X24686Y35437D1*
X24593Y35495D1*
X24504Y35582D1*
X24436Y35686D1*
X24393Y35803D1*
X24377Y35927D1*
X24389Y36051D1*
X24427Y36170D1*
X24492Y36277D1*
X24578Y36367D1*
X24686Y36437D1*
X24593Y36495D1*
X24504Y36582D1*
X24436Y36686D1*
X24393Y36803D1*
X24377Y36927D1*
X24389Y37051D1*
X24427Y37170D1*
X24492Y37277D1*
X24578Y37367D1*
X24686Y37437D1*
X24593Y37495D1*
X24504Y37582D1*
X24436Y37686D1*
X24393Y37803D1*
X24377Y37927D1*
X24389Y38051D1*
X24427Y38170D1*
X24492Y38277D1*
X24578Y38367D1*
X24682Y38436D1*
X24799Y38480D1*
X24922Y38497D1*
X25046Y38486D1*
X25165Y38449D1*
X25273Y38385D1*
X25364Y38300D1*
X25438Y38186D1*
X25492Y38277D1*
X25578Y38367D1*
X25682Y38436D1*
X25799Y38480D1*
X25922Y38497D1*
X26046Y38486D1*
X26165Y38449D1*
X26273Y38385D1*
X26364Y38300D1*
X26433Y38197D1*
X26479Y38080D1*
X26497Y37937D1*
X26483Y37813D1*
X26442Y37695D1*
X26376Y37589D1*
X26288Y37501D1*
X26187Y37436D1*
X26273Y37385D1*
X26364Y37300D1*
X26433Y37197D1*
X26479Y37080D1*
X26497Y36937D1*
X26483Y36813D1*
X26442Y36695D1*
X26376Y36589D1*
X26288Y36501D1*
X26187Y36436D1*
X26273Y36385D1*
X26364Y36300D1*
X26433Y36197D1*
X26479Y36080D1*
X26497Y35937D1*
X26483Y35813D1*
X26442Y35695D1*
X26376Y35589D1*
X26288Y35501D1*
X26187Y35436D1*
X26273Y35385D1*
X26364Y35300D1*
X26433Y35197D1*
X26479Y35080D1*
X26497Y34937D1*
X26483Y34813D1*
X26442Y34695D1*
X26376Y34589D1*
X26288Y34501D1*
X26187Y34436D1*
X26273Y34385D1*
X26364Y34300D1*
X26433Y34197D1*
X26479Y34080D1*
X26497Y33937D1*
X26483Y33813D1*
X26442Y33695D1*
X26376Y33589D1*
X26288Y33501D1*
X26187Y33436D1*
X26273Y33385D1*
X26364Y33300D1*
X26433Y33197D1*
X26479Y33080D1*
X26497Y32937D1*
X26483Y32813D1*
X26442Y32695D1*
X26376Y32589D1*
X26288Y32501D1*
X26187Y32436D1*
X26273Y32385D1*
X26364Y32300D1*
X26433Y32197D1*
X26479Y32080D1*
X26497Y31937D1*
X26483Y31813D1*
X26442Y31695D1*
X26376Y31589D1*
X26288Y31501D1*
X26187Y31436D1*
X26273Y31385D1*
X26364Y31300D1*
X26433Y31197D1*
X26479Y31080D1*
X26497Y30937D1*
X26483Y30813D1*
X26442Y30695D1*
X26376Y30589D1*
X26288Y30501D1*
X26187Y30436D1*
X26273Y30385D1*
X26364Y30300D1*
X26433Y30197D1*
X26479Y30080D1*
X26497Y29937D1*
X26483Y29813D1*
X26442Y29695D1*
X26376Y29589D1*
X26288Y29501D1*
X26187Y29436D1*
X26273Y29385D1*
X26364Y29300D1*
X26433Y29197D1*
X26479Y29080D1*
X26497Y28937D1*
X26483Y28813D1*
X26442Y28695D1*
X26376Y28589D1*
X26288Y28501D1*
X26187Y28436D1*
X26273Y28385D1*
X26364Y28300D1*
X26433Y28197D1*
X26479Y28080D1*
X26497Y27937D1*
X26483Y27813D1*
X26442Y27695D1*
X26376Y27589D1*
X26288Y27501D1*
X26187Y27436D1*
X26273Y27385D1*
X26364Y27300D1*
X26433Y27197D1*
X26479Y27080D1*
X26497Y26937D1*
X26483Y26813D1*
X26442Y26695D1*
X26376Y26589D1*
X26288Y26501D1*
X26187Y26436D1*
X26273Y26385D1*
X26364Y26300D1*
X26433Y26197D1*
X26479Y26080D1*
X26497Y25937D1*
X26483Y25813D1*
X26442Y25695D1*
X26376Y25589D1*
X26288Y25501D1*
X26187Y25436D1*
X26273Y25385D1*
X26364Y25300D1*
X26433Y25197D1*
X26479Y25080D1*
X26497Y24937D1*
X26483Y24813D1*
X26442Y24695D1*
X26376Y24589D1*
X26288Y24501D1*
X26187Y24436D1*
X26273Y24385D1*
X26364Y24300D1*
X26433Y24197D1*
X26479Y24080D1*
X26497Y23937D1*
X26483Y23813D1*
X26442Y23695D1*
X26376Y23589D1*
X26288Y23501D1*
X26187Y23436D1*
X26273Y23385D1*
X26364Y23300D1*
X26433Y23197D1*
X26479Y23080D1*
X26497Y22937D1*
X26483Y22813D1*
X26442Y22695D1*
X26376Y22589D1*
X26288Y22501D1*
X26187Y22436D1*
X26273Y22385D1*
X26364Y22300D1*
X26433Y22197D1*
X26479Y22080D1*
X26497Y21937D1*
X26483Y21813D1*
X26442Y21695D1*
X26376Y21589D1*
X26288Y21501D1*
X26187Y21436D1*
X26273Y21385D1*
X26364Y21300D1*
X26433Y21197D1*
X26479Y21080D1*
X26497Y20937D1*
X26483Y20813D1*
X26442Y20695D1*
X26376Y20589D1*
X26288Y20501D1*
X26187Y20436D1*
X26273Y20385D1*
X26364Y20300D1*
X26433Y20197D1*
X26479Y20080D1*
X26497Y19937D1*
X26483Y19813D1*
X26442Y19695D1*
X26376Y19589D1*
X26288Y19501D1*
X26187Y19436D1*
X26273Y19385D1*
X26364Y19300D1*
X26433Y19197D1*
X26479Y19080D1*
X26497Y18937D1*
X26483Y18813D1*
X26442Y18695D1*
X26376Y18589D1*
X26288Y18501D1*
X26187Y18436D1*
X26273Y18385D1*
X26364Y18300D1*
X26433Y18197D1*
X26479Y18080D1*
X26497Y17937D1*
X26483Y17813D1*
X26442Y17695D1*
X26376Y17589D1*
X26288Y17501D1*
X26187Y17436D1*
X26273Y17385D1*
X26364Y17300D1*
X26433Y17197D1*
X26479Y17080D1*
X26497Y16937D1*
X26483Y16813D1*
X26442Y16695D1*
X26376Y16589D1*
X26288Y16501D1*
X26187Y16436D1*
X26273Y16385D1*
X26364Y16300D1*
X26433Y16197D1*
X26479Y16080D1*
X26497Y15937D1*
X26483Y15813D1*
X26442Y15695D1*
X26376Y15589D1*
X26288Y15501D1*
X26183Y15434D1*
X26066Y15392D1*
X25942Y15377D1*
X25818Y15390D1*
X25700Y15430D1*
X25593Y15495D1*
X25504Y15582D1*
X25438Y15683D1*
X25189Y16435D2*
X25273Y16385D1*
X25364Y16300D1*
X25438Y16186D1*
X25492Y16277D1*
X25578Y16367D1*
X25686Y16437D1*
X25593Y16495D1*
X25504Y16582D1*
X25438Y16683D1*
X25376Y16589D1*
X25288Y16501D1*
X25187Y16436D1*
X25189Y17435D2*
X25273Y17385D1*
X25364Y17300D1*
X25438Y17186D1*
X25492Y17277D1*
X25578Y17367D1*
X25686Y17437D1*
X25593Y17495D1*
X25504Y17582D1*
X25438Y17683D1*
X25376Y17589D1*
X25288Y17501D1*
X25187Y17436D1*
X25189Y18435D2*
X25273Y18385D1*
X25364Y18300D1*
X25438Y18186D1*
X25492Y18277D1*
X25578Y18367D1*
X25686Y18437D1*
X25593Y18495D1*
X25504Y18582D1*
X25438Y18683D1*
X25376Y18589D1*
X25288Y18501D1*
X25187Y18436D1*
X25189Y19435D2*
X25273Y19385D1*
X25364Y19300D1*
X25438Y19186D1*
X25492Y19277D1*
X25578Y19367D1*
X25686Y19437D1*
X25593Y19495D1*
X25504Y19582D1*
X25438Y19683D1*
X25376Y19589D1*
X25288Y19501D1*
X25187Y19436D1*
X25189Y20435D2*
X25273Y20385D1*
X25364Y20300D1*
X25438Y20186D1*
X25492Y20277D1*
X25578Y20367D1*
X25686Y20437D1*
X25593Y20495D1*
X25504Y20582D1*
X25438Y20683D1*
X25376Y20589D1*
X25288Y20501D1*
X25187Y20436D1*
X25189Y21435D2*
X25273Y21385D1*
X25364Y21300D1*
X25438Y21186D1*
X25492Y21277D1*
X25578Y21367D1*
X25686Y21437D1*
X25593Y21495D1*
X25504Y21582D1*
X25438Y21683D1*
X25376Y21589D1*
X25288Y21501D1*
X25187Y21436D1*
X25189Y22435D2*
X25273Y22385D1*
X25364Y22300D1*
X25438Y22186D1*
X25492Y22277D1*
X25578Y22367D1*
X25686Y22437D1*
X25593Y22495D1*
X25504Y22582D1*
X25438Y22683D1*
X25376Y22589D1*
X25288Y22501D1*
X25187Y22436D1*
X25189Y23435D2*
X25273Y23385D1*
X25364Y23300D1*
X25438Y23186D1*
X25492Y23277D1*
X25578Y23367D1*
X25686Y23437D1*
X25593Y23495D1*
X25504Y23582D1*
X25438Y23683D1*
X25376Y23589D1*
X25288Y23501D1*
X25187Y23436D1*
X25189Y24435D2*
X25273Y24385D1*
X25364Y24300D1*
X25438Y24186D1*
X25492Y24277D1*
X25578Y24367D1*
X25686Y24437D1*
X25593Y24495D1*
X25504Y24582D1*
X25438Y24683D1*
X25376Y24589D1*
X25288Y24501D1*
X25187Y24436D1*
X25189Y25435D2*
X25273Y25385D1*
X25364Y25300D1*
X25438Y25186D1*
X25492Y25277D1*
X25578Y25367D1*
X25686Y25437D1*
X25593Y25495D1*
X25504Y25582D1*
X25438Y25683D1*
X25376Y25589D1*
X25288Y25501D1*
X25187Y25436D1*
X25189Y26435D2*
X25273Y26385D1*
X25364Y26300D1*
X25438Y26186D1*
X25492Y26277D1*
X25578Y26367D1*
X25686Y26437D1*
X25593Y26495D1*
X25504Y26582D1*
X25438Y26683D1*
X25376Y26589D1*
X25288Y26501D1*
X25187Y26436D1*
X25189Y27435D2*
X25273Y27385D1*
X25364Y27300D1*
X25438Y27186D1*
X25492Y27277D1*
X25578Y27367D1*
X25686Y27437D1*
X25593Y27495D1*
X25504Y27582D1*
X25438Y27683D1*
X25376Y27589D1*
X25288Y27501D1*
X25187Y27436D1*
X25189Y28435D2*
X25273Y28385D1*
X25364Y28300D1*
X25438Y28186D1*
X25492Y28277D1*
X25578Y28367D1*
X25686Y28437D1*
X25593Y28495D1*
X25504Y28582D1*
X25438Y28683D1*
X25376Y28589D1*
X25288Y28501D1*
X25187Y28436D1*
X25189Y29435D2*
X25273Y29385D1*
X25364Y29300D1*
X25438Y29186D1*
X25492Y29277D1*
X25578Y29367D1*
X25686Y29437D1*
X25593Y29495D1*
X25504Y29582D1*
X25438Y29683D1*
X25376Y29589D1*
X25288Y29501D1*
X25187Y29436D1*
X25189Y30435D2*
X25273Y30385D1*
X25364Y30300D1*
X25438Y30186D1*
X25492Y30277D1*
X25578Y30367D1*
X25686Y30437D1*
X25593Y30495D1*
X25504Y30582D1*
X25438Y30683D1*
X25376Y30589D1*
X25288Y30501D1*
X25187Y30436D1*
X25189Y31435D2*
X25273Y31385D1*
X25364Y31300D1*
X25438Y31186D1*
X25492Y31277D1*
X25578Y31367D1*
X25686Y31437D1*
X25593Y31495D1*
X25504Y31582D1*
X25438Y31683D1*
X25376Y31589D1*
X25288Y31501D1*
X25187Y31436D1*
X25189Y32435D2*
X25273Y32385D1*
X25364Y32300D1*
X25438Y32186D1*
X25492Y32277D1*
X25578Y32367D1*
X25686Y32437D1*
X25593Y32495D1*
X25504Y32582D1*
X25438Y32683D1*
X25376Y32589D1*
X25288Y32501D1*
X25187Y32436D1*
X25189Y33435D2*
X25273Y33385D1*
X25364Y33300D1*
X25438Y33186D1*
X25492Y33277D1*
X25578Y33367D1*
X25686Y33437D1*
X25593Y33495D1*
X25504Y33582D1*
X25438Y33683D1*
X25376Y33589D1*
X25288Y33501D1*
X25187Y33436D1*
X25189Y34435D2*
X25273Y34385D1*
X25364Y34300D1*
X25438Y34186D1*
X25492Y34277D1*
X25578Y34367D1*
X25686Y34437D1*
X25593Y34495D1*
X25504Y34582D1*
X25438Y34683D1*
X25376Y34589D1*
X25288Y34501D1*
X25187Y34436D1*
X25189Y35435D2*
X25273Y35385D1*
X25364Y35300D1*
X25438Y35186D1*
X25492Y35277D1*
X25578Y35367D1*
X25686Y35437D1*
X25593Y35495D1*
X25504Y35582D1*
X25438Y35683D1*
X25376Y35589D1*
X25288Y35501D1*
X25187Y35436D1*
X25189Y36435D2*
X25273Y36385D1*
X25364Y36300D1*
X25438Y36186D1*
X25492Y36277D1*
X25578Y36367D1*
X25686Y36437D1*
X25593Y36495D1*
X25504Y36582D1*
X25438Y36683D1*
X25376Y36589D1*
X25288Y36501D1*
X25187Y36436D1*
X25189Y37435D2*
X25273Y37385D1*
X25364Y37300D1*
X25438Y37186D1*
X25492Y37277D1*
X25578Y37367D1*
X25686Y37437D1*
X25593Y37495D1*
X25504Y37582D1*
X25438Y37683D1*
X25376Y37589D1*
X25288Y37501D1*
X25187Y37436D1*
X8127Y29264D2*
Y29858D1*
X7957Y29855D1*
X7936Y29704D1*
X7996Y29595D1*
X8027Y29427D1*
X8010Y29304D1*
X7994Y29264D1*
X8128Y29267D1*
X9247Y32374D2*
Y31975D1*
X9648Y32375D1*
X9250Y32377D1*
X12752Y11653D2*
X12748Y11457D1*
X12752Y11367D1*
X13292D1*
X13160Y11449D1*
X12953Y11656D1*
X12748Y11657D1*
X12752Y11442D1*
X15507Y10384D2*
Y11353D1*
X14436Y11352D1*
X14566Y11273D1*
X15452Y10389D1*
X15467Y16898D2*
X18532D1*
Y13338D1*
X15442D1*
Y16898D1*
X15467D1*
X22104Y10122D2*
X21907Y10126D1*
X21818Y10122D1*
X21817Y10012D1*
X21793Y9890D1*
X21726Y9785D1*
X21626Y9713D1*
X21487Y9682D1*
X20337D1*
X20215Y9705D1*
X20103Y9779D1*
X20079Y9803D1*
X19947Y9709D1*
X19817Y9682D1*
X16987D1*
X16865Y9705D1*
X16760Y9772D1*
X16688Y9873D1*
X16657Y10012D1*
X16653Y10122D1*
X16496D1*
X16502Y10057D1*
X16485Y9934D1*
X16436Y9819D1*
X16358Y9721D1*
X16258Y9648D1*
X16141Y9604D1*
X16017Y9593D1*
X15894Y9615D1*
X15782Y9668D1*
X15714Y9727D1*
X15317D1*
X15195Y9751D1*
X15084Y9824D1*
X14203Y10705D1*
X12755Y10707D1*
X12752Y10567D1*
Y10507D1*
X11122D1*
Y10612D1*
X11032Y10584D1*
X10907Y10572D1*
X10785Y10594D1*
X10672Y10648D1*
X10578Y10730D1*
X10509Y10833D1*
X10470Y10952D1*
X10464Y11076D1*
X10475Y11126D1*
X9236Y9884D1*
X9133Y9814D1*
X9002Y9787D1*
X6633Y9782D1*
X6533Y9708D1*
X6416Y9664D1*
X6292Y9653D1*
X6169Y9675D1*
X6057Y9728D1*
X5963Y9810D1*
X5894Y9914D1*
X5855Y10032D1*
X5848Y10157D1*
X5875Y10278D1*
X5934Y10388D1*
X5985Y10442D1*
X5976D1*
Y13532D1*
X9536D1*
Y11117D1*
X10639Y12220D1*
X10742Y12290D1*
X10872Y12317D1*
X11122Y12320D1*
X11126Y12517D1*
X11122Y12407D1*
Y13467D1*
X12752D1*
Y13268D1*
X13457Y13267D1*
X13489Y13299D1*
X13595Y13363D1*
X13715Y13397D1*
X13840Y13398D1*
X13960Y13366D1*
X14068Y13303D1*
X14154Y13214D1*
X14214Y13104D1*
X14246Y12937D1*
X14229Y12814D1*
X14180Y12699D1*
X14102Y12601D1*
X14002Y12528D1*
X13885Y12484D1*
X13761Y12473D1*
X13638Y12494D1*
X13526Y12548D1*
X13458Y12607D1*
X12753D1*
X12748Y12407D1*
X12752Y12318D1*
X13088Y12317D1*
X13210Y12293D1*
X13321Y12220D1*
X13500Y12044D1*
X13606Y12108D1*
X13726Y12142D1*
X13851Y12143D1*
X13971Y12111D1*
X14079Y12048D1*
X14114Y12011D1*
X16987Y12012D1*
X17109Y11988D1*
X17214Y11921D1*
X17287Y11817D1*
X17332Y11752D1*
X17517Y11748D1*
X17606Y11752D1*
X17607Y12269D1*
X17519Y12393D1*
X17480Y12511D1*
X17474Y12636D1*
X17501Y12757D1*
X17559Y12868D1*
X17645Y12958D1*
X17751Y13023D1*
X17871Y13057D1*
X17996Y13058D1*
X18116Y13025D1*
X18224Y12962D1*
X18311Y12873D1*
X18371Y12764D1*
X18402Y12596D1*
X18385Y12473D1*
X18336Y12358D1*
X18266Y12270D1*
X18267Y11749D1*
X18467Y11752D1*
Y10342D1*
X19678D1*
X19747Y10408D1*
Y12796D1*
X19770Y12918D1*
X19844Y13029D1*
X20107Y13291D1*
X20167Y13338D1*
X19942D1*
Y16898D1*
X23032D1*
Y14957D1*
X23067Y14978D1*
X23185Y15015D1*
X25472Y15017D1*
X25925D1*
X26047Y14993D1*
X26158Y14920D1*
X26418Y14660D1*
X26489Y14554D1*
X26504Y14497D1*
X26706D1*
Y13377D1*
X26514D1*
X26515Y12996D1*
X26706Y12997D1*
Y11877D1*
X26514D1*
X26515Y10996D1*
X26706Y10997D1*
Y9877D1*
X26514D1*
X26515Y9496D1*
X26706Y9497D1*
Y8377D1*
X26514D1*
X26515Y7996D1*
X26706Y7997D1*
Y6877D1*
X26514D1*
X26515Y6496D1*
X26706Y6497D1*
Y5377D1*
X25664Y5381D1*
X25583Y5377D1*
X24916D1*
Y5607D1*
X15511D1*
X15408Y5528D1*
X15291Y5484D1*
X15167Y5473D1*
X15045Y5494D1*
X14932Y5548D1*
X14838Y5630D1*
X14769Y5734D1*
X14730Y5852D1*
X14724Y5976D1*
X14751Y6098D1*
X14809Y6208D1*
X14895Y6299D1*
X15001Y6363D1*
X15121Y6397D1*
X15246Y6398D1*
X15366Y6366D1*
X15474Y6303D1*
X15509Y6267D1*
X24917D1*
X24916Y6497D1*
X25858D1*
X25855Y6878D1*
X24916Y6877D1*
Y7986D1*
X24773Y8060D1*
X24695Y8157D1*
X24658Y8276D1*
X24656Y10437D1*
X24680Y10559D1*
X24750Y10666D1*
X24637Y10755D1*
X24568Y10859D1*
X24529Y10977D1*
Y11128D1*
X22967Y11127D1*
Y10122D1*
X22768D1*
X22767Y8822D1*
X22743Y8700D1*
X22670Y8589D1*
X22410Y8329D1*
X22308Y8259D1*
X22177Y8232D1*
X5892D1*
X5788Y8126D1*
X5687Y8061D1*
X5773Y8010D1*
X5864Y7925D1*
X5933Y7822D1*
X5979Y7705D1*
X5997Y7562D1*
X5983Y7438D1*
X5942Y7320D1*
X5876Y7214D1*
X5788Y7126D1*
X5687Y7061D1*
X5773Y7010D1*
X5864Y6925D1*
X5933Y6822D1*
X5979Y6705D1*
X5997Y6562D1*
X5983Y6438D1*
X5942Y6320D1*
X5876Y6214D1*
X5788Y6126D1*
X5687Y6061D1*
X5773Y6010D1*
X5864Y5925D1*
X5933Y5822D1*
X5979Y5705D1*
X5997Y5562D1*
X5983Y5438D1*
X5942Y5320D1*
X5876Y5214D1*
X5788Y5126D1*
X5683Y5059D1*
X5566Y5017D1*
X5442Y5002D1*
X5318Y5015D1*
X5200Y5055D1*
X5093Y5120D1*
X5004Y5207D1*
X4936Y5311D1*
X4893Y5428D1*
X4877Y5552D1*
X4889Y5676D1*
X4927Y5795D1*
X4992Y5902D1*
X5078Y5992D1*
X5186Y6062D1*
X5093Y6120D1*
X5004Y6207D1*
X4936Y6311D1*
X4893Y6428D1*
X4877Y6552D1*
X4889Y6676D1*
X4927Y6795D1*
X4992Y6902D1*
X5078Y6992D1*
X5186Y7062D1*
X5093Y7120D1*
X5004Y7207D1*
X4936Y7311D1*
X4893Y7428D1*
X4877Y7552D1*
X4889Y7676D1*
X4927Y7795D1*
X4992Y7902D1*
X5078Y7992D1*
X5186Y8062D1*
X5093Y8120D1*
X5004Y8207D1*
X4936Y8311D1*
X4893Y8428D1*
X4877Y8552D1*
X4889Y8676D1*
X4927Y8795D1*
X4992Y8902D1*
X5078Y8992D1*
X5182Y9061D1*
X5299Y9105D1*
X5422Y9122D1*
X5546Y9111D1*
X5665Y9074D1*
X5773Y9010D1*
X5864Y8925D1*
X5888Y8889D1*
X7187Y8892D1*
X22042D1*
X22107Y8959D1*
Y10123D1*
X14983Y27813D2*
X14942Y27695D1*
X14876Y27589D1*
X14788Y27501D1*
X14687Y27436D1*
X14773Y27385D1*
X14864Y27300D1*
X14933Y27197D1*
X14979Y27080D1*
X14997Y26937D1*
X14983Y26813D1*
X14942Y26695D1*
X14876Y26589D1*
X14788Y26501D1*
X14687Y26436D1*
X14773Y26385D1*
X14864Y26300D1*
X14933Y26197D1*
X14979Y26080D1*
X14997Y25937D1*
X14983Y25813D1*
X14967Y25765D1*
X21062Y25767D1*
X22902D1*
X22877Y25927D1*
X22889Y26051D1*
X22927Y26170D1*
X22992Y26277D1*
X23078Y26367D1*
X23186Y26437D1*
X23093Y26495D1*
X23004Y26582D1*
X22936Y26686D1*
X22893Y26803D1*
X22877Y26927D1*
X22889Y27051D1*
X22927Y27170D1*
X22992Y27277D1*
X23078Y27367D1*
X23186Y27437D1*
X23093Y27495D1*
X23004Y27582D1*
X22936Y27686D1*
X22893Y27803D1*
X22877Y27927D1*
X22889Y28051D1*
X22927Y28170D1*
X22992Y28277D1*
X23078Y28367D1*
X23186Y28437D1*
X23093Y28495D1*
X23004Y28582D1*
X22936Y28686D1*
X22893Y28803D1*
X22877Y28927D1*
X22889Y29051D1*
X22927Y29170D1*
X22992Y29277D1*
X23078Y29367D1*
X23186Y29437D1*
X23093Y29495D1*
X23004Y29582D1*
X22936Y29686D1*
X22893Y29803D1*
X22877Y29927D1*
X22889Y30051D1*
X22927Y30170D1*
X22992Y30277D1*
X23078Y30367D1*
X23186Y30437D1*
X23093Y30495D1*
X23004Y30582D1*
X22936Y30686D1*
X22893Y30803D1*
X22877Y30927D1*
X22889Y31051D1*
X22927Y31170D1*
X22992Y31277D1*
X23078Y31367D1*
X23186Y31437D1*
X23093Y31495D1*
X23004Y31582D1*
X22936Y31686D1*
X22893Y31803D1*
X22877Y31927D1*
X22889Y32051D1*
X22927Y32170D1*
X22992Y32277D1*
X23078Y32367D1*
X23186Y32437D1*
X23093Y32495D1*
X23004Y32582D1*
X22936Y32686D1*
X22893Y32803D1*
X22877Y32927D1*
X22889Y33051D1*
X22927Y33170D1*
X22992Y33277D1*
X23078Y33367D1*
X23186Y33437D1*
X23093Y33495D1*
X23004Y33582D1*
X22936Y33686D1*
X22893Y33803D1*
X22877Y33927D1*
X22889Y34051D1*
X22927Y34170D1*
X22992Y34277D1*
X23078Y34367D1*
X23186Y34437D1*
X23093Y34495D1*
X23004Y34582D1*
X22936Y34686D1*
X22893Y34803D1*
X22877Y34927D1*
X22889Y35051D1*
X22927Y35170D1*
X22992Y35277D1*
X23078Y35367D1*
X23186Y35437D1*
X23093Y35495D1*
X23004Y35582D1*
X22936Y35686D1*
X22893Y35803D1*
X22877Y35927D1*
X22889Y36051D1*
X22927Y36170D1*
X22992Y36277D1*
X23078Y36367D1*
X23186Y36437D1*
X23093Y36495D1*
X23004Y36582D1*
X22936Y36686D1*
X22893Y36803D1*
X22877Y36927D1*
X22889Y37051D1*
X22927Y37170D1*
X22992Y37277D1*
X23078Y37367D1*
X23186Y37437D1*
X23093Y37495D1*
X22989Y37605D1*
X22300Y37607D1*
X20986Y36290D1*
X15133Y30437D1*
X15230Y30308D1*
X15257Y30177D1*
Y28697D1*
X15234Y28575D1*
X15160Y28464D1*
X14919Y28222D1*
X14979Y28080D1*
X14997Y27937D1*
X14983Y27813D1*
Y24813D2*
X14964Y24758D1*
X22904Y24757D1*
X22877Y24927D1*
X22889Y25051D1*
X22907Y25107D1*
X14968D1*
X14997Y24957D1*
X14983Y24813D1*
Y23813D2*
X14964Y23758D1*
X22001Y23757D1*
X22123Y23734D1*
X22235Y23660D1*
X22884Y23011D1*
X22927Y23170D1*
X22992Y23277D1*
X23078Y23367D1*
X23186Y23437D1*
X23093Y23495D1*
X23004Y23582D1*
X22936Y23686D1*
X22893Y23803D1*
X22877Y23927D1*
X22886Y24024D1*
X22809Y24099D1*
X14974Y24097D1*
X14997Y23937D1*
X14983Y23813D1*
Y22813D2*
X14964Y22758D1*
X20043Y22757D1*
X20165Y22734D1*
X20276Y22660D1*
X20671Y22265D1*
X22694Y22267D1*
X21865Y23097D1*
X14974D1*
X14997Y22937D1*
X14983Y22813D1*
X13910Y22756D2*
X13893Y22803D1*
X13877Y22927D1*
X13889Y23051D1*
X13904Y23099D1*
X13568Y23097D1*
X13226Y22755D1*
X13904Y22757D1*
X24129Y12266D2*
X24175Y12218D1*
X24235Y12109D1*
X24266Y11942D1*
X24250Y11818D1*
X24236Y11786D1*
X25044Y11787D1*
X25110Y11877D1*
X24916D1*
Y12997D1*
X25858D1*
Y13377D1*
X25664Y13381D1*
X25833Y13377D1*
X24916D1*
Y13607D1*
X24199D1*
X24131Y13540D1*
Y12267D1*
X20407Y12659D2*
Y12245D1*
X20537Y12272D1*
X23472Y12274D1*
Y13677D1*
X23495Y13799D1*
X23568Y13910D1*
X23828Y14170D1*
X23931Y14240D1*
X24061Y14267D1*
X24917D1*
X24800Y14357D1*
X23359D1*
X23292Y14290D1*
Y13316D1*
X23268Y13194D1*
X23195Y13082D1*
X22935Y12823D1*
X22832Y12753D1*
X22702Y12726D1*
X20471D1*
X27937Y38562D2*
X4312D1*
Y4312D1*
X28062D1*
Y38562D1*
X27937D1*
X5976Y13531D2*
D13*
X7756Y11987D1*
X9535Y13531D2*
X5976Y10442D1*
X15442Y16898D2*
X18531Y13339D1*
Y16898D2*
X15442Y13339D1*
X19942Y16898D2*
X21487Y15118D1*
X23031Y16898D2*
X19942Y13339D1*
D15*
X8437Y37937D3*
X9437D3*
D16*
X25437Y13937D3*
X26185D3*
X25437Y12437D3*
X26185D3*
X25437Y10437D3*
X26185D3*
X25437Y8937D3*
X26185D3*
X25437Y7437D3*
X26185D3*
X25437Y5937D3*
X26185D3*
D17*
X10437Y35437D3*
Y36437D3*
X12937Y35437D3*
Y36437D3*
X10437Y33437D3*
Y34437D3*
X12937Y33437D3*
Y34437D3*
X9937Y25437D3*
Y26437D3*
X10437Y28437D3*
Y29437D3*
Y30437D3*
Y31437D3*
X12437Y25437D3*
Y26437D3*
X9937Y22937D3*
Y23937D3*
X12437Y22937D3*
Y23937D3*
X12937Y29437D3*
Y30437D3*
Y31437D3*
X11937Y37937D3*
X12937D3*
X5437Y8562D3*
Y7562D3*
Y6562D3*
Y5562D3*
X9437Y19187D3*
Y20187D3*
Y21187D3*
X12937Y19187D3*
Y20187D3*
Y21187D3*
X9437Y15687D3*
Y16687D3*
Y17687D3*
X12937Y15687D3*
Y16687D3*
Y17687D3*
X6937Y37937D3*
Y36937D3*
Y35937D3*
Y34937D3*
Y33937D3*
Y32937D3*
Y31937D3*
Y30937D3*
Y29937D3*
Y28937D3*
Y27937D3*
Y26937D3*
Y25937D3*
Y24937D3*
Y23937D3*
Y22937D3*
Y21937D3*
Y20937D3*
Y19937D3*
Y18937D3*
Y17937D3*
Y16937D3*
Y15937D3*
X24937D3*
Y16937D3*
Y17937D3*
Y18937D3*
Y19937D3*
Y20937D3*
Y21937D3*
Y22937D3*
Y23937D3*
Y24937D3*
Y25937D3*
Y26937D3*
Y27937D3*
Y28937D3*
Y29937D3*
Y30937D3*
Y31937D3*
Y32937D3*
Y33937D3*
Y34937D3*
Y35937D3*
Y36937D3*
Y37937D3*
X5937D3*
Y36937D3*
Y35937D3*
Y34937D3*
Y33937D3*
Y32937D3*
Y31937D3*
Y30937D3*
Y29937D3*
Y28937D3*
Y27937D3*
Y26937D3*
Y25937D3*
Y24937D3*
Y23937D3*
Y22937D3*
Y21937D3*
Y20937D3*
Y19937D3*
Y18937D3*
Y17937D3*
Y16937D3*
Y15937D3*
X25937Y37937D3*
Y36937D3*
Y35937D3*
Y34937D3*
Y33937D3*
Y32937D3*
Y31937D3*
Y30937D3*
Y29937D3*
Y28937D3*
Y27937D3*
Y26937D3*
Y25937D3*
Y24937D3*
Y23937D3*
Y22937D3*
Y21937D3*
Y20937D3*
Y19937D3*
Y18937D3*
Y17937D3*
Y16937D3*
Y15937D3*
D18*
X8687Y29437D3*
Y30185D3*
Y35437D3*
Y36185D3*
Y31437D3*
Y32185D3*
Y33437D3*
Y34185D3*
D19*
X11937Y12937D3*
Y11987D3*
Y11037D3*
D20*
X7756Y11987D3*
D21*
X17937Y10937D3*
X16987D3*
X16037D3*
D22*
X16987Y15118D3*
D21*
X22437Y10937D3*
X21487D3*
X20537D3*
D22*
X21487Y15118D3*
D17*
X14437Y37937D3*
Y36937D3*
Y35937D3*
Y34937D3*
Y33937D3*
Y32937D3*
Y31937D3*
Y30937D3*
Y29937D3*
Y28937D3*
Y27937D3*
Y26937D3*
Y25937D3*
Y24937D3*
Y23937D3*
Y22937D3*
Y21937D3*
Y20937D3*
Y19937D3*
Y18937D3*
X23437D3*
Y19937D3*
Y20937D3*
Y21937D3*
Y22937D3*
Y23937D3*
Y24937D3*
Y25937D3*
Y26937D3*
Y27937D3*
Y28937D3*
Y29937D3*
Y30937D3*
Y31937D3*
Y32937D3*
Y33937D3*
Y34937D3*
Y35937D3*
Y36937D3*
Y37937D3*
M02*
