G04 DipTrace 2.2.0.9*
%INTopPaste.gbr*%
%MOIN*%
%ADD23C,0.04*%
%ADD30R,0.2481X0.2951*%
%ADD32R,0.0451X0.1021*%
%ADD34R,0.2951X0.2481*%
%ADD36R,0.1021X0.0451*%
%ADD38R,0.0512X0.0433*%
%ADD42R,0.0433X0.0512*%
%FSLAX44Y44*%
%SFA1B1*%
%OFA0B0*%
G04*
G70*
G90*
G75*
G01*
%LNTopPaste*%
%LPD*%
D23*
X11737Y15687D3*
X7427Y33427D3*
X9177Y30832D3*
X7562Y29427D3*
X24986Y11062D3*
X10927Y11037D3*
X16037Y10057D3*
X23802Y11942D3*
X6312Y10117D3*
X13792Y11682D3*
X17937Y12596D3*
X25437Y9562D3*
X13781Y12937D3*
X15187Y5937D3*
X13822Y21427D3*
X9832Y28937D3*
X8292Y28427D3*
D42*
X25437Y13937D3*
X26185D3*
X25437Y12437D3*
X26185D3*
X25437Y10437D3*
X26185D3*
X25437Y8937D3*
X26185D3*
X25437Y7437D3*
X26185D3*
X25437Y5937D3*
X26185D3*
D38*
X8687Y29437D3*
Y30185D3*
Y35437D3*
Y36185D3*
Y31437D3*
Y32185D3*
Y33437D3*
Y34185D3*
D36*
X11937Y12937D3*
Y11987D3*
Y11037D3*
D34*
X7756Y11987D3*
D32*
X17937Y10937D3*
X16987D3*
X16037D3*
D30*
X16987Y15118D3*
D32*
X22437Y10937D3*
X21487D3*
X20537D3*
D30*
X21487Y15118D3*
M02*
