G04 DipTrace 2.2.0.9*
%INTopSilk.gbr*%
%MOIN*%
%ADD10C,0.0098*%
%ADD45C,0.0077*%
%ADD46C,0.0124*%
%FSLAX44Y44*%
%SFA1B1*%
%OFA0B0*%
G04*
G70*
G90*
G75*
G01*
%LNTopSilk*%
%LPD*%
X7937Y38437D2*
D10*
X9937D1*
Y37437D1*
X7937D1*
Y38437D1*
X25024Y13681D2*
Y14193D1*
Y12181D2*
Y12693D1*
Y10181D2*
Y10693D1*
Y8681D2*
Y9193D1*
Y7181D2*
Y7693D1*
Y5681D2*
Y6193D1*
X9937Y34937D2*
X10937D1*
Y36937D1*
X9937D1*
Y34937D1*
X12437D2*
X13437D1*
Y36937D1*
X12437D1*
Y34937D1*
X9937Y32937D2*
X10937D1*
Y34937D1*
X9937D1*
Y32937D1*
X12437D2*
X13437D1*
Y34937D1*
X12437D1*
Y32937D1*
X8943Y29023D2*
X8431D1*
X8943Y35023D2*
X8431D1*
X8943Y31023D2*
X8431D1*
X8943Y33023D2*
X8431D1*
X5303Y10018D2*
X13177D1*
Y13955D1*
X5303D1*
Y10018D1*
X15018Y17571D2*
X18955D1*
Y9697D1*
X15018D1*
Y17571D1*
X19518D2*
X23455D1*
Y9697D1*
X19518D1*
Y17571D1*
X13937Y38436D2*
X23937D1*
Y18437D1*
X13937D1*
Y38436D1*
X9437Y26937D2*
X10437D1*
Y24937D1*
X9437D1*
Y26937D1*
X9937Y31937D2*
X10937D1*
Y27937D1*
X9937D1*
Y31937D1*
X11937Y26937D2*
X12937D1*
Y24937D1*
X11937D1*
Y26937D1*
X9437Y24437D2*
X10437D1*
Y22437D1*
X9437D1*
Y24437D1*
X11937D2*
X12937D1*
Y22437D1*
X11937D1*
Y24437D1*
X12437Y31937D2*
X13437D1*
Y28937D1*
X12437D1*
Y31937D1*
X11437Y38437D2*
X13437D1*
Y37437D1*
X11437D1*
Y38437D1*
X4937Y9062D2*
X5937D1*
Y5062D1*
X4937D1*
Y9062D1*
X8937Y21687D2*
X9937D1*
Y18687D1*
X8937D1*
Y21687D1*
X12437D2*
X13437D1*
Y18687D1*
X12437D1*
Y21687D1*
X8937Y18187D2*
X9937D1*
Y15187D1*
X8937D1*
Y18187D1*
X12437D2*
X13437D1*
Y15187D1*
X12437D1*
Y18187D1*
X5437Y38438D2*
X7436D1*
Y15437D1*
X5437D1*
Y38438D1*
X24438D2*
X26437D1*
Y15437D1*
X24438D1*
Y38438D1*
X7534Y39169D2*
D45*
Y38667D1*
D2*
X7750D1*
D2*
X7822Y38691D1*
D2*
X7846Y38715D1*
D2*
X7869Y38762D1*
D2*
Y38834D1*
D2*
X7846Y38882D1*
D2*
X7822Y38906D1*
D2*
X7750Y38930D1*
D2*
X7822Y38954D1*
D2*
X7846Y38978D1*
D2*
X7869Y39026D1*
D2*
Y39074D1*
D2*
X7846Y39121D1*
D2*
X7822Y39145D1*
D2*
X7750Y39169D1*
D2*
X7534D1*
Y38930D2*
X7750D1*
X8024Y39169D2*
Y38667D1*
D2*
X8239D1*
D2*
X8311Y38691D1*
D2*
X8335Y38715D1*
D2*
X8359Y38762D1*
D2*
Y38834D1*
D2*
X8335Y38882D1*
D2*
X8311Y38906D1*
D2*
X8239Y38930D1*
D2*
X8311Y38954D1*
D2*
X8335Y38978D1*
D2*
X8359Y39026D1*
D2*
Y39074D1*
D2*
X8335Y39121D1*
D2*
X8311Y39145D1*
D2*
X8239Y39169D1*
D2*
X8024D1*
Y38930D2*
X8239D1*
X8513Y38584D2*
X8967D1*
X9122Y38906D2*
X9337D1*
D2*
X9409Y38930D1*
D2*
X9433Y38954D1*
D2*
X9457Y39002D1*
D2*
Y39074D1*
D2*
X9433Y39121D1*
D2*
X9409Y39145D1*
D2*
X9337Y39169D1*
D2*
X9122D1*
D2*
Y38667D1*
X9611Y39002D2*
X9707Y38667D1*
D2*
X9802Y39002D1*
D2*
X9898Y38667D1*
D2*
X9993Y39002D1*
X10148D2*
Y38667D1*
Y38858D2*
X10172Y38930D1*
D2*
X10220Y38978D1*
D2*
X10268Y39002D1*
D2*
X10340D1*
X25774Y14845D2*
X25751Y14893D1*
D2*
X25703Y14941D1*
D2*
X25655Y14965D1*
D2*
X25559D1*
D2*
X25511Y14941D1*
D2*
X25464Y14893D1*
D2*
X25439Y14845D1*
D2*
X25416Y14773D1*
D2*
Y14653D1*
D2*
X25439Y14582D1*
D2*
X25464Y14534D1*
D2*
X25511Y14486D1*
D2*
X25559Y14462D1*
D2*
X25655D1*
D2*
X25703Y14486D1*
D2*
X25751Y14534D1*
D2*
X25774Y14582D1*
X25929Y14868D2*
X25977Y14893D1*
D2*
X26049Y14964D1*
D2*
Y14462D1*
X25667Y13345D2*
X25643Y13393D1*
D2*
X25595Y13441D1*
D2*
X25548Y13465D1*
D2*
X25452D1*
D2*
X25404Y13441D1*
D2*
X25356Y13393D1*
D2*
X25332Y13345D1*
D2*
X25308Y13273D1*
D2*
Y13153D1*
D2*
X25332Y13082D1*
D2*
X25356Y13034D1*
D2*
X25404Y12986D1*
D2*
X25452Y12962D1*
D2*
X25548D1*
D2*
X25595Y12986D1*
D2*
X25643Y13034D1*
D2*
X25667Y13082D1*
X25846Y13345D2*
Y13368D1*
D2*
X25869Y13416D1*
D2*
X25893Y13440D1*
D2*
X25941Y13464D1*
D2*
X26037D1*
D2*
X26084Y13440D1*
D2*
X26108Y13416D1*
D2*
X26132Y13368D1*
D2*
Y13321D1*
D2*
X26108Y13273D1*
D2*
X26061Y13201D1*
D2*
X25821Y12962D1*
D2*
X26156D1*
X25667Y11345D2*
X25643Y11393D1*
D2*
X25595Y11441D1*
D2*
X25548Y11465D1*
D2*
X25452D1*
D2*
X25404Y11441D1*
D2*
X25356Y11393D1*
D2*
X25332Y11345D1*
D2*
X25308Y11273D1*
D2*
Y11153D1*
D2*
X25332Y11082D1*
D2*
X25356Y11034D1*
D2*
X25404Y10986D1*
D2*
X25452Y10962D1*
D2*
X25548D1*
D2*
X25595Y10986D1*
D2*
X25643Y11034D1*
D2*
X25667Y11082D1*
X25869Y11464D2*
X26132D1*
D2*
X25989Y11273D1*
D2*
X26061D1*
D2*
X26108Y11249D1*
D2*
X26132Y11225D1*
D2*
X26156Y11153D1*
D2*
Y11106D1*
D2*
X26132Y11034D1*
D2*
X26084Y10986D1*
D2*
X26013Y10962D1*
D2*
X25941D1*
D2*
X25869Y10986D1*
D2*
X25846Y11010D1*
D2*
X25821Y11058D1*
X25655Y9845D2*
X25631Y9893D1*
D2*
X25583Y9941D1*
D2*
X25536Y9965D1*
D2*
X25440D1*
D2*
X25392Y9941D1*
D2*
X25344Y9893D1*
D2*
X25320Y9845D1*
D2*
X25296Y9773D1*
D2*
Y9653D1*
D2*
X25320Y9582D1*
D2*
X25344Y9534D1*
D2*
X25392Y9486D1*
D2*
X25440Y9462D1*
D2*
X25536D1*
D2*
X25583Y9486D1*
D2*
X25631Y9534D1*
D2*
X25655Y9582D1*
X26049Y9462D2*
Y9964D1*
D2*
X25809Y9630D1*
D2*
X26168D1*
X25667Y8345D2*
X25643Y8393D1*
D2*
X25595Y8441D1*
D2*
X25548Y8465D1*
D2*
X25452D1*
D2*
X25404Y8441D1*
D2*
X25356Y8393D1*
D2*
X25332Y8345D1*
D2*
X25308Y8273D1*
D2*
Y8153D1*
D2*
X25332Y8082D1*
D2*
X25356Y8034D1*
D2*
X25404Y7986D1*
D2*
X25452Y7962D1*
D2*
X25548D1*
D2*
X25595Y7986D1*
D2*
X25643Y8034D1*
D2*
X25667Y8082D1*
X26108Y8464D2*
X25869D1*
D2*
X25846Y8249D1*
D2*
X25869Y8273D1*
D2*
X25941Y8297D1*
D2*
X26013D1*
D2*
X26084Y8273D1*
D2*
X26132Y8225D1*
D2*
X26156Y8153D1*
D2*
Y8106D1*
D2*
X26132Y8034D1*
D2*
X26084Y7986D1*
D2*
X26013Y7962D1*
D2*
X25941D1*
D2*
X25869Y7986D1*
D2*
X25846Y8010D1*
D2*
X25821Y8058D1*
X25679Y6845D2*
X25655Y6893D1*
D2*
X25607Y6941D1*
D2*
X25560Y6965D1*
D2*
X25464D1*
D2*
X25416Y6941D1*
D2*
X25368Y6893D1*
D2*
X25344Y6845D1*
D2*
X25320Y6773D1*
D2*
Y6653D1*
D2*
X25344Y6582D1*
D2*
X25368Y6534D1*
D2*
X25416Y6486D1*
D2*
X25464Y6462D1*
D2*
X25560D1*
D2*
X25607Y6486D1*
D2*
X25655Y6534D1*
D2*
X25679Y6582D1*
X26120Y6893D2*
X26097Y6940D1*
D2*
X26025Y6964D1*
D2*
X25977D1*
D2*
X25905Y6940D1*
D2*
X25857Y6868D1*
D2*
X25833Y6749D1*
D2*
Y6630D1*
D2*
X25857Y6534D1*
D2*
X25905Y6486D1*
D2*
X25977Y6462D1*
D2*
X26001D1*
D2*
X26072Y6486D1*
D2*
X26120Y6534D1*
D2*
X26144Y6606D1*
D2*
Y6630D1*
D2*
X26120Y6701D1*
D2*
X26072Y6749D1*
D2*
X26001Y6773D1*
D2*
X25977D1*
D2*
X25905Y6749D1*
D2*
X25857Y6701D1*
D2*
X25833Y6630D1*
X9205Y35179D2*
X9707D1*
D2*
Y35466D1*
X9205Y35931D2*
Y35620D1*
D2*
X9707D1*
D2*
Y35931D1*
X9444Y35620D2*
Y35812D1*
X9205Y36086D2*
X9707D1*
D2*
Y36253D1*
D2*
X9683Y36325D1*
D2*
X9635Y36373D1*
D2*
X9587Y36397D1*
D2*
X9516Y36420D1*
D2*
X9396D1*
D2*
X9324Y36397D1*
D2*
X9277Y36373D1*
D2*
X9229Y36325D1*
D2*
X9205Y36253D1*
D2*
Y36086D1*
X9301Y36575D2*
X9277Y36623D1*
D2*
X9205Y36695D1*
D2*
X9707D1*
X11705Y35072D2*
X12207D1*
D2*
Y35359D1*
X11705Y35824D2*
Y35513D1*
D2*
X12207D1*
D2*
Y35824D1*
X11944Y35513D2*
Y35704D1*
X11705Y35978D2*
X12207D1*
D2*
Y36145D1*
D2*
X12183Y36217D1*
D2*
X12135Y36265D1*
D2*
X12087Y36289D1*
D2*
X12016Y36313D1*
D2*
X11896D1*
D2*
X11824Y36289D1*
D2*
X11777Y36265D1*
D2*
X11729Y36217D1*
D2*
X11705Y36145D1*
D2*
Y35978D1*
X11825Y36492D2*
X11801D1*
D2*
X11753Y36515D1*
D2*
X11729Y36539D1*
D2*
X11705Y36587D1*
D2*
Y36683D1*
D2*
X11729Y36730D1*
D2*
X11753Y36754D1*
D2*
X11801Y36778D1*
D2*
X11848D1*
D2*
X11897Y36754D1*
D2*
X11968Y36707D1*
D2*
X12207Y36467D1*
D2*
Y36802D1*
X9205Y33072D2*
X9707D1*
D2*
Y33359D1*
X9205Y33824D2*
Y33513D1*
D2*
X9707D1*
D2*
Y33824D1*
X9444Y33513D2*
Y33704D1*
X9205Y33978D2*
X9707D1*
D2*
Y34145D1*
D2*
X9683Y34217D1*
D2*
X9635Y34265D1*
D2*
X9587Y34289D1*
D2*
X9516Y34313D1*
D2*
X9396D1*
D2*
X9324Y34289D1*
D2*
X9277Y34265D1*
D2*
X9229Y34217D1*
D2*
X9205Y34145D1*
D2*
Y33978D1*
Y34515D2*
Y34778D1*
D2*
X9397Y34635D1*
D2*
Y34707D1*
D2*
X9420Y34754D1*
D2*
X9444Y34778D1*
D2*
X9516Y34802D1*
D2*
X9563D1*
D2*
X9635Y34778D1*
D2*
X9683Y34730D1*
D2*
X9707Y34659D1*
D2*
Y34587D1*
D2*
X9683Y34515D1*
D2*
X9659Y34492D1*
D2*
X9612Y34467D1*
X11705Y33060D2*
X12207D1*
D2*
Y33347D1*
X11705Y33812D2*
Y33501D1*
D2*
X12207D1*
D2*
Y33812D1*
X11944Y33501D2*
Y33692D1*
X11705Y33966D2*
X12207D1*
D2*
Y34134D1*
D2*
X12183Y34205D1*
D2*
X12135Y34254D1*
D2*
X12087Y34277D1*
D2*
X12016Y34301D1*
D2*
X11896D1*
D2*
X11824Y34277D1*
D2*
X11777Y34254D1*
D2*
X11729Y34205D1*
D2*
X11705Y34134D1*
D2*
Y33966D1*
X12207Y34695D2*
X11705D1*
D2*
X12040Y34455D1*
D2*
Y34814D1*
X7899Y29428D2*
Y29643D1*
D2*
X7875Y29714D1*
D2*
X7851Y29739D1*
D2*
X7803Y29762D1*
D2*
X7755D1*
D2*
X7708Y29739D1*
D2*
X7683Y29714D1*
D2*
X7660Y29643D1*
D2*
Y29428D1*
D2*
X8162D1*
X7899Y29595D2*
X8162Y29762D1*
X7756Y29917D2*
X7731Y29965D1*
D2*
X7660Y30037D1*
D2*
X8162D1*
X7899Y35320D2*
Y35535D1*
D2*
X7875Y35607D1*
D2*
X7851Y35631D1*
D2*
X7803Y35655D1*
D2*
X7755D1*
D2*
X7708Y35631D1*
D2*
X7683Y35607D1*
D2*
X7660Y35535D1*
D2*
Y35320D1*
D2*
X8162D1*
X7899Y35488D2*
X8162Y35655D1*
X7779Y35834D2*
X7756D1*
D2*
X7708Y35857D1*
D2*
X7684Y35881D1*
D2*
X7660Y35929D1*
D2*
Y36025D1*
D2*
X7684Y36072D1*
D2*
X7708Y36096D1*
D2*
X7756Y36121D1*
D2*
X7803D1*
D2*
X7851Y36096D1*
D2*
X7923Y36049D1*
D2*
X8162Y35809D1*
D2*
Y36144D1*
X7899Y31320D2*
Y31535D1*
D2*
X7875Y31607D1*
D2*
X7851Y31631D1*
D2*
X7803Y31655D1*
D2*
X7755D1*
D2*
X7708Y31631D1*
D2*
X7683Y31607D1*
D2*
X7660Y31535D1*
D2*
Y31320D1*
D2*
X8162D1*
X7899Y31488D2*
X8162Y31655D1*
X7660Y31857D2*
Y32120D1*
D2*
X7851Y31977D1*
D2*
Y32049D1*
D2*
X7875Y32096D1*
D2*
X7899Y32120D1*
D2*
X7971Y32144D1*
D2*
X8018D1*
D2*
X8090Y32120D1*
D2*
X8138Y32072D1*
D2*
X8162Y32001D1*
D2*
Y31929D1*
D2*
X8138Y31857D1*
D2*
X8114Y31834D1*
D2*
X8066Y31809D1*
X7899Y33308D2*
Y33523D1*
D2*
X7875Y33595D1*
D2*
X7851Y33619D1*
D2*
X7803Y33643D1*
D2*
X7755D1*
D2*
X7708Y33619D1*
D2*
X7683Y33595D1*
D2*
X7660Y33523D1*
D2*
Y33308D1*
D2*
X8162D1*
X7899Y33476D2*
X8162Y33643D1*
Y34037D2*
X7660D1*
D2*
X7994Y33798D1*
D2*
Y34156D1*
X8446Y14448D2*
X8661D1*
D2*
X8733Y14473D1*
D2*
X8758Y14496D1*
D2*
X8781Y14544D1*
D2*
Y14592D1*
D2*
X8758Y14640D1*
D2*
X8733Y14664D1*
D2*
X8661Y14688D1*
D2*
X8446D1*
D2*
Y14185D1*
X8614Y14448D2*
X8781Y14185D1*
X9246Y14688D2*
X8936D1*
D2*
Y14185D1*
D2*
X9246D1*
X8936Y14448D2*
X9127D1*
X9760Y14568D2*
X9736Y14616D1*
D2*
X9688Y14664D1*
D2*
X9640Y14688D1*
D2*
X9545D1*
D2*
X9496Y14664D1*
D2*
X9449Y14616D1*
D2*
X9425Y14568D1*
D2*
X9401Y14496D1*
D2*
Y14376D1*
D2*
X9425Y14305D1*
D2*
X9449Y14257D1*
D2*
X9496Y14210D1*
D2*
X9545Y14185D1*
D2*
X9640D1*
D2*
X9688Y14210D1*
D2*
X9736Y14257D1*
D2*
X9760Y14305D1*
D2*
Y14376D1*
D2*
X9640D1*
X9914Y14591D2*
X9962Y14616D1*
D2*
X10034Y14687D1*
D2*
Y14185D1*
X16086Y18064D2*
X16301D1*
D2*
X16373Y18088D1*
D2*
X16397Y18112D1*
D2*
X16421Y18159D1*
D2*
Y18207D1*
D2*
X16397Y18255D1*
D2*
X16373Y18279D1*
D2*
X16301Y18303D1*
D2*
X16086D1*
D2*
Y17801D1*
X16253Y18064D2*
X16421Y17801D1*
X16886Y18303D2*
X16575D1*
D2*
Y17801D1*
D2*
X16886D1*
X16575Y18064D2*
X16766D1*
X17399Y18184D2*
X17375Y18231D1*
D2*
X17327Y18279D1*
D2*
X17279Y18303D1*
D2*
X17184D1*
D2*
X17136Y18279D1*
D2*
X17088Y18231D1*
D2*
X17064Y18184D1*
D2*
X17040Y18112D1*
D2*
Y17992D1*
D2*
X17064Y17921D1*
D2*
X17088Y17873D1*
D2*
X17136Y17825D1*
D2*
X17184Y17801D1*
D2*
X17279D1*
D2*
X17327Y17825D1*
D2*
X17375Y17873D1*
D2*
X17399Y17921D1*
D2*
Y17992D1*
D2*
X17279D1*
X17577Y18183D2*
Y18207D1*
D2*
X17601Y18255D1*
D2*
X17625Y18279D1*
D2*
X17673Y18303D1*
D2*
X17769D1*
D2*
X17816Y18279D1*
D2*
X17840Y18255D1*
D2*
X17864Y18207D1*
D2*
Y18159D1*
D2*
X17840Y18111D1*
D2*
X17792Y18040D1*
D2*
X17553Y17801D1*
D2*
X17888D1*
X20586Y18064D2*
X20801D1*
D2*
X20873Y18088D1*
D2*
X20897Y18112D1*
D2*
X20921Y18159D1*
D2*
Y18207D1*
D2*
X20897Y18255D1*
D2*
X20873Y18279D1*
D2*
X20801Y18303D1*
D2*
X20586D1*
D2*
Y17801D1*
X20753Y18064D2*
X20921Y17801D1*
X21386Y18303D2*
X21075D1*
D2*
Y17801D1*
D2*
X21386D1*
X21075Y18064D2*
X21266D1*
X21899Y18184D2*
X21875Y18231D1*
D2*
X21827Y18279D1*
D2*
X21779Y18303D1*
D2*
X21684D1*
D2*
X21636Y18279D1*
D2*
X21588Y18231D1*
D2*
X21564Y18184D1*
D2*
X21540Y18112D1*
D2*
Y17992D1*
D2*
X21564Y17921D1*
D2*
X21588Y17873D1*
D2*
X21636Y17825D1*
D2*
X21684Y17801D1*
D2*
X21779D1*
D2*
X21827Y17825D1*
D2*
X21875Y17873D1*
D2*
X21899Y17921D1*
D2*
Y17992D1*
D2*
X21779D1*
X22101Y18303D2*
X22364D1*
D2*
X22221Y18111D1*
D2*
X22292D1*
D2*
X22340Y18088D1*
D2*
X22364Y18064D1*
D2*
X22388Y17992D1*
D2*
Y17944D1*
D2*
X22364Y17873D1*
D2*
X22316Y17824D1*
D2*
X22244Y17801D1*
D2*
X22173D1*
D2*
X22101Y17824D1*
D2*
X22077Y17849D1*
D2*
X22053Y17896D1*
X9109Y25358D2*
X8607D1*
D2*
X9109Y25167D1*
D2*
X8607Y24976D1*
D2*
X9109D1*
X8726Y25871D2*
X8678Y25847D1*
D2*
X8630Y25799D1*
D2*
X8607Y25752D1*
D2*
Y25656D1*
D2*
X8630Y25608D1*
D2*
X8678Y25561D1*
D2*
X8726Y25536D1*
D2*
X8798Y25512D1*
D2*
X8918D1*
D2*
X8989Y25536D1*
D2*
X9037Y25561D1*
D2*
X9085Y25608D1*
D2*
X9109Y25656D1*
D2*
Y25752D1*
D2*
X9085Y25799D1*
D2*
X9037Y25847D1*
D2*
X8989Y25871D1*
X8703Y26026D2*
X8678Y26074D1*
D2*
X8607Y26145D1*
D2*
X9109D1*
X9609Y28359D2*
X9107Y28167D1*
D2*
X9609Y27976D1*
X9442Y28047D2*
Y28287D1*
X9107Y28513D2*
X9609D1*
X9107Y28739D2*
X9513D1*
D2*
X9585Y28763D1*
D2*
X9609Y28811D1*
D2*
Y28859D1*
X9274Y28667D2*
Y28835D1*
X11609Y25358D2*
X11107D1*
D2*
X11609Y25167D1*
D2*
X11107Y24976D1*
D2*
X11609D1*
X11226Y25871D2*
X11178Y25847D1*
D2*
X11130Y25799D1*
D2*
X11107Y25752D1*
D2*
Y25656D1*
D2*
X11130Y25608D1*
D2*
X11178Y25561D1*
D2*
X11226Y25536D1*
D2*
X11298Y25512D1*
D2*
X11418D1*
D2*
X11489Y25536D1*
D2*
X11537Y25561D1*
D2*
X11585Y25608D1*
D2*
X11609Y25656D1*
D2*
Y25752D1*
D2*
X11585Y25799D1*
D2*
X11537Y25847D1*
D2*
X11489Y25871D1*
X11227Y26050D2*
X11203D1*
D2*
X11155Y26074D1*
D2*
X11131Y26097D1*
D2*
X11107Y26145D1*
D2*
Y26241D1*
D2*
X11131Y26289D1*
D2*
X11155Y26312D1*
D2*
X11203Y26337D1*
D2*
X11250D1*
D2*
X11298Y26312D1*
D2*
X11370Y26265D1*
D2*
X11609Y26026D1*
D2*
Y26360D1*
X9109Y22858D2*
X8607D1*
D2*
X9109Y22667D1*
D2*
X8607Y22476D1*
D2*
X9109D1*
X8726Y23371D2*
X8678Y23347D1*
D2*
X8630Y23299D1*
D2*
X8607Y23252D1*
D2*
Y23156D1*
D2*
X8630Y23108D1*
D2*
X8678Y23061D1*
D2*
X8726Y23036D1*
D2*
X8798Y23012D1*
D2*
X8918D1*
D2*
X8989Y23036D1*
D2*
X9037Y23061D1*
D2*
X9085Y23108D1*
D2*
X9109Y23156D1*
D2*
Y23252D1*
D2*
X9085Y23299D1*
D2*
X9037Y23347D1*
D2*
X8989Y23371D1*
X8607Y23574D2*
Y23836D1*
D2*
X8798Y23693D1*
D2*
Y23765D1*
D2*
X8822Y23812D1*
D2*
X8846Y23836D1*
D2*
X8918Y23860D1*
D2*
X8965D1*
D2*
X9037Y23836D1*
D2*
X9085Y23789D1*
D2*
X9109Y23717D1*
D2*
Y23645D1*
D2*
X9085Y23574D1*
D2*
X9061Y23550D1*
D2*
X9013Y23526D1*
X11609Y22858D2*
X11107D1*
D2*
X11609Y22667D1*
D2*
X11107Y22476D1*
D2*
X11609D1*
X11226Y23371D2*
X11178Y23347D1*
D2*
X11130Y23299D1*
D2*
X11107Y23252D1*
D2*
Y23156D1*
D2*
X11130Y23108D1*
D2*
X11178Y23061D1*
D2*
X11226Y23036D1*
D2*
X11298Y23012D1*
D2*
X11418D1*
D2*
X11489Y23036D1*
D2*
X11537Y23061D1*
D2*
X11585Y23108D1*
D2*
X11609Y23156D1*
D2*
Y23252D1*
D2*
X11585Y23299D1*
D2*
X11537Y23347D1*
D2*
X11489Y23371D1*
X11609Y23765D2*
X11107D1*
D2*
X11442Y23526D1*
D2*
Y23884D1*
X11678Y29311D2*
X11630Y29263D1*
D2*
X11607Y29191D1*
D2*
Y29096D1*
D2*
X11630Y29024D1*
D2*
X11678Y28976D1*
D2*
X11726D1*
D2*
X11774Y29000D1*
D2*
X11798Y29024D1*
D2*
X11822Y29071D1*
D2*
X11870Y29215D1*
D2*
X11893Y29263D1*
D2*
X11918Y29287D1*
D2*
X11965Y29311D1*
D2*
X12037D1*
D2*
X12085Y29263D1*
D2*
X12109Y29191D1*
D2*
Y29096D1*
D2*
X12085Y29024D1*
D2*
X12037Y28976D1*
X11774Y29584D2*
X11798Y29537D1*
D2*
X11846Y29489D1*
D2*
X11918Y29465D1*
D2*
X11965D1*
D2*
X12037Y29489D1*
D2*
X12085Y29537D1*
D2*
X12109Y29584D1*
D2*
Y29656D1*
D2*
X12085Y29704D1*
D2*
X12037Y29752D1*
D2*
X11965Y29776D1*
D2*
X11918D1*
D2*
X11846Y29752D1*
D2*
X11798Y29704D1*
D2*
X11774Y29656D1*
D2*
Y29584D1*
Y29930D2*
X12109D1*
X11870D2*
X11798Y30002D1*
D2*
X11774Y30050D1*
D2*
Y30122D1*
D2*
X11798Y30170D1*
D2*
X11870Y30194D1*
D2*
X12109D1*
X11774Y30635D2*
X12109D1*
X11846D2*
X11798Y30587D1*
D2*
X11774Y30539D1*
D2*
Y30468D1*
D2*
X11798Y30420D1*
D2*
X11846Y30372D1*
D2*
X11918Y30348D1*
D2*
X11965D1*
D2*
X12037Y30372D1*
D2*
X12085Y30420D1*
D2*
X12109Y30468D1*
D2*
Y30539D1*
D2*
X12085Y30587D1*
D2*
X12037Y30635D1*
X11774Y30789D2*
X12109D1*
X11918D2*
X11846Y30814D1*
D2*
X11798Y30861D1*
D2*
X11774Y30909D1*
D2*
Y30981D1*
X11476Y39267D2*
Y38765D1*
Y39028D2*
X11524Y39076D1*
D2*
X11571Y39100D1*
D2*
X11643D1*
D2*
X11691Y39076D1*
D2*
X11739Y39028D1*
D2*
X11762Y38956D1*
D2*
Y38909D1*
D2*
X11739Y38837D1*
D2*
X11691Y38789D1*
D2*
X11643Y38765D1*
D2*
X11571D1*
D2*
X11524Y38789D1*
D2*
X11476Y38837D1*
X12204Y39100D2*
Y38765D1*
Y39028D2*
X12156Y39076D1*
D2*
X12108Y39100D1*
D2*
X12037D1*
D2*
X11989Y39076D1*
D2*
X11941Y39028D1*
D2*
X11917Y38956D1*
D2*
Y38909D1*
D2*
X11941Y38837D1*
D2*
X11989Y38789D1*
D2*
X12037Y38765D1*
D2*
X12108D1*
D2*
X12156Y38789D1*
D2*
X12204Y38837D1*
X12430Y39267D2*
Y38861D1*
D2*
X12454Y38789D1*
D2*
X12502Y38765D1*
D2*
X12549D1*
X12358Y39100D2*
X12526D1*
X12776Y39267D2*
Y38861D1*
D2*
X12799Y38789D1*
D2*
X12847Y38765D1*
D2*
X12895D1*
X12704Y39100D2*
X12871D1*
X6767Y9023D2*
X6265D1*
Y8487D2*
X6767D1*
D2*
X6265Y8678D1*
D2*
X6767Y8869D1*
D2*
X6265D1*
X6767Y8332D2*
X6409D1*
D2*
X6337Y8308D1*
D2*
X6289Y8260D1*
D2*
X6265Y8188D1*
D2*
Y8141D1*
D2*
X6289Y8069D1*
D2*
X6337Y8021D1*
D2*
X6409Y7997D1*
D2*
X6767D1*
X8346Y18726D2*
Y18941D1*
D2*
X8322Y19012D1*
D2*
X8298Y19037D1*
D2*
X8250Y19061D1*
D2*
X8202D1*
D2*
X8155Y19037D1*
D2*
X8130Y19012D1*
D2*
X8107Y18941D1*
D2*
Y18726D1*
D2*
X8609D1*
X8346Y18893D2*
X8609Y19061D1*
X8370Y19215D2*
Y19430D1*
D2*
X8346Y19502D1*
D2*
X8322Y19526D1*
D2*
X8274Y19550D1*
D2*
X8202D1*
D2*
X8155Y19526D1*
D2*
X8130Y19502D1*
D2*
X8107Y19430D1*
D2*
Y19215D1*
D2*
X8609D1*
Y20087D2*
X8107D1*
D2*
X8609Y19895D1*
D2*
X8107Y19704D1*
D2*
X8609D1*
X8203Y20241D2*
X8178Y20289D1*
D2*
X8107Y20361D1*
D2*
X8609D1*
X11846Y18726D2*
Y18941D1*
D2*
X11822Y19012D1*
D2*
X11798Y19037D1*
D2*
X11750Y19061D1*
D2*
X11702D1*
D2*
X11655Y19037D1*
D2*
X11630Y19012D1*
D2*
X11607Y18941D1*
D2*
Y18726D1*
D2*
X12109D1*
X11846Y18893D2*
X12109Y19061D1*
X11870Y19215D2*
Y19430D1*
D2*
X11846Y19502D1*
D2*
X11822Y19526D1*
D2*
X11774Y19550D1*
D2*
X11702D1*
D2*
X11655Y19526D1*
D2*
X11630Y19502D1*
D2*
X11607Y19430D1*
D2*
Y19215D1*
D2*
X12109D1*
Y20087D2*
X11607D1*
D2*
X12109Y19895D1*
D2*
X11607Y19704D1*
D2*
X12109D1*
X11727Y20265D2*
X11703D1*
D2*
X11655Y20289D1*
D2*
X11631Y20313D1*
D2*
X11607Y20361D1*
D2*
Y20457D1*
D2*
X11631Y20504D1*
D2*
X11655Y20528D1*
D2*
X11703Y20552D1*
D2*
X11750D1*
D2*
X11798Y20528D1*
D2*
X11870Y20480D1*
D2*
X12109Y20241D1*
D2*
Y20576D1*
X8346Y15226D2*
Y15441D1*
D2*
X8322Y15512D1*
D2*
X8298Y15537D1*
D2*
X8250Y15561D1*
D2*
X8202D1*
D2*
X8155Y15537D1*
D2*
X8130Y15512D1*
D2*
X8107Y15441D1*
D2*
Y15226D1*
D2*
X8609D1*
X8346Y15393D2*
X8609Y15561D1*
X8370Y15715D2*
Y15930D1*
D2*
X8346Y16002D1*
D2*
X8322Y16026D1*
D2*
X8274Y16050D1*
D2*
X8202D1*
D2*
X8155Y16026D1*
D2*
X8130Y16002D1*
D2*
X8107Y15930D1*
D2*
Y15715D1*
D2*
X8609D1*
Y16587D2*
X8107D1*
D2*
X8609Y16395D1*
D2*
X8107Y16204D1*
D2*
X8609D1*
X8107Y16789D2*
Y17052D1*
D2*
X8298Y16909D1*
D2*
Y16980D1*
D2*
X8322Y17028D1*
D2*
X8346Y17052D1*
D2*
X8418Y17076D1*
D2*
X8465D1*
D2*
X8537Y17052D1*
D2*
X8585Y17004D1*
D2*
X8609Y16932D1*
D2*
Y16860D1*
D2*
X8585Y16789D1*
D2*
X8561Y16765D1*
D2*
X8513Y16741D1*
X11846Y15226D2*
Y15441D1*
D2*
X11822Y15512D1*
D2*
X11798Y15537D1*
D2*
X11750Y15561D1*
D2*
X11702D1*
D2*
X11655Y15537D1*
D2*
X11630Y15512D1*
D2*
X11607Y15441D1*
D2*
Y15226D1*
D2*
X12109D1*
X11846Y15393D2*
X12109Y15561D1*
X11870Y15715D2*
Y15930D1*
D2*
X11846Y16002D1*
D2*
X11822Y16026D1*
D2*
X11774Y16050D1*
D2*
X11702D1*
D2*
X11655Y16026D1*
D2*
X11630Y16002D1*
D2*
X11607Y15930D1*
D2*
Y15715D1*
D2*
X12109D1*
Y16587D2*
X11607D1*
D2*
X12109Y16395D1*
D2*
X11607Y16204D1*
D2*
X12109D1*
Y16980D2*
X11607D1*
D2*
X11942Y16741D1*
D2*
Y17100D1*
X17499Y39398D2*
D46*
Y38862D1*
Y39245D2*
X17614Y39360D1*
D2*
X17691Y39398D1*
D2*
X17805D1*
D2*
X17882Y39360D1*
D2*
X17920Y39245D1*
D2*
Y38862D1*
Y39245D2*
X18035Y39360D1*
D2*
X18112Y39398D1*
D2*
X18226D1*
D2*
X18303Y39360D1*
D2*
X18342Y39245D1*
D2*
Y38862D1*
X18589Y39666D2*
Y38862D1*
Y39283D2*
X18665Y39360D1*
D2*
X18742Y39398D1*
D2*
X18856D1*
D2*
X18933Y39360D1*
D2*
X19009Y39283D1*
D2*
X19048Y39168D1*
D2*
Y39092D1*
D2*
X19009Y38977D1*
D2*
X18933Y38901D1*
D2*
X18856Y38862D1*
D2*
X18742D1*
D2*
X18665Y38901D1*
D2*
X18589Y38977D1*
X19295Y39168D2*
X19753D1*
D2*
Y39245D1*
D2*
X19715Y39322D1*
D2*
X19677Y39360D1*
D2*
X19601Y39398D1*
D2*
X19486D1*
D2*
X19409Y39360D1*
D2*
X19333Y39283D1*
D2*
X19295Y39168D1*
D2*
Y39092D1*
D2*
X19333Y38977D1*
D2*
X19409Y38901D1*
D2*
X19486Y38862D1*
D2*
X19601D1*
D2*
X19677Y38901D1*
D2*
X19753Y38977D1*
X20459Y39666D2*
Y38862D1*
Y39283D2*
X20383Y39360D1*
D2*
X20306Y39398D1*
D2*
X20192D1*
D2*
X20115Y39360D1*
D2*
X20039Y39283D1*
D2*
X20001Y39168D1*
D2*
Y39092D1*
D2*
X20039Y38977D1*
D2*
X20115Y38901D1*
D2*
X20192Y38862D1*
D2*
X20306D1*
D2*
X20383Y38901D1*
D2*
X20459Y38977D1*
M02*
