G04 DipTrace 2.2.0.9*
%INBottomSilk.gbr*%
%MOMM*%
%ADD10C,0.25*%
%ADD57C,0.196*%
%FSLAX53Y53*%
%SFA1B1*%
%OFA0B0*%
G04*
G71*
G90*
G75*
G01*
%LNBotSilk*%
%LPD*%
X17079Y39998D2*
D10*
X18377D1*
X19998Y33057D2*
Y31759D1*
X24478Y35498D2*
Y34199D1*
X21047Y40388D2*
X21449D1*
X21047Y41388D2*
X21449D1*
X21047D2*
Y40388D1*
X21239Y41388D2*
Y40388D1*
X25649Y41388D2*
X25247D1*
X25649Y40388D2*
X25247D1*
X25649D2*
Y41388D1*
X25457Y40388D2*
Y41388D1*
X21727Y34308D2*
X22129D1*
X21727Y35308D2*
X22129D1*
X21727D2*
Y34308D1*
X21919Y35308D2*
Y34308D1*
X15421Y41691D2*
D57*
X15301Y41751D1*
D2*
X15179Y41873D1*
D2*
X15118Y41994D1*
D2*
Y42237D1*
D2*
X15179Y42359D1*
D2*
X15301Y42480D1*
D2*
X15421Y42541D1*
D2*
X15604Y42602D1*
D2*
X15909D1*
D2*
X16090Y42541D1*
D2*
X16212Y42480D1*
D2*
X16332Y42359D1*
D2*
X16394Y42237D1*
D2*
Y41994D1*
D2*
X16332Y41873D1*
D2*
X16212Y41751D1*
D2*
X16090Y41691D1*
X15362Y41299D2*
X15301Y41176D1*
D2*
X15120Y40994D1*
D2*
X16394D1*
X21964Y34715D2*
X22024Y34835D1*
D2*
X22146Y34958D1*
D2*
X22267Y35018D1*
D2*
X22510D1*
D2*
X22632Y34958D1*
D2*
X22753Y34835D1*
D2*
X22814Y34715D1*
D2*
X22875Y34532D1*
D2*
Y34228D1*
D2*
X22814Y34046D1*
D2*
X22753Y33924D1*
D2*
X22632Y33804D1*
D2*
X22510Y33742D1*
D2*
X22267D1*
D2*
X22146Y33804D1*
D2*
X22024Y33924D1*
D2*
X21964Y34046D1*
X20843Y35016D2*
X21449D1*
D2*
X21510Y34470D1*
D2*
X21449Y34531D1*
D2*
X21267Y34593D1*
D2*
X21086D1*
D2*
X20903Y34531D1*
D2*
X20781Y34410D1*
D2*
X20721Y34228D1*
D2*
Y34107D1*
D2*
X20781Y33924D1*
D2*
X20903Y33802D1*
D2*
X21086Y33742D1*
D2*
X21267D1*
D2*
X21449Y33802D1*
D2*
X21510Y33864D1*
D2*
X21572Y33985D1*
X26413Y37155D2*
X26473Y37275D1*
D2*
X26595Y37398D1*
D2*
X26716Y37458D1*
D2*
X26959D1*
D2*
X27081Y37398D1*
D2*
X27202Y37275D1*
D2*
X27264Y37155D1*
D2*
X27324Y36972D1*
D2*
Y36668D1*
D2*
X27264Y36486D1*
D2*
X27202Y36364D1*
D2*
X27081Y36244D1*
D2*
X26959Y36182D1*
D2*
X26716D1*
D2*
X26595Y36244D1*
D2*
X26473Y36364D1*
D2*
X26413Y36486D1*
X25292Y37275D2*
X25352Y37396D1*
D2*
X25535Y37456D1*
D2*
X25656D1*
D2*
X25838Y37396D1*
D2*
X25960Y37214D1*
D2*
X26021Y36910D1*
D2*
Y36607D1*
D2*
X25960Y36364D1*
D2*
X25838Y36242D1*
D2*
X25656Y36182D1*
D2*
X25595D1*
D2*
X25414Y36242D1*
D2*
X25292Y36364D1*
D2*
X25232Y36547D1*
D2*
Y36607D1*
D2*
X25292Y36790D1*
D2*
X25414Y36910D1*
D2*
X25595Y36971D1*
D2*
X25656D1*
D2*
X25838Y36910D1*
D2*
X25960Y36790D1*
D2*
X26021Y36607D1*
X21961Y43348D2*
Y42072D1*
D2*
X21232D1*
X20840Y43104D2*
X20718Y43165D1*
D2*
X20535Y43346D1*
D2*
Y42072D1*
X26434Y43348D2*
Y42072D1*
D2*
X25705D1*
X25251Y43043D2*
Y43104D1*
D2*
X25191Y43226D1*
D2*
X25130Y43286D1*
D2*
X25008Y43346D1*
D2*
X24765D1*
D2*
X24645Y43286D1*
D2*
X24584Y43226D1*
D2*
X24523Y43104D1*
D2*
Y42983D1*
D2*
X24584Y42861D1*
D2*
X24705Y42680D1*
D2*
X25313Y42072D1*
D2*
X24462D1*
X22914Y37268D2*
Y35992D1*
D2*
X22185D1*
X21671Y37266D2*
X21004D1*
D2*
X21368Y36781D1*
D2*
X21185D1*
D2*
X21064Y36720D1*
D2*
X21004Y36660D1*
D2*
X20942Y36478D1*
D2*
Y36357D1*
D2*
X21004Y36174D1*
D2*
X21125Y36052D1*
D2*
X21307Y35992D1*
D2*
X21490D1*
D2*
X21671Y36052D1*
D2*
X21731Y36114D1*
D2*
X21793Y36235D1*
M02*
