G04 DipTrace 2.2.0.9*
%INBottom.gbr*%
%MOMM*%
%ADD13C,0.178*%
%ADD14C,0.1*%
%ADD15R,1.5X1.5*%
%ADD16R,1.5X1.3*%
%ADD17R,1.3X1.5*%
%ADD18R,1.0X1.2*%
%ADD24C,1.5*%
%ADD27C,1.016*%
%FSLAX53Y53*%
%SFA1B1*%
%OFA0B0*%
G04*
G71*
G90*
G75*
G01*
%LNBottom*%
%LPD*%
X20248Y40888D2*
D13*
Y40021D1*
X24448D1*
Y40888D1*
X25215D1*
Y36699D1*
X25570Y36344D1*
X27316D1*
X27671Y36699D1*
X28802Y35569D1*
Y35204D1*
X28446Y34848D1*
X27428D1*
X27671Y33412D2*
X26819Y32560D1*
X24614D1*
X24525Y32471D1*
X22948D1*
Y32408D1*
X27428Y34848D2*
Y33412D1*
X27671D1*
X28821Y46834D2*
X27671Y45684D1*
Y36699D1*
X17688Y37698D2*
Y39396D1*
X17728Y39436D1*
Y41048D1*
Y41965D1*
X22248D1*
Y40888D1*
X26498Y38248D2*
Y39926D1*
X26448Y39976D1*
Y40888D1*
Y42592D1*
X26092Y42948D1*
X17728D1*
X21048Y32408D2*
X19876D1*
X19666Y32618D1*
X17688D1*
X20928Y34808D2*
X21048D1*
Y32408D1*
X25528Y34848D2*
X23735D1*
X23695Y34808D1*
X22928D1*
Y36738D1*
X21418Y38248D1*
X15288Y20577D2*
X16143Y21431D1*
Y44142D1*
X16498Y44497D1*
X23945D1*
X26281Y46834D1*
X15368Y23004D2*
Y44497D1*
X15724Y44853D1*
X21760D1*
X23741Y46834D1*
X22524Y43723D2*
X26942D1*
X27298Y44078D1*
Y47851D1*
X26942Y48207D1*
X19765D1*
X19410Y47851D1*
Y46448D1*
D27*
X27671Y33412D3*
X15368Y23004D3*
X15288Y20577D3*
X19410Y46448D3*
X22524Y43723D3*
X11139Y49081D2*
D14*
X39148D1*
X11139Y48985D2*
X39148D1*
X11139Y48888D2*
X39147D1*
X11139Y48791D2*
X39147D1*
X11139Y48695D2*
X39147D1*
X11139Y48598D2*
X39147D1*
X11139Y48501D2*
X19630D1*
X27078D2*
X39147D1*
X11139Y48405D2*
X19500D1*
X27208D2*
X39147D1*
X11139Y48308D2*
X19403D1*
X27304D2*
X39147D1*
X11139Y48211D2*
X19308D1*
X27401D2*
X39147D1*
X11139Y48115D2*
X19211D1*
X27497D2*
X39147D1*
X11139Y48018D2*
X19127D1*
X27581D2*
X39147D1*
X11139Y47921D2*
X19088D1*
X27620D2*
X39147D1*
X11139Y47825D2*
X19080D1*
X19847D2*
X26861D1*
X27628D2*
X39147D1*
X11139Y47728D2*
X19080D1*
X19750D2*
X20209D1*
X22193D2*
X23327D1*
X24156D2*
X25866D1*
X26697D2*
X26958D1*
X27628D2*
X39147D1*
X11139Y47631D2*
X19080D1*
X19740D2*
X20209D1*
X22193D2*
X23159D1*
X24323D2*
X25698D1*
X26864D2*
X26967D1*
X27628D2*
X39147D1*
X11139Y47535D2*
X19080D1*
X19740D2*
X20209D1*
X22193D2*
X23044D1*
X24439D2*
X25584D1*
X27628D2*
X39147D1*
X11139Y47438D2*
X19080D1*
X19740D2*
X20209D1*
X22193D2*
X22958D1*
X24525D2*
X25497D1*
X27628D2*
X39147D1*
X11139Y47341D2*
X19080D1*
X19740D2*
X20209D1*
X22193D2*
X22891D1*
X24592D2*
X25431D1*
X27628D2*
X39145D1*
X11139Y47245D2*
X19080D1*
X19740D2*
X20209D1*
X22193D2*
X22839D1*
X24643D2*
X25380D1*
X27628D2*
X39145D1*
X11139Y47148D2*
X19080D1*
X19740D2*
X20209D1*
X22193D2*
X22802D1*
X24681D2*
X25341D1*
X27628D2*
X39145D1*
X11139Y47051D2*
X18972D1*
X19847D2*
X20209D1*
X22193D2*
X22773D1*
X24709D2*
X25314D1*
X27628D2*
X39145D1*
X11139Y46955D2*
X18861D1*
X19959D2*
X20209D1*
X22193D2*
X22758D1*
X24725D2*
X25297D1*
X27628D2*
X39145D1*
X11139Y46858D2*
X18784D1*
X20036D2*
X20209D1*
X22193D2*
X22750D1*
X24733D2*
X25291D1*
X27628D2*
X39145D1*
X11139Y46761D2*
X18730D1*
X20090D2*
X20209D1*
X22193D2*
X22753D1*
X24729D2*
X25292D1*
X27628D2*
X39145D1*
X11139Y46665D2*
X18692D1*
X20126D2*
X20209D1*
X22193D2*
X22764D1*
X24718D2*
X25305D1*
X27628D2*
X39145D1*
X11139Y46568D2*
X18670D1*
X20150D2*
X20211D1*
X22193D2*
X22786D1*
X24697D2*
X25327D1*
X27628D2*
X39145D1*
X11139Y46471D2*
X18661D1*
X20159D2*
X20209D1*
X22193D2*
X22819D1*
X24664D2*
X25359D1*
X27628D2*
X39145D1*
X11139Y46375D2*
X18664D1*
X20156D2*
X20209D1*
X22193D2*
X22819D1*
X24618D2*
X25359D1*
X27628D2*
X39145D1*
X11139Y46278D2*
X18680D1*
X20139D2*
X20210D1*
X22193D2*
X22722D1*
X24561D2*
X25263D1*
X27628D2*
X39145D1*
X11139Y46181D2*
X18709D1*
X20109D2*
X20209D1*
X22193D2*
X22625D1*
X24484D2*
X25166D1*
X27628D2*
X39145D1*
X11139Y46085D2*
X18756D1*
X20064D2*
X20209D1*
X22193D2*
X22528D1*
X24386D2*
X25069D1*
X26925D2*
X26967D1*
X27628D2*
X39145D1*
X11139Y45988D2*
X18820D1*
X19998D2*
X20209D1*
X22193D2*
X22431D1*
X24248D2*
X24972D1*
X26789D2*
X26967D1*
X27628D2*
X39145D1*
X11139Y45891D2*
X18913D1*
X19906D2*
X20209D1*
X22193D2*
X22336D1*
X23262D2*
X23458D1*
X24025D2*
X24875D1*
X25801D2*
X25998D1*
X26564D2*
X26967D1*
X27628D2*
X39144D1*
X11139Y45795D2*
X19053D1*
X19767D2*
X22239D1*
X23165D2*
X24778D1*
X25704D2*
X26967D1*
X27628D2*
X39144D1*
X11139Y45698D2*
X22142D1*
X23068D2*
X24681D1*
X25608D2*
X26967D1*
X27628D2*
X39144D1*
X11139Y45601D2*
X22045D1*
X22972D2*
X24586D1*
X25512D2*
X26967D1*
X27628D2*
X39144D1*
X11140Y45505D2*
X21948D1*
X22875D2*
X24489D1*
X25415D2*
X26967D1*
X27628D2*
X39144D1*
X11140Y45408D2*
X21852D1*
X22778D2*
X24392D1*
X25318D2*
X26967D1*
X27628D2*
X39144D1*
X11140Y45311D2*
X21755D1*
X22681D2*
X24295D1*
X25222D2*
X26967D1*
X27628D2*
X39144D1*
X11140Y45215D2*
X21659D1*
X22584D2*
X24198D1*
X25125D2*
X26967D1*
X27628D2*
X39144D1*
X11140Y45118D2*
X15533D1*
X22489D2*
X24102D1*
X25028D2*
X26967D1*
X27628D2*
X39144D1*
X11140Y45021D2*
X15428D1*
X22392D2*
X24005D1*
X24931D2*
X26967D1*
X27628D2*
X39144D1*
X11140Y44925D2*
X15333D1*
X22295D2*
X23909D1*
X24834D2*
X26967D1*
X27628D2*
X39144D1*
X11140Y44828D2*
X15236D1*
X22198D2*
X23813D1*
X24739D2*
X26967D1*
X27628D2*
X39144D1*
X11140Y44731D2*
X15139D1*
X24642D2*
X26967D1*
X27628D2*
X39144D1*
X11140Y44635D2*
X15069D1*
X24545D2*
X26967D1*
X27628D2*
X39144D1*
X11140Y44538D2*
X15041D1*
X24448D2*
X26967D1*
X27628D2*
X39144D1*
X11140Y44441D2*
X15038D1*
X15775D2*
X15980D1*
X24351D2*
X26967D1*
X27628D2*
X39144D1*
X11140Y44345D2*
X15038D1*
X15698D2*
X15884D1*
X24254D2*
X26967D1*
X27628D2*
X39142D1*
X11140Y44248D2*
X15038D1*
X15698D2*
X15830D1*
X24156D2*
X26967D1*
X27628D2*
X39142D1*
X11140Y44151D2*
X15038D1*
X15698D2*
X15813D1*
X16615D2*
X21911D1*
X23136D2*
X26908D1*
X27628D2*
X39142D1*
X11140Y44055D2*
X15038D1*
X15698D2*
X15813D1*
X16518D2*
X21853D1*
X23195D2*
X26811D1*
X27628D2*
X39142D1*
X11140Y43958D2*
X15038D1*
X15698D2*
X15813D1*
X16473D2*
X21813D1*
X27604D2*
X39142D1*
X11140Y43861D2*
X15038D1*
X15698D2*
X15813D1*
X16473D2*
X21788D1*
X27543D2*
X39142D1*
X11140Y43765D2*
X15038D1*
X15698D2*
X15813D1*
X16473D2*
X16736D1*
X18720D2*
X21775D1*
X27448D2*
X39142D1*
X11140Y43668D2*
X15038D1*
X15698D2*
X15813D1*
X16473D2*
X16736D1*
X18720D2*
X21777D1*
X27351D2*
X39142D1*
X11140Y43571D2*
X15038D1*
X15698D2*
X15813D1*
X16473D2*
X16736D1*
X18720D2*
X21791D1*
X27254D2*
X39142D1*
X11140Y43475D2*
X15038D1*
X15698D2*
X15813D1*
X16473D2*
X16736D1*
X18720D2*
X21817D1*
X27154D2*
X39142D1*
X11140Y43378D2*
X15038D1*
X15698D2*
X15813D1*
X16473D2*
X16736D1*
X18720D2*
X21859D1*
X23189D2*
X39142D1*
X11140Y43281D2*
X15038D1*
X15698D2*
X15813D1*
X16473D2*
X16736D1*
X18720D2*
X21920D1*
X23128D2*
X39142D1*
X11140Y43185D2*
X15038D1*
X15698D2*
X15813D1*
X16473D2*
X16736D1*
X26318D2*
X39142D1*
X11140Y43088D2*
X15038D1*
X15698D2*
X15813D1*
X16473D2*
X16736D1*
X26415D2*
X39142D1*
X11140Y42991D2*
X15038D1*
X15698D2*
X15813D1*
X16473D2*
X16736D1*
X26512D2*
X39142D1*
X11140Y42895D2*
X15038D1*
X15698D2*
X15813D1*
X16473D2*
X16736D1*
X26609D2*
X39141D1*
X11140Y42798D2*
X15038D1*
X15698D2*
X15813D1*
X16473D2*
X16736D1*
X26704D2*
X39141D1*
X11140Y42701D2*
X15038D1*
X15698D2*
X15813D1*
X16473D2*
X16736D1*
X26759D2*
X39141D1*
X11142Y42605D2*
X15038D1*
X15698D2*
X15813D1*
X16473D2*
X16736D1*
X18720D2*
X25972D1*
X26778D2*
X39141D1*
X11142Y42508D2*
X15038D1*
X15698D2*
X15813D1*
X16473D2*
X16736D1*
X18720D2*
X26069D1*
X26778D2*
X39141D1*
X11142Y42411D2*
X15038D1*
X15698D2*
X15813D1*
X16473D2*
X16736D1*
X18720D2*
X26117D1*
X26778D2*
X39141D1*
X11142Y42315D2*
X15038D1*
X15698D2*
X15813D1*
X16473D2*
X16736D1*
X18720D2*
X26117D1*
X26778D2*
X39141D1*
X11142Y42218D2*
X15038D1*
X15698D2*
X15813D1*
X16473D2*
X16736D1*
X22454D2*
X26117D1*
X26778D2*
X39141D1*
X11142Y42121D2*
X15038D1*
X15698D2*
X15813D1*
X16473D2*
X16736D1*
X22537D2*
X26117D1*
X26778D2*
X39141D1*
X11142Y42025D2*
X15038D1*
X15698D2*
X15813D1*
X16473D2*
X17403D1*
X22573D2*
X26117D1*
X26778D2*
X39141D1*
X11142Y41928D2*
X15038D1*
X15698D2*
X15813D1*
X16473D2*
X16736D1*
X22578D2*
X26117D1*
X26778D2*
X39141D1*
X11142Y41831D2*
X15038D1*
X15698D2*
X15813D1*
X16473D2*
X16736D1*
X22578D2*
X26117D1*
X26778D2*
X39141D1*
X11142Y41735D2*
X15038D1*
X15698D2*
X15813D1*
X16473D2*
X16736D1*
X22578D2*
X26117D1*
X26778D2*
X39141D1*
X11142Y41638D2*
X15038D1*
X15698D2*
X15813D1*
X16473D2*
X16736D1*
X18720D2*
X21506D1*
X22989D2*
X25706D1*
X27189D2*
X39141D1*
X11142Y41541D2*
X15038D1*
X15698D2*
X15813D1*
X16473D2*
X16736D1*
X18720D2*
X21506D1*
X22989D2*
X25706D1*
X27189D2*
X39141D1*
X11142Y41445D2*
X15038D1*
X15698D2*
X15813D1*
X16473D2*
X16736D1*
X18720D2*
X21506D1*
X22989D2*
X25706D1*
X27189D2*
X39139D1*
X11142Y41348D2*
X15038D1*
X15698D2*
X15813D1*
X16473D2*
X16736D1*
X18720D2*
X21506D1*
X22989D2*
X25706D1*
X27189D2*
X39139D1*
X11142Y41251D2*
X15038D1*
X15698D2*
X15813D1*
X16473D2*
X16736D1*
X18720D2*
X21506D1*
X22989D2*
X25706D1*
X27189D2*
X39139D1*
X11142Y41155D2*
X15038D1*
X15698D2*
X15813D1*
X16473D2*
X16736D1*
X18720D2*
X21506D1*
X22989D2*
X25706D1*
X27189D2*
X39139D1*
X11142Y41058D2*
X15038D1*
X15698D2*
X15813D1*
X16473D2*
X16736D1*
X18720D2*
X21506D1*
X22989D2*
X25706D1*
X27189D2*
X39139D1*
X11142Y40961D2*
X15038D1*
X15698D2*
X15813D1*
X16473D2*
X16736D1*
X18720D2*
X21506D1*
X22989D2*
X25706D1*
X27189D2*
X39139D1*
X11142Y40865D2*
X15038D1*
X15698D2*
X15813D1*
X16473D2*
X16736D1*
X18720D2*
X21506D1*
X22989D2*
X25706D1*
X27189D2*
X39139D1*
X11142Y40768D2*
X15038D1*
X15698D2*
X15813D1*
X16473D2*
X16736D1*
X18720D2*
X21506D1*
X22989D2*
X25706D1*
X27189D2*
X39139D1*
X11142Y40671D2*
X15038D1*
X15698D2*
X15813D1*
X16473D2*
X16736D1*
X18720D2*
X21506D1*
X22989D2*
X25706D1*
X27189D2*
X39139D1*
X11142Y40575D2*
X15038D1*
X15698D2*
X15813D1*
X16473D2*
X16736D1*
X18720D2*
X21506D1*
X22989D2*
X25706D1*
X27189D2*
X39139D1*
X11142Y40478D2*
X15038D1*
X15698D2*
X15813D1*
X16473D2*
X16736D1*
X18720D2*
X21506D1*
X22989D2*
X25706D1*
X27189D2*
X39139D1*
X11142Y40381D2*
X15038D1*
X15698D2*
X15813D1*
X16473D2*
X16736D1*
X18720D2*
X21506D1*
X22989D2*
X25706D1*
X27189D2*
X39139D1*
X11142Y40285D2*
X15038D1*
X15698D2*
X15813D1*
X16473D2*
X16736D1*
X18720D2*
X21506D1*
X22989D2*
X25706D1*
X27189D2*
X39139D1*
X11142Y40188D2*
X15038D1*
X15698D2*
X15813D1*
X16473D2*
X16736D1*
X18720D2*
X21506D1*
X22989D2*
X25706D1*
X27189D2*
X39139D1*
X11142Y40091D2*
X15038D1*
X15698D2*
X15813D1*
X16473D2*
X17397D1*
X18059D2*
X21506D1*
X22989D2*
X25706D1*
X27189D2*
X39139D1*
X11142Y39995D2*
X15038D1*
X15698D2*
X15813D1*
X16473D2*
X17397D1*
X18059D2*
X26117D1*
X26822D2*
X39139D1*
X11142Y39898D2*
X15038D1*
X15698D2*
X15813D1*
X16473D2*
X17397D1*
X18059D2*
X26127D1*
X26828D2*
X39138D1*
X11142Y39801D2*
X15038D1*
X15698D2*
X15813D1*
X16473D2*
X17397D1*
X18059D2*
X26167D1*
X26828D2*
X39138D1*
X11142Y39705D2*
X15038D1*
X15698D2*
X15813D1*
X16473D2*
X17397D1*
X18059D2*
X26167D1*
X26828D2*
X39138D1*
X11143Y39608D2*
X15038D1*
X15698D2*
X15813D1*
X16473D2*
X17397D1*
X18059D2*
X26167D1*
X26828D2*
X39138D1*
X11143Y39511D2*
X15038D1*
X15698D2*
X15813D1*
X16473D2*
X17380D1*
X18059D2*
X26167D1*
X26828D2*
X39138D1*
X11143Y39415D2*
X15038D1*
X15698D2*
X15813D1*
X16473D2*
X17358D1*
X18058D2*
X26167D1*
X26828D2*
X39138D1*
X11143Y39318D2*
X15038D1*
X15698D2*
X15813D1*
X16473D2*
X17358D1*
X18036D2*
X26167D1*
X26828D2*
X39138D1*
X11143Y39221D2*
X15038D1*
X15698D2*
X15813D1*
X16473D2*
X17358D1*
X18018D2*
X21281D1*
X21554D2*
X23822D1*
X24093D2*
X25506D1*
X27489D2*
X39138D1*
X11143Y39125D2*
X15038D1*
X15698D2*
X15813D1*
X16473D2*
X17358D1*
X18018D2*
X20967D1*
X21870D2*
X23506D1*
X24409D2*
X25506D1*
X27489D2*
X39138D1*
X11143Y39028D2*
X15038D1*
X15698D2*
X15813D1*
X16473D2*
X17358D1*
X18018D2*
X20813D1*
X22023D2*
X23352D1*
X24564D2*
X25506D1*
X27489D2*
X39138D1*
X11143Y38931D2*
X15038D1*
X15698D2*
X15813D1*
X16473D2*
X17358D1*
X18018D2*
X20703D1*
X22133D2*
X23244D1*
X24673D2*
X25506D1*
X27489D2*
X39138D1*
X11143Y38835D2*
X15038D1*
X15698D2*
X15813D1*
X16473D2*
X17358D1*
X18018D2*
X20622D1*
X22215D2*
X23161D1*
X24754D2*
X25506D1*
X27489D2*
X39138D1*
X11143Y38738D2*
X15038D1*
X15698D2*
X15813D1*
X16473D2*
X17358D1*
X18018D2*
X20558D1*
X22278D2*
X23097D1*
X24818D2*
X25506D1*
X27489D2*
X39138D1*
X11143Y38641D2*
X15038D1*
X15698D2*
X15813D1*
X16473D2*
X16697D1*
X18679D2*
X20509D1*
X22328D2*
X23048D1*
X24867D2*
X25506D1*
X27489D2*
X39138D1*
X11143Y38545D2*
X15038D1*
X15698D2*
X15813D1*
X16473D2*
X16697D1*
X18679D2*
X20472D1*
X22364D2*
X23013D1*
X24903D2*
X25506D1*
X27489D2*
X39138D1*
X11143Y38448D2*
X15038D1*
X15698D2*
X15813D1*
X16473D2*
X16697D1*
X18679D2*
X20447D1*
X22389D2*
X22988D1*
X24929D2*
X25506D1*
X27489D2*
X39136D1*
X11143Y38351D2*
X15038D1*
X15698D2*
X15813D1*
X16473D2*
X16697D1*
X18679D2*
X20431D1*
X22404D2*
X22972D1*
X24943D2*
X25506D1*
X27489D2*
X39136D1*
X11143Y38255D2*
X15038D1*
X15698D2*
X15813D1*
X16473D2*
X16697D1*
X18679D2*
X20427D1*
X22409D2*
X22967D1*
X24950D2*
X25506D1*
X27489D2*
X39136D1*
X11143Y38158D2*
X15038D1*
X15698D2*
X15813D1*
X16473D2*
X16697D1*
X18679D2*
X20431D1*
X22406D2*
X22970D1*
X24945D2*
X25506D1*
X27489D2*
X39136D1*
X11143Y38061D2*
X15038D1*
X15698D2*
X15813D1*
X16473D2*
X16697D1*
X18679D2*
X20444D1*
X22392D2*
X22984D1*
X24931D2*
X25506D1*
X27489D2*
X39136D1*
X11143Y37965D2*
X15038D1*
X15698D2*
X15813D1*
X16473D2*
X16697D1*
X18679D2*
X20469D1*
X22367D2*
X23008D1*
X24908D2*
X25506D1*
X27489D2*
X39136D1*
X11143Y37868D2*
X15038D1*
X15698D2*
X15813D1*
X16473D2*
X16697D1*
X18679D2*
X20503D1*
X22333D2*
X23044D1*
X24873D2*
X25506D1*
X27489D2*
X39136D1*
X11143Y37771D2*
X15038D1*
X15698D2*
X15813D1*
X16473D2*
X16697D1*
X18679D2*
X20550D1*
X22358D2*
X23091D1*
X24826D2*
X25506D1*
X27489D2*
X39136D1*
X11143Y37675D2*
X15038D1*
X15698D2*
X15813D1*
X16473D2*
X16697D1*
X18679D2*
X20611D1*
X22454D2*
X23152D1*
X24765D2*
X25506D1*
X27489D2*
X39136D1*
X11143Y37578D2*
X15038D1*
X15698D2*
X15813D1*
X16473D2*
X16697D1*
X18679D2*
X20691D1*
X22551D2*
X23231D1*
X24686D2*
X25506D1*
X27489D2*
X39136D1*
X11143Y37481D2*
X15038D1*
X15698D2*
X15813D1*
X16473D2*
X16697D1*
X18679D2*
X20795D1*
X22648D2*
X23336D1*
X24581D2*
X25506D1*
X27489D2*
X39136D1*
X11143Y37385D2*
X15038D1*
X15698D2*
X15813D1*
X16473D2*
X16697D1*
X18679D2*
X20941D1*
X22745D2*
X23481D1*
X24434D2*
X25506D1*
X27489D2*
X39136D1*
X11143Y37288D2*
X15038D1*
X15698D2*
X15813D1*
X16473D2*
X16697D1*
X18679D2*
X21203D1*
X21633D2*
X21916D1*
X22840D2*
X23744D1*
X24172D2*
X25506D1*
X27489D2*
X39136D1*
X11143Y37191D2*
X15038D1*
X15698D2*
X15813D1*
X16473D2*
X16697D1*
X18679D2*
X22011D1*
X22937D2*
X39136D1*
X11143Y37095D2*
X15038D1*
X15698D2*
X15813D1*
X16473D2*
X16697D1*
X18679D2*
X22108D1*
X23034D2*
X39136D1*
X11143Y36998D2*
X15038D1*
X15698D2*
X15813D1*
X16473D2*
X16697D1*
X18679D2*
X22205D1*
X23131D2*
X39136D1*
X11143Y36901D2*
X15038D1*
X15698D2*
X15813D1*
X16473D2*
X16697D1*
X18679D2*
X22302D1*
X23214D2*
X39134D1*
X11143Y36805D2*
X15038D1*
X15698D2*
X15813D1*
X16473D2*
X16697D1*
X18679D2*
X22398D1*
X23251D2*
X39134D1*
X11143Y36708D2*
X15038D1*
X15698D2*
X15813D1*
X16473D2*
X22495D1*
X23259D2*
X39134D1*
X11145Y36611D2*
X15038D1*
X15698D2*
X15813D1*
X16473D2*
X22592D1*
X23259D2*
X39134D1*
X11145Y36515D2*
X15038D1*
X15698D2*
X15813D1*
X16473D2*
X22597D1*
X23259D2*
X39134D1*
X11145Y36418D2*
X15038D1*
X15698D2*
X15813D1*
X16473D2*
X22597D1*
X23259D2*
X39134D1*
X11145Y36321D2*
X15038D1*
X15698D2*
X15813D1*
X16473D2*
X22597D1*
X23259D2*
X39134D1*
X11145Y36225D2*
X15038D1*
X15698D2*
X15813D1*
X16473D2*
X22597D1*
X23259D2*
X39134D1*
X11145Y36128D2*
X15038D1*
X15698D2*
X15813D1*
X16473D2*
X17528D1*
X17848D2*
X22597D1*
X23259D2*
X39134D1*
X11145Y36031D2*
X15038D1*
X15698D2*
X15813D1*
X16473D2*
X17230D1*
X18147D2*
X22597D1*
X23259D2*
X39134D1*
X11145Y35935D2*
X15038D1*
X15698D2*
X15813D1*
X16473D2*
X17078D1*
X18298D2*
X22597D1*
X23259D2*
X39134D1*
X11145Y35838D2*
X15038D1*
X15698D2*
X15813D1*
X16473D2*
X16970D1*
X18406D2*
X22597D1*
X23259D2*
X39134D1*
X11145Y35741D2*
X15038D1*
X15698D2*
X15813D1*
X16473D2*
X16889D1*
X18487D2*
X22597D1*
X23259D2*
X24636D1*
X26420D2*
X39134D1*
X11145Y35645D2*
X15038D1*
X15698D2*
X15813D1*
X16473D2*
X16825D1*
X18550D2*
X22597D1*
X23259D2*
X24636D1*
X26420D2*
X39134D1*
X11145Y35548D2*
X15038D1*
X15698D2*
X15813D1*
X16473D2*
X16777D1*
X18598D2*
X20186D1*
X21670D2*
X22186D1*
X23670D2*
X24636D1*
X26420D2*
X39134D1*
X11145Y35451D2*
X15038D1*
X15698D2*
X15813D1*
X16473D2*
X16741D1*
X18634D2*
X20186D1*
X21670D2*
X22186D1*
X23670D2*
X24636D1*
X26420D2*
X39133D1*
X11145Y35355D2*
X15038D1*
X15698D2*
X15813D1*
X16473D2*
X16717D1*
X18659D2*
X20186D1*
X21670D2*
X22186D1*
X23670D2*
X24636D1*
X26420D2*
X39133D1*
X11145Y35258D2*
X15038D1*
X15698D2*
X15813D1*
X16473D2*
X16702D1*
X18675D2*
X20186D1*
X21670D2*
X22186D1*
X23670D2*
X24636D1*
X26420D2*
X39133D1*
X11145Y35161D2*
X15038D1*
X15698D2*
X15813D1*
X16473D2*
X16697D1*
X18679D2*
X20186D1*
X21670D2*
X22186D1*
X26420D2*
X39133D1*
X11145Y35065D2*
X15038D1*
X15698D2*
X15813D1*
X16473D2*
X16702D1*
X18675D2*
X20186D1*
X21670D2*
X22186D1*
X26420D2*
X39133D1*
X11145Y34968D2*
X15038D1*
X15698D2*
X15813D1*
X16473D2*
X16716D1*
X18661D2*
X20186D1*
X21670D2*
X22186D1*
X26420D2*
X39133D1*
X11145Y34871D2*
X15038D1*
X15698D2*
X15813D1*
X16473D2*
X16739D1*
X18637D2*
X20186D1*
X21670D2*
X22186D1*
X26420D2*
X39133D1*
X11145Y34775D2*
X15038D1*
X15698D2*
X15813D1*
X16473D2*
X16775D1*
X18601D2*
X20186D1*
X21670D2*
X22186D1*
X26420D2*
X39133D1*
X11145Y34678D2*
X15038D1*
X15698D2*
X15813D1*
X16473D2*
X16822D1*
X18554D2*
X20186D1*
X21670D2*
X22186D1*
X26420D2*
X39133D1*
X11145Y34581D2*
X15038D1*
X15698D2*
X15813D1*
X16473D2*
X16884D1*
X18492D2*
X20186D1*
X21670D2*
X22186D1*
X26420D2*
X39133D1*
X11145Y34485D2*
X15038D1*
X15698D2*
X15813D1*
X16473D2*
X16964D1*
X18412D2*
X20186D1*
X21670D2*
X22186D1*
X23670D2*
X24636D1*
X26420D2*
X39133D1*
X11145Y34388D2*
X15038D1*
X15698D2*
X15813D1*
X16473D2*
X17069D1*
X18306D2*
X20186D1*
X21670D2*
X22186D1*
X23670D2*
X24636D1*
X26420D2*
X39133D1*
X11145Y34291D2*
X15038D1*
X15698D2*
X15813D1*
X16473D2*
X17217D1*
X18159D2*
X20186D1*
X21670D2*
X22186D1*
X23670D2*
X24636D1*
X26420D2*
X39133D1*
X11145Y34195D2*
X15038D1*
X15698D2*
X15813D1*
X16473D2*
X17491D1*
X17886D2*
X20186D1*
X21670D2*
X22186D1*
X23670D2*
X24636D1*
X26420D2*
X39133D1*
X11145Y34098D2*
X15038D1*
X15698D2*
X15813D1*
X16473D2*
X20186D1*
X21670D2*
X22186D1*
X23670D2*
X24636D1*
X26420D2*
X39133D1*
X11145Y34001D2*
X15038D1*
X15698D2*
X15813D1*
X16473D2*
X20186D1*
X21670D2*
X22186D1*
X23670D2*
X24636D1*
X26420D2*
X39133D1*
X11145Y33905D2*
X15038D1*
X15698D2*
X15813D1*
X16473D2*
X20717D1*
X21378D2*
X24636D1*
X26420D2*
X39131D1*
X11145Y33808D2*
X15038D1*
X15698D2*
X15813D1*
X16473D2*
X20717D1*
X21378D2*
X39131D1*
X11145Y33711D2*
X15038D1*
X15698D2*
X15813D1*
X16473D2*
X20717D1*
X21378D2*
X39131D1*
X11147Y33615D2*
X15038D1*
X15698D2*
X15813D1*
X16473D2*
X20717D1*
X21378D2*
X39131D1*
X11147Y33518D2*
X15038D1*
X15698D2*
X15813D1*
X16473D2*
X17286D1*
X18089D2*
X20717D1*
X21378D2*
X39131D1*
X11147Y33421D2*
X15038D1*
X15698D2*
X15813D1*
X16473D2*
X17114D1*
X18262D2*
X20717D1*
X21378D2*
X39131D1*
X11147Y33325D2*
X15038D1*
X15698D2*
X15813D1*
X16473D2*
X16997D1*
X18379D2*
X20156D1*
X21939D2*
X39131D1*
X11147Y33228D2*
X15038D1*
X15698D2*
X15813D1*
X16473D2*
X16909D1*
X18467D2*
X20156D1*
X21939D2*
X39131D1*
X11147Y33131D2*
X15038D1*
X15698D2*
X15813D1*
X16473D2*
X16842D1*
X18534D2*
X20156D1*
X21939D2*
X39131D1*
X11147Y33035D2*
X15038D1*
X15698D2*
X15813D1*
X16473D2*
X16789D1*
X18587D2*
X20156D1*
X21939D2*
X39131D1*
X11147Y32938D2*
X15038D1*
X15698D2*
X15813D1*
X16473D2*
X16750D1*
X19690D2*
X20156D1*
X21939D2*
X39131D1*
X11147Y32841D2*
X15038D1*
X15698D2*
X15813D1*
X16473D2*
X16722D1*
X19906D2*
X20156D1*
X21939D2*
X39131D1*
X11147Y32745D2*
X15038D1*
X15698D2*
X15813D1*
X16473D2*
X16705D1*
X20003D2*
X20156D1*
X21939D2*
X39131D1*
X11147Y32648D2*
X15038D1*
X15698D2*
X15813D1*
X16473D2*
X16697D1*
X21939D2*
X39131D1*
X11147Y32551D2*
X15038D1*
X15698D2*
X15813D1*
X16473D2*
X16698D1*
X21939D2*
X39131D1*
X11147Y32455D2*
X15038D1*
X15698D2*
X15813D1*
X16473D2*
X16711D1*
X21939D2*
X39130D1*
X11147Y32358D2*
X15038D1*
X15698D2*
X15813D1*
X16473D2*
X16731D1*
X21939D2*
X39130D1*
X11147Y32261D2*
X15038D1*
X15698D2*
X15813D1*
X16473D2*
X16764D1*
X18612D2*
X19559D1*
X21939D2*
X39130D1*
X11147Y32165D2*
X15038D1*
X15698D2*
X15813D1*
X16473D2*
X16808D1*
X18568D2*
X19658D1*
X21939D2*
X39130D1*
X11147Y32068D2*
X15038D1*
X15698D2*
X15813D1*
X16473D2*
X16866D1*
X18511D2*
X20156D1*
X21939D2*
X39130D1*
X11147Y31971D2*
X15038D1*
X15698D2*
X15813D1*
X16473D2*
X16939D1*
X18436D2*
X20156D1*
X21939D2*
X39130D1*
X11147Y31875D2*
X15038D1*
X15698D2*
X15813D1*
X16473D2*
X17038D1*
X18339D2*
X20156D1*
X21939D2*
X39130D1*
X11147Y31778D2*
X15038D1*
X15698D2*
X15813D1*
X16473D2*
X17170D1*
X18206D2*
X20156D1*
X21939D2*
X39130D1*
X11147Y31681D2*
X15038D1*
X15698D2*
X15813D1*
X16473D2*
X17384D1*
X17992D2*
X20156D1*
X21939D2*
X39130D1*
X11147Y31585D2*
X15038D1*
X15698D2*
X15813D1*
X16473D2*
X20156D1*
X21939D2*
X39130D1*
X11147Y31488D2*
X15038D1*
X15698D2*
X15813D1*
X16473D2*
X20156D1*
X21939D2*
X39130D1*
X11147Y31391D2*
X15038D1*
X15698D2*
X15813D1*
X16473D2*
X39130D1*
X11147Y31295D2*
X15038D1*
X15698D2*
X15813D1*
X16473D2*
X39130D1*
X11147Y31198D2*
X15038D1*
X15698D2*
X15813D1*
X16473D2*
X39130D1*
X11147Y31101D2*
X15038D1*
X15698D2*
X15813D1*
X16473D2*
X39130D1*
X11147Y31005D2*
X15038D1*
X15698D2*
X15813D1*
X16473D2*
X39130D1*
X11147Y30908D2*
X15038D1*
X15698D2*
X15813D1*
X16473D2*
X39128D1*
X11147Y30811D2*
X15038D1*
X15698D2*
X15813D1*
X16473D2*
X39128D1*
X11147Y30715D2*
X15038D1*
X15698D2*
X15813D1*
X16473D2*
X39128D1*
X11148Y30618D2*
X15038D1*
X15698D2*
X15813D1*
X16473D2*
X39128D1*
X11148Y30521D2*
X15038D1*
X15698D2*
X15813D1*
X16473D2*
X39128D1*
X11148Y30425D2*
X15038D1*
X15698D2*
X15813D1*
X16473D2*
X39128D1*
X11148Y30328D2*
X15038D1*
X15698D2*
X15813D1*
X16473D2*
X39128D1*
X11148Y30231D2*
X15038D1*
X15698D2*
X15813D1*
X16473D2*
X39128D1*
X11148Y30135D2*
X15038D1*
X15698D2*
X15813D1*
X16473D2*
X39128D1*
X11148Y30038D2*
X15038D1*
X15698D2*
X15813D1*
X16473D2*
X39128D1*
X11148Y29941D2*
X15038D1*
X15698D2*
X15813D1*
X16473D2*
X39128D1*
X11148Y29845D2*
X15038D1*
X15698D2*
X15813D1*
X16473D2*
X39128D1*
X11148Y29748D2*
X15038D1*
X15698D2*
X15813D1*
X16473D2*
X39128D1*
X11148Y29651D2*
X15038D1*
X15698D2*
X15813D1*
X16473D2*
X39128D1*
X11148Y29555D2*
X15038D1*
X15698D2*
X15813D1*
X16473D2*
X39128D1*
X11148Y29458D2*
X15038D1*
X15698D2*
X15813D1*
X16473D2*
X39127D1*
X11148Y29361D2*
X15038D1*
X15698D2*
X15813D1*
X16473D2*
X39127D1*
X11148Y29265D2*
X15038D1*
X15698D2*
X15813D1*
X16473D2*
X39127D1*
X11148Y29168D2*
X15038D1*
X15698D2*
X15813D1*
X16473D2*
X39127D1*
X11148Y29071D2*
X15038D1*
X15698D2*
X15813D1*
X16473D2*
X39127D1*
X11148Y28975D2*
X15038D1*
X15698D2*
X15813D1*
X16473D2*
X39127D1*
X11148Y28878D2*
X15038D1*
X15698D2*
X15813D1*
X16473D2*
X39127D1*
X11148Y28781D2*
X15038D1*
X15698D2*
X15813D1*
X16473D2*
X39127D1*
X11148Y28685D2*
X15038D1*
X15698D2*
X15813D1*
X16473D2*
X39127D1*
X11148Y28588D2*
X15038D1*
X15698D2*
X15813D1*
X16473D2*
X39127D1*
X11148Y28491D2*
X15038D1*
X15698D2*
X15813D1*
X16473D2*
X39127D1*
X11148Y28395D2*
X15038D1*
X15698D2*
X15813D1*
X16473D2*
X39127D1*
X11148Y28298D2*
X15038D1*
X15698D2*
X15813D1*
X16473D2*
X39127D1*
X11148Y28201D2*
X15038D1*
X15698D2*
X15813D1*
X16473D2*
X39127D1*
X11148Y28105D2*
X15038D1*
X15698D2*
X15813D1*
X16473D2*
X39127D1*
X11148Y28008D2*
X15038D1*
X15698D2*
X15813D1*
X16473D2*
X39125D1*
X11148Y27911D2*
X15038D1*
X15698D2*
X15813D1*
X16473D2*
X39125D1*
X11148Y27815D2*
X15038D1*
X15698D2*
X15813D1*
X16473D2*
X39125D1*
X11148Y27718D2*
X15038D1*
X15698D2*
X15813D1*
X16473D2*
X39125D1*
X11150Y27621D2*
X15038D1*
X15698D2*
X15813D1*
X16473D2*
X39125D1*
X11150Y27525D2*
X15038D1*
X15698D2*
X15813D1*
X16473D2*
X39125D1*
X11150Y27428D2*
X15038D1*
X15698D2*
X15813D1*
X16473D2*
X39125D1*
X11150Y27331D2*
X15038D1*
X15698D2*
X15813D1*
X16473D2*
X39125D1*
X11150Y27235D2*
X15038D1*
X15698D2*
X15813D1*
X16473D2*
X39125D1*
X11150Y27138D2*
X15038D1*
X15698D2*
X15813D1*
X16473D2*
X39125D1*
X11150Y27041D2*
X15038D1*
X15698D2*
X15813D1*
X16473D2*
X39125D1*
X11150Y26945D2*
X15038D1*
X15698D2*
X15813D1*
X16473D2*
X39125D1*
X11150Y26848D2*
X15038D1*
X15698D2*
X15813D1*
X16473D2*
X39125D1*
X11150Y26751D2*
X15038D1*
X15698D2*
X15813D1*
X16473D2*
X39125D1*
X11150Y26655D2*
X15038D1*
X15698D2*
X15813D1*
X16473D2*
X39125D1*
X11150Y26558D2*
X15038D1*
X15698D2*
X15813D1*
X16473D2*
X39125D1*
X11150Y26461D2*
X15038D1*
X15698D2*
X15813D1*
X16473D2*
X39123D1*
X11150Y26365D2*
X15038D1*
X15698D2*
X15813D1*
X16473D2*
X39123D1*
X11150Y26268D2*
X15038D1*
X15698D2*
X15813D1*
X16473D2*
X39123D1*
X11150Y26171D2*
X15038D1*
X15698D2*
X15813D1*
X16473D2*
X39123D1*
X11150Y26075D2*
X15038D1*
X15698D2*
X15813D1*
X16473D2*
X39123D1*
X11150Y25978D2*
X15038D1*
X15698D2*
X15813D1*
X16473D2*
X39123D1*
X11150Y25881D2*
X15038D1*
X15698D2*
X15813D1*
X16473D2*
X39123D1*
X11150Y25785D2*
X15038D1*
X15698D2*
X15813D1*
X16473D2*
X39123D1*
X11150Y25688D2*
X15038D1*
X15698D2*
X15813D1*
X16473D2*
X39123D1*
X11150Y25591D2*
X15038D1*
X15698D2*
X15813D1*
X16473D2*
X39123D1*
X11150Y25495D2*
X15038D1*
X15698D2*
X15813D1*
X16473D2*
X39123D1*
X11150Y25398D2*
X15038D1*
X15698D2*
X15813D1*
X16473D2*
X39123D1*
X11150Y25301D2*
X15038D1*
X15698D2*
X15813D1*
X16473D2*
X39123D1*
X11150Y25205D2*
X15038D1*
X15698D2*
X15813D1*
X16473D2*
X39123D1*
X11150Y25108D2*
X15038D1*
X15698D2*
X15813D1*
X16473D2*
X39123D1*
X11150Y25011D2*
X15038D1*
X15698D2*
X15813D1*
X16473D2*
X39122D1*
X11150Y24915D2*
X15038D1*
X15698D2*
X15813D1*
X16473D2*
X39122D1*
X11150Y24818D2*
X15038D1*
X15698D2*
X15813D1*
X16473D2*
X39122D1*
X11150Y24721D2*
X15038D1*
X15698D2*
X15813D1*
X16473D2*
X39122D1*
X11151Y24625D2*
X15038D1*
X15698D2*
X15813D1*
X16473D2*
X39122D1*
X11151Y24528D2*
X15038D1*
X15698D2*
X15813D1*
X16473D2*
X39122D1*
X11151Y24431D2*
X15038D1*
X15698D2*
X15813D1*
X16473D2*
X39122D1*
X11151Y24335D2*
X15038D1*
X15698D2*
X15813D1*
X16473D2*
X39122D1*
X11151Y24238D2*
X15038D1*
X15698D2*
X15813D1*
X16473D2*
X39122D1*
X11151Y24141D2*
X15038D1*
X15698D2*
X15813D1*
X16473D2*
X39122D1*
X11151Y24045D2*
X15038D1*
X15698D2*
X15813D1*
X16473D2*
X39122D1*
X11151Y23948D2*
X15038D1*
X15698D2*
X15813D1*
X16473D2*
X39122D1*
X11151Y23851D2*
X15038D1*
X15698D2*
X15813D1*
X16473D2*
X39122D1*
X11151Y23755D2*
X15038D1*
X15698D2*
X15813D1*
X16473D2*
X39122D1*
X11151Y23658D2*
X15013D1*
X15723D2*
X15813D1*
X16473D2*
X39122D1*
X11151Y23561D2*
X14872D1*
X16473D2*
X39122D1*
X11151Y23465D2*
X14780D1*
X16473D2*
X39120D1*
X11151Y23368D2*
X14714D1*
X16473D2*
X39120D1*
X11151Y23271D2*
X14669D1*
X16473D2*
X39120D1*
X11151Y23175D2*
X14639D1*
X16473D2*
X39120D1*
X11151Y23078D2*
X14622D1*
X16473D2*
X39120D1*
X11151Y22981D2*
X14619D1*
X16473D2*
X39120D1*
X11151Y22885D2*
X14628D1*
X16473D2*
X39120D1*
X11151Y22788D2*
X14650D1*
X16473D2*
X39120D1*
X11151Y22691D2*
X14688D1*
X16473D2*
X39120D1*
X11151Y22595D2*
X14742D1*
X16473D2*
X39120D1*
X11151Y22498D2*
X14819D1*
X16473D2*
X39120D1*
X11151Y22401D2*
X14930D1*
X16473D2*
X39120D1*
X11151Y22305D2*
X15117D1*
X15618D2*
X15813D1*
X16473D2*
X39120D1*
X11151Y22208D2*
X15813D1*
X16473D2*
X39120D1*
X11151Y22111D2*
X15813D1*
X16473D2*
X39120D1*
X11151Y22015D2*
X15813D1*
X16473D2*
X39119D1*
X11151Y21918D2*
X15813D1*
X16473D2*
X39119D1*
X11151Y21821D2*
X15813D1*
X16473D2*
X39119D1*
X11151Y21725D2*
X15813D1*
X16473D2*
X39119D1*
X11153Y21628D2*
X15813D1*
X16473D2*
X39119D1*
X11153Y21531D2*
X15780D1*
X16473D2*
X39119D1*
X11153Y21435D2*
X15683D1*
X16473D2*
X39119D1*
X11153Y21338D2*
X15586D1*
X16459D2*
X39119D1*
X11153Y21241D2*
X14955D1*
X16411D2*
X39119D1*
X11153Y21145D2*
X14805D1*
X16318D2*
X39119D1*
X11153Y21048D2*
X14708D1*
X16223D2*
X39119D1*
X11153Y20951D2*
X14641D1*
X16126D2*
X39119D1*
X11153Y20855D2*
X14592D1*
X16029D2*
X39119D1*
X11153Y20758D2*
X14561D1*
X16015D2*
X39119D1*
X11153Y20661D2*
X14544D1*
X16033D2*
X39119D1*
X11153Y20565D2*
X14539D1*
X16037D2*
X39119D1*
X11153Y20468D2*
X14547D1*
X16029D2*
X39117D1*
X11153Y20371D2*
X14567D1*
X16009D2*
X39117D1*
X11153Y20275D2*
X14603D1*
X15973D2*
X39117D1*
X11153Y20178D2*
X14655D1*
X15922D2*
X39117D1*
X11153Y20081D2*
X14728D1*
X15847D2*
X39117D1*
X11153Y19985D2*
X14834D1*
X15742D2*
X39117D1*
X11153Y19888D2*
X15008D1*
X15567D2*
X39117D1*
X11153Y19791D2*
X39117D1*
X11153Y19695D2*
X39117D1*
X11153Y19598D2*
X39117D1*
X11153Y19501D2*
X39117D1*
X11153Y19405D2*
X39117D1*
X11153Y19308D2*
X39117D1*
X11153Y19211D2*
X39117D1*
X11153Y19115D2*
X39117D1*
X11153Y19018D2*
X39116D1*
X11153Y18921D2*
X39116D1*
X11153Y18825D2*
X39116D1*
X11153Y18728D2*
X39116D1*
X11154Y18631D2*
X39116D1*
X11154Y18535D2*
X39116D1*
X11154Y18438D2*
X39116D1*
X11154Y18341D2*
X39116D1*
X11154Y18245D2*
X39116D1*
X11154Y18148D2*
X39116D1*
X11154Y18051D2*
X39116D1*
X11154Y17955D2*
X39116D1*
X11154Y17858D2*
X39116D1*
X11154Y17761D2*
X39116D1*
X11154Y17665D2*
X39116D1*
X11154Y17568D2*
X39114D1*
X11154Y17471D2*
X39114D1*
X11154Y17375D2*
X39114D1*
X11154Y17278D2*
X39114D1*
X11154Y17181D2*
X39114D1*
X11154Y17085D2*
X39114D1*
X11154Y16988D2*
X39114D1*
X11154Y16891D2*
X39114D1*
X11154Y16795D2*
X39114D1*
X11154Y16698D2*
X39114D1*
X11154Y16601D2*
X39114D1*
X11154Y16505D2*
X39114D1*
X11154Y16408D2*
X39114D1*
X11154Y16311D2*
X39114D1*
X11154Y16215D2*
X39114D1*
X11154Y16118D2*
X39114D1*
X11154Y16021D2*
X39113D1*
X11154Y15925D2*
X39113D1*
X11154Y15828D2*
X39113D1*
X11154Y15731D2*
X39113D1*
X11156Y15635D2*
X39113D1*
X11156Y15538D2*
X39113D1*
X11156Y15441D2*
X39113D1*
X11156Y15345D2*
X39113D1*
X11156Y15248D2*
X39113D1*
X11156Y15151D2*
X39113D1*
X11156Y15055D2*
X39113D1*
X11156Y14958D2*
X39113D1*
X11156Y14861D2*
X39113D1*
X11156Y14765D2*
X39113D1*
X11156Y14668D2*
X39113D1*
X11156Y14571D2*
X39111D1*
X11156Y14475D2*
X39111D1*
X11156Y14378D2*
X39111D1*
X11156Y14281D2*
X39111D1*
X11156Y14185D2*
X39111D1*
X11156Y14088D2*
X39111D1*
X11156Y13991D2*
X39111D1*
X11156Y13895D2*
X39111D1*
X11156Y13798D2*
X39111D1*
X11156Y13701D2*
X39111D1*
X11156Y13605D2*
X39111D1*
X11156Y13508D2*
X39111D1*
X11156Y13411D2*
X39111D1*
X11156Y13315D2*
X39111D1*
X11156Y13218D2*
X39111D1*
X11156Y13121D2*
X39111D1*
X11156Y13025D2*
X39109D1*
X11156Y12928D2*
X39109D1*
X11156Y12831D2*
X39109D1*
X11156Y12735D2*
X39109D1*
X11158Y12638D2*
X39109D1*
X11158Y12541D2*
X39109D1*
X11158Y12445D2*
X39109D1*
X11158Y12348D2*
X39109D1*
X11158Y12251D2*
X39109D1*
X11158Y12155D2*
X39109D1*
X11158Y12058D2*
X39109D1*
X11158Y11961D2*
X39109D1*
X11158Y11865D2*
X39109D1*
X11158Y11768D2*
X39109D1*
X11158Y11671D2*
X39109D1*
X11158Y11575D2*
X39108D1*
X11158Y11478D2*
X39108D1*
X11158Y11381D2*
X39108D1*
X11158Y11285D2*
X39108D1*
X11158Y11188D2*
X39108D1*
X11158Y11091D2*
X39108D1*
X11158Y10995D2*
X16936D1*
X16796Y41930D2*
X17407D1*
X17411Y42014D1*
X17423Y42064D1*
X17360Y42066D1*
X16746D1*
Y43830D1*
X18710D1*
Y43269D1*
X21939D1*
X21877Y43364D1*
X21834Y43455D1*
X21804Y43550D1*
X21788Y43649D1*
X21784Y43749D1*
X21795Y43848D1*
X21818Y43945D1*
X21855Y44038D1*
X21903Y44125D1*
X21941Y44177D1*
X18945D1*
X16630D1*
X16463Y44009D1*
Y21431D1*
X16460Y21382D1*
X16448Y21333D1*
X16429Y21287D1*
X16403Y21244D1*
X16369Y21205D1*
X15987Y20820D1*
X16013Y20724D1*
X16026Y20625D1*
Y20527D1*
X16013Y20428D1*
X15986Y20331D1*
X15947Y20239D1*
X15895Y20154D1*
X15833Y20076D1*
X15760Y20007D1*
X15679Y19949D1*
X15591Y19902D1*
X15497Y19867D1*
X15400Y19845D1*
X15300Y19837D1*
X15200Y19842D1*
X15102Y19861D1*
X15007Y19892D1*
X14918Y19936D1*
X14835Y19992D1*
X14760Y20058D1*
X14695Y20134D1*
X14641Y20218D1*
X14598Y20309D1*
X14569Y20404D1*
X14552Y20503D1*
X14549Y20602D1*
X14559Y20702D1*
X14582Y20799D1*
X14619Y20892D1*
X14667Y20979D1*
X14727Y21059D1*
X14797Y21130D1*
X14877Y21191D1*
X14963Y21241D1*
X15056Y21279D1*
X15153Y21304D1*
X15252Y21316D1*
X15352Y21314D1*
X15450Y21298D1*
X15533Y21274D1*
X15822Y21565D1*
Y22420D1*
X15759Y22376D1*
X15671Y22329D1*
X15577Y22294D1*
X15480Y22272D1*
X15380Y22264D1*
X15280Y22269D1*
X15182Y22288D1*
X15087Y22319D1*
X14998Y22363D1*
X14915Y22419D1*
X14840Y22486D1*
X14775Y22561D1*
X14721Y22645D1*
X14678Y22736D1*
X14649Y22831D1*
X14632Y22930D1*
X14629Y23030D1*
X14639Y23129D1*
X14662Y23226D1*
X14699Y23319D1*
X14747Y23407D1*
X14807Y23486D1*
X14877Y23558D1*
X14957Y23619D1*
X15047Y23670D1*
Y44497D1*
X15051Y44547D1*
X15063Y44596D1*
X15082Y44642D1*
X15108Y44685D1*
X15141Y44724D1*
X15497Y45080D1*
X15535Y45112D1*
X15577Y45138D1*
X15623Y45158D1*
X15672Y45169D1*
X15724Y45174D1*
X21628D1*
X22453Y45999D1*
X22858Y46404D1*
X22816Y46506D1*
X22787Y46602D1*
X22769Y46700D1*
X22760Y46800D1*
X22762Y46900D1*
X22773Y46999D1*
X22795Y47096D1*
X22827Y47191D1*
X22868Y47282D1*
X22918Y47369D1*
X22977Y47450D1*
X23043Y47524D1*
X23117Y47592D1*
X23197Y47651D1*
X23283Y47703D1*
X23374Y47745D1*
X23468Y47777D1*
X23566Y47800D1*
X23665Y47813D1*
X23765Y47816D1*
X23864Y47808D1*
X23963Y47791D1*
X24059Y47763D1*
X24152Y47726D1*
X24240Y47680D1*
X24324Y47625D1*
X24401Y47561D1*
X24471Y47490D1*
X24534Y47413D1*
X24589Y47329D1*
X24635Y47240D1*
X24672Y47147D1*
X24699Y47051D1*
X24716Y46953D1*
X24723Y46834D1*
X24718Y46734D1*
X24703Y46636D1*
X24678Y46539D1*
X24643Y46445D1*
X24598Y46355D1*
X24545Y46271D1*
X24484Y46192D1*
X24415Y46120D1*
X24339Y46055D1*
X24256Y45998D1*
X24169Y45950D1*
X24077Y45911D1*
X23981Y45882D1*
X23883Y45863D1*
X23783Y45853D1*
X23683Y45854D1*
X23584Y45865D1*
X23486Y45886D1*
X23391Y45917D1*
X23313Y45951D1*
X22179Y44819D1*
X23812Y44818D1*
X25398Y46405D1*
X25356Y46506D1*
X25327Y46602D1*
X25309Y46700D1*
X25300Y46800D1*
X25302Y46900D1*
X25313Y46999D1*
X25335Y47096D1*
X25367Y47191D1*
X25408Y47282D1*
X25458Y47369D1*
X25517Y47450D1*
X25583Y47524D1*
X25657Y47592D1*
X25737Y47651D1*
X25823Y47703D1*
X25914Y47745D1*
X26008Y47777D1*
X26106Y47800D1*
X26205Y47813D1*
X26305Y47816D1*
X26404Y47808D1*
X26503Y47791D1*
X26599Y47763D1*
X26692Y47726D1*
X26780Y47680D1*
X26864Y47625D1*
X26941Y47561D1*
X26977Y47528D1*
Y47717D1*
X26809Y47886D1*
X19897D1*
X19730Y47718D1*
Y47115D1*
X19802Y47075D1*
X19883Y47016D1*
X19956Y46947D1*
X20018Y46869D1*
X20069Y46784D1*
X20108Y46692D1*
X20135Y46595D1*
X20148Y46496D1*
Y46398D1*
X20134Y46299D1*
X20108Y46203D1*
X20068Y46111D1*
X20017Y46025D1*
X19954Y45947D1*
X19882Y45878D1*
X19801Y45820D1*
X19713Y45773D1*
X19619Y45738D1*
X19521Y45717D1*
X19422Y45708D1*
X19322Y45713D1*
X19224Y45732D1*
X19129Y45764D1*
X19039Y45808D1*
X18957Y45863D1*
X18882Y45930D1*
X18817Y46006D1*
X18763Y46090D1*
X18720Y46180D1*
X18690Y46275D1*
X18674Y46374D1*
X18670Y46474D1*
X18681Y46573D1*
X18704Y46670D1*
X18741Y46763D1*
X18789Y46851D1*
X18849Y46931D1*
X18919Y47002D1*
X18998Y47063D1*
X19089Y47115D1*
Y47851D1*
X19093Y47901D1*
X19105Y47949D1*
X19124Y47995D1*
X19149Y48038D1*
X19183Y48078D1*
X19539Y48433D1*
X19577Y48466D1*
X19619Y48492D1*
X19665Y48511D1*
X19714Y48523D1*
X19765Y48527D1*
X26942D1*
X26992Y48523D1*
X27041Y48512D1*
X27087Y48493D1*
X27130Y48467D1*
X27169Y48433D1*
X27525Y48078D1*
X27557Y48040D1*
X27583Y47997D1*
X27603Y47951D1*
X27615Y47903D1*
X27619Y47851D1*
Y44078D1*
X27615Y44029D1*
X27603Y43980D1*
X27584Y43934D1*
X27558Y43891D1*
X27525Y43852D1*
X27169Y43496D1*
X27131Y43463D1*
X27089Y43437D1*
X27043Y43418D1*
X26994Y43406D1*
X26942Y43402D1*
X23191D1*
X23158Y43342D1*
X23108Y43269D1*
X26092D1*
X26142Y43265D1*
X26191Y43253D1*
X26237Y43234D1*
X26280Y43208D1*
X26319Y43175D1*
X26675Y42819D1*
X26707Y42781D1*
X26733Y42739D1*
X26753Y42693D1*
X26764Y42644D1*
X26769Y42592D1*
Y41719D1*
X27180Y41720D1*
Y40056D1*
X26791D1*
X26812Y39989D1*
X26819Y39926D1*
Y39231D1*
X27480Y39230D1*
Y37266D1*
X25516D1*
Y39230D1*
X26177D1*
Y39806D1*
X26146Y39868D1*
X26134Y39913D1*
X26127Y39976D1*
Y40056D1*
X25716D1*
Y41720D1*
X26127D1*
Y42461D1*
X25959Y42627D1*
X18710D1*
Y42285D1*
X19378D1*
X22248D1*
X22298Y42282D1*
X22346Y42270D1*
X22393Y42251D1*
X22435Y42225D1*
X22473Y42193D1*
X22506Y42155D1*
X22533Y42113D1*
X22552Y42067D1*
X22564Y42018D1*
X22569Y41965D1*
Y41719D1*
X22980Y41720D1*
Y40056D1*
X21516D1*
Y41645D1*
X21248Y41644D1*
X18709D1*
X18710Y40930D1*
Y40166D1*
X18049D1*
Y39436D1*
X18045Y39386D1*
X18033Y39337D1*
X18012Y39287D1*
X18009Y39196D1*
Y38679D1*
X18670Y38680D1*
Y36716D1*
X16706D1*
Y38680D1*
X17367D1*
Y39396D1*
X17371Y39446D1*
X17383Y39494D1*
X17404Y39545D1*
X17407Y39636D1*
Y40166D1*
X16746D1*
Y41930D1*
X16796D1*
X20216Y33390D2*
X20727D1*
Y33975D1*
X20260Y33976D1*
X20196D1*
Y35640D1*
X21660D1*
Y33976D1*
X21368D1*
X21369Y33558D1*
Y33391D1*
X21930Y33390D1*
Y31426D1*
X20166D1*
Y32087D1*
X19876D1*
X19826Y32091D1*
X19777Y32103D1*
X19731Y32122D1*
X19688Y32148D1*
X19649Y32181D1*
X19533Y32297D1*
X18614D1*
X18589Y32229D1*
X18545Y32139D1*
X18492Y32055D1*
X18431Y31976D1*
X18361Y31904D1*
X18285Y31839D1*
X18203Y31782D1*
X18115Y31734D1*
X18023Y31695D1*
X17928Y31666D1*
X17830Y31646D1*
X17730Y31637D1*
X17630Y31638D1*
X17531Y31649D1*
X17433Y31670D1*
X17338Y31701D1*
X17247Y31741D1*
X17160Y31790D1*
X17078Y31848D1*
X17003Y31914D1*
X16935Y31988D1*
X16875Y32068D1*
X16823Y32153D1*
X16780Y32243D1*
X16747Y32338D1*
X16723Y32435D1*
X16710Y32534D1*
X16706Y32634D1*
X16713Y32733D1*
X16730Y32832D1*
X16756Y32928D1*
X16793Y33021D1*
X16838Y33110D1*
X16893Y33194D1*
X16956Y33272D1*
X17026Y33343D1*
X17103Y33407D1*
X17186Y33462D1*
X17275Y33509D1*
X17367Y33546D1*
X17463Y33574D1*
X17562Y33592D1*
X17661Y33599D1*
X17761Y33597D1*
X17860Y33585D1*
X17958Y33562D1*
X18052Y33530D1*
X18143Y33488D1*
X18229Y33437D1*
X18310Y33378D1*
X18384Y33311D1*
X18451Y33236D1*
X18510Y33156D1*
X18560Y33069D1*
X18601Y32978D1*
X18616Y32939D1*
X19666D1*
X19716Y32935D1*
X19764Y32923D1*
X19810Y32904D1*
X19853Y32878D1*
X19892Y32845D1*
X20008Y32729D1*
X20168D1*
X20166Y33026D1*
Y33390D1*
X20216D1*
X24696Y35830D2*
X26410D1*
Y33866D1*
X24646D1*
Y34527D1*
X23848D1*
X23800Y34505D1*
X23752Y34492D1*
X23695Y34487D1*
X23681Y34488D1*
X23660Y34440D1*
Y33976D1*
X22196D1*
Y35640D1*
X22607D1*
Y36606D1*
X22136Y37077D1*
X21845Y37364D1*
X21753Y37325D1*
X21658Y37296D1*
X21560Y37276D1*
X21460Y37267D1*
X21360Y37268D1*
X21261Y37279D1*
X21163Y37300D1*
X21068Y37331D1*
X20977Y37371D1*
X20890Y37420D1*
X20808Y37478D1*
X20733Y37544D1*
X20665Y37618D1*
X20605Y37697D1*
X20553Y37783D1*
X20511Y37873D1*
X20477Y37968D1*
X20453Y38065D1*
X20440Y38164D1*
X20436Y38264D1*
X20443Y38363D1*
X20460Y38462D1*
X20486Y38558D1*
X20523Y38651D1*
X20569Y38740D1*
X20623Y38824D1*
X20686Y38902D1*
X20756Y38973D1*
X20833Y39037D1*
X20916Y39092D1*
X21005Y39139D1*
X21097Y39176D1*
X21193Y39204D1*
X21292Y39222D1*
X21391Y39229D1*
X21491Y39227D1*
X21590Y39215D1*
X21688Y39192D1*
X21782Y39160D1*
X21873Y39118D1*
X21959Y39067D1*
X22040Y39008D1*
X22114Y38941D1*
X22181Y38866D1*
X22240Y38786D1*
X22290Y38699D1*
X22331Y38608D1*
X22363Y38514D1*
X22385Y38416D1*
X22397Y38317D1*
X22399Y38198D1*
X22388Y38099D1*
X22368Y38001D1*
X22338Y37905D1*
X22300Y37818D1*
X22847Y37273D1*
X23155Y36965D1*
X23187Y36927D1*
X23213Y36884D1*
X23233Y36838D1*
X23244Y36790D1*
X23249Y36738D1*
Y35640D1*
X23660D1*
Y35160D1*
X23709Y35168D1*
X23885Y35169D1*
X24646D1*
Y35830D1*
X24696D1*
X20269Y47816D2*
X22183D1*
Y45852D1*
X20219D1*
Y47816D1*
X20269D1*
X26978Y46143D2*
X26918Y46086D1*
X26838Y46026D1*
X26753Y45973D1*
X26663Y45930D1*
X26569Y45895D1*
X26472Y45871D1*
X26373Y45857D1*
X26273Y45852D1*
X26174Y45858D1*
X26075Y45874D1*
X25978Y45900D1*
X25885Y45936D1*
X25853Y45951D1*
X24171Y44271D1*
X24133Y44238D1*
X24091Y44212D1*
X24045Y44193D1*
X23996Y44181D1*
X23945Y44177D1*
X23109D1*
X23159Y44102D1*
X23190Y44043D1*
X25374D1*
X26810D1*
X26977Y44211D1*
Y46142D1*
X18669Y35108D2*
X18658Y35009D1*
X18638Y34911D1*
X18608Y34815D1*
X18568Y34724D1*
X18520Y34636D1*
X18462Y34554D1*
X18397Y34479D1*
X18324Y34410D1*
X18245Y34349D1*
X18160Y34297D1*
X18070Y34254D1*
X17976Y34219D1*
X17879Y34195D1*
X17780Y34181D1*
X17680Y34176D1*
X17580Y34182D1*
X17482Y34198D1*
X17385Y34224D1*
X17292Y34260D1*
X17203Y34305D1*
X17118Y34358D1*
X17040Y34420D1*
X16968Y34490D1*
X16904Y34567D1*
X16848Y34650D1*
X16801Y34738D1*
X16763Y34830D1*
X16734Y34926D1*
X16715Y35024D1*
X16707Y35124D1*
X16708Y35224D1*
X16720Y35323D1*
X16742Y35420D1*
X16773Y35515D1*
X16815Y35606D1*
X16865Y35693D1*
X16923Y35774D1*
X16990Y35848D1*
X17064Y35916D1*
X17144Y35975D1*
X17230Y36026D1*
X17321Y36068D1*
X17415Y36101D1*
X17512Y36124D1*
X17611Y36137D1*
X17711Y36140D1*
X17811Y36132D1*
X17909Y36114D1*
X18006Y36087D1*
X18098Y36050D1*
X18187Y36004D1*
X18270Y35948D1*
X18348Y35885D1*
X18418Y35814D1*
X18481Y35737D1*
X18536Y35653D1*
X18582Y35564D1*
X18619Y35471D1*
X18646Y35375D1*
X18663Y35277D1*
X18670Y35158D1*
X18669Y35108D1*
X24939Y38198D2*
X24928Y38099D1*
X24908Y38001D1*
X24878Y37905D1*
X24838Y37814D1*
X24790Y37726D1*
X24732Y37644D1*
X24667Y37569D1*
X24594Y37500D1*
X24515Y37439D1*
X24430Y37387D1*
X24340Y37343D1*
X24246Y37309D1*
X24149Y37285D1*
X24050Y37271D1*
X23950Y37266D1*
X23850Y37272D1*
X23752Y37288D1*
X23655Y37314D1*
X23562Y37350D1*
X23473Y37395D1*
X23388Y37448D1*
X23310Y37510D1*
X23238Y37580D1*
X23174Y37657D1*
X23118Y37740D1*
X23071Y37828D1*
X23033Y37920D1*
X23004Y38016D1*
X22985Y38114D1*
X22977Y38214D1*
X22978Y38314D1*
X22990Y38413D1*
X23012Y38510D1*
X23043Y38605D1*
X23085Y38696D1*
X23135Y38783D1*
X23193Y38864D1*
X23260Y38938D1*
X23334Y39006D1*
X23414Y39065D1*
X23500Y39116D1*
X23591Y39158D1*
X23685Y39191D1*
X23782Y39214D1*
X23881Y39227D1*
X23981Y39230D1*
X24081Y39222D1*
X24179Y39205D1*
X24276Y39177D1*
X24368Y39140D1*
X24457Y39094D1*
X24540Y39038D1*
X24618Y38975D1*
X24688Y38904D1*
X24751Y38827D1*
X24806Y38743D1*
X24852Y38654D1*
X24889Y38561D1*
X24915Y38465D1*
X24933Y38367D1*
X24940Y38248D1*
X24939Y38198D1*
X15688Y23670D2*
X15761Y23631D1*
X15823Y23587D1*
X15822Y24481D1*
Y44142D1*
X15826Y44192D1*
X15837Y44240D1*
X15856Y44286D1*
X15882Y44329D1*
X15916Y44369D1*
X16081Y44533D1*
X15855Y44532D1*
X15689Y44364D1*
Y23671D1*
X11128Y49128D2*
X11148Y10978D1*
X39118Y11058D1*
X39158Y49158D1*
X11128Y49178D1*
Y49128D1*
D15*
X26498Y38248D3*
D16*
X17728Y41048D3*
Y42948D3*
D17*
X21048Y32408D3*
X22948D3*
X25528Y34848D3*
X27428D3*
D18*
X20248Y40888D3*
X22248D3*
X26448D3*
X24448D3*
X20928Y34808D3*
X22928D3*
D15*
X17688Y37698D3*
X21201Y46834D3*
D24*
X23958Y38248D3*
X21418D3*
X17688Y35158D3*
Y32618D3*
X23741Y46834D3*
X26281D3*
X28821D3*
M02*
