G04 DipTrace 2.2.0.9*
%INTopPaste.gbr*%
%MOMM*%
%ADD27C,1.016*%
%ADD34R,1.625X0.99*%
%ADD36R,0.355X0.99*%
%ADD40R,0.796X0.796*%
%ADD42R,0.787X1.193*%
%ADD44R,0.609X0.609*%
%ADD46R,0.279X0.99*%
%ADD48R,0.696X0.496*%
%ADD52R,1.096X1.296*%
%ADD54R,1.296X1.096*%
%FSLAX53Y53*%
%SFA1B1*%
%OFA0B0*%
G04*
G71*
G90*
G75*
G01*
%LNTopPaste*%
%LPD*%
D27*
X27671Y33412D3*
X15368Y23004D3*
X15288Y20577D3*
X19410Y46448D3*
X22524Y43723D3*
D52*
X35468Y21968D3*
X33568D3*
X16248Y15088D3*
X14348D3*
X16208Y25248D3*
X14308D3*
X35508Y19008D3*
D48*
X15368Y21968D3*
D46*
X26848Y44048D3*
D44*
X36928Y37848D3*
X32048Y37408D3*
Y39643D3*
D42*
X36328Y43368D3*
D54*
X21088Y43308D3*
X12128Y41248D3*
D42*
X16968Y43248D3*
D54*
X33728Y45928D3*
D52*
X16928Y46448D3*
X15028D3*
D54*
X12128Y43148D3*
D52*
X13968Y38208D3*
X12068D3*
D48*
X15368Y18768D3*
X16668D3*
Y21968D3*
D52*
X33608Y19008D3*
D54*
X37408Y47888D3*
Y45988D3*
X33728Y47828D3*
D42*
X15063Y43261D3*
X16028Y41038D3*
D54*
X21088Y41408D3*
X30368Y41848D3*
Y43748D3*
D40*
X20762Y35158D3*
Y33151D3*
Y31551D3*
Y29958D3*
X23962Y35158D3*
X22362D3*
X20762Y28358D3*
Y26758D3*
Y25150D3*
Y23558D3*
Y21958D3*
Y20358D3*
Y18758D3*
Y17149D3*
Y15549D3*
Y13949D3*
Y12349D3*
X23412D3*
X25004D3*
X26605D3*
X29272D3*
Y13949D3*
Y15549D3*
Y17149D3*
Y18749D3*
Y20350D3*
Y21950D3*
Y23550D3*
Y25150D3*
Y26750D3*
Y28351D3*
Y29951D3*
Y31551D3*
Y33149D3*
Y35158D3*
X27671D3*
D44*
X34693Y37848D3*
D42*
X34423Y43381D3*
X35388Y41158D3*
D36*
X25278Y44040D3*
D46*
X23698Y44048D3*
D34*
X25253Y40992D3*
M02*
