G04 DipTrace 2.2.0.9*
%INTopSilk.gbr*%
%MOMM*%
%ADD10C,0.25*%
%ADD57C,0.196*%
%ADD58C,0.157*%
%ADD59C,0.118*%
%ADD60C,0.275*%
%FSLAX53Y53*%
%SFA1B1*%
%OFA0B0*%
G04*
G71*
G90*
G75*
G01*
%LNTopSilk*%
%LPD*%
X36518Y22618D2*
D10*
Y21319D1*
X17298Y15738D2*
Y14438D1*
X17258Y25897D2*
Y24599D1*
X31667Y38119D2*
X32404D1*
X31311Y36646D2*
X32759D1*
Y40304D1*
X31311D1*
Y36646D1*
X12778Y40298D2*
X11478D1*
X15018Y38857D2*
Y37559D1*
X36558Y19658D2*
Y18358D1*
X15266Y41038D2*
X13869Y41064D1*
X13844Y42918D1*
X13920Y42969D2*
X14377D1*
X15749Y42994D2*
X16308D1*
X17705D2*
X18187D1*
X18162D2*
Y41064D1*
X16790Y41038D1*
X20439Y44358D2*
X21738D1*
X27768Y39518D2*
Y36978D1*
X20148D1*
Y39518D2*
Y36978D1*
X27768Y39518D2*
X20148D1*
X16418Y38968D2*
X18958D1*
Y31348D1*
X16418D2*
X18958D1*
X16418Y38968D2*
Y31348D1*
X36217Y37467D2*
Y38204D1*
X34032Y38559D2*
X37690D1*
Y37111D1*
X34032D1*
Y38559D1*
X34626Y41158D2*
X33229Y41184D1*
X33204Y43038D1*
X33280Y43089D2*
X33737D1*
X35109Y43114D2*
X35668D1*
X37065D2*
X37547D1*
X37522D2*
Y41184D1*
X36150Y41158D1*
X30091Y45564D2*
Y48104D1*
X19931Y45564D2*
X30091D1*
X19931Y48104D2*
X30091D1*
X19931Y45564D2*
Y48104D1*
X23424Y43177D2*
X27107D1*
Y41805D1*
X23424D1*
Y43177D1*
X34552Y24275D2*
D57*
X34492Y24395D1*
D2*
X34370Y24518D1*
D2*
X34249Y24578D1*
D2*
X34006D1*
D2*
X33884Y24518D1*
D2*
X33763Y24395D1*
D2*
X33701Y24275D1*
D2*
X33641Y24092D1*
D2*
Y23788D1*
D2*
X33701Y23606D1*
D2*
X33763Y23484D1*
D2*
X33884Y23364D1*
D2*
X34006Y23302D1*
D2*
X34249D1*
D2*
X34370Y23364D1*
D2*
X34492Y23484D1*
D2*
X34552Y23606D1*
X35066Y24576D2*
X35733D1*
D2*
X35370Y24091D1*
D2*
X35552D1*
D2*
X35673Y24030D1*
D2*
X35733Y23970D1*
D2*
X35795Y23788D1*
D2*
Y23667D1*
D2*
X35733Y23484D1*
D2*
X35612Y23362D1*
D2*
X35430Y23302D1*
D2*
X35247D1*
D2*
X35066Y23362D1*
D2*
X35006Y23424D1*
D2*
X34944Y23545D1*
X15257Y17395D2*
X15197Y17515D1*
D2*
X15074Y17638D1*
D2*
X14954Y17698D1*
D2*
X14711D1*
D2*
X14589Y17638D1*
D2*
X14468Y17515D1*
D2*
X14406Y17395D1*
D2*
X14346Y17212D1*
D2*
Y16908D1*
D2*
X14406Y16726D1*
D2*
X14468Y16604D1*
D2*
X14589Y16484D1*
D2*
X14711Y16422D1*
D2*
X14954D1*
D2*
X15074Y16484D1*
D2*
X15197Y16604D1*
D2*
X15257Y16726D1*
X15649Y17454D2*
X15771Y17515D1*
D2*
X15954Y17696D1*
D2*
Y16422D1*
X16346Y17454D2*
X16468Y17515D1*
D2*
X16650Y17696D1*
D2*
Y16422D1*
X14944Y27555D2*
X14883Y27675D1*
D2*
X14761Y27798D1*
D2*
X14641Y27858D1*
D2*
X14398D1*
D2*
X14276Y27798D1*
D2*
X14155Y27675D1*
D2*
X14093Y27555D1*
D2*
X14033Y27372D1*
D2*
Y27068D1*
D2*
X14093Y26886D1*
D2*
X14155Y26764D1*
D2*
X14276Y26644D1*
D2*
X14398Y26582D1*
D2*
X14641D1*
D2*
X14761Y26644D1*
D2*
X14883Y26764D1*
D2*
X14944Y26886D1*
X15336Y27614D2*
X15458Y27675D1*
D2*
X15641Y27856D1*
D2*
Y26582D1*
X16398Y27856D2*
X16215Y27796D1*
D2*
X16093Y27614D1*
D2*
X16033Y27310D1*
D2*
Y27128D1*
D2*
X16093Y26825D1*
D2*
X16215Y26642D1*
D2*
X16398Y26582D1*
D2*
X16519D1*
D2*
X16701Y26642D1*
D2*
X16822Y26825D1*
D2*
X16884Y27128D1*
D2*
Y27310D1*
D2*
X16822Y27614D1*
D2*
X16701Y27796D1*
D2*
X16519Y27856D1*
D2*
X16398D1*
X16822Y27614D2*
X16093Y26825D1*
X29452Y37428D2*
X30728D1*
D2*
Y37853D1*
D2*
X30666Y38036D1*
D2*
X30545Y38158D1*
D2*
X30423Y38218D1*
D2*
X30242Y38279D1*
D2*
X29937D1*
D2*
X29755Y38218D1*
D2*
X29634Y38158D1*
D2*
X29512Y38036D1*
D2*
X29452Y37853D1*
D2*
Y37428D1*
X29756Y38733D2*
X29696D1*
D2*
X29574Y38793D1*
D2*
X29513Y38853D1*
D2*
X29453Y38976D1*
D2*
Y39218D1*
D2*
X29513Y39339D1*
D2*
X29574Y39399D1*
D2*
X29696Y39461D1*
D2*
X29817D1*
D2*
X29939Y39399D1*
D2*
X30120Y39279D1*
D2*
X30728Y38671D1*
D2*
Y39522D1*
X14260Y48293D2*
D58*
X14697D1*
D2*
X14843Y48343D1*
D2*
X14893Y48391D1*
D2*
X14941Y48487D1*
D2*
Y48585D1*
D2*
X14893Y48682D1*
D2*
X14843Y48731D1*
D2*
X14697Y48779D1*
D2*
X14260D1*
D2*
Y47759D1*
X14601Y48293D2*
X14941Y47759D1*
X15352Y48778D2*
X15886D1*
D2*
X15595Y48390D1*
D2*
X15741D1*
D2*
X15838Y48341D1*
D2*
X15886Y48293D1*
D2*
X15935Y48147D1*
D2*
Y48051D1*
D2*
X15886Y47905D1*
D2*
X15789Y47807D1*
D2*
X15643Y47759D1*
D2*
X15497D1*
D2*
X15352Y47807D1*
D2*
X15304Y47856D1*
D2*
X15255Y47953D1*
X10588Y44259D2*
X11609D1*
D2*
Y44599D1*
D2*
X11559Y44745D1*
D2*
X11463Y44843D1*
D2*
X11365Y44891D1*
D2*
X11220Y44939D1*
D2*
X10976D1*
D2*
X10830Y44891D1*
D2*
X10734Y44843D1*
D2*
X10636Y44745D1*
D2*
X10588Y44599D1*
D2*
Y44259D1*
X10783Y45253D2*
X10734Y45351D1*
D2*
X10589Y45497D1*
D2*
X11609D1*
X12169Y36727D2*
X12121Y36823D1*
D2*
X12023Y36921D1*
D2*
X11927Y36969D1*
D2*
X11732D1*
D2*
X11635Y36921D1*
D2*
X11538Y36823D1*
D2*
X11489Y36727D1*
D2*
X11440Y36581D1*
D2*
Y36337D1*
D2*
X11489Y36192D1*
D2*
X11538Y36095D1*
D2*
X11635Y35998D1*
D2*
X11732Y35949D1*
D2*
X11927D1*
D2*
X12023Y35998D1*
D2*
X12121Y36095D1*
D2*
X12169Y36192D1*
X12532Y36726D2*
Y36774D1*
D2*
X12581Y36872D1*
D2*
X12629Y36920D1*
D2*
X12727Y36968D1*
D2*
X12921D1*
D2*
X13018Y36920D1*
D2*
X13066Y36872D1*
D2*
X13115Y36774D1*
D2*
Y36677D1*
D2*
X13066Y36580D1*
D2*
X12969Y36435D1*
D2*
X12483Y35949D1*
D2*
X13164D1*
X12173Y19329D2*
X11540D1*
D2*
Y18309D1*
Y18843D2*
X11929D1*
X12486Y19329D2*
Y18309D1*
D2*
X12924D1*
D2*
X13070Y18358D1*
D2*
X13119Y18406D1*
D2*
X13167Y18503D1*
D2*
Y18649D1*
D2*
X13119Y18747D1*
D2*
X13070Y18795D1*
D2*
X12924Y18843D1*
D2*
X13070Y18893D1*
D2*
X13119Y18941D1*
D2*
X13167Y19037D1*
D2*
Y19135D1*
D2*
X13119Y19232D1*
D2*
X13070Y19281D1*
D2*
X12924Y19329D1*
D2*
X12486D1*
Y18843D2*
X12924D1*
X13530Y19086D2*
Y19134D1*
D2*
X13578Y19232D1*
D2*
X13627Y19280D1*
D2*
X13724Y19328D1*
D2*
X13919D1*
D2*
X14015Y19280D1*
D2*
X14064Y19232D1*
D2*
X14113Y19134D1*
D2*
Y19037D1*
D2*
X14064Y18940D1*
D2*
X13967Y18795D1*
D2*
X13481Y18309D1*
D2*
X14161D1*
X12243Y22579D2*
X11610D1*
D2*
Y21559D1*
Y22093D2*
X11999D1*
X12556Y22579D2*
Y21559D1*
D2*
X12994D1*
D2*
X13140Y21608D1*
D2*
X13189Y21656D1*
D2*
X13237Y21753D1*
D2*
Y21899D1*
D2*
X13189Y21997D1*
D2*
X13140Y22045D1*
D2*
X12994Y22093D1*
D2*
X13140Y22143D1*
D2*
X13189Y22191D1*
D2*
X13237Y22287D1*
D2*
Y22385D1*
D2*
X13189Y22482D1*
D2*
X13140Y22531D1*
D2*
X12994Y22579D1*
D2*
X12556D1*
Y22093D2*
X12994D1*
X13551Y22384D2*
X13648Y22433D1*
D2*
X13794Y22578D1*
D2*
Y21559D1*
X34321Y17480D2*
D57*
X34261Y17601D1*
D2*
X34139Y17723D1*
D2*
X34018Y17783D1*
D2*
X33775D1*
D2*
X33653Y17723D1*
D2*
X33532Y17601D1*
D2*
X33470Y17480D1*
D2*
X33410Y17298D1*
D2*
Y16993D1*
D2*
X33470Y16812D1*
D2*
X33532Y16690D1*
D2*
X33653Y16569D1*
D2*
X33775Y16507D1*
D2*
X34018D1*
D2*
X34139Y16569D1*
D2*
X34261Y16690D1*
D2*
X34321Y16812D1*
X35321Y16507D2*
Y17782D1*
D2*
X34713Y16933D1*
D2*
X35624D1*
X35675Y47293D2*
D59*
Y47620D1*
D2*
X35638Y47730D1*
D2*
X35602Y47767D1*
D2*
X35529Y47803D1*
D2*
X35456D1*
D2*
X35383Y47767D1*
D2*
X35346Y47730D1*
D2*
X35310Y47620D1*
D2*
Y47293D1*
D2*
X36076D1*
X35675Y47548D2*
X36076Y47803D1*
X35311Y48476D2*
Y48112D1*
D2*
X35639Y48076D1*
D2*
X35602Y48112D1*
D2*
X35565Y48221D1*
D2*
Y48330D1*
D2*
X35602Y48439D1*
D2*
X35675Y48513D1*
D2*
X35784Y48549D1*
D2*
X35857D1*
D2*
X35966Y48513D1*
D2*
X36040Y48439D1*
D2*
X36076Y48330D1*
D2*
Y48221D1*
D2*
X36040Y48112D1*
D2*
X36002Y48076D1*
D2*
X35930Y48038D1*
X31983Y47351D2*
Y47678D1*
D2*
X31946Y47788D1*
D2*
X31910Y47825D1*
D2*
X31837Y47861D1*
D2*
X31764D1*
D2*
X31691Y47825D1*
D2*
X31654Y47788D1*
D2*
X31618Y47678D1*
D2*
Y47351D1*
D2*
X32384D1*
X31983Y47606D2*
X32384Y47861D1*
Y48461D2*
X31619D1*
D2*
X32129Y48096D1*
D2*
Y48643D1*
X13642Y45249D2*
D58*
X13546Y45202D1*
D2*
X13448Y45105D1*
D2*
X13400Y45007D1*
D2*
X13350Y44861D1*
D2*
Y44618D1*
D2*
X13400Y44472D1*
D2*
X13448Y44376D1*
D2*
X13546Y44278D1*
D2*
X13642Y44230D1*
D2*
X13837D1*
D2*
X13934Y44278D1*
D2*
X14031Y44376D1*
D2*
X14079Y44472D1*
D2*
X14129Y44618D1*
D2*
Y44861D1*
D2*
X14079Y45007D1*
D2*
X14031Y45105D1*
D2*
X13934Y45202D1*
D2*
X13837Y45249D1*
D2*
X13642D1*
X13788Y44424D2*
X14079Y44132D1*
X14492Y45006D2*
Y45054D1*
D2*
X14540Y45152D1*
D2*
X14588Y45200D1*
D2*
X14686Y45248D1*
D2*
X14880D1*
D2*
X14977Y45200D1*
D2*
X15025Y45152D1*
D2*
X15075Y45054D1*
D2*
Y44957D1*
D2*
X15025Y44860D1*
D2*
X14929Y44715D1*
D2*
X14442Y44229D1*
D2*
X15123D1*
X19089Y42249D2*
X18992Y42201D1*
D2*
X18894Y42103D1*
D2*
X18846Y42007D1*
D2*
Y41812D1*
D2*
X18894Y41715D1*
D2*
X18992Y41618D1*
D2*
X19089Y41569D1*
D2*
X19235Y41520D1*
D2*
X19478D1*
D2*
X19623Y41569D1*
D2*
X19721Y41618D1*
D2*
X19818Y41715D1*
D2*
X19867Y41812D1*
D2*
Y42007D1*
D2*
X19818Y42103D1*
D2*
X19721Y42201D1*
D2*
X19623Y42249D1*
X19186Y43195D2*
X19332Y43146D1*
D2*
X19430Y43049D1*
D2*
X19478Y42903D1*
D2*
Y42855D1*
D2*
X19430Y42709D1*
D2*
X19332Y42612D1*
D2*
X19186Y42563D1*
D2*
X19138D1*
D2*
X18992Y42612D1*
D2*
X18896Y42709D1*
D2*
X18847Y42855D1*
D2*
Y42903D1*
D2*
X18896Y43049D1*
D2*
X18992Y43146D1*
D2*
X19186Y43195D1*
D2*
X19430D1*
D2*
X19673Y43146D1*
D2*
X19819Y43049D1*
D2*
X19867Y42903D1*
D2*
Y42807D1*
D2*
X19819Y42661D1*
D2*
X19721Y42612D1*
X28562Y41930D2*
Y42367D1*
D2*
X28513Y42513D1*
D2*
X28465Y42563D1*
D2*
X28368Y42611D1*
D2*
X28270D1*
D2*
X28174Y42563D1*
D2*
X28124Y42513D1*
D2*
X28076Y42367D1*
D2*
Y41930D1*
D2*
X29097D1*
X28562Y42271D2*
X29097Y42611D1*
X28222Y43508D2*
X28126Y43459D1*
D2*
X28077Y43313D1*
D2*
Y43217D1*
D2*
X28126Y43071D1*
D2*
X28272Y42973D1*
D2*
X28514Y42925D1*
D2*
X28757D1*
D2*
X28951Y42973D1*
D2*
X29049Y43071D1*
D2*
X29097Y43217D1*
D2*
Y43265D1*
D2*
X29049Y43410D1*
D2*
X28951Y43508D1*
D2*
X28805Y43556D1*
D2*
X28757D1*
D2*
X28611Y43508D1*
D2*
X28514Y43410D1*
D2*
X28466Y43265D1*
D2*
Y43217D1*
D2*
X28514Y43071D1*
D2*
X28611Y42973D1*
D2*
X28757Y42925D1*
X18467Y40749D2*
Y39972D1*
D2*
X18418Y39826D1*
D2*
X18369Y39778D1*
D2*
X18272Y39729D1*
D2*
X18175D1*
D2*
X18078Y39778D1*
D2*
X18030Y39826D1*
D2*
X17980Y39972D1*
D2*
Y40069D1*
X18780Y40215D2*
X19218D1*
D2*
X19363Y40263D1*
D2*
X19413Y40313D1*
D2*
X19461Y40409D1*
D2*
Y40555D1*
D2*
X19413Y40652D1*
D2*
X19363Y40701D1*
D2*
X19218Y40749D1*
D2*
X18780D1*
D2*
Y39729D1*
X19775Y40554D2*
X19872Y40603D1*
D2*
X20018Y40748D1*
D2*
Y39729D1*
X15056Y34287D2*
X15833D1*
D2*
X15979Y34238D1*
D2*
X16028Y34189D1*
D2*
X16077Y34092D1*
D2*
Y33995D1*
D2*
X16028Y33898D1*
D2*
X15979Y33850D1*
D2*
X15833Y33800D1*
D2*
X15737D1*
X15591Y34600D2*
Y35038D1*
D2*
X15542Y35183D1*
D2*
X15493Y35233D1*
D2*
X15396Y35281D1*
D2*
X15250D1*
D2*
X15154Y35233D1*
D2*
X15104Y35183D1*
D2*
X15056Y35038D1*
D2*
Y34600D1*
D2*
X16077D1*
X15300Y35644D2*
X15252D1*
D2*
X15154Y35692D1*
D2*
X15106Y35741D1*
D2*
X15057Y35838D1*
D2*
Y36033D1*
D2*
X15106Y36129D1*
D2*
X15154Y36178D1*
D2*
X15252Y36227D1*
D2*
X15348D1*
D2*
X15446Y36178D1*
D2*
X15591Y36081D1*
D2*
X16077Y35595D1*
D2*
Y36275D1*
X33430Y39869D2*
Y38849D1*
D2*
X33771D1*
D2*
X33917Y38898D1*
D2*
X34014Y38995D1*
D2*
X34063Y39092D1*
D2*
X34111Y39237D1*
D2*
Y39481D1*
D2*
X34063Y39627D1*
D2*
X34014Y39723D1*
D2*
X33917Y39821D1*
D2*
X33771Y39869D1*
D2*
X33430D1*
X34522Y39868D2*
X35056D1*
D2*
X34765Y39480D1*
D2*
X34911D1*
D2*
X35008Y39431D1*
D2*
X35056Y39383D1*
D2*
X35105Y39237D1*
D2*
Y39141D1*
D2*
X35056Y38995D1*
D2*
X34959Y38897D1*
D2*
X34813Y38849D1*
D2*
X34667D1*
D2*
X34522Y38897D1*
D2*
X34474Y38946D1*
D2*
X34425Y39043D1*
X32272Y44539D2*
X32176Y44492D1*
D2*
X32078Y44395D1*
D2*
X32030Y44297D1*
D2*
X31980Y44151D1*
D2*
Y43908D1*
D2*
X32030Y43762D1*
D2*
X32078Y43666D1*
D2*
X32176Y43568D1*
D2*
X32272Y43520D1*
D2*
X32467D1*
D2*
X32564Y43568D1*
D2*
X32661Y43666D1*
D2*
X32709Y43762D1*
D2*
X32759Y43908D1*
D2*
Y44151D1*
D2*
X32709Y44297D1*
D2*
X32661Y44395D1*
D2*
X32564Y44492D1*
D2*
X32467Y44539D1*
D2*
X32272D1*
X32418Y43714D2*
X32709Y43422D1*
X33072Y44344D2*
X33170Y44393D1*
D2*
X33316Y44538D1*
D2*
Y43519D1*
X27060Y41299D2*
Y40571D1*
D2*
X27109Y40425D1*
D2*
X27206Y40328D1*
D2*
X27352Y40279D1*
D2*
X27449D1*
D2*
X27595Y40328D1*
D2*
X27693Y40425D1*
D2*
X27741Y40571D1*
D2*
Y41299D1*
X28104Y41056D2*
Y41104D1*
D2*
X28152Y41202D1*
D2*
X28201Y41250D1*
D2*
X28298Y41298D1*
D2*
X28493D1*
D2*
X28589Y41250D1*
D2*
X28638Y41202D1*
D2*
X28687Y41104D1*
D2*
Y41007D1*
D2*
X28638Y40910D1*
D2*
X28541Y40765D1*
D2*
X28055Y40279D1*
D2*
X28735D1*
X23835Y23596D2*
D60*
X23750Y23766D1*
D2*
X23579Y23937D1*
D2*
X23410Y24021D1*
D2*
X23070D1*
D2*
X22899Y23937D1*
D2*
X22730Y23766D1*
D2*
X22644Y23596D1*
D2*
X22559Y23341D1*
D2*
Y22915D1*
D2*
X22644Y22661D1*
D2*
X22730Y22490D1*
D2*
X22899Y22321D1*
D2*
X23070Y22234D1*
D2*
X23410D1*
D2*
X23579Y22321D1*
D2*
X23750Y22490D1*
D2*
X23835Y22661D1*
D2*
Y22915D1*
D2*
X23410D1*
X24384Y23085D2*
X25150D1*
D2*
X25404Y23170D1*
D2*
X25490Y23256D1*
D2*
X25575Y23426D1*
D2*
Y23681D1*
D2*
X25490Y23850D1*
D2*
X25404Y23937D1*
D2*
X25150Y24021D1*
D2*
X24384D1*
D2*
Y22234D1*
X27315Y23766D2*
X27146Y23937D1*
D2*
X26890Y24021D1*
D2*
X26550D1*
D2*
X26295Y23937D1*
D2*
X26124Y23766D1*
D2*
Y23596D1*
D2*
X26210Y23426D1*
D2*
X26295Y23341D1*
D2*
X26464Y23256D1*
D2*
X26975Y23085D1*
D2*
X27146Y23001D1*
D2*
X27230Y22915D1*
D2*
X27315Y22745D1*
D2*
Y22490D1*
D2*
X27146Y22321D1*
D2*
X26890Y22234D1*
D2*
X26550D1*
D2*
X26295Y22321D1*
D2*
X26124Y22490D1*
X31609Y11947D2*
D58*
X31561Y12043D1*
D2*
X31463Y12141D1*
D2*
X31367Y12189D1*
D2*
X31172D1*
D2*
X31075Y12141D1*
D2*
X30978Y12043D1*
D2*
X30929Y11947D1*
D2*
X30880Y11801D1*
D2*
Y11557D1*
D2*
X30929Y11412D1*
D2*
X30978Y11315D1*
D2*
X31075Y11218D1*
D2*
X31172Y11169D1*
D2*
X31367D1*
D2*
X31463Y11218D1*
D2*
X31561Y11315D1*
D2*
X31609Y11412D1*
D2*
Y11557D1*
D2*
X31367D1*
X31923Y11655D2*
X32361D1*
D2*
X32506Y11703D1*
D2*
X32555Y11753D1*
D2*
X32604Y11849D1*
D2*
Y11995D1*
D2*
X32555Y12092D1*
D2*
X32506Y12141D1*
D2*
X32361Y12189D1*
D2*
X31923D1*
D2*
Y11169D1*
X33598Y12043D2*
X33501Y12141D1*
D2*
X33355Y12189D1*
D2*
X33161D1*
D2*
X33015Y12141D1*
D2*
X32917Y12043D1*
D2*
Y11947D1*
D2*
X32967Y11849D1*
D2*
X33015Y11801D1*
D2*
X33112Y11753D1*
D2*
X33404Y11655D1*
D2*
X33501Y11607D1*
D2*
X33550Y11557D1*
D2*
X33598Y11461D1*
D2*
Y11315D1*
D2*
X33501Y11218D1*
D2*
X33355Y11169D1*
D2*
X33161D1*
D2*
X33015Y11218D1*
D2*
X32917Y11315D1*
X34899Y12189D2*
Y11169D1*
D2*
X35337D1*
D2*
X35483Y11218D1*
D2*
X35531Y11266D1*
D2*
X35580Y11363D1*
D2*
Y11509D1*
D2*
X35531Y11607D1*
D2*
X35483Y11655D1*
D2*
X35337Y11703D1*
D2*
X35483Y11753D1*
D2*
X35531Y11801D1*
D2*
X35580Y11897D1*
D2*
Y11995D1*
D2*
X35531Y12092D1*
D2*
X35483Y12141D1*
D2*
X35337Y12189D1*
D2*
X34899D1*
Y11703D2*
X35337D1*
X36136Y11849D2*
X36039Y11801D1*
D2*
X35942Y11703D1*
D2*
X35893Y11557D1*
D2*
Y11461D1*
D2*
X35942Y11315D1*
D2*
X36039Y11218D1*
D2*
X36136Y11169D1*
D2*
X36282D1*
D2*
X36380Y11218D1*
D2*
X36476Y11315D1*
D2*
X36526Y11461D1*
D2*
Y11557D1*
D2*
X36476Y11703D1*
D2*
X36380Y11801D1*
D2*
X36282Y11849D1*
D2*
X36136D1*
X37422D2*
Y11169D1*
Y11703D2*
X37326Y11801D1*
D2*
X37228Y11849D1*
D2*
X37083D1*
D2*
X36985Y11801D1*
D2*
X36889Y11703D1*
D2*
X36839Y11557D1*
D2*
Y11461D1*
D2*
X36889Y11315D1*
D2*
X36985Y11218D1*
D2*
X37083Y11169D1*
D2*
X37228D1*
D2*
X37326Y11218D1*
D2*
X37422Y11315D1*
X37736Y11849D2*
Y11169D1*
Y11557D2*
X37786Y11703D1*
D2*
X37882Y11801D1*
D2*
X37980Y11849D1*
D2*
X38126D1*
X39022Y12189D2*
Y11169D1*
Y11703D2*
X38926Y11801D1*
D2*
X38828Y11849D1*
D2*
X38682D1*
D2*
X38586Y11801D1*
D2*
X38488Y11703D1*
D2*
X38440Y11557D1*
D2*
Y11461D1*
D2*
X38488Y11315D1*
D2*
X38586Y11218D1*
D2*
X38682Y11169D1*
D2*
X38828D1*
D2*
X38926Y11218D1*
D2*
X39022Y11315D1*
M02*
