M48
METRIC,0000.00
T01C0.486
T02C0.889
%
T01
X+003662Y+001631
X+003584Y+001906
X+003424Y+002045
X+002973Y+001874
X+002973Y+001513
X+001932Y+001858
X+004153Y+001751
X+004135Y+002235
X+004568Y+001420
X+004490Y+001262
X+005034Y+001185
X+005844Y+001503
X+005689Y+001797
T02
X+006684Y+001984
X+006684Y+001730
X+006684Y+001476
X+001239Y+001350
X+001239Y+001604
X+001239Y+001858
X+001239Y+002112
T00
M30
