M48
METRIC,0000.00
T01C0.486
T02C0.889
%
T01
X+003701Y+001686
X+003624Y+001961
X+003464Y+002100
X+003013Y+001930
X+003013Y+001568
X+001971Y+001914
X+004192Y+001807
X+004174Y+002291
X+004608Y+001476
X+004530Y+001318
X+005074Y+001240
X+005883Y+001558
X+005729Y+001852
T02
X+006724Y+002040
X+006724Y+001786
X+006724Y+001532
X+001279Y+001406
X+001279Y+001660
X+001279Y+001914
X+001279Y+002168
T00
M30
