G04 DipTrace 2.2.0.9*
%INTop.gbr*%
%MOMM*%
%ADD13C,0.178*%
%ADD14C,0.1*%
%ADD18R,0.457X0.305*%
%ADD19R,1.3X1.5*%
%ADD20R,1.5X1.3*%
%ADD21R,1.397X0.991*%
%ADD22R,1.499X1.499*%
%ADD23R,0.813X0.813*%
%ADD24R,1.146X0.551*%
%ADD25R,0.551X1.146*%
%ADD26C,1.499*%
%ADD27R,0.305X0.457*%
%ADD28R,0.249X0.356*%
%ADD29R,0.356X0.249*%
%ADD30R,1.194X0.483*%
%ADD31R,1.194X0.559*%
%ADD32R,1.194X1.829*%
%ADD33C,1.016*%
%FSLAX53Y53*%
%SFA1B1*%
%OFA0B0*%
G04*
G71*
G90*
G75*
G01*
%LNTop*%
%LPD*%
X19714Y19137D2*
D13*
X20190Y19613D1*
X20871D1*
X31997Y16470D2*
X28511D1*
X28156D1*
X26900Y17726D1*
X25971D1*
X56427Y17289D2*
X57333D1*
X57703Y16919D1*
X59622D1*
X47720Y13738D2*
Y12404D1*
X50738D1*
X43269Y17739D2*
X42698D1*
X42127Y17168D1*
X41620D1*
X40793Y17995D1*
X41149Y18350D1*
Y18489D1*
X41504Y18844D1*
X42654D1*
X42743Y18755D1*
X43269D1*
X40793Y17995D2*
X38187D1*
Y17219D1*
X37832Y16863D1*
X37014D1*
X23118Y14215D2*
X24744Y15841D1*
Y17726D1*
Y19448D1*
X25100Y19803D1*
X27984D1*
X28340Y20159D1*
Y22153D1*
X20871Y19613D2*
X21959Y18525D1*
Y15375D1*
X23118Y14215D1*
X25971Y17726D2*
X24744D1*
X28511Y16470D2*
X28156Y16114D1*
Y13421D1*
X28340D1*
X31997Y17257D2*
X32836D1*
Y16470D1*
X31997D1*
Y18832D2*
X30905D1*
Y17257D1*
X31997D1*
X34206Y18832D2*
X32836D1*
X31997D1*
X37014Y16863D2*
X35046Y18832D1*
X34206D1*
X38035Y13738D2*
X37679D1*
Y16198D1*
X37014Y16863D1*
X53557Y15714D2*
Y19321D1*
X57881Y13421D2*
X53913D1*
X53557Y13777D1*
Y15714D1*
X58833Y15583D2*
X57881Y14631D1*
Y13421D1*
X59622Y16919D2*
Y16091D1*
X59114Y15583D1*
X58833D1*
X50738Y12404D2*
Y16246D1*
X50382Y16601D1*
X49302D1*
X40406Y22312D2*
Y23329D1*
X41323D1*
X41742Y22910D1*
X47873Y22312D2*
X40406D1*
X57291Y18521D2*
X56973Y18203D1*
X56427D1*
X28511Y16470D2*
Y17001D1*
X29019Y17509D1*
Y17700D1*
X39776Y17078D2*
Y16812D1*
X43269D1*
Y17231D1*
X39776Y18978D2*
X40793D1*
Y19035D1*
X41149Y19390D1*
X43777D1*
X46076Y14755D2*
X49620D1*
Y13738D1*
X41923Y18070D2*
X42101Y18247D1*
X43269D1*
X56427Y17746D2*
X57710D1*
X58066Y18101D1*
Y18463D1*
X58421Y18819D1*
X59622D1*
X49302Y18502D2*
Y18203D1*
X52948D1*
X58040Y22312D2*
X49773D1*
X25964Y16146D2*
X26827D1*
Y13421D1*
X26440D1*
X19822D1*
X19467Y13777D1*
Y15155D1*
X16292D1*
X22947Y21994D2*
Y19772D1*
X23106Y19613D1*
Y16755D1*
X22942D1*
X18502Y14215D2*
X15240D1*
X14884Y14570D1*
Y17257D1*
X14529Y17613D1*
X11770D1*
X11414Y17969D1*
Y22656D1*
X11770Y23011D1*
X21964D1*
X23823D1*
X24681Y22153D1*
X26440D1*
X21964Y23011D2*
Y20934D1*
X21608Y20578D1*
X18330D1*
X16120Y21518D2*
X18433D1*
X18909Y21994D1*
X21047D1*
X63591Y14532D2*
X64881D1*
X65236Y14888D1*
Y15858D1*
X67238Y17860D1*
X65485Y19613D1*
X63591D1*
X45809Y17231D2*
X46660D1*
Y20383D1*
X46038Y21005D1*
X34638D1*
X52948Y16831D2*
X52491D1*
X51804Y17518D1*
X48286D1*
Y20027D1*
X48641Y20383D1*
X60291D1*
X61422Y21513D1*
X63591D1*
X46660Y20383D2*
X47930D1*
X48286Y20027D1*
X34638Y21005D2*
X33089D1*
Y19746D1*
X63591Y16432D2*
X61923D1*
X61568Y16077D1*
Y12049D1*
X61212Y11693D1*
X53303D1*
X52948Y12049D1*
X52236Y11338D1*
X45301D1*
Y13179D1*
X34200Y19613D2*
X36240D1*
X52948Y12049D2*
Y16374D1*
X45301Y13179D2*
Y16596D1*
X12786Y21677D2*
X14088Y20375D1*
X16107D1*
Y19613D1*
X21042Y16755D2*
Y15679D1*
X20883Y15520D1*
Y14215D1*
X18514Y16120D2*
X21042D1*
Y16755D1*
X16107Y19613D2*
Y16475D1*
X16463Y16120D1*
X18514D1*
X59781Y13421D2*
X60698D1*
Y19025D1*
X60639Y19083D1*
Y19410D1*
X61759Y20530D1*
X65271D1*
X65401Y20400D1*
X67238D1*
X45809Y18755D2*
X45213D1*
X44857Y18400D1*
Y18095D1*
X44133D1*
X43777Y17739D1*
Y16596D1*
X56427Y16831D2*
X55818D1*
Y19321D1*
X44857Y18095D2*
X45213Y17739D1*
X45809D1*
X25964Y19295D2*
X30131D1*
X30905D1*
Y19613D1*
X31997D1*
X38506Y22312D2*
X30486D1*
X30131Y21956D1*
Y19295D1*
X59940Y22312D2*
Y23329D1*
X59584Y23684D1*
X38862D1*
X38506Y23329D1*
Y22312D1*
X67238Y20400D2*
X64853Y22785D1*
X61680D1*
X61206Y22312D1*
X59940D1*
X31997Y15682D2*
X30131D1*
X33089Y15555D2*
X31997D1*
Y15682D1*
X39935Y13738D2*
Y12404D1*
X33445D1*
X33089Y12760D1*
Y15555D1*
X43777Y16596D2*
Y14094D1*
X43422Y13738D1*
X39935D1*
X55818Y19321D2*
Y19765D1*
X60639D1*
Y19410D1*
D33*
X37014Y16863D3*
X41742Y22910D3*
X58833Y15583D3*
X19714Y19137D3*
X50738Y12404D3*
X57291Y18521D3*
X46076Y14755D3*
X41923Y18070D3*
X34638Y21005D3*
X45301Y13179D3*
X36240Y19613D3*
X30131Y15682D3*
Y19295D3*
X10728Y24280D2*
D14*
X68415D1*
X10728Y24184D2*
X68415D1*
X10728Y24087D2*
X68415D1*
X10728Y23990D2*
X38757D1*
X59690D2*
X68415D1*
X10728Y23894D2*
X38607D1*
X59838D2*
X68415D1*
X10728Y23797D2*
X38512D1*
X59935D2*
X68415D1*
X10728Y23700D2*
X38415D1*
X60030D2*
X68415D1*
X10728Y23604D2*
X38318D1*
X60127D2*
X68415D1*
X10728Y23507D2*
X38231D1*
X60216D2*
X68415D1*
X10728Y23410D2*
X38187D1*
X60260D2*
X68415D1*
X10728Y23314D2*
X11654D1*
X23938D2*
X38176D1*
X38954D2*
X40076D1*
X42371D2*
X59492D1*
X60269D2*
X68415D1*
X10728Y23217D2*
X11512D1*
X24080D2*
X37615D1*
X39398D2*
X39515D1*
X42424D2*
X46982D1*
X48765D2*
X48882D1*
X50665D2*
X57148D1*
X58930D2*
X59048D1*
X60830D2*
X68415D1*
X10728Y23120D2*
X11415D1*
X24177D2*
X25548D1*
X27332D2*
X27448D1*
X29232D2*
X37615D1*
X39398D2*
X39515D1*
X42462D2*
X46982D1*
X48765D2*
X48882D1*
X50665D2*
X57148D1*
X58930D2*
X59048D1*
X60830D2*
X68415D1*
X10728Y23024D2*
X11320D1*
X24274D2*
X25548D1*
X27332D2*
X27448D1*
X29232D2*
X37615D1*
X39398D2*
X39515D1*
X42482D2*
X46982D1*
X48765D2*
X48882D1*
X50665D2*
X57148D1*
X58930D2*
X59048D1*
X60830D2*
X61456D1*
X65077D2*
X68415D1*
X10728Y22927D2*
X11223D1*
X24371D2*
X25548D1*
X27332D2*
X27448D1*
X29232D2*
X37615D1*
X39398D2*
X39515D1*
X42491D2*
X46982D1*
X48765D2*
X48882D1*
X50665D2*
X57148D1*
X58930D2*
X59048D1*
X60830D2*
X61359D1*
X65174D2*
X68415D1*
X10728Y22830D2*
X11135D1*
X24468D2*
X25548D1*
X27332D2*
X27448D1*
X29232D2*
X37615D1*
X39398D2*
X39515D1*
X42487D2*
X46982D1*
X48765D2*
X48882D1*
X50665D2*
X57148D1*
X58930D2*
X59048D1*
X60830D2*
X61262D1*
X65271D2*
X68415D1*
X10728Y22734D2*
X11093D1*
X24563D2*
X25548D1*
X27332D2*
X27448D1*
X29232D2*
X37615D1*
X39398D2*
X39515D1*
X42471D2*
X46982D1*
X48765D2*
X48882D1*
X50665D2*
X57148D1*
X58930D2*
X59048D1*
X60830D2*
X61165D1*
X65368D2*
X68415D1*
X10728Y22637D2*
X11084D1*
X13777D2*
X20156D1*
X24660D2*
X25548D1*
X27332D2*
X27448D1*
X29232D2*
X37615D1*
X39398D2*
X39515D1*
X42440D2*
X46982D1*
X48765D2*
X48882D1*
X50665D2*
X57148D1*
X58930D2*
X59048D1*
X60830D2*
X61068D1*
X65465D2*
X68415D1*
X10728Y22540D2*
X11084D1*
X11762D2*
X11795D1*
X13777D2*
X20156D1*
X24757D2*
X25548D1*
X27332D2*
X27448D1*
X29232D2*
X30251D1*
X39398D2*
X39515D1*
X48765D2*
X48882D1*
X58930D2*
X59048D1*
X65562D2*
X68415D1*
X10728Y22444D2*
X11084D1*
X11744D2*
X11796D1*
X13777D2*
X20156D1*
X23838D2*
X23928D1*
X27332D2*
X27448D1*
X29232D2*
X30154D1*
X39398D2*
X39515D1*
X48765D2*
X48882D1*
X58930D2*
X59048D1*
X61801D2*
X64731D1*
X65657D2*
X68415D1*
X10728Y22347D2*
X11084D1*
X11744D2*
X11796D1*
X13777D2*
X20156D1*
X23838D2*
X24024D1*
X27332D2*
X27448D1*
X29232D2*
X30059D1*
X39398D2*
X39515D1*
X48765D2*
X48882D1*
X58930D2*
X59048D1*
X61704D2*
X62599D1*
X64583D2*
X64828D1*
X65754D2*
X68415D1*
X10728Y22250D2*
X11084D1*
X11744D2*
X11796D1*
X13777D2*
X18706D1*
X23838D2*
X24121D1*
X27332D2*
X27448D1*
X29232D2*
X29962D1*
X39398D2*
X39515D1*
X48765D2*
X48882D1*
X58930D2*
X59048D1*
X61607D2*
X62599D1*
X64583D2*
X64924D1*
X65851D2*
X68415D1*
X10728Y22154D2*
X11084D1*
X11744D2*
X11796D1*
X13777D2*
X15181D1*
X17060D2*
X18606D1*
X23838D2*
X24218D1*
X27332D2*
X27448D1*
X29232D2*
X29868D1*
X39398D2*
X39515D1*
X48765D2*
X48882D1*
X58930D2*
X59048D1*
X61512D2*
X62599D1*
X64583D2*
X65021D1*
X65948D2*
X68415D1*
X10728Y22057D2*
X11084D1*
X11744D2*
X11796D1*
X13777D2*
X15181D1*
X17060D2*
X18509D1*
X23838D2*
X24315D1*
X27332D2*
X27448D1*
X29232D2*
X29817D1*
X39398D2*
X39515D1*
X48765D2*
X48882D1*
X58930D2*
X59048D1*
X61410D2*
X62599D1*
X64583D2*
X65118D1*
X66044D2*
X68415D1*
X10728Y21960D2*
X11084D1*
X11744D2*
X11796D1*
X13777D2*
X15181D1*
X17060D2*
X18412D1*
X23838D2*
X24410D1*
X27332D2*
X27448D1*
X29232D2*
X29801D1*
X30598D2*
X37615D1*
X39398D2*
X39515D1*
X41298D2*
X46982D1*
X48765D2*
X48882D1*
X50665D2*
X57148D1*
X58930D2*
X59048D1*
X60830D2*
X62599D1*
X64583D2*
X65215D1*
X66141D2*
X68415D1*
X10728Y21864D2*
X11084D1*
X11744D2*
X11796D1*
X13777D2*
X15181D1*
X17060D2*
X18315D1*
X23838D2*
X24534D1*
X27332D2*
X27448D1*
X29232D2*
X29801D1*
X30501D2*
X37615D1*
X39398D2*
X39515D1*
X41298D2*
X46982D1*
X48765D2*
X48882D1*
X50665D2*
X57148D1*
X58930D2*
X59048D1*
X60830D2*
X62599D1*
X64583D2*
X65312D1*
X66238D2*
X68415D1*
X10728Y21767D2*
X11084D1*
X11744D2*
X11796D1*
X13777D2*
X15181D1*
X23838D2*
X25548D1*
X27332D2*
X27448D1*
X29232D2*
X29801D1*
X30462D2*
X37615D1*
X39398D2*
X39515D1*
X41298D2*
X46982D1*
X48765D2*
X48882D1*
X50665D2*
X57148D1*
X58930D2*
X59048D1*
X60830D2*
X61217D1*
X64583D2*
X65409D1*
X66333D2*
X68415D1*
X10728Y21670D2*
X11084D1*
X11744D2*
X11796D1*
X13777D2*
X15181D1*
X19048D2*
X20156D1*
X23838D2*
X25548D1*
X27332D2*
X27448D1*
X29232D2*
X29801D1*
X30462D2*
X34306D1*
X34971D2*
X37615D1*
X39398D2*
X39515D1*
X41298D2*
X46982D1*
X48765D2*
X48882D1*
X50665D2*
X57148D1*
X58930D2*
X59048D1*
X60830D2*
X61115D1*
X64583D2*
X65504D1*
X66430D2*
X68415D1*
X10728Y21574D2*
X11084D1*
X11744D2*
X11796D1*
X13777D2*
X15181D1*
X18951D2*
X20156D1*
X23838D2*
X25548D1*
X27332D2*
X27448D1*
X29232D2*
X29801D1*
X30462D2*
X34156D1*
X35121D2*
X37615D1*
X39398D2*
X39515D1*
X41298D2*
X46982D1*
X48765D2*
X48882D1*
X50665D2*
X57148D1*
X58930D2*
X59048D1*
X60830D2*
X61020D1*
X64583D2*
X65601D1*
X66527D2*
X68415D1*
X10728Y21477D2*
X11084D1*
X11744D2*
X11796D1*
X13777D2*
X15181D1*
X18854D2*
X20156D1*
X23838D2*
X25548D1*
X27332D2*
X27448D1*
X29232D2*
X29801D1*
X30462D2*
X34059D1*
X35218D2*
X37615D1*
X39398D2*
X39515D1*
X41298D2*
X46982D1*
X48765D2*
X48882D1*
X50665D2*
X57148D1*
X58930D2*
X59048D1*
X60830D2*
X60923D1*
X64583D2*
X65698D1*
X66624D2*
X68415D1*
X10728Y21380D2*
X11084D1*
X11744D2*
X11796D1*
X13777D2*
X15181D1*
X18758D2*
X20156D1*
X23838D2*
X25548D1*
X27332D2*
X27448D1*
X29232D2*
X29801D1*
X30462D2*
X33992D1*
X35285D2*
X37615D1*
X39398D2*
X39515D1*
X41298D2*
X46982D1*
X48765D2*
X48882D1*
X50665D2*
X57148D1*
X58930D2*
X59048D1*
X64583D2*
X65795D1*
X68229D2*
X68415D1*
X10728Y21284D2*
X11084D1*
X11744D2*
X11796D1*
X13777D2*
X15181D1*
X19269D2*
X20156D1*
X23838D2*
X25548D1*
X27332D2*
X27448D1*
X29232D2*
X29801D1*
X30462D2*
X32921D1*
X46205D2*
X60729D1*
X64583D2*
X65892D1*
X68229D2*
X68415D1*
X10728Y21187D2*
X11084D1*
X11744D2*
X11796D1*
X13777D2*
X15181D1*
X17060D2*
X17390D1*
X19269D2*
X20156D1*
X23838D2*
X25548D1*
X27332D2*
X27448D1*
X29232D2*
X29801D1*
X30462D2*
X32815D1*
X46319D2*
X60632D1*
X61558D2*
X62599D1*
X64583D2*
X65988D1*
X68229D2*
X68415D1*
X10728Y21090D2*
X11084D1*
X11744D2*
X11796D1*
X13835D2*
X15181D1*
X17060D2*
X17390D1*
X19269D2*
X20156D1*
X23838D2*
X28009D1*
X28671D2*
X29801D1*
X30462D2*
X32770D1*
X46416D2*
X60535D1*
X61462D2*
X62599D1*
X64583D2*
X66085D1*
X68229D2*
X68415D1*
X10728Y20994D2*
X11084D1*
X11744D2*
X11796D1*
X13932D2*
X15181D1*
X17060D2*
X17390D1*
X19269D2*
X21560D1*
X22294D2*
X22617D1*
X23277D2*
X28009D1*
X28671D2*
X29801D1*
X30462D2*
X32759D1*
X46512D2*
X60438D1*
X61365D2*
X62599D1*
X64583D2*
X66181D1*
X68229D2*
X68415D1*
X10728Y20897D2*
X11084D1*
X11744D2*
X11796D1*
X14029D2*
X15181D1*
X17060D2*
X17390D1*
X22291D2*
X22617D1*
X23277D2*
X28009D1*
X28671D2*
X29801D1*
X30462D2*
X32759D1*
X46608D2*
X60343D1*
X61268D2*
X62599D1*
X64583D2*
X66248D1*
X68229D2*
X68415D1*
X10728Y20800D2*
X11084D1*
X11744D2*
X11796D1*
X14126D2*
X15181D1*
X17060D2*
X17390D1*
X22265D2*
X22617D1*
X23277D2*
X28009D1*
X28671D2*
X29801D1*
X30462D2*
X32759D1*
X46705D2*
X60246D1*
X61173D2*
X61578D1*
X65452D2*
X66248D1*
X68229D2*
X68415D1*
X10728Y20704D2*
X11084D1*
X11744D2*
X11796D1*
X14223D2*
X17390D1*
X22196D2*
X22617D1*
X23277D2*
X28009D1*
X28671D2*
X29801D1*
X30462D2*
X32759D1*
X46802D2*
X60149D1*
X61076D2*
X61470D1*
X68229D2*
X68415D1*
X10728Y20607D2*
X11084D1*
X11744D2*
X13393D1*
X16338D2*
X17390D1*
X22099D2*
X22617D1*
X23277D2*
X28009D1*
X28671D2*
X29801D1*
X30462D2*
X32759D1*
X33419D2*
X34006D1*
X35271D2*
X45973D1*
X48169D2*
X48403D1*
X60979D2*
X61373D1*
X68229D2*
X68415D1*
X10728Y20510D2*
X11084D1*
X11744D2*
X13490D1*
X16408D2*
X17390D1*
X22004D2*
X22617D1*
X23277D2*
X28009D1*
X28671D2*
X29801D1*
X30462D2*
X32571D1*
X33605D2*
X34079D1*
X35198D2*
X46070D1*
X48265D2*
X48305D1*
X60882D2*
X61276D1*
X68229D2*
X68415D1*
X10728Y20414D2*
X11084D1*
X11744D2*
X13587D1*
X16435D2*
X17390D1*
X21907D2*
X22617D1*
X23277D2*
X28009D1*
X28671D2*
X29801D1*
X30462D2*
X32571D1*
X33605D2*
X34184D1*
X35093D2*
X46167D1*
X60785D2*
X61179D1*
X68229D2*
X68415D1*
X10728Y20317D2*
X11084D1*
X11744D2*
X13682D1*
X17048D2*
X17390D1*
X21804D2*
X22617D1*
X23277D2*
X28009D1*
X28671D2*
X29801D1*
X30462D2*
X32571D1*
X33605D2*
X34357D1*
X34919D2*
X36004D1*
X36476D2*
X46263D1*
X60688D2*
X61082D1*
X68229D2*
X68415D1*
X10728Y20220D2*
X11084D1*
X11744D2*
X13779D1*
X17048D2*
X17390D1*
X19269D2*
X20223D1*
X21518D2*
X22457D1*
X23754D2*
X27938D1*
X28671D2*
X29801D1*
X30462D2*
X32571D1*
X33605D2*
X35807D1*
X36671D2*
X46331D1*
X60591D2*
X60987D1*
X68229D2*
X68415D1*
X10728Y20124D2*
X11084D1*
X11744D2*
X13879D1*
X17048D2*
X17390D1*
X19269D2*
X20223D1*
X21518D2*
X22457D1*
X23754D2*
X25079D1*
X28668D2*
X29801D1*
X30462D2*
X32571D1*
X33605D2*
X35695D1*
X36785D2*
X46331D1*
X60490D2*
X60890D1*
X61816D2*
X62599D1*
X64583D2*
X65229D1*
X68229D2*
X68415D1*
X10728Y20027D2*
X11084D1*
X11744D2*
X12363D1*
X13208D2*
X15167D1*
X17048D2*
X17390D1*
X19269D2*
X20223D1*
X21518D2*
X22457D1*
X23754D2*
X24860D1*
X28641D2*
X29801D1*
X30462D2*
X31182D1*
X35015D2*
X35617D1*
X36863D2*
X46331D1*
X46991D2*
X47823D1*
X48749D2*
X55623D1*
X61719D2*
X62599D1*
X64583D2*
X66248D1*
X68229D2*
X68415D1*
X10728Y19930D2*
X11084D1*
X11744D2*
X12199D1*
X13373D2*
X15167D1*
X17048D2*
X17390D1*
X19269D2*
X20137D1*
X21518D2*
X22457D1*
X23754D2*
X24763D1*
X28574D2*
X29742D1*
X30519D2*
X30851D1*
X36918D2*
X46331D1*
X46991D2*
X47920D1*
X48652D2*
X55534D1*
X61623D2*
X62599D1*
X65540D2*
X66248D1*
X68229D2*
X68415D1*
X10728Y19834D2*
X11084D1*
X11744D2*
X12085D1*
X13487D2*
X15167D1*
X17048D2*
X19456D1*
X21518D2*
X22457D1*
X23754D2*
X24667D1*
X28477D2*
X29613D1*
X36955D2*
X38785D1*
X40768D2*
X43384D1*
X45696D2*
X46331D1*
X46991D2*
X47956D1*
X48616D2*
X55495D1*
X61526D2*
X62599D1*
X65727D2*
X66248D1*
X68229D2*
X68415D1*
X10728Y19737D2*
X11084D1*
X11744D2*
X11999D1*
X13573D2*
X15167D1*
X17048D2*
X19271D1*
X21518D2*
X22457D1*
X23754D2*
X24570D1*
X28380D2*
X29528D1*
X36979D2*
X38785D1*
X40768D2*
X43384D1*
X45696D2*
X46331D1*
X46991D2*
X47956D1*
X48616D2*
X55487D1*
X61429D2*
X62599D1*
X65824D2*
X66248D1*
X68229D2*
X68415D1*
X10728Y19640D2*
X11084D1*
X11744D2*
X11934D1*
X13638D2*
X15167D1*
X17048D2*
X19162D1*
X21518D2*
X22457D1*
X23754D2*
X24478D1*
X28283D2*
X29467D1*
X36988D2*
X38785D1*
X40768D2*
X40938D1*
X45696D2*
X46331D1*
X46991D2*
X47956D1*
X48616D2*
X53192D1*
X61332D2*
X62599D1*
X65921D2*
X66248D1*
X68229D2*
X68415D1*
X10728Y19544D2*
X11084D1*
X11744D2*
X11884D1*
X13688D2*
X15167D1*
X17048D2*
X19087D1*
X21518D2*
X22457D1*
X23754D2*
X24429D1*
X36987D2*
X38785D1*
X40768D2*
X40838D1*
X45696D2*
X46331D1*
X46991D2*
X47956D1*
X48616D2*
X53192D1*
X61235D2*
X62599D1*
X66018D2*
X66248D1*
X68229D2*
X68415D1*
X10728Y19447D2*
X11084D1*
X11744D2*
X11845D1*
X13727D2*
X15167D1*
X17048D2*
X19032D1*
X21518D2*
X22457D1*
X23754D2*
X24413D1*
X36971D2*
X38785D1*
X45696D2*
X46331D1*
X46991D2*
X47956D1*
X48616D2*
X53192D1*
X61140D2*
X62599D1*
X66115D2*
X66248D1*
X68229D2*
X68415D1*
X10728Y19350D2*
X11084D1*
X11744D2*
X11818D1*
X13754D2*
X15167D1*
X17048D2*
X18996D1*
X21596D2*
X22457D1*
X23754D2*
X24413D1*
X36941D2*
X38785D1*
X45696D2*
X46331D1*
X46991D2*
X47956D1*
X50294D2*
X53192D1*
X56183D2*
X58631D1*
X61043D2*
X62599D1*
X66212D2*
X68415D1*
X10728Y19254D2*
X11084D1*
X11744D2*
X11801D1*
X13769D2*
X15167D1*
X17048D2*
X18974D1*
X21693D2*
X22457D1*
X23754D2*
X24413D1*
X25074D2*
X25126D1*
X35021D2*
X35584D1*
X36896D2*
X38785D1*
X45696D2*
X46331D1*
X46991D2*
X47956D1*
X50294D2*
X53192D1*
X56183D2*
X57182D1*
X57399D2*
X58631D1*
X60969D2*
X62599D1*
X64583D2*
X65381D1*
X66307D2*
X68415D1*
X10728Y19157D2*
X11084D1*
X11744D2*
X11796D1*
X13777D2*
X15167D1*
X17048D2*
X18965D1*
X21790D2*
X22457D1*
X23754D2*
X24413D1*
X25074D2*
X25126D1*
X35021D2*
X35648D1*
X36832D2*
X38785D1*
X45696D2*
X46331D1*
X46991D2*
X47956D1*
X50294D2*
X53192D1*
X56183D2*
X56904D1*
X57677D2*
X58631D1*
X60999D2*
X62599D1*
X64583D2*
X65478D1*
X66404D2*
X68415D1*
X10728Y19060D2*
X11084D1*
X11744D2*
X11799D1*
X13774D2*
X15167D1*
X17048D2*
X18968D1*
X21887D2*
X22457D1*
X23754D2*
X24413D1*
X25074D2*
X25126D1*
X35280D2*
X35738D1*
X36741D2*
X38785D1*
X46279D2*
X46329D1*
X46991D2*
X47956D1*
X50294D2*
X53192D1*
X56183D2*
X56776D1*
X57807D2*
X58201D1*
X61026D2*
X62599D1*
X64583D2*
X65574D1*
X66501D2*
X68415D1*
X10728Y18964D2*
X11084D1*
X11744D2*
X11810D1*
X13762D2*
X15167D1*
X17048D2*
X18985D1*
X20443D2*
X21057D1*
X21983D2*
X22776D1*
X23437D2*
X24413D1*
X25074D2*
X25126D1*
X26802D2*
X29460D1*
X35377D2*
X35876D1*
X36604D2*
X38785D1*
X46279D2*
X46329D1*
X46991D2*
X47956D1*
X50294D2*
X52528D1*
X57893D2*
X58103D1*
X61027D2*
X62599D1*
X64583D2*
X65671D1*
X66598D2*
X68415D1*
X10728Y18867D2*
X11084D1*
X11744D2*
X11832D1*
X13740D2*
X15778D1*
X16438D2*
X19015D1*
X20413D2*
X21154D1*
X22080D2*
X22776D1*
X23437D2*
X24413D1*
X25074D2*
X25126D1*
X26802D2*
X29518D1*
X35474D2*
X38785D1*
X43740D2*
X44860D1*
X46279D2*
X46329D1*
X46991D2*
X47956D1*
X50294D2*
X52528D1*
X53888D2*
X55487D1*
X57954D2*
X58007D1*
X61027D2*
X62599D1*
X64583D2*
X65768D1*
X66694D2*
X68415D1*
X10728Y18770D2*
X11084D1*
X11744D2*
X11867D1*
X13705D2*
X15778D1*
X16438D2*
X19062D1*
X20366D2*
X21249D1*
X22176D2*
X22776D1*
X23437D2*
X24413D1*
X25074D2*
X28181D1*
X35571D2*
X38785D1*
X43740D2*
X44765D1*
X46279D2*
X46329D1*
X46991D2*
X47956D1*
X50294D2*
X52528D1*
X53888D2*
X55487D1*
X61027D2*
X62599D1*
X64583D2*
X65865D1*
X66791D2*
X66862D1*
X67613D2*
X68415D1*
X10728Y18674D2*
X11084D1*
X11744D2*
X11912D1*
X13660D2*
X15778D1*
X16438D2*
X19128D1*
X20301D2*
X21346D1*
X22252D2*
X22776D1*
X23437D2*
X24413D1*
X25074D2*
X28181D1*
X30541D2*
X30574D1*
X35668D2*
X38785D1*
X43740D2*
X44668D1*
X46279D2*
X46329D1*
X46991D2*
X47956D1*
X50294D2*
X52528D1*
X53888D2*
X55487D1*
X61027D2*
X65962D1*
X67796D2*
X68415D1*
X10728Y18577D2*
X11084D1*
X11744D2*
X11970D1*
X13601D2*
X15778D1*
X16438D2*
X19221D1*
X20207D2*
X21443D1*
X22285D2*
X22776D1*
X23437D2*
X24413D1*
X25074D2*
X28181D1*
X29857D2*
X29945D1*
X30316D2*
X30574D1*
X35765D2*
X38785D1*
X40768D2*
X40831D1*
X43740D2*
X44581D1*
X46279D2*
X46329D1*
X46991D2*
X47956D1*
X50294D2*
X52528D1*
X53888D2*
X55487D1*
X61027D2*
X66059D1*
X67918D2*
X68415D1*
X10728Y18480D2*
X11084D1*
X11744D2*
X12048D1*
X13524D2*
X15778D1*
X16438D2*
X19363D1*
X20065D2*
X21540D1*
X22288D2*
X22776D1*
X23437D2*
X24413D1*
X25074D2*
X28181D1*
X29857D2*
X30574D1*
X32812D2*
X33392D1*
X35860D2*
X38785D1*
X40768D2*
X40815D1*
X43740D2*
X44537D1*
X46279D2*
X46329D1*
X46991D2*
X47956D1*
X53888D2*
X55487D1*
X58546D2*
X58631D1*
X61027D2*
X66154D1*
X68008D2*
X68415D1*
X10728Y18384D2*
X11084D1*
X11744D2*
X12148D1*
X13424D2*
X15778D1*
X16438D2*
X21628D1*
X22288D2*
X22776D1*
X23437D2*
X24413D1*
X25074D2*
X28181D1*
X29857D2*
X30574D1*
X32812D2*
X33392D1*
X35957D2*
X38785D1*
X43740D2*
X43984D1*
X45304D2*
X45338D1*
X46279D2*
X46329D1*
X46991D2*
X47956D1*
X53888D2*
X55487D1*
X58449D2*
X58631D1*
X61027D2*
X66251D1*
X68077D2*
X68415D1*
X10728Y18287D2*
X11084D1*
X11744D2*
X12287D1*
X13285D2*
X15778D1*
X16438D2*
X21628D1*
X22288D2*
X22776D1*
X23437D2*
X24413D1*
X25074D2*
X28181D1*
X29857D2*
X30574D1*
X32812D2*
X33392D1*
X35021D2*
X35128D1*
X36054D2*
X38046D1*
X43740D2*
X43862D1*
X45207D2*
X45340D1*
X46279D2*
X46329D1*
X46991D2*
X47956D1*
X53888D2*
X55487D1*
X58396D2*
X58631D1*
X61027D2*
X66345D1*
X68132D2*
X68415D1*
X10728Y18190D2*
X11084D1*
X11744D2*
X12518D1*
X13054D2*
X15778D1*
X16438D2*
X21628D1*
X22288D2*
X22776D1*
X23437D2*
X24413D1*
X25074D2*
X25132D1*
X26810D2*
X28181D1*
X29857D2*
X30574D1*
X32812D2*
X33392D1*
X35021D2*
X35224D1*
X36151D2*
X37924D1*
X45224D2*
X45340D1*
X46279D2*
X46329D1*
X46991D2*
X47956D1*
X53888D2*
X55487D1*
X58396D2*
X58631D1*
X61027D2*
X66304D1*
X68173D2*
X68415D1*
X10728Y18094D2*
X11084D1*
X11752D2*
X15778D1*
X16438D2*
X21628D1*
X22288D2*
X22776D1*
X23437D2*
X24413D1*
X25074D2*
X25132D1*
X26810D2*
X28181D1*
X29857D2*
X30574D1*
X32812D2*
X33392D1*
X35021D2*
X35321D1*
X36248D2*
X37873D1*
X46279D2*
X46329D1*
X46991D2*
X47956D1*
X53888D2*
X55487D1*
X58396D2*
X58631D1*
X61027D2*
X66276D1*
X68201D2*
X68415D1*
X10728Y17997D2*
X11084D1*
X11849D2*
X15778D1*
X16438D2*
X21628D1*
X22288D2*
X22776D1*
X23437D2*
X24413D1*
X27080D2*
X28181D1*
X29857D2*
X30574D1*
X32812D2*
X33392D1*
X35021D2*
X35418D1*
X36344D2*
X37857D1*
X46279D2*
X46329D1*
X46991D2*
X47956D1*
X53888D2*
X55487D1*
X58379D2*
X58631D1*
X61027D2*
X66257D1*
X68219D2*
X68415D1*
X10728Y17900D2*
X11092D1*
X14680D2*
X15778D1*
X16438D2*
X21628D1*
X22288D2*
X22776D1*
X23437D2*
X24413D1*
X27188D2*
X28181D1*
X29857D2*
X30574D1*
X32812D2*
X33392D1*
X35021D2*
X35515D1*
X36441D2*
X37857D1*
X46279D2*
X46329D1*
X46991D2*
X47956D1*
X53888D2*
X55487D1*
X58326D2*
X60367D1*
X61027D2*
X66248D1*
X68229D2*
X68415D1*
X10728Y17804D2*
X11129D1*
X14801D2*
X15778D1*
X16438D2*
X21628D1*
X22288D2*
X22776D1*
X23437D2*
X24413D1*
X27285D2*
X28181D1*
X29857D2*
X30574D1*
X32812D2*
X33392D1*
X35021D2*
X35612D1*
X36537D2*
X37857D1*
X46279D2*
X46329D1*
X46991D2*
X47956D1*
X51960D2*
X52528D1*
X53888D2*
X55487D1*
X58230D2*
X60367D1*
X61027D2*
X66249D1*
X68227D2*
X68415D1*
X10728Y17707D2*
X11213D1*
X14898D2*
X15778D1*
X16438D2*
X20151D1*
X23833D2*
X24413D1*
X27382D2*
X28181D1*
X29857D2*
X30574D1*
X32812D2*
X33392D1*
X35021D2*
X35707D1*
X36633D2*
X37857D1*
X44208D2*
X44782D1*
X46279D2*
X46329D1*
X46991D2*
X47956D1*
X52079D2*
X52528D1*
X53888D2*
X55487D1*
X58133D2*
X58631D1*
X61027D2*
X66259D1*
X68216D2*
X68415D1*
X10728Y17610D2*
X11309D1*
X14994D2*
X15778D1*
X16438D2*
X20151D1*
X23833D2*
X24413D1*
X27479D2*
X28181D1*
X29857D2*
X30574D1*
X32812D2*
X33392D1*
X35021D2*
X35804D1*
X36730D2*
X37857D1*
X38518D2*
X38785D1*
X44112D2*
X44879D1*
X46279D2*
X46329D1*
X46991D2*
X47956D1*
X52176D2*
X52528D1*
X53888D2*
X55487D1*
X58038D2*
X58631D1*
X61027D2*
X66279D1*
X68196D2*
X68415D1*
X10728Y17514D2*
X11406D1*
X15091D2*
X15778D1*
X16438D2*
X20151D1*
X23833D2*
X24413D1*
X27574D2*
X28181D1*
X29857D2*
X30574D1*
X33038D2*
X33392D1*
X35021D2*
X35901D1*
X37377D2*
X37857D1*
X38518D2*
X38785D1*
X40768D2*
X40810D1*
X44108D2*
X44976D1*
X46991D2*
X47956D1*
X52273D2*
X52528D1*
X53888D2*
X55487D1*
X57941D2*
X58631D1*
X61027D2*
X66310D1*
X68166D2*
X68415D1*
X10728Y17417D2*
X11503D1*
X15173D2*
X15778D1*
X16438D2*
X20151D1*
X23833D2*
X24413D1*
X27671D2*
X28181D1*
X29857D2*
X30574D1*
X33124D2*
X33392D1*
X35021D2*
X35998D1*
X37515D2*
X37857D1*
X38518D2*
X38785D1*
X40768D2*
X40907D1*
X44108D2*
X45340D1*
X46991D2*
X47971D1*
X52369D2*
X52528D1*
X53888D2*
X55487D1*
X57668D2*
X58631D1*
X61027D2*
X66332D1*
X68123D2*
X68415D1*
X10728Y17320D2*
X11629D1*
X15208D2*
X15778D1*
X16438D2*
X20151D1*
X23833D2*
X24413D1*
X25074D2*
X25132D1*
X26810D2*
X26842D1*
X27768D2*
X28181D1*
X29857D2*
X30574D1*
X33160D2*
X33392D1*
X35021D2*
X36095D1*
X37605D2*
X37826D1*
X38518D2*
X38785D1*
X40768D2*
X41004D1*
X42741D2*
X42798D1*
X44108D2*
X45340D1*
X46991D2*
X48024D1*
X52465D2*
X52528D1*
X53888D2*
X55487D1*
X57765D2*
X58631D1*
X61027D2*
X66235D1*
X68068D2*
X68415D1*
X10728Y17224D2*
X12021D1*
X13551D2*
X14456D1*
X15215D2*
X15778D1*
X16438D2*
X20151D1*
X23833D2*
X24413D1*
X25074D2*
X25132D1*
X26810D2*
X26938D1*
X27865D2*
X28181D1*
X29857D2*
X30576D1*
X33166D2*
X33392D1*
X35021D2*
X36192D1*
X37671D2*
X37729D1*
X38518D2*
X38785D1*
X40768D2*
X41101D1*
X42646D2*
X42799D1*
X44108D2*
X45340D1*
X46991D2*
X48149D1*
X53888D2*
X55487D1*
X61027D2*
X62599D1*
X64583D2*
X66138D1*
X67994D2*
X68415D1*
X10728Y17127D2*
X11951D1*
X13621D2*
X14553D1*
X15215D2*
X15778D1*
X16438D2*
X20151D1*
X23833D2*
X24413D1*
X25074D2*
X27035D1*
X27962D2*
X28181D1*
X29857D2*
X30603D1*
X33166D2*
X33392D1*
X35021D2*
X36288D1*
X38504D2*
X38785D1*
X44108D2*
X45340D1*
X46973D2*
X48310D1*
X50294D2*
X51732D1*
X53888D2*
X55487D1*
X61027D2*
X62599D1*
X64583D2*
X66042D1*
X67901D2*
X68415D1*
X10728Y17030D2*
X11896D1*
X13676D2*
X14554D1*
X15215D2*
X15778D1*
X16438D2*
X20151D1*
X23833D2*
X24413D1*
X25074D2*
X27132D1*
X28058D2*
X28181D1*
X29857D2*
X30670D1*
X33166D2*
X33392D1*
X35021D2*
X36284D1*
X38457D2*
X38785D1*
X46919D2*
X48310D1*
X50294D2*
X51829D1*
X53888D2*
X55487D1*
X61027D2*
X62599D1*
X64583D2*
X65945D1*
X67771D2*
X68415D1*
X10728Y16934D2*
X11854D1*
X13718D2*
X14554D1*
X15215D2*
X15778D1*
X16438D2*
X20151D1*
X23833D2*
X24413D1*
X25074D2*
X27229D1*
X29857D2*
X31182D1*
X33166D2*
X33392D1*
X35021D2*
X36268D1*
X38365D2*
X38785D1*
X46788D2*
X48310D1*
X50294D2*
X51926D1*
X53888D2*
X55487D1*
X56846D2*
X57226D1*
X61027D2*
X62599D1*
X64583D2*
X65848D1*
X66774D2*
X66906D1*
X67571D2*
X68415D1*
X10728Y16837D2*
X11824D1*
X13748D2*
X14554D1*
X15215D2*
X15778D1*
X16438D2*
X17574D1*
X19454D2*
X20151D1*
X23833D2*
X24413D1*
X25074D2*
X27326D1*
X29857D2*
X31182D1*
X33166D2*
X33392D1*
X35021D2*
X36265D1*
X38268D2*
X38785D1*
X45696D2*
X48310D1*
X50610D2*
X52023D1*
X53888D2*
X55487D1*
X56846D2*
X57323D1*
X61027D2*
X62599D1*
X64583D2*
X65753D1*
X66679D2*
X68415D1*
X10728Y16740D2*
X11806D1*
X13766D2*
X14554D1*
X15215D2*
X15778D1*
X16438D2*
X17574D1*
X19454D2*
X20151D1*
X23833D2*
X24413D1*
X25074D2*
X27423D1*
X33166D2*
X33392D1*
X35021D2*
X36276D1*
X38171D2*
X38785D1*
X45696D2*
X48310D1*
X50707D2*
X52120D1*
X53888D2*
X55501D1*
X56846D2*
X57418D1*
X61027D2*
X61824D1*
X64583D2*
X65656D1*
X66582D2*
X68415D1*
X10728Y16644D2*
X11796D1*
X13776D2*
X14554D1*
X15215D2*
X15778D1*
X16438D2*
X17574D1*
X19454D2*
X20151D1*
X23833D2*
X24413D1*
X25074D2*
X27518D1*
X33166D2*
X33392D1*
X35021D2*
X36298D1*
X38076D2*
X38785D1*
X45696D2*
X48310D1*
X50804D2*
X52217D1*
X53888D2*
X55548D1*
X56846D2*
X57529D1*
X61027D2*
X61671D1*
X64583D2*
X65559D1*
X66485D2*
X68415D1*
X10728Y16547D2*
X11796D1*
X13776D2*
X14554D1*
X15215D2*
X15778D1*
X16499D2*
X17574D1*
X19454D2*
X20151D1*
X23833D2*
X24413D1*
X25074D2*
X25126D1*
X26802D2*
X27615D1*
X33166D2*
X33392D1*
X35021D2*
X36337D1*
X37891D2*
X38785D1*
X45696D2*
X48310D1*
X50901D2*
X52334D1*
X53888D2*
X55660D1*
X56846D2*
X58631D1*
X61027D2*
X61574D1*
X64583D2*
X65462D1*
X66388D2*
X68415D1*
X10728Y16450D2*
X11806D1*
X13766D2*
X14554D1*
X15215D2*
X15778D1*
X16596D2*
X17574D1*
X19454D2*
X20151D1*
X23833D2*
X24413D1*
X25074D2*
X25126D1*
X26937D2*
X27712D1*
X33166D2*
X33392D1*
X35021D2*
X36392D1*
X37891D2*
X38785D1*
X40768D2*
X43384D1*
X45696D2*
X48310D1*
X50994D2*
X52528D1*
X53888D2*
X56009D1*
X56846D2*
X58631D1*
X61027D2*
X61478D1*
X64583D2*
X65365D1*
X66291D2*
X68415D1*
X10728Y16354D2*
X11826D1*
X13746D2*
X14554D1*
X15215D2*
X15801D1*
X23833D2*
X24413D1*
X25074D2*
X25126D1*
X27080D2*
X27809D1*
X35021D2*
X36468D1*
X37969D2*
X38785D1*
X40768D2*
X43384D1*
X45696D2*
X48310D1*
X51049D2*
X52528D1*
X53888D2*
X56009D1*
X56846D2*
X58631D1*
X61027D2*
X61381D1*
X64583D2*
X65268D1*
X66194D2*
X68415D1*
X10728Y16257D2*
X11856D1*
X13716D2*
X14554D1*
X15215D2*
X15863D1*
X23833D2*
X24413D1*
X25074D2*
X25126D1*
X27138D2*
X27859D1*
X35021D2*
X36581D1*
X38004D2*
X38785D1*
X40768D2*
X43384D1*
X45696D2*
X48310D1*
X51068D2*
X52528D1*
X53888D2*
X56009D1*
X56846D2*
X58518D1*
X61027D2*
X61293D1*
X64583D2*
X65171D1*
X66098D2*
X66937D1*
X67538D2*
X68415D1*
X10728Y16160D2*
X11898D1*
X13674D2*
X14554D1*
X15215D2*
X15959D1*
X23833D2*
X24413D1*
X25074D2*
X25126D1*
X27157D2*
X27829D1*
X35021D2*
X36776D1*
X38010D2*
X43384D1*
X45696D2*
X48310D1*
X50294D2*
X50360D1*
X51068D2*
X52528D1*
X53888D2*
X56009D1*
X56846D2*
X58360D1*
X61027D2*
X61248D1*
X64583D2*
X65076D1*
X66001D2*
X66721D1*
X67754D2*
X68415D1*
X10728Y16064D2*
X11953D1*
X13619D2*
X14554D1*
X15215D2*
X16056D1*
X23833D2*
X24413D1*
X25074D2*
X25126D1*
X27157D2*
X27826D1*
X28568D2*
X29487D1*
X30774D2*
X31182D1*
X35021D2*
X37349D1*
X38010D2*
X43446D1*
X44108D2*
X44971D1*
X45632D2*
X48310D1*
X50294D2*
X50407D1*
X51068D2*
X52528D1*
X56846D2*
X58262D1*
X61027D2*
X61237D1*
X62018D2*
X62599D1*
X64583D2*
X64981D1*
X65905D2*
X66588D1*
X67888D2*
X68415D1*
X10728Y15967D2*
X12024D1*
X13548D2*
X14554D1*
X15215D2*
X16153D1*
X23833D2*
X24407D1*
X25074D2*
X25126D1*
X27157D2*
X27826D1*
X28487D2*
X29438D1*
X35021D2*
X37349D1*
X38010D2*
X43446D1*
X44108D2*
X44971D1*
X45632D2*
X48310D1*
X50294D2*
X50407D1*
X51068D2*
X52617D1*
X56183D2*
X58192D1*
X59927D2*
X60367D1*
X61027D2*
X61237D1*
X61921D2*
X62599D1*
X64583D2*
X64924D1*
X65808D2*
X66490D1*
X67985D2*
X68415D1*
X10728Y15870D2*
X12117D1*
X13455D2*
X14554D1*
X15215D2*
X15351D1*
X23833D2*
X24310D1*
X25074D2*
X25126D1*
X27157D2*
X27826D1*
X28487D2*
X29406D1*
X34996D2*
X37349D1*
X38010D2*
X43446D1*
X44108D2*
X44971D1*
X45632D2*
X48310D1*
X50294D2*
X50407D1*
X51068D2*
X52617D1*
X56183D2*
X58142D1*
X59865D2*
X60367D1*
X61027D2*
X61237D1*
X61898D2*
X62599D1*
X64583D2*
X64906D1*
X65712D2*
X66417D1*
X68060D2*
X68415D1*
X10728Y15774D2*
X12243D1*
X13329D2*
X14554D1*
X15215D2*
X15351D1*
X17232D2*
X17574D1*
X19454D2*
X20674D1*
X21373D2*
X21628D1*
X22288D2*
X24213D1*
X25068D2*
X25126D1*
X27157D2*
X27826D1*
X28487D2*
X29387D1*
X34996D2*
X37349D1*
X38010D2*
X43446D1*
X44108D2*
X44971D1*
X45632D2*
X48310D1*
X50294D2*
X50407D1*
X51068D2*
X52617D1*
X56183D2*
X58109D1*
X59768D2*
X60367D1*
X61027D2*
X61237D1*
X61898D2*
X62599D1*
X64583D2*
X64906D1*
X65615D2*
X66359D1*
X68118D2*
X68415D1*
X10728Y15677D2*
X12435D1*
X13137D2*
X14554D1*
X15215D2*
X15351D1*
X17232D2*
X17574D1*
X19454D2*
X20593D1*
X21373D2*
X21628D1*
X22288D2*
X24117D1*
X25029D2*
X25126D1*
X27157D2*
X27826D1*
X28487D2*
X29381D1*
X34996D2*
X37349D1*
X38010D2*
X43446D1*
X44108D2*
X44971D1*
X45632D2*
X50407D1*
X51068D2*
X52617D1*
X56183D2*
X58090D1*
X59671D2*
X60367D1*
X61027D2*
X61237D1*
X61898D2*
X62599D1*
X64583D2*
X64906D1*
X65566D2*
X66315D1*
X68162D2*
X68415D1*
X10728Y15580D2*
X14554D1*
X15215D2*
X15351D1*
X17232D2*
X17574D1*
X19454D2*
X20559D1*
X21357D2*
X21628D1*
X22288D2*
X24021D1*
X24946D2*
X26496D1*
X27157D2*
X27826D1*
X28487D2*
X29388D1*
X34996D2*
X37349D1*
X38010D2*
X43446D1*
X44108D2*
X44971D1*
X45632D2*
X50407D1*
X51068D2*
X52617D1*
X56183D2*
X58084D1*
X59583D2*
X60367D1*
X61027D2*
X61237D1*
X61898D2*
X62599D1*
X64583D2*
X64906D1*
X65566D2*
X66282D1*
X68194D2*
X68415D1*
X10728Y15484D2*
X14554D1*
X15215D2*
X15351D1*
X17232D2*
X17574D1*
X19454D2*
X20553D1*
X21305D2*
X21628D1*
X22313D2*
X23924D1*
X24851D2*
X26496D1*
X27157D2*
X27826D1*
X28487D2*
X29409D1*
X34996D2*
X37349D1*
X38010D2*
X43446D1*
X44108D2*
X44971D1*
X45632D2*
X45938D1*
X46215D2*
X50407D1*
X51068D2*
X52617D1*
X56183D2*
X58090D1*
X59576D2*
X60367D1*
X61027D2*
X61237D1*
X61898D2*
X64906D1*
X65566D2*
X66260D1*
X68215D2*
X68415D1*
X10728Y15387D2*
X14554D1*
X15215D2*
X15351D1*
X19698D2*
X20553D1*
X21213D2*
X21628D1*
X22408D2*
X23828D1*
X24754D2*
X26496D1*
X27157D2*
X27826D1*
X28487D2*
X29443D1*
X34996D2*
X37349D1*
X38010D2*
X43446D1*
X44108D2*
X44971D1*
X45632D2*
X45682D1*
X46471D2*
X50407D1*
X51068D2*
X52617D1*
X56183D2*
X58110D1*
X59557D2*
X60367D1*
X61027D2*
X61237D1*
X61898D2*
X62599D1*
X64583D2*
X64906D1*
X65566D2*
X66249D1*
X68227D2*
X68415D1*
X10728Y15290D2*
X14554D1*
X15215D2*
X15351D1*
X19766D2*
X20553D1*
X21213D2*
X21640D1*
X22505D2*
X23731D1*
X24657D2*
X26496D1*
X27157D2*
X27826D1*
X28487D2*
X29493D1*
X30768D2*
X31182D1*
X34996D2*
X37349D1*
X38010D2*
X43446D1*
X44108D2*
X44971D1*
X46596D2*
X50407D1*
X51068D2*
X52617D1*
X53888D2*
X58078D1*
X59523D2*
X60367D1*
X61027D2*
X61237D1*
X61898D2*
X62599D1*
X64583D2*
X64906D1*
X65566D2*
X66248D1*
X68229D2*
X68415D1*
X10728Y15194D2*
X14554D1*
X15215D2*
X15351D1*
X19794D2*
X20553D1*
X21213D2*
X21684D1*
X22602D2*
X23634D1*
X24560D2*
X26496D1*
X27157D2*
X27826D1*
X28487D2*
X29565D1*
X30696D2*
X31182D1*
X34996D2*
X37349D1*
X38010D2*
X43446D1*
X44108D2*
X44971D1*
X46682D2*
X50407D1*
X51068D2*
X52617D1*
X53888D2*
X57981D1*
X59473D2*
X60367D1*
X61027D2*
X61237D1*
X61898D2*
X62599D1*
X64583D2*
X64906D1*
X65566D2*
X66256D1*
X68221D2*
X68415D1*
X10728Y15097D2*
X14554D1*
X15215D2*
X15351D1*
X19798D2*
X20553D1*
X21213D2*
X21773D1*
X22699D2*
X23537D1*
X24463D2*
X26496D1*
X27157D2*
X27826D1*
X28487D2*
X29668D1*
X30593D2*
X32571D1*
X33605D2*
X37349D1*
X38010D2*
X43446D1*
X44108D2*
X44971D1*
X46741D2*
X50407D1*
X51068D2*
X52617D1*
X53888D2*
X57884D1*
X59401D2*
X60367D1*
X61027D2*
X61237D1*
X61898D2*
X62599D1*
X64583D2*
X64906D1*
X65566D2*
X66273D1*
X68204D2*
X68415D1*
X10728Y15000D2*
X12507D1*
X13065D2*
X14554D1*
X15215D2*
X15351D1*
X19798D2*
X20553D1*
X21213D2*
X21870D1*
X22796D2*
X23440D1*
X24366D2*
X26496D1*
X27157D2*
X27826D1*
X28487D2*
X29835D1*
X30426D2*
X32571D1*
X33605D2*
X37349D1*
X38010D2*
X43446D1*
X44108D2*
X44971D1*
X49837D2*
X50407D1*
X51068D2*
X52617D1*
X53888D2*
X57787D1*
X59298D2*
X60367D1*
X61027D2*
X61237D1*
X61898D2*
X62599D1*
X64583D2*
X64885D1*
X65566D2*
X66301D1*
X68176D2*
X68415D1*
X10728Y14904D2*
X12281D1*
X13291D2*
X14554D1*
X15215D2*
X15351D1*
X19798D2*
X20553D1*
X21213D2*
X21967D1*
X22893D2*
X23343D1*
X24269D2*
X26496D1*
X27157D2*
X27826D1*
X28487D2*
X32571D1*
X33605D2*
X37349D1*
X38010D2*
X43446D1*
X44108D2*
X44971D1*
X49913D2*
X50407D1*
X51068D2*
X52617D1*
X53888D2*
X57690D1*
X59135D2*
X60367D1*
X61027D2*
X61237D1*
X61898D2*
X62599D1*
X64583D2*
X64788D1*
X65566D2*
X66340D1*
X68137D2*
X68415D1*
X10728Y14807D2*
X12143D1*
X13429D2*
X14554D1*
X15215D2*
X15351D1*
X17232D2*
X17562D1*
X19798D2*
X20235D1*
X21530D2*
X22063D1*
X24174D2*
X26496D1*
X27157D2*
X27826D1*
X28487D2*
X32571D1*
X33605D2*
X37349D1*
X38010D2*
X43446D1*
X44108D2*
X44971D1*
X49946D2*
X50407D1*
X51068D2*
X52617D1*
X53888D2*
X57603D1*
X58519D2*
X60367D1*
X61027D2*
X61237D1*
X61898D2*
X62599D1*
X65557D2*
X66392D1*
X68083D2*
X68415D1*
X10728Y14710D2*
X12045D1*
X13527D2*
X14554D1*
X15215D2*
X15351D1*
X17232D2*
X17562D1*
X19798D2*
X20235D1*
X21530D2*
X22160D1*
X24077D2*
X26496D1*
X27157D2*
X27826D1*
X28487D2*
X32759D1*
X33419D2*
X37143D1*
X38927D2*
X39043D1*
X40827D2*
X43446D1*
X44108D2*
X44971D1*
X51068D2*
X52617D1*
X53888D2*
X57560D1*
X58424D2*
X60367D1*
X61027D2*
X61237D1*
X61898D2*
X62599D1*
X65513D2*
X66460D1*
X68016D2*
X68415D1*
X10728Y14614D2*
X11968D1*
X13604D2*
X14554D1*
X15304D2*
X15352D1*
X17232D2*
X17562D1*
X19798D2*
X20235D1*
X21530D2*
X22256D1*
X23980D2*
X26496D1*
X27157D2*
X27826D1*
X28487D2*
X32759D1*
X33419D2*
X37143D1*
X38927D2*
X39043D1*
X40827D2*
X43446D1*
X44108D2*
X44971D1*
X51068D2*
X52617D1*
X53888D2*
X57551D1*
X58327D2*
X60367D1*
X61027D2*
X61237D1*
X61898D2*
X62599D1*
X65426D2*
X66548D1*
X67929D2*
X68415D1*
X10728Y14517D2*
X11909D1*
X13662D2*
X14559D1*
X19798D2*
X20235D1*
X21530D2*
X22353D1*
X23883D2*
X26496D1*
X27157D2*
X27826D1*
X28487D2*
X32759D1*
X33419D2*
X37143D1*
X38927D2*
X39043D1*
X40827D2*
X43446D1*
X44108D2*
X44971D1*
X51068D2*
X52617D1*
X53888D2*
X57551D1*
X58230D2*
X60367D1*
X61027D2*
X61237D1*
X61898D2*
X62599D1*
X65329D2*
X66665D1*
X67812D2*
X68415D1*
X10728Y14420D2*
X11865D1*
X13707D2*
X14592D1*
X19798D2*
X20235D1*
X21530D2*
X22449D1*
X23787D2*
X26496D1*
X27157D2*
X27826D1*
X28487D2*
X32759D1*
X33419D2*
X37143D1*
X38927D2*
X39043D1*
X40827D2*
X43446D1*
X44108D2*
X44971D1*
X46746D2*
X46829D1*
X48612D2*
X48729D1*
X51068D2*
X52617D1*
X53888D2*
X57551D1*
X58212D2*
X60367D1*
X61027D2*
X61237D1*
X61898D2*
X62599D1*
X65232D2*
X66837D1*
X67638D2*
X68415D1*
X10728Y14324D2*
X11832D1*
X13740D2*
X14668D1*
X19798D2*
X20235D1*
X21530D2*
X22470D1*
X23766D2*
X25548D1*
X27332D2*
X27448D1*
X29232D2*
X32759D1*
X33419D2*
X37143D1*
X38927D2*
X39043D1*
X40827D2*
X43446D1*
X44108D2*
X44971D1*
X46687D2*
X46829D1*
X48612D2*
X48729D1*
X51068D2*
X52617D1*
X53888D2*
X56990D1*
X58773D2*
X58890D1*
X61027D2*
X61237D1*
X61898D2*
X62599D1*
X65135D2*
X68415D1*
X10728Y14227D2*
X11810D1*
X13762D2*
X14765D1*
X19798D2*
X20235D1*
X21530D2*
X22470D1*
X23766D2*
X25548D1*
X27332D2*
X27448D1*
X29232D2*
X32759D1*
X33419D2*
X37143D1*
X38927D2*
X39043D1*
X40827D2*
X43446D1*
X44108D2*
X44971D1*
X46604D2*
X46829D1*
X48612D2*
X48729D1*
X51068D2*
X52617D1*
X53888D2*
X56990D1*
X58773D2*
X58890D1*
X61027D2*
X61237D1*
X61898D2*
X62599D1*
X64988D2*
X68415D1*
X10728Y14130D2*
X11798D1*
X13774D2*
X14862D1*
X19798D2*
X20235D1*
X21530D2*
X22470D1*
X23766D2*
X25548D1*
X27332D2*
X27448D1*
X29232D2*
X32759D1*
X33419D2*
X37143D1*
X38927D2*
X39043D1*
X40827D2*
X43351D1*
X44108D2*
X44971D1*
X45632D2*
X45670D1*
X46482D2*
X46829D1*
X48612D2*
X48729D1*
X51068D2*
X52617D1*
X53888D2*
X56990D1*
X58773D2*
X58890D1*
X61027D2*
X61237D1*
X61898D2*
X62599D1*
X64583D2*
X68415D1*
X10728Y14034D2*
X11795D1*
X13777D2*
X14959D1*
X19798D2*
X20235D1*
X21530D2*
X22470D1*
X23766D2*
X25548D1*
X27332D2*
X27448D1*
X29232D2*
X32759D1*
X33419D2*
X37143D1*
X38927D2*
X39043D1*
X44102D2*
X44971D1*
X45632D2*
X45906D1*
X46248D2*
X46829D1*
X48612D2*
X48729D1*
X51068D2*
X52617D1*
X53888D2*
X56990D1*
X58773D2*
X58890D1*
X61027D2*
X61237D1*
X61898D2*
X62599D1*
X64583D2*
X68415D1*
X10728Y13937D2*
X11803D1*
X13769D2*
X15071D1*
X19798D2*
X20235D1*
X21530D2*
X22470D1*
X23766D2*
X25548D1*
X27332D2*
X27448D1*
X29232D2*
X32759D1*
X33419D2*
X37143D1*
X38927D2*
X39043D1*
X44066D2*
X44971D1*
X45632D2*
X46829D1*
X48612D2*
X48729D1*
X51068D2*
X52617D1*
X53888D2*
X56990D1*
X58773D2*
X58890D1*
X61027D2*
X61237D1*
X61898D2*
X62599D1*
X64583D2*
X68415D1*
X10728Y13840D2*
X11820D1*
X13752D2*
X17562D1*
X19866D2*
X20235D1*
X21530D2*
X22470D1*
X23766D2*
X25548D1*
X27332D2*
X27448D1*
X29232D2*
X32759D1*
X33419D2*
X37143D1*
X38927D2*
X39043D1*
X43987D2*
X44960D1*
X45643D2*
X46829D1*
X48612D2*
X48729D1*
X51068D2*
X52617D1*
X53957D2*
X56990D1*
X58773D2*
X58890D1*
X61027D2*
X61237D1*
X61898D2*
X62599D1*
X64583D2*
X68415D1*
X10728Y13744D2*
X11846D1*
X13726D2*
X17562D1*
X19963D2*
X20235D1*
X21530D2*
X22470D1*
X23766D2*
X25548D1*
X27332D2*
X27448D1*
X29232D2*
X32759D1*
X33419D2*
X37143D1*
X38927D2*
X39043D1*
X43890D2*
X44813D1*
X45788D2*
X46829D1*
X48612D2*
X48729D1*
X51068D2*
X52617D1*
X54054D2*
X56990D1*
X58773D2*
X58890D1*
X61027D2*
X61237D1*
X61898D2*
X62599D1*
X64583D2*
X68415D1*
X10728Y13647D2*
X11885D1*
X13687D2*
X17562D1*
X27332D2*
X27448D1*
X29232D2*
X32759D1*
X33419D2*
X37143D1*
X38927D2*
X39043D1*
X43793D2*
X44718D1*
X45883D2*
X46829D1*
X48612D2*
X48729D1*
X51068D2*
X52617D1*
X58773D2*
X58890D1*
X61027D2*
X61237D1*
X61898D2*
X68415D1*
X10728Y13550D2*
X11935D1*
X13637D2*
X17562D1*
X27332D2*
X27448D1*
X29232D2*
X32759D1*
X33419D2*
X37143D1*
X38927D2*
X39043D1*
X43696D2*
X44653D1*
X45951D2*
X46829D1*
X48612D2*
X48729D1*
X51068D2*
X52617D1*
X53277D2*
X53320D1*
X58773D2*
X58890D1*
X61027D2*
X61237D1*
X61898D2*
X68415D1*
X10728Y13454D2*
X12003D1*
X13569D2*
X19328D1*
X27332D2*
X27448D1*
X29232D2*
X32759D1*
X33419D2*
X37143D1*
X38927D2*
X39043D1*
X43579D2*
X44604D1*
X45998D2*
X46829D1*
X48612D2*
X48729D1*
X51068D2*
X52617D1*
X53277D2*
X53417D1*
X58773D2*
X58890D1*
X61027D2*
X61237D1*
X61898D2*
X68415D1*
X10728Y13357D2*
X12088D1*
X13483D2*
X19423D1*
X27332D2*
X27448D1*
X29232D2*
X32759D1*
X33419D2*
X37143D1*
X38927D2*
X39043D1*
X40827D2*
X44574D1*
X46029D2*
X46829D1*
X48612D2*
X48729D1*
X51068D2*
X52617D1*
X53277D2*
X53513D1*
X58773D2*
X58890D1*
X61021D2*
X61237D1*
X61898D2*
X68415D1*
X10728Y13260D2*
X12204D1*
X13368D2*
X19520D1*
X27332D2*
X27448D1*
X29232D2*
X32759D1*
X33419D2*
X37143D1*
X38927D2*
X39043D1*
X40827D2*
X44556D1*
X46046D2*
X46829D1*
X48612D2*
X48729D1*
X51068D2*
X52617D1*
X53277D2*
X53610D1*
X58773D2*
X58890D1*
X60985D2*
X61237D1*
X61898D2*
X68415D1*
X10728Y13164D2*
X12371D1*
X13201D2*
X19621D1*
X27332D2*
X27448D1*
X29232D2*
X32759D1*
X33419D2*
X37143D1*
X38927D2*
X39043D1*
X40827D2*
X44553D1*
X46051D2*
X46829D1*
X48612D2*
X48729D1*
X51068D2*
X52617D1*
X53277D2*
X53712D1*
X58773D2*
X58890D1*
X60898D2*
X61237D1*
X61898D2*
X68415D1*
X10728Y13067D2*
X25548D1*
X27332D2*
X27448D1*
X29232D2*
X32759D1*
X33419D2*
X37143D1*
X38927D2*
X39043D1*
X40827D2*
X44560D1*
X46043D2*
X46829D1*
X48612D2*
X48729D1*
X51076D2*
X52617D1*
X53277D2*
X56990D1*
X58773D2*
X58890D1*
X60673D2*
X61237D1*
X61898D2*
X68415D1*
X10728Y12970D2*
X25548D1*
X27332D2*
X27448D1*
X29232D2*
X32759D1*
X33419D2*
X37143D1*
X38927D2*
X39043D1*
X40827D2*
X44582D1*
X46021D2*
X46829D1*
X48612D2*
X48729D1*
X51224D2*
X52617D1*
X53277D2*
X56990D1*
X58773D2*
X58890D1*
X60673D2*
X61237D1*
X61898D2*
X68415D1*
X10728Y12874D2*
X25548D1*
X27332D2*
X27448D1*
X29232D2*
X32759D1*
X33438D2*
X37143D1*
X38927D2*
X39043D1*
X40827D2*
X44618D1*
X45985D2*
X46829D1*
X48612D2*
X48729D1*
X51319D2*
X52617D1*
X53277D2*
X56990D1*
X58773D2*
X58890D1*
X60673D2*
X61237D1*
X61898D2*
X68415D1*
X10728Y12777D2*
X25548D1*
X27332D2*
X27448D1*
X29232D2*
X32759D1*
X33535D2*
X37143D1*
X38927D2*
X39043D1*
X40827D2*
X44671D1*
X45932D2*
X46829D1*
X48612D2*
X48729D1*
X51387D2*
X52617D1*
X53277D2*
X56990D1*
X58773D2*
X58890D1*
X60673D2*
X61237D1*
X61898D2*
X68415D1*
X10728Y12680D2*
X25548D1*
X27332D2*
X27448D1*
X29232D2*
X32768D1*
X40265D2*
X44745D1*
X45857D2*
X47390D1*
X51433D2*
X52617D1*
X53277D2*
X56990D1*
X58773D2*
X58890D1*
X60673D2*
X61237D1*
X61898D2*
X68415D1*
X10728Y12584D2*
X25548D1*
X27332D2*
X27448D1*
X29232D2*
X32812D1*
X40265D2*
X44853D1*
X45751D2*
X47390D1*
X51466D2*
X52617D1*
X53277D2*
X56990D1*
X58773D2*
X58890D1*
X60673D2*
X61237D1*
X61898D2*
X68415D1*
X10728Y12487D2*
X25548D1*
X27332D2*
X27448D1*
X29232D2*
X32899D1*
X40265D2*
X44971D1*
X45632D2*
X47390D1*
X51483D2*
X52617D1*
X53277D2*
X56990D1*
X58773D2*
X58890D1*
X60673D2*
X61237D1*
X61898D2*
X68415D1*
X10728Y12390D2*
X32996D1*
X40265D2*
X44971D1*
X45632D2*
X47390D1*
X51488D2*
X52617D1*
X53277D2*
X61237D1*
X61898D2*
X68415D1*
X10728Y12294D2*
X33092D1*
X40246D2*
X44971D1*
X45632D2*
X47409D1*
X51479D2*
X52617D1*
X53277D2*
X61237D1*
X61898D2*
X68415D1*
X10728Y12197D2*
X33188D1*
X40190D2*
X44971D1*
X45632D2*
X47465D1*
X51458D2*
X52617D1*
X53277D2*
X61237D1*
X61898D2*
X68415D1*
X10728Y12100D2*
X33334D1*
X40046D2*
X44971D1*
X45632D2*
X47609D1*
X51423D2*
X52535D1*
X53358D2*
X61156D1*
X61898D2*
X68415D1*
X10728Y12004D2*
X44971D1*
X45632D2*
X50107D1*
X51369D2*
X52440D1*
X61894D2*
X68415D1*
X10728Y11907D2*
X44971D1*
X45632D2*
X50181D1*
X51296D2*
X52343D1*
X61865D2*
X68415D1*
X10728Y11810D2*
X44971D1*
X45632D2*
X50288D1*
X51188D2*
X52246D1*
X61793D2*
X68415D1*
X10728Y11714D2*
X44971D1*
X45632D2*
X50463D1*
X51012D2*
X52149D1*
X61696D2*
X68415D1*
X10728Y11617D2*
X44971D1*
X61599D2*
X68415D1*
X10728Y11520D2*
X44971D1*
X52882D2*
X53013D1*
X61502D2*
X68415D1*
X10728Y11424D2*
X44971D1*
X52785D2*
X53120D1*
X61396D2*
X68415D1*
X10728Y11327D2*
X44971D1*
X52688D2*
X68415D1*
X10728Y11230D2*
X44990D1*
X52593D2*
X68415D1*
X10728Y11134D2*
X45045D1*
X52496D2*
X68415D1*
X10728Y11037D2*
X45181D1*
X52357D2*
X68415D1*
X10728Y10940D2*
X68415D1*
X10728Y10844D2*
X68415D1*
X10728Y10747D2*
X68415D1*
X46269Y17616D2*
X46270Y17553D1*
X46339Y17552D1*
X46340Y20252D1*
X46186Y20403D1*
X45904Y20685D1*
X45138Y20684D1*
X35305D1*
X35273Y20624D1*
X35215Y20542D1*
X35148Y20468D1*
X35071Y20405D1*
X34986Y20352D1*
X34895Y20311D1*
X34799Y20283D1*
X34700Y20268D1*
X34600Y20266D1*
X34501Y20278D1*
X34404Y20303D1*
X34312Y20341D1*
X34225Y20391D1*
X34147Y20452D1*
X34077Y20523D1*
X34017Y20604D1*
X33972Y20684D1*
X33409D1*
X33410Y20550D1*
X33596Y20551D1*
Y20121D1*
X34896Y20120D1*
X35005D1*
Y19934D1*
X35574D1*
X35619Y20016D1*
X35679Y20096D1*
X35749Y20167D1*
X35828Y20228D1*
X35915Y20278D1*
X36008Y20315D1*
X36104Y20340D1*
X36204Y20352D1*
X36303Y20350D1*
X36402Y20335D1*
X36498Y20306D1*
X36589Y20265D1*
X36674Y20212D1*
X36751Y20148D1*
X36818Y20074D1*
X36875Y19992D1*
X36920Y19903D1*
X36953Y19809D1*
X36973Y19711D1*
X36980Y19613D1*
X36973Y19513D1*
X36953Y19415D1*
X36920Y19321D1*
X36874Y19232D1*
X36817Y19150D1*
X36749Y19077D1*
X36672Y19013D1*
X36588Y18960D1*
X36496Y18919D1*
X36401Y18891D1*
X36302Y18876D1*
X36202Y18874D1*
X36103Y18886D1*
X36006Y18911D1*
X35913Y18949D1*
X35827Y18999D1*
X35748Y19060D1*
X35678Y19132D1*
X35618Y19212D1*
X35573Y19292D1*
X35010D1*
X35011Y19153D1*
X35090Y19149D1*
X35139Y19139D1*
X35186Y19121D1*
X35229Y19095D1*
X35273Y19059D1*
X36770Y17562D1*
X36830Y17580D1*
X36928Y17598D1*
X37028Y17603D1*
X37128Y17594D1*
X37225Y17572D1*
X37319Y17538D1*
X37407Y17490D1*
X37488Y17432D1*
X37560Y17363D1*
X37623Y17285D1*
X37674Y17199D1*
X37681Y17183D1*
X37711Y17196D1*
X37867Y17352D1*
Y17995D1*
X37871Y18044D1*
X37882Y18093D1*
X37901Y18139D1*
X37927Y18182D1*
X37959Y18220D1*
X37997Y18253D1*
X38039Y18279D1*
X38085Y18299D1*
X38134Y18311D1*
X38187Y18315D1*
X38795D1*
X38794Y19860D1*
X40758D1*
Y19452D1*
X40922Y19617D1*
X40960Y19650D1*
X41002Y19676D1*
X41048Y19695D1*
X41097Y19707D1*
X41149Y19711D1*
X43394D1*
X43393Y19851D1*
X44162Y19849D1*
X44201Y19851D1*
X44670Y19849D1*
X44709Y19851D1*
X45178Y19849D1*
X45217Y19851D1*
X45686D1*
Y19140D1*
X46270D1*
X46268Y18371D1*
X46270Y18332D1*
X46268Y17863D1*
X46270Y17824D1*
Y17574D1*
Y16911D2*
Y16847D1*
X45684D1*
X45686Y16607D1*
Y16136D1*
X45622D1*
Y15339D1*
X45665Y15370D1*
X45751Y15420D1*
X45844Y15458D1*
X45941Y15483D1*
X46040Y15494D1*
X46140Y15492D1*
X46239Y15477D1*
X46334Y15449D1*
X46425Y15407D1*
X46510Y15354D1*
X46587Y15290D1*
X46654Y15217D1*
X46711Y15135D1*
X46743Y15075D1*
X48926Y15076D1*
X49620D1*
X49670Y15072D1*
X49718Y15060D1*
X49764Y15041D1*
X49807Y15016D1*
X49845Y14983D1*
X49878Y14946D1*
X49904Y14903D1*
X49924Y14857D1*
X49936Y14809D1*
X49940Y14755D1*
Y14719D1*
X50418Y14720D1*
X50417Y16112D1*
X50285Y16246D1*
X50284Y15720D1*
X48320D1*
Y17199D1*
X48286Y17198D1*
X48236Y17201D1*
X48187Y17213D1*
X48141Y17232D1*
X48098Y17258D1*
X48060Y17290D1*
X48027Y17328D1*
X48001Y17370D1*
X47981Y17416D1*
X47969Y17465D1*
X47965Y17518D1*
Y19895D1*
X47797Y20062D1*
X46981D1*
Y17231D1*
X46977Y17182D1*
X46966Y17133D1*
X46947Y17087D1*
X46921Y17044D1*
X46888Y17006D1*
X46851Y16973D1*
X46808Y16947D1*
X46762Y16927D1*
X46714Y16915D1*
X46660Y16911D1*
X46268D1*
X45349Y17055D2*
Y17419D1*
X45213D1*
X45163Y17423D1*
X45114Y17434D1*
X45068Y17453D1*
X45025Y17479D1*
X44986Y17513D1*
X44724Y17774D1*
X44265D1*
X44098Y17606D1*
Y17057D1*
X44670Y17055D1*
X44709Y17057D1*
X45178Y17055D1*
X45217Y17057D1*
X45350D1*
X50088Y12757D2*
X48738D1*
Y14436D1*
X48603Y14435D1*
X48602Y13970D1*
Y12757D1*
X48041D1*
Y12724D1*
X50071Y12725D1*
X40758Y18658D2*
Y18411D1*
X40828Y18483D1*
X40831Y18533D1*
X40842Y18582D1*
X40865Y18637D1*
X40850Y18662D1*
X40793Y18657D1*
X40797D1*
X20210Y17737D2*
X21640D1*
X21638Y17925D1*
Y18392D1*
X21054Y18975D1*
X20435D1*
X20412Y18892D1*
X20373Y18800D1*
X20321Y18714D1*
X20259Y18636D1*
X20186Y18567D1*
X20105Y18509D1*
X20017Y18462D1*
X19923Y18427D1*
X19826Y18406D1*
X19726Y18397D1*
X19626Y18402D1*
X19528Y18421D1*
X19433Y18452D1*
X19344Y18496D1*
X19261Y18552D1*
X19186Y18619D1*
X19121Y18695D1*
X19067Y18778D1*
X19025Y18869D1*
X18995Y18964D1*
X18978Y19063D1*
X18975Y19163D1*
X18985Y19262D1*
X19009Y19359D1*
X19045Y19452D1*
X19094Y19540D1*
X19154Y19619D1*
X19224Y19691D1*
X19303Y19752D1*
X19389Y19802D1*
X19482Y19839D1*
X19579Y19864D1*
X19678Y19876D1*
X19778Y19874D1*
X19877Y19859D1*
X19959Y19835D1*
X19997Y19869D1*
X20039Y19896D1*
X20085Y19916D1*
X20133Y19928D1*
X20190Y19934D1*
X20232D1*
Y20251D1*
X21509D1*
Y19428D1*
X22185Y18752D1*
X22218Y18714D1*
X22244Y18671D1*
X22263Y18625D1*
X22275Y18577D1*
X22279Y18525D1*
Y17736D1*
X22787Y17737D1*
X22785Y17905D1*
Y18975D1*
X22468D1*
Y20251D1*
X22625D1*
X22626Y20922D1*
Y21014D1*
X22283Y21013D1*
X22284Y20934D1*
X22281Y20884D1*
X22269Y20836D1*
X22250Y20789D1*
X22224Y20747D1*
X22190Y20707D1*
X21835Y20351D1*
X21797Y20319D1*
X21754Y20293D1*
X21708Y20274D1*
X21660Y20262D1*
X21608Y20258D1*
X19260Y20255D1*
Y19851D1*
X17400D1*
Y21196D1*
X17050Y21197D1*
Y20791D1*
X15190D1*
Y22245D1*
X17050D1*
Y21837D1*
X17270Y21839D1*
X18300D1*
X18682Y22221D1*
X18720Y22254D1*
X18763Y22280D1*
X18809Y22299D1*
X18857Y22311D1*
X18909Y22315D1*
X20167D1*
X20165Y22663D1*
X20164Y22690D1*
X11903D1*
X11869Y22657D1*
X13105Y22658D1*
X13767D1*
Y21147D1*
X14003Y20914D1*
X14220Y20696D1*
X16107D1*
X16157Y20692D1*
X16206Y20680D1*
X16252Y20661D1*
X16295Y20635D1*
X16333Y20603D1*
X16365Y20565D1*
X16392Y20523D1*
X16411Y20477D1*
X16424Y20429D1*
X16428Y20375D1*
Y20339D1*
X17038Y20340D1*
Y18886D1*
X16427D1*
X16428Y18613D1*
Y16608D1*
X16596Y16440D1*
X17583D1*
X17584Y16847D1*
X19445D1*
Y16439D1*
X19664Y16440D1*
X20160D1*
Y17737D1*
X20210D1*
X21638Y15773D2*
X21363D1*
Y15679D1*
X21359Y15629D1*
X21347Y15580D1*
X21328Y15534D1*
X21302Y15491D1*
X21269Y15452D1*
X21203Y15387D1*
X21204Y14853D1*
X21521D1*
X21522Y13742D1*
X22480D1*
Y14400D1*
X21732Y15148D1*
X21699Y15186D1*
X21673Y15228D1*
X21654Y15274D1*
X21642Y15323D1*
X21638Y15375D1*
Y15773D1*
X20685D2*
X20160D1*
Y15800D1*
X19443Y15799D1*
X19445Y15597D1*
Y15473D1*
X19513Y15472D1*
X19562Y15461D1*
X19608Y15443D1*
X19651Y15417D1*
X19690Y15385D1*
X19723Y15348D1*
X19750Y15306D1*
X19770Y15260D1*
X19782Y15212D1*
X19787Y15155D1*
Y13909D1*
X19955Y13741D1*
X20246Y13742D1*
X20245Y14427D1*
Y14853D1*
X20562D1*
Y15520D1*
X20566Y15570D1*
X20578Y15618D1*
X20597Y15664D1*
X20623Y15707D1*
X20656Y15747D1*
X20684Y15774D1*
X39103Y14720D2*
X40817D1*
Y14059D1*
X43290D1*
X43457Y14227D1*
Y16136D1*
X43393D1*
Y16516D1*
X43327Y16497D1*
X43269Y16492D1*
X40758D1*
Y16196D1*
X38794D1*
X38793Y17674D1*
X38507D1*
X38508Y17219D1*
X38504Y17169D1*
X38493Y17121D1*
X38474Y17074D1*
X38448Y17032D1*
X38414Y16992D1*
X38059Y16637D1*
X38021Y16604D1*
X37978Y16578D1*
X37932Y16559D1*
X37883Y16547D1*
X37832Y16543D1*
X37790D1*
X37906Y16425D1*
X37939Y16387D1*
X37965Y16345D1*
X37984Y16299D1*
X37996Y16250D1*
X38000Y16198D1*
Y14719D1*
X38103Y14720D1*
X38917D1*
Y12757D1*
X37153D1*
Y14720D1*
X37358D1*
X37359Y15788D1*
Y16065D1*
X37259Y16165D1*
X37175Y16141D1*
X37076Y16126D1*
X36977Y16124D1*
X36877Y16136D1*
X36781Y16161D1*
X36688Y16199D1*
X36602Y16249D1*
X36523Y16311D1*
X36453Y16382D1*
X36393Y16462D1*
X36345Y16549D1*
X36308Y16643D1*
X36285Y16740D1*
X36275Y16839D1*
X36279Y16939D1*
X36296Y17038D1*
X36317Y17108D1*
X35010Y18414D1*
X35011Y18052D1*
X35009Y17537D1*
X35011Y17364D1*
X35009Y16750D1*
X35011Y16577D1*
Y15962D1*
X34984D1*
X34986Y15590D1*
Y15175D1*
X33597D1*
X33596Y14751D1*
X33410D1*
Y12891D1*
X33578Y12725D1*
X39615D1*
X39614Y12756D1*
X39053Y12757D1*
Y14720D1*
X39103D1*
X40817Y13419D2*
Y12757D1*
X40256D1*
Y12404D1*
X40252Y12355D1*
X40240Y12306D1*
X40221Y12260D1*
X40195Y12217D1*
X40163Y12179D1*
X40125Y12146D1*
X40083Y12120D1*
X40037Y12100D1*
X39989Y12088D1*
X39935Y12084D1*
X33445D1*
X33395Y12088D1*
X33346Y12099D1*
X33300Y12118D1*
X33257Y12144D1*
X33218Y12178D1*
X32862Y12533D1*
X32830Y12571D1*
X32803Y12614D1*
X32784Y12660D1*
X32772Y12708D1*
X32768Y12760D1*
Y14752D1*
X32582Y14751D1*
Y15174D1*
X31192Y15175D1*
Y15361D1*
X30798Y15362D1*
X30738Y15259D1*
X30675Y15181D1*
X30603Y15113D1*
X30522Y15054D1*
X30433Y15007D1*
X30340Y14973D1*
X30242Y14951D1*
X30143Y14943D1*
X30043Y14948D1*
X29945Y14966D1*
X29850Y14998D1*
X29760Y15042D1*
X29677Y15098D1*
X29603Y15164D1*
X29538Y15240D1*
X29483Y15324D1*
X29441Y15414D1*
X29411Y15510D1*
X29394Y15608D1*
X29391Y15708D1*
X29401Y15807D1*
X29425Y15905D1*
X29461Y15998D1*
X29510Y16085D1*
X29557Y16149D1*
X28645D1*
X28476Y15981D1*
Y14403D1*
X29222D1*
Y12439D1*
X27458D1*
Y14403D1*
X27835D1*
Y16114D1*
X27839Y16164D1*
X27850Y16212D1*
X27869Y16258D1*
X27858Y16314D1*
X26799Y17373D1*
X26800Y17215D1*
X25143D1*
Y17407D1*
X25064Y17405D1*
X25065Y17176D1*
Y15841D1*
X25061Y15791D1*
X25050Y15742D1*
X25031Y15696D1*
X25005Y15654D1*
X24971Y15614D1*
X23757Y14400D1*
X23756Y13742D1*
X25558D1*
Y14403D1*
X26507D1*
X26506Y15673D1*
X25135D1*
Y16619D1*
X26792D1*
Y16467D1*
X26877Y16463D1*
X26926Y16451D1*
X26972Y16432D1*
X27014Y16406D1*
X27053Y16374D1*
X27085Y16336D1*
X27112Y16294D1*
X27131Y16248D1*
X27143Y16199D1*
X27148Y16146D1*
Y14404D1*
X27322Y14403D1*
Y12439D1*
X25558D1*
Y13100D1*
X19822D1*
X19773Y13104D1*
X19724Y13116D1*
X19678Y13135D1*
X19635Y13161D1*
X19596Y13194D1*
X19303Y13487D1*
X17782Y13488D1*
X17571D1*
Y13896D1*
X17352Y13894D1*
X15240D1*
X15190Y13898D1*
X15142Y13910D1*
X15095Y13929D1*
X15053Y13954D1*
X15013Y13988D1*
X14658Y14344D1*
X14625Y14382D1*
X14599Y14424D1*
X14580Y14470D1*
X14568Y14519D1*
X14564Y14570D1*
Y17125D1*
X14396Y17292D1*
X13477D1*
X13518Y17251D1*
X13580Y17173D1*
X13635Y17089D1*
X13681Y17000D1*
X13717Y16907D1*
X13744Y16811D1*
X13760Y16712D1*
X13767Y16597D1*
X13762Y16497D1*
X13747Y16398D1*
X13722Y16301D1*
X13687Y16208D1*
X13643Y16118D1*
X13589Y16034D1*
X13528Y15955D1*
X13459Y15883D1*
X13383Y15818D1*
X13300Y15761D1*
X13213Y15713D1*
X13120Y15674D1*
X13025Y15645D1*
X12927Y15626D1*
X12827Y15616D1*
X12727Y15617D1*
X12628Y15628D1*
X12530Y15649D1*
X12435Y15680D1*
X12344Y15721D1*
X12257Y15770D1*
X12176Y15828D1*
X12101Y15894D1*
X12033Y15968D1*
X11973Y16048D1*
X11921Y16133D1*
X11878Y16224D1*
X11845Y16318D1*
X11822Y16415D1*
X11808Y16514D1*
X11805Y16614D1*
X11812Y16714D1*
X11829Y16812D1*
X11855Y16908D1*
X11892Y17002D1*
X11938Y17090D1*
X11992Y17174D1*
X12055Y17252D1*
X12095Y17294D1*
X11829Y17292D1*
X11720Y17296D1*
X11671Y17308D1*
X11625Y17327D1*
X11582Y17353D1*
X11543Y17386D1*
X11187Y17742D1*
X11155Y17780D1*
X11129Y17822D1*
X11109Y17868D1*
X11098Y17917D1*
X11093Y17969D1*
Y22656D1*
X11097Y22705D1*
X11109Y22754D1*
X11128Y22800D1*
X11154Y22843D1*
X11187Y22882D1*
X11543Y23238D1*
X11581Y23270D1*
X11623Y23297D1*
X11670Y23316D1*
X11718Y23328D1*
X11770Y23332D1*
X23823D1*
X23873Y23328D1*
X23921Y23316D1*
X23968Y23297D1*
X24010Y23271D1*
X24050Y23238D1*
X24813Y22474D1*
X25558D1*
Y23135D1*
X27322D1*
Y21171D1*
X25558D1*
Y21832D1*
X24681D1*
X24631Y21836D1*
X24583Y21848D1*
X24536Y21867D1*
X24494Y21893D1*
X24454Y21926D1*
X23828Y22553D1*
X23829Y21776D1*
Y21013D1*
X23268D1*
Y20251D1*
X23744D1*
Y18975D1*
X23427D1*
X23426Y17736D1*
X23824Y17737D1*
Y15773D1*
X22278D1*
X22279Y15508D1*
X22933Y14853D1*
X23303D1*
X24424Y15974D1*
Y19448D1*
X24427Y19498D1*
X24439Y19546D1*
X24458Y19592D1*
X24484Y19635D1*
X24518Y19675D1*
X24873Y20030D1*
X24911Y20063D1*
X24954Y20089D1*
X25000Y20108D1*
X25048Y20120D1*
X25100Y20124D1*
X27851D1*
X28019Y20292D1*
Y21173D1*
X27772Y21171D1*
X27458D1*
Y23135D1*
X29222D1*
Y21171D1*
X28661D1*
Y20159D1*
X28657Y20109D1*
X28645Y20061D1*
X28626Y20014D1*
X28600Y19972D1*
X28567Y19932D1*
X28250Y19615D1*
X29014Y19616D1*
X29465D1*
X29510Y19698D1*
X29570Y19778D1*
X29640Y19849D1*
X29719Y19910D1*
X29810Y19962D1*
Y21956D1*
X29814Y22006D1*
X29825Y22055D1*
X29844Y22101D1*
X29870Y22144D1*
X29904Y22183D1*
X30259Y22539D1*
X30297Y22571D1*
X30340Y22597D1*
X30386Y22617D1*
X30435Y22628D1*
X30486Y22633D1*
X37625D1*
X37624Y23294D1*
X38185D1*
X38189Y23378D1*
X38201Y23427D1*
X38220Y23473D1*
X38246Y23516D1*
X38279Y23555D1*
X38635Y23911D1*
X38673Y23943D1*
X38715Y23970D1*
X38762Y23989D1*
X38810Y24001D1*
X38862Y24005D1*
X59584D1*
X59634Y24001D1*
X59682Y23989D1*
X59729Y23970D1*
X59771Y23945D1*
X59811Y23911D1*
X60166Y23555D1*
X60199Y23517D1*
X60225Y23475D1*
X60244Y23429D1*
X60256Y23380D1*
X60260Y23329D1*
Y23293D1*
X60821Y23294D1*
Y22633D1*
X61072D1*
X61453Y23012D1*
X61491Y23044D1*
X61533Y23071D1*
X61579Y23090D1*
X61628Y23102D1*
X61680Y23106D1*
X64853D1*
X64903Y23102D1*
X64951Y23090D1*
X64997Y23071D1*
X65040Y23046D1*
X65080Y23012D1*
X66711Y21380D1*
X67357Y21381D1*
X68219D1*
Y19419D1*
X66257D1*
Y20080D1*
X65401Y20079D1*
X65351Y20083D1*
X65302Y20095D1*
X65256Y20114D1*
X65214Y20140D1*
X65174Y20173D1*
X65138Y20210D1*
X64573Y20209D1*
Y19934D1*
X65485D1*
X65535Y19930D1*
X65584Y19918D1*
X65630Y19899D1*
X65672Y19873D1*
X65712Y19840D1*
X66809Y18743D1*
X66920Y18788D1*
X67016Y18816D1*
X67114Y18833D1*
X67214Y18841D1*
X67314Y18838D1*
X67413Y18826D1*
X67510Y18803D1*
X67605Y18770D1*
X67695Y18728D1*
X67781Y18677D1*
X67862Y18618D1*
X67935Y18550D1*
X68002Y18476D1*
X68061Y18395D1*
X68111Y18308D1*
X68152Y18217D1*
X68184Y18122D1*
X68205Y18025D1*
X68217Y17926D1*
X68218Y17810D1*
X68208Y17711D1*
X68188Y17613D1*
X68158Y17517D1*
X68118Y17426D1*
X68069Y17338D1*
X68012Y17256D1*
X67946Y17181D1*
X67874Y17112D1*
X67794Y17052D1*
X67709Y16999D1*
X67619Y16956D1*
X67525Y16922D1*
X67428Y16897D1*
X67329Y16883D1*
X67229Y16879D1*
X67130Y16885D1*
X67031Y16901D1*
X66935Y16927D1*
X66841Y16962D1*
X66809Y16978D1*
X65557Y15725D1*
Y14888D1*
X65553Y14838D1*
X65542Y14790D1*
X65523Y14743D1*
X65497Y14701D1*
X65463Y14661D1*
X65108Y14306D1*
X65070Y14273D1*
X65027Y14247D1*
X64981Y14228D1*
X64932Y14216D1*
X64881Y14212D1*
X64573D1*
Y13651D1*
X62609D1*
Y15414D1*
X64573D1*
Y14853D1*
X64749D1*
X64916Y15021D1*
Y15858D1*
X64920Y15908D1*
X64931Y15957D1*
X64950Y16003D1*
X64976Y16046D1*
X65010Y16085D1*
X66356Y17432D1*
X66330Y17487D1*
X66297Y17581D1*
X66274Y17678D1*
X66260Y17777D1*
X66257Y17877D1*
X66264Y17977D1*
X66281Y18075D1*
X66308Y18172D1*
X66344Y18265D1*
X66356Y18289D1*
X65353Y19292D1*
X64574D1*
X64573Y18731D1*
X62609D1*
Y20211D1*
X62421Y20209D1*
X61892D1*
X60959Y19276D1*
X60960Y19208D1*
X60980Y19176D1*
X61000Y19130D1*
X61013Y19082D1*
X61018Y19025D1*
Y13421D1*
X61014Y13371D1*
X61003Y13323D1*
X60984Y13276D1*
X60958Y13234D1*
X60926Y13196D1*
X60888Y13163D1*
X60846Y13136D1*
X60800Y13117D1*
X60751Y13105D1*
X60698Y13100D1*
X60662D1*
X60663Y12439D1*
X58899D1*
Y14403D1*
X60379D1*
X60377Y14521D1*
Y16038D1*
X59937Y16037D1*
X59929Y15998D1*
X59911Y15952D1*
X59886Y15909D1*
X59849Y15864D1*
X59574Y15589D1*
X59566Y15484D1*
X59546Y15386D1*
X59513Y15291D1*
X59468Y15202D1*
X59411Y15120D1*
X59343Y15047D1*
X59266Y14983D1*
X59181Y14930D1*
X59090Y14889D1*
X58994Y14861D1*
X58895Y14846D1*
X58796Y14844D1*
X58696Y14856D1*
X58600Y14881D1*
X58589Y14885D1*
X58202Y14498D1*
Y14401D1*
X58449Y14403D1*
X58763D1*
Y12439D1*
X56999D1*
Y13100D1*
X53913D1*
X53863Y13104D1*
X53814Y13116D1*
X53768Y13135D1*
X53725Y13161D1*
X53686Y13194D1*
X53330Y13550D1*
X53298Y13588D1*
X53272Y13630D1*
X53268Y13624D1*
Y12182D1*
X53436Y12014D1*
X61080D1*
X61247Y12182D1*
Y16077D1*
X61251Y16127D1*
X61262Y16175D1*
X61281Y16221D1*
X61307Y16264D1*
X61341Y16303D1*
X61696Y16659D1*
X61734Y16692D1*
X61777Y16718D1*
X61823Y16737D1*
X61872Y16749D1*
X61923Y16753D1*
X62609D1*
Y17314D1*
X64573D1*
Y15551D1*
X62609D1*
Y16111D1*
X62055Y16112D1*
X61888Y15944D1*
Y12049D1*
X61884Y11999D1*
X61873Y11950D1*
X61854Y11904D1*
X61828Y11861D1*
X61794Y11822D1*
X61439Y11466D1*
X61401Y11434D1*
X61358Y11408D1*
X61312Y11388D1*
X61264Y11377D1*
X61212Y11372D1*
X53303D1*
X53253Y11376D1*
X53205Y11388D1*
X53159Y11407D1*
X53116Y11433D1*
X53076Y11466D1*
X52947Y11596D1*
X52463Y11111D1*
X52425Y11078D1*
X52383Y11052D1*
X52337Y11033D1*
X52288Y11021D1*
X52236Y11017D1*
X45301D1*
X45252Y11021D1*
X45203Y11032D1*
X45157Y11051D1*
X45114Y11077D1*
X45076Y11109D1*
X45043Y11147D1*
X45017Y11190D1*
X44997Y11236D1*
X44985Y11284D1*
X44981Y11338D1*
Y12514D1*
X44931Y12539D1*
X44848Y12594D1*
X44773Y12661D1*
X44708Y12737D1*
X44654Y12821D1*
X44612Y12911D1*
X44582Y13006D1*
X44565Y13105D1*
X44562Y13205D1*
X44572Y13304D1*
X44596Y13401D1*
X44632Y13494D1*
X44681Y13582D1*
X44741Y13662D1*
X44811Y13733D1*
X44890Y13794D1*
X44981Y13846D1*
Y16137D1*
X44409Y16136D1*
X44098D1*
Y14094D1*
X44094Y14044D1*
X44083Y13996D1*
X44064Y13950D1*
X44038Y13907D1*
X44004Y13867D1*
X43649Y13512D1*
X43611Y13479D1*
X43568Y13453D1*
X43522Y13434D1*
X43473Y13422D1*
X43422Y13418D1*
X40817D1*
X66257Y20720D2*
Y20930D1*
X66021Y21163D1*
X64719Y22466D1*
X64403Y22465D1*
X61811D1*
X61623Y22276D1*
X61433Y22085D1*
X61395Y22053D1*
X61352Y22027D1*
X61306Y22007D1*
X61258Y21995D1*
X61206Y21991D1*
X60820D1*
X60821Y21444D1*
Y21367D1*
X61195Y21740D1*
X61233Y21772D1*
X61275Y21798D1*
X61321Y21818D1*
X61370Y21829D1*
X61422Y21834D1*
X62611D1*
X62609Y22395D1*
X64573D1*
Y20849D1*
X65271Y20850D1*
X65321Y20846D1*
X65370Y20835D1*
X65416Y20816D1*
X65459Y20790D1*
X65498Y20756D1*
X65534Y20720D1*
X66256Y20721D1*
X60377Y17937D2*
X58640D1*
Y18498D1*
X58555D1*
X58386Y18330D1*
Y18101D1*
X58383Y18052D1*
X58371Y18003D1*
X58352Y17957D1*
X58326Y17914D1*
X58292Y17875D1*
X57937Y17519D1*
X57899Y17487D1*
X57856Y17460D1*
X57810Y17441D1*
X57762Y17429D1*
X57710Y17425D1*
X57649D1*
X57835Y17240D1*
X58642D1*
X58640Y17487D1*
Y17801D1*
X60376D1*
X60377Y17938D1*
X58640Y19139D2*
X58639Y19445D1*
X56175D1*
X56174Y19016D1*
X56741Y19017D1*
X56801Y19074D1*
X56880Y19135D1*
X56966Y19185D1*
X57059Y19223D1*
X57156Y19248D1*
X57255Y19260D1*
X57355Y19258D1*
X57453Y19242D1*
X57549Y19214D1*
X57640Y19173D1*
X57725Y19120D1*
X57802Y19056D1*
X57869Y18982D1*
X57926Y18900D1*
X57968Y18818D1*
X58195Y19046D1*
X58233Y19078D1*
X58275Y19104D1*
X58321Y19124D1*
X58370Y19136D1*
X58421Y19140D1*
X58642D1*
X17571Y14536D2*
Y14833D1*
X17221Y14834D1*
X17222Y14536D1*
X17573D1*
X42480Y22860D2*
X42467Y22761D1*
X42440Y22664D1*
X42428Y22634D1*
X42906Y22633D1*
X46992D1*
Y23294D1*
X48755D1*
Y21330D1*
X46992D1*
Y21991D1*
X41287D1*
X41288Y21330D1*
X39524D1*
Y23294D1*
X40085D1*
X40084Y23364D1*
X38995D1*
X38924Y23294D1*
X39388D1*
Y21330D1*
X37624D1*
Y21991D1*
X30617D1*
X30465Y21838D1*
X30451Y21823D1*
Y19961D1*
X30523Y19922D1*
X30604Y19864D1*
X30656Y19816D1*
X30712Y19869D1*
X30754Y19896D1*
X30800Y19916D1*
X30848Y19928D1*
X30905Y19934D1*
X31191D1*
X31192Y20120D1*
X32581D1*
X32582Y20551D1*
X32767D1*
X32768Y21005D1*
X32772Y21055D1*
X32784Y21103D1*
X32803Y21149D1*
X32829Y21192D1*
X32861Y21230D1*
X32899Y21263D1*
X32941Y21289D1*
X32987Y21309D1*
X33035Y21321D1*
X33089Y21326D1*
X33972D1*
X34018Y21408D1*
X34078Y21488D1*
X34148Y21559D1*
X34227Y21620D1*
X34314Y21670D1*
X34406Y21707D1*
X34503Y21732D1*
X34602Y21744D1*
X34702Y21742D1*
X34801Y21727D1*
X34897Y21698D1*
X34988Y21657D1*
X35072Y21604D1*
X35149Y21540D1*
X35217Y21466D1*
X35273Y21384D1*
X35305Y21325D1*
X37488Y21326D1*
X46038D1*
X46088Y21322D1*
X46136Y21310D1*
X46183Y21291D1*
X46225Y21265D1*
X46265Y21232D1*
X46794Y20702D1*
X47560Y20703D1*
X47930D1*
X47980Y20699D1*
X48028Y20688D1*
X48075Y20669D1*
X48117Y20643D1*
X48157Y20609D1*
X48286Y20480D1*
X48414Y20609D1*
X48452Y20642D1*
X48495Y20668D1*
X48541Y20687D1*
X48589Y20699D1*
X48641Y20703D1*
X60158D1*
X60786Y21331D1*
X59121Y21330D1*
X59058D1*
Y23294D1*
X59522D1*
X59451Y23364D1*
X42326D1*
X42377Y23289D1*
X42422Y23200D1*
X42455Y23105D1*
X42475Y23008D1*
X42482Y22910D1*
X42480Y22860D1*
X58136Y15337D2*
X58114Y15411D1*
X58097Y15509D1*
X58094Y15609D1*
X58104Y15708D1*
X58128Y15806D1*
X58164Y15899D1*
X58213Y15986D1*
X58273Y16066D1*
X58343Y16137D1*
X58422Y16198D1*
X58509Y16248D1*
X58601Y16286D1*
X58642Y16298D1*
X58640Y16598D1*
X57703D1*
X57653Y16602D1*
X57605Y16614D1*
X57558Y16633D1*
X57516Y16659D1*
X57476Y16692D1*
X57201Y16967D1*
X56838Y16968D1*
X56835Y16932D1*
X56837Y16888D1*
X56835Y16475D1*
X56837Y16431D1*
Y16018D1*
X56173D1*
X56174Y15423D1*
Y15304D1*
X55461Y15306D1*
X55417Y15304D1*
X55004Y15306D1*
X54960Y15304D1*
X54547Y15306D1*
X54502Y15304D1*
X54090Y15306D1*
X53921Y15304D1*
X53877D1*
X53878Y13909D1*
X54046Y13742D1*
X56999D1*
Y14403D1*
X57560D1*
Y14631D1*
X57564Y14681D1*
X57576Y14729D1*
X57595Y14775D1*
X57621Y14818D1*
X57654Y14857D1*
X58135Y15338D1*
X51476Y12354D2*
X51463Y12255D1*
X51436Y12159D1*
X51397Y12067D1*
X51345Y11981D1*
X51283Y11903D1*
X51210Y11835D1*
X51129Y11776D1*
X51041Y11729D1*
X50947Y11695D1*
X50850Y11673D1*
X50750Y11665D1*
X50650Y11670D1*
X50552Y11688D1*
X50457Y11720D1*
X50368Y11764D1*
X50285Y11820D1*
X50210Y11886D1*
X50145Y11962D1*
X50091Y12046D1*
X50072Y12083D1*
X47720Y12084D1*
X47670Y12087D1*
X47621Y12099D1*
X47575Y12118D1*
X47532Y12144D1*
X47494Y12176D1*
X47462Y12214D1*
X47435Y12256D1*
X47416Y12302D1*
X47404Y12351D1*
X47399Y12404D1*
Y12756D1*
X46838Y12757D1*
Y14436D1*
X46743Y14435D1*
X46683Y14332D1*
X46621Y14254D1*
X46548Y14186D1*
X46467Y14127D1*
X46379Y14080D1*
X46285Y14046D1*
X46188Y14024D1*
X46088Y14016D1*
X45988Y14021D1*
X45890Y14039D1*
X45795Y14071D1*
X45706Y14115D1*
X45622Y14172D1*
Y13845D1*
X45694Y13806D1*
X45775Y13747D1*
X45847Y13678D1*
X45909Y13600D1*
X45961Y13514D1*
X46000Y13423D1*
X46026Y13326D1*
X46040Y13227D1*
Y13129D1*
X46026Y13030D1*
X45999Y12934D1*
X45960Y12842D1*
X45908Y12756D1*
X45846Y12678D1*
X45774Y12609D1*
X45692Y12551D1*
X45623Y12513D1*
X45622Y11659D1*
X52103Y11658D1*
X52627Y12182D1*
Y16019D1*
X52538Y16018D1*
Y16511D1*
X52441Y16515D1*
X52393Y16526D1*
X52346Y16545D1*
X52304Y16571D1*
X52264Y16605D1*
X51671Y17198D1*
X50284D1*
Y16922D1*
X50382D1*
X50432Y16918D1*
X50481Y16907D1*
X50527Y16888D1*
X50570Y16862D1*
X50609Y16828D1*
X50965Y16473D1*
X50997Y16435D1*
X51023Y16392D1*
X51043Y16346D1*
X51055Y16297D1*
X51059Y16246D1*
Y13069D1*
X51131Y13031D1*
X51212Y12973D1*
X51284Y12904D1*
X51346Y12826D1*
X51397Y12740D1*
X51437Y12648D1*
X51463Y12552D1*
X51476Y12452D1*
Y12354D1*
X30704Y16150D2*
X30739Y16104D1*
X30790Y16018D1*
X30797Y16002D1*
X31192Y16003D1*
Y16148D1*
X30705Y16149D1*
X30584Y18711D2*
X30522Y18667D1*
X30433Y18620D1*
X30340Y18586D1*
X30242Y18564D1*
X30143Y18556D1*
X30043Y18561D1*
X29945Y18579D1*
X29848Y18611D1*
Y16789D1*
X30011Y16790D1*
X31191D1*
X31192Y16936D1*
X30905D1*
X30855Y16940D1*
X30807Y16952D1*
X30761Y16971D1*
X30718Y16997D1*
X30680Y17029D1*
X30647Y17067D1*
X30621Y17109D1*
X30601Y17155D1*
X30589Y17204D1*
X30585Y17257D1*
Y18712D1*
X29542Y18847D2*
X29509Y18894D1*
X29464Y18974D1*
X26792Y18975D1*
Y18822D1*
X25135D1*
Y19386D1*
X25065Y19315D1*
Y18046D1*
X25143D1*
Y18237D1*
X26800D1*
Y18045D1*
X26900Y18046D1*
X26949Y18043D1*
X26998Y18031D1*
X27044Y18012D1*
X27087Y17986D1*
X27126Y17952D1*
X28190Y16889D1*
X28191Y18847D1*
X29542D1*
X32801Y18513D2*
X32800Y18324D1*
X32801Y18152D1*
Y17578D1*
X32882Y17574D1*
X32931Y17563D1*
X32977Y17545D1*
X33020Y17520D1*
X33059Y17488D1*
X33092Y17450D1*
X33119Y17408D1*
X33139Y17363D1*
X33152Y17314D1*
X33157Y17257D1*
Y16470D1*
X33153Y16420D1*
X33141Y16370D1*
X33182Y16360D1*
X33402Y16362D1*
X33403Y16977D1*
X33402Y17150D1*
X33403Y17764D1*
X33402Y17937D1*
Y18510D1*
X32800Y18511D1*
X32801Y18302D1*
X13316Y20696D2*
X11805D1*
Y22594D1*
X11735Y22522D1*
Y18101D1*
X11903Y17934D1*
X14529D1*
X14579Y17930D1*
X14627Y17918D1*
X14673Y17899D1*
X14716Y17873D1*
X14755Y17840D1*
X15111Y17484D1*
X15144Y17446D1*
X15170Y17404D1*
X15189Y17358D1*
X15201Y17309D1*
X15205Y17257D1*
Y14703D1*
X15362Y14546D1*
X15361Y15882D1*
X16247D1*
X15881Y16249D1*
X15848Y16287D1*
X15822Y16329D1*
X15803Y16375D1*
X15791Y16424D1*
X15787Y16475D1*
Y18886D1*
X15177D1*
Y20056D1*
X15057Y20054D1*
X14088D1*
X14038Y20058D1*
X13989Y20070D1*
X13943Y20089D1*
X13900Y20115D1*
X13861Y20148D1*
X13314Y20695D1*
X13766Y19087D2*
X13756Y18987D1*
X13736Y18890D1*
X13705Y18794D1*
X13666Y18702D1*
X13617Y18615D1*
X13560Y18533D1*
X13494Y18458D1*
X13422Y18389D1*
X13342Y18328D1*
X13257Y18276D1*
X13167Y18233D1*
X13073Y18199D1*
X12976Y18174D1*
X12877Y18160D1*
X12777Y18156D1*
X12678Y18162D1*
X12579Y18178D1*
X12482Y18204D1*
X12389Y18239D1*
X12300Y18284D1*
X12216Y18338D1*
X12137Y18400D1*
X12066Y18470D1*
X12002Y18547D1*
X11946Y18630D1*
X11899Y18718D1*
X11861Y18810D1*
X11832Y18906D1*
X11814Y19004D1*
X11805Y19104D1*
X11807Y19204D1*
X11819Y19303D1*
X11841Y19401D1*
X11873Y19495D1*
X11914Y19587D1*
X11964Y19673D1*
X12023Y19754D1*
X12090Y19828D1*
X12163Y19895D1*
X12244Y19955D1*
X12330Y20006D1*
X12421Y20048D1*
X12515Y20080D1*
X12613Y20103D1*
X12712Y20115D1*
X12812Y20118D1*
X12911Y20110D1*
X13010Y20092D1*
X13106Y20065D1*
X13198Y20027D1*
X13287Y19981D1*
X13370Y19925D1*
X13447Y19862D1*
X13518Y19791D1*
X13580Y19713D1*
X13635Y19629D1*
X13681Y19540D1*
X13717Y19447D1*
X13744Y19351D1*
X13760Y19252D1*
X13767Y19137D1*
X13766Y19087D1*
Y14007D2*
X13756Y13907D1*
X13736Y13810D1*
X13705Y13714D1*
X13666Y13622D1*
X13617Y13535D1*
X13560Y13453D1*
X13494Y13378D1*
X13422Y13309D1*
X13342Y13248D1*
X13257Y13196D1*
X13167Y13153D1*
X13073Y13118D1*
X12976Y13094D1*
X12877Y13080D1*
X12777Y13076D1*
X12678Y13082D1*
X12579Y13098D1*
X12482Y13124D1*
X12389Y13159D1*
X12300Y13204D1*
X12216Y13258D1*
X12137Y13320D1*
X12066Y13390D1*
X12002Y13467D1*
X11946Y13550D1*
X11899Y13638D1*
X11861Y13730D1*
X11832Y13826D1*
X11814Y13924D1*
X11805Y14024D1*
X11807Y14124D1*
X11819Y14223D1*
X11841Y14321D1*
X11873Y14415D1*
X11914Y14507D1*
X11964Y14593D1*
X12023Y14674D1*
X12090Y14748D1*
X12163Y14815D1*
X12244Y14875D1*
X12330Y14926D1*
X12421Y14968D1*
X12515Y15000D1*
X12613Y15023D1*
X12712Y15035D1*
X12812Y15038D1*
X12911Y15030D1*
X13010Y15012D1*
X13106Y14985D1*
X13198Y14947D1*
X13287Y14901D1*
X13370Y14845D1*
X13447Y14782D1*
X13518Y14711D1*
X13580Y14633D1*
X13635Y14549D1*
X13681Y14460D1*
X13717Y14367D1*
X13744Y14271D1*
X13760Y14172D1*
X13767Y14057D1*
X13766Y14007D1*
X17584Y15475D2*
Y15801D1*
X17364Y15799D1*
X17222D1*
Y15474D1*
X17442Y15475D1*
X17584D1*
X18673Y21305D2*
X19260D1*
Y20898D1*
X19480Y20899D1*
X21475D1*
X21590Y21014D1*
X21379Y21013D1*
X20165D1*
Y21673D1*
X19042Y21674D1*
X18673Y21305D1*
X40758Y17577D2*
Y17133D1*
X41203D1*
X40969Y17365D1*
X40758Y17576D1*
X45349Y18060D2*
X45351Y18124D1*
X45349Y18163D1*
Y18435D1*
X45263Y18352D1*
X45177Y18267D1*
X45178Y18226D1*
X45346Y18060D1*
X45349Y18063D1*
Y18113D1*
X44934Y18930D2*
X44917Y18932D1*
X44878Y18930D1*
X44409Y18932D1*
X44370Y18930D1*
X43901Y18932D1*
X43862Y18930D1*
X43729D1*
X43730Y18371D1*
Y18146D1*
X43906Y18322D1*
X43944Y18354D1*
X43987Y18380D1*
X44033Y18400D1*
X44081Y18412D1*
X44133Y18416D1*
X44538D1*
X44539Y18444D1*
X44550Y18493D1*
X44568Y18539D1*
X44593Y18582D1*
X44630Y18627D1*
X44934Y18930D1*
X42810Y17355D2*
X42809Y17399D1*
X42546Y17134D1*
X42809Y17133D1*
Y17397D1*
X48942Y23294D2*
X50655D1*
Y22633D1*
X57159D1*
X57158Y22980D1*
Y23294D1*
X58921D1*
Y21330D1*
X57158D1*
Y21991D1*
X50654D1*
X50655Y21644D1*
Y21330D1*
X48892D1*
Y23294D1*
X48942D1*
X68218Y15270D2*
X68208Y15171D1*
X68188Y15073D1*
X68158Y14977D1*
X68118Y14886D1*
X68069Y14798D1*
X68012Y14716D1*
X67946Y14641D1*
X67874Y14572D1*
X67794Y14512D1*
X67709Y14459D1*
X67619Y14416D1*
X67525Y14382D1*
X67428Y14357D1*
X67329Y14343D1*
X67229Y14339D1*
X67130Y14345D1*
X67031Y14361D1*
X66935Y14387D1*
X66841Y14422D1*
X66752Y14468D1*
X66668Y14521D1*
X66589Y14584D1*
X66518Y14653D1*
X66454Y14730D1*
X66398Y14813D1*
X66351Y14901D1*
X66313Y14993D1*
X66284Y15089D1*
X66266Y15187D1*
X66257Y15287D1*
X66259Y15387D1*
X66271Y15486D1*
X66293Y15584D1*
X66325Y15679D1*
X66366Y15770D1*
X66416Y15856D1*
X66475Y15937D1*
X66542Y16011D1*
X66616Y16079D1*
X66696Y16138D1*
X66782Y16189D1*
X66873Y16231D1*
X66967Y16263D1*
X67065Y16286D1*
X67164Y16298D1*
X67264Y16301D1*
X67363Y16293D1*
X67462Y16275D1*
X67558Y16248D1*
X67651Y16210D1*
X67739Y16164D1*
X67822Y16108D1*
X67899Y16045D1*
X67970Y15974D1*
X68032Y15896D1*
X68087Y15812D1*
X68133Y15723D1*
X68169Y15630D1*
X68196Y15534D1*
X68213Y15435D1*
X68219Y15320D1*
X68218Y15270D1*
X62609Y20851D2*
Y21192D1*
X61555D1*
X60518Y20156D1*
X60480Y20123D1*
X60438Y20098D1*
X60418Y20086D1*
X60639D1*
X60689Y20082D1*
X60737Y20070D1*
X60784Y20051D1*
X60836Y20061D1*
X61532Y20756D1*
X61570Y20789D1*
X61613Y20815D1*
X61659Y20834D1*
X61707Y20846D1*
X61759Y20850D1*
X62610D1*
X53877Y16123D2*
X53913Y16122D1*
X53958Y16123D1*
X54371Y16122D1*
X54540Y16123D1*
X54802Y16122D1*
X54847Y16123D1*
X55260Y16122D1*
X55304Y16123D1*
X55717Y16122D1*
X55761Y16123D1*
X56019D1*
X56018Y16418D1*
Y16511D1*
X55818D1*
X55768Y16515D1*
X55719Y16526D1*
X55673Y16545D1*
X55630Y16571D1*
X55592Y16603D1*
X55560Y16641D1*
X55533Y16684D1*
X55514Y16729D1*
X55502Y16778D1*
X55497Y16831D1*
Y18911D1*
X55461Y18913D1*
X55417Y18911D1*
X55004Y18913D1*
X54960Y18911D1*
X54547Y18913D1*
X54502Y18911D1*
X54090Y18913D1*
X53921Y18911D1*
X53877D1*
X53878Y16122D1*
X53251Y19730D2*
X53913Y19729D1*
X53958Y19730D1*
X54371Y19729D1*
X54540Y19730D1*
X54802Y19729D1*
X54847Y19730D1*
X55260Y19729D1*
X55304Y19730D1*
X55496D1*
X55500Y19811D1*
X55511Y19860D1*
X55530Y19906D1*
X55555Y19949D1*
X55587Y19988D1*
X55624Y20021D1*
X55691Y20062D1*
X48774D1*
X48606Y19894D1*
Y19382D1*
X48720Y19383D1*
X50284D1*
Y18522D1*
X50502Y18524D1*
X52538D1*
X52540Y18559D1*
X52538Y18604D1*
Y19017D1*
X53202D1*
X53201Y19611D1*
Y19730D1*
X53251D1*
X52539Y17847D2*
X52538Y17883D1*
X50283Y17882D1*
X50286Y17839D1*
X51804D1*
X51854Y17835D1*
X51903Y17823D1*
X51949Y17805D1*
X51992Y17779D1*
X52031Y17745D1*
X52538Y17238D1*
X52540Y17645D1*
X52538Y17690D1*
Y17882D1*
X10718Y24327D2*
Y10718D1*
X68425D1*
Y24377D1*
X10718D1*
Y24327D1*
D18*
X45809Y17231D3*
D19*
X49620Y13738D3*
D20*
X39776Y18978D3*
D19*
X21042Y16755D3*
X39935Y13738D3*
X22947Y21994D3*
D21*
X16120Y21518D3*
D19*
X59781Y13421D3*
D22*
X67238Y20400D3*
D23*
X20883Y14215D3*
D20*
X59622Y18819D3*
D21*
X18502Y14215D3*
D24*
X31997Y19613D3*
Y18832D3*
Y18044D3*
Y17257D3*
Y16470D3*
Y15682D3*
X34200Y19613D3*
X34206Y18832D3*
Y18044D3*
Y17257D3*
Y16470D3*
X34181Y15682D3*
D25*
X33089Y19746D3*
Y15555D3*
D22*
X12786Y21677D3*
D26*
Y19137D3*
Y16597D3*
Y14057D3*
D21*
X18514Y16120D3*
X16292Y15155D3*
X16107Y19613D3*
X18330Y20578D3*
D19*
X21047Y21994D3*
D23*
X23106Y19613D3*
X20871D3*
D19*
X22942Y16755D3*
D23*
X23118Y14215D3*
D19*
X26440Y13421D3*
X28340D3*
X26440Y22153D3*
X28340D3*
X38506Y22312D3*
X40406D3*
D20*
X39776Y17078D3*
D18*
X45809Y17739D3*
Y18247D3*
Y18755D3*
D27*
X45301Y19390D3*
X44793D3*
X44285D3*
X43777D3*
D18*
X43269Y18755D3*
Y18247D3*
Y17739D3*
Y17231D3*
D27*
X43777Y16596D3*
X44285D3*
X44793D3*
X45301D3*
D19*
X47873Y22312D3*
X49773D3*
X59940D3*
X58040D3*
D26*
X67238Y17860D3*
Y15320D3*
D19*
X38035Y13738D3*
D20*
X63591Y19613D3*
Y21513D3*
Y14532D3*
Y16432D3*
D19*
X57881Y13421D3*
D28*
X53557Y15714D3*
X54014D3*
X54446D3*
X54903D3*
X55361D3*
X55818D3*
D29*
X56427Y18660D3*
Y18203D3*
Y17746D3*
Y17289D3*
Y16831D3*
Y16374D3*
D28*
X53557Y19321D3*
X54014D3*
X54446D3*
X54903D3*
X55361D3*
X55818D3*
D29*
X52948Y18660D3*
Y18203D3*
Y17746D3*
Y17289D3*
Y16831D3*
Y16374D3*
D20*
X59622Y16919D3*
X49302Y18502D3*
Y16601D3*
D19*
X47720Y13738D3*
D30*
X25964Y19295D3*
D31*
X25971Y17726D3*
D30*
X25964Y16146D3*
D32*
X29019Y17700D3*
M02*
