G04 DipTrace 2.2.0.9*
%INTopMask.gbr*%
%MOMM*%
%ADD33C,1.016*%
%ADD39R,1.397X2.032*%
%ADD41R,1.397X0.762*%
%ADD43R,1.397X0.686*%
%ADD45R,0.559X0.452*%
%ADD47R,0.452X0.559*%
%ADD49R,0.508X0.66*%
%ADD51C,1.702*%
%ADD53R,0.754X1.349*%
%ADD55R,1.349X0.754*%
%ADD57R,1.016X1.016*%
%ADD59R,1.702X1.702*%
%ADD61R,1.6X1.194*%
%ADD63R,1.703X1.503*%
%ADD65R,1.503X1.703*%
%ADD67R,0.66X0.508*%
%FSLAX53Y53*%
%SFA1B1*%
%OFA0B0*%
G04*
G71*
G90*
G75*
G01*
%LNTopMask*%
%LPD*%
D33*
X37014Y16863D3*
X41742Y22910D3*
X58833Y15583D3*
X19714Y19137D3*
X50738Y12404D3*
X57291Y18521D3*
X46076Y14755D3*
X41923Y18070D3*
X34638Y21005D3*
X45301Y13179D3*
X36240Y19613D3*
X30131Y15682D3*
Y19295D3*
D67*
X45809Y17231D3*
D65*
X49620Y13738D3*
D63*
X39776Y18978D3*
D65*
X21042Y16755D3*
X39935Y13738D3*
X22947Y21994D3*
D61*
X16120Y21518D3*
D65*
X59781Y13421D3*
D59*
X67238Y20400D3*
D57*
X20883Y14215D3*
D63*
X59622Y18819D3*
D61*
X18502Y14215D3*
D55*
X31997Y19613D3*
Y18832D3*
Y18044D3*
Y17257D3*
Y16470D3*
Y15682D3*
X34200Y19613D3*
X34206Y18832D3*
Y18044D3*
Y17257D3*
Y16470D3*
X34181Y15682D3*
D53*
X33089Y19746D3*
Y15555D3*
D59*
X12786Y21677D3*
D51*
Y19137D3*
Y16597D3*
Y14057D3*
D61*
X18514Y16120D3*
X16292Y15155D3*
X16107Y19613D3*
X18330Y20578D3*
D65*
X21047Y21994D3*
D57*
X23106Y19613D3*
X20871D3*
D65*
X22942Y16755D3*
D57*
X23118Y14215D3*
D65*
X26440Y13421D3*
X28340D3*
X26440Y22153D3*
X28340D3*
X38506Y22312D3*
X40406D3*
D63*
X39776Y17078D3*
D67*
X45809Y17739D3*
Y18247D3*
Y18755D3*
D49*
X45301Y19390D3*
X44793D3*
X44285D3*
X43777D3*
D67*
X43269Y18755D3*
Y18247D3*
Y17739D3*
Y17231D3*
D49*
X43777Y16596D3*
X44285D3*
X44793D3*
X45301D3*
D65*
X47873Y22312D3*
X49773D3*
X59940D3*
X58040D3*
D51*
X67238Y17860D3*
Y15320D3*
D65*
X38035Y13738D3*
D63*
X63591Y19613D3*
Y21513D3*
Y14532D3*
Y16432D3*
D65*
X57881Y13421D3*
D47*
X53557Y15714D3*
X54014D3*
X54446D3*
X54903D3*
X55361D3*
X55818D3*
D45*
X56427Y18660D3*
Y18203D3*
Y17746D3*
Y17289D3*
Y16831D3*
Y16374D3*
D47*
X53557Y19321D3*
X54014D3*
X54446D3*
X54903D3*
X55361D3*
X55818D3*
D45*
X52948Y18660D3*
Y18203D3*
Y17746D3*
Y17289D3*
Y16831D3*
Y16374D3*
D63*
X59622Y16919D3*
X49302Y18502D3*
Y16601D3*
D65*
X47720Y13738D3*
D43*
X25964Y19295D3*
D41*
X25971Y17726D3*
D43*
X25964Y16146D3*
D39*
X29019Y17700D3*
M02*
