G04 DipTrace 2.2.0.9*
%INTopMask.gbr*%
%MOMM*%
%ADD33C,1.016*%
%ADD39R,1.397X2.032*%
%ADD41R,1.397X0.762*%
%ADD43R,1.397X0.686*%
%ADD45R,0.559X0.452*%
%ADD47R,0.452X0.559*%
%ADD49R,0.508X0.66*%
%ADD51C,1.702*%
%ADD53R,0.754X1.349*%
%ADD55R,1.349X0.754*%
%ADD57R,1.016X1.016*%
%ADD59R,1.702X1.702*%
%ADD61R,1.6X1.194*%
%ADD63R,1.703X1.503*%
%ADD65R,1.503X1.703*%
%ADD67R,0.66X0.508*%
%FSLAX53Y53*%
%SFA1B1*%
%OFA0B0*%
G04*
G71*
G90*
G75*
G01*
%LNTopMask*%
%LPD*%
D33*
X36618Y16308D3*
X41345Y22354D3*
X58437Y15028D3*
X19317Y18581D3*
X50341Y11849D3*
X56894Y17965D3*
X45679Y14200D3*
X41526Y17514D3*
X34241Y20449D3*
X44905Y12623D3*
X35843Y19057D3*
X29734Y15127D3*
Y18740D3*
D67*
X45413Y16676D3*
D65*
X49223Y13183D3*
D63*
X39379Y18422D3*
D65*
X20645Y16200D3*
X39538Y13183D3*
X22550Y21439D3*
D61*
X15723Y20962D3*
D65*
X59384Y12865D3*
D59*
X66841Y19844D3*
D57*
X20486Y13659D3*
D63*
X59225Y18263D3*
D61*
X18105Y13659D3*
D55*
X31600Y19057D3*
Y18276D3*
Y17489D3*
Y16701D3*
Y15914D3*
Y15127D3*
X33803Y19057D3*
X33810Y18276D3*
Y17489D3*
Y16701D3*
Y15914D3*
X33784Y15127D3*
D53*
X32692Y19191D3*
Y15000D3*
D59*
X12389Y21121D3*
D51*
Y18581D3*
Y16041D3*
Y13501D3*
D61*
X18117Y15564D3*
X15895Y14599D3*
X15710Y19057D3*
X17933Y20023D3*
D65*
X20650Y21439D3*
D57*
X22709Y19057D3*
X20474D3*
D65*
X22545Y16200D3*
D57*
X22721Y13659D3*
D65*
X26043Y12865D3*
X27943D3*
X26043Y21598D3*
X27943D3*
X38109Y21756D3*
X40009D3*
D63*
X39379Y16522D3*
D67*
X45413Y17184D3*
Y17692D3*
Y18200D3*
D49*
X44905Y18835D3*
X44397D3*
X43889D3*
X43381D3*
D67*
X42873Y18200D3*
Y17692D3*
Y17184D3*
Y16676D3*
D49*
X43381Y16041D3*
X43889D3*
X44397D3*
X44905D3*
D65*
X47477Y21756D3*
X49377D3*
X59543D3*
X57643D3*
D51*
X66841Y17304D3*
Y14764D3*
D65*
X37638Y13183D3*
D63*
X63194Y19057D3*
Y20957D3*
Y13977D3*
Y15877D3*
D65*
X57484Y12865D3*
D47*
X53160Y15158D3*
X53618D3*
X54049D3*
X54507D3*
X54964D3*
X55421D3*
D45*
X56031Y18105D3*
Y17647D3*
Y17190D3*
Y16733D3*
Y16276D3*
Y15819D3*
D47*
X53160Y18765D3*
X53618D3*
X54049D3*
X54507D3*
X54964D3*
X55421D3*
D45*
X52551Y18105D3*
Y17647D3*
Y17190D3*
Y16733D3*
Y16276D3*
Y15819D3*
D63*
X59225Y16363D3*
X48905Y17946D3*
Y16046D3*
D65*
X47323Y13183D3*
D43*
X25567Y18740D3*
D41*
X25574Y17170D3*
D43*
X25567Y15590D3*
D39*
X28622Y17145D3*
M02*
