G04 DipTrace 2.2.0.9*
%INTopPaste.gbr*%
%MOMM*%
%ADD33C,1.016*%
%ADD40R,0.991X1.626*%
%ADD42R,0.991X0.356*%
%ADD44R,0.991X0.279*%
%ADD46R,0.152X0.046*%
%ADD48R,0.046X0.152*%
%ADD50R,0.102X0.254*%
%ADD54R,0.348X0.942*%
%ADD56R,0.942X0.348*%
%ADD58R,0.61X0.61*%
%ADD62R,1.194X0.787*%
%ADD64R,1.297X1.097*%
%ADD66R,1.097X1.297*%
%ADD68R,0.254X0.102*%
%FSLAX53Y53*%
%SFA1B1*%
%OFA0B0*%
G04*
G71*
G90*
G75*
G01*
%LNTopPaste*%
%LPD*%
D33*
X37014Y16863D3*
X41742Y22910D3*
X58833Y15583D3*
X19714Y19137D3*
X50738Y12404D3*
X57291Y18521D3*
X46076Y14755D3*
X41923Y18070D3*
X34638Y21005D3*
X45301Y13179D3*
X36240Y19613D3*
X30131Y15682D3*
Y19295D3*
D68*
X45809Y17231D3*
D66*
X49620Y13738D3*
D64*
X39776Y18978D3*
D66*
X21042Y16755D3*
X39935Y13738D3*
X22947Y21994D3*
D62*
X16120Y21518D3*
D66*
X59781Y13421D3*
D58*
X20883Y14215D3*
D64*
X59622Y18819D3*
D62*
X18502Y14215D3*
D56*
X31997Y19613D3*
Y18832D3*
Y18044D3*
Y17257D3*
Y16470D3*
Y15682D3*
X34200Y19613D3*
X34206Y18832D3*
Y18044D3*
Y17257D3*
Y16470D3*
X34181Y15682D3*
D54*
X33089Y19746D3*
Y15555D3*
D62*
X18514Y16120D3*
X16292Y15155D3*
X16107Y19613D3*
X18330Y20578D3*
D66*
X21047Y21994D3*
D58*
X23106Y19613D3*
X20871D3*
D66*
X22942Y16755D3*
D58*
X23118Y14215D3*
D66*
X26440Y13421D3*
X28340D3*
X26440Y22153D3*
X28340D3*
X38506Y22312D3*
X40406D3*
D64*
X39776Y17078D3*
D68*
X45809Y17739D3*
Y18247D3*
Y18755D3*
D50*
X45301Y19390D3*
X44793D3*
X44285D3*
X43777D3*
D68*
X43269Y18755D3*
Y18247D3*
Y17739D3*
Y17231D3*
D50*
X43777Y16596D3*
X44285D3*
X44793D3*
X45301D3*
D66*
X47873Y22312D3*
X49773D3*
X59940D3*
X58040D3*
X38035Y13738D3*
D64*
X63591Y19613D3*
Y21513D3*
Y14532D3*
Y16432D3*
D66*
X57881Y13421D3*
D48*
X53557Y15714D3*
X54014D3*
X54446D3*
X54903D3*
X55361D3*
X55818D3*
D46*
X56427Y18660D3*
Y18203D3*
Y17746D3*
Y17289D3*
Y16831D3*
Y16374D3*
D48*
X53557Y19321D3*
X54014D3*
X54446D3*
X54903D3*
X55361D3*
X55818D3*
D46*
X52948Y18660D3*
Y18203D3*
Y17746D3*
Y17289D3*
Y16831D3*
Y16374D3*
D64*
X59622Y16919D3*
X49302Y18502D3*
Y16601D3*
D66*
X47720Y13738D3*
D44*
X25964Y19295D3*
D42*
X25971Y17726D3*
D44*
X25964Y16146D3*
D40*
X29019Y17700D3*
M02*
