G04 DipTrace 2.2.0.9*
%INTopSilk.gbr*%
%MOMM*%
%ADD10C,0.25*%
%ADD12C,0.076*%
%ADD15C,0.432*%
%ADD16C,0.381*%
%ADD17O,0.534X0.483*%
%ADD70C,0.118*%
%ADD71C,0.157*%
%FSLAX53Y53*%
%SFA1B1*%
%OFA0B0*%
G04*
G71*
G90*
G75*
G01*
%LNTopSilk*%
%LPD*%
X30660Y20207D2*
D10*
X34699D1*
Y14035D1*
X30660D1*
Y20207D1*
X11119Y22467D2*
X13659D1*
Y12257D1*
X11119D1*
Y22467D1*
X15895Y15361D2*
X15920Y16758D1*
X17775Y16783D1*
X17825Y16707D2*
Y16250D1*
X17851Y14878D2*
Y14319D1*
Y12923D2*
Y12440D1*
Y12465D2*
X15920D1*
X15895Y13837D1*
X17933Y19261D2*
X17908Y17863D1*
X16053Y17838D1*
X16003Y17914D2*
Y18372D1*
X15977Y19743D2*
Y20302D1*
Y21699D2*
Y22182D1*
Y22157D2*
X17908D1*
X17946Y20797D1*
X21998Y18676D2*
Y19413D1*
X19813Y19768D2*
X23471D1*
Y18321D1*
X19813D1*
Y19768D1*
X21197Y14040D2*
Y13304D1*
X19724Y14396D2*
X23382D1*
Y12948D1*
X19724D1*
Y14396D1*
X24993Y12216D2*
Y13515D1*
X37059Y21107D2*
Y22406D1*
X38730Y19472D2*
X40029D1*
D15*
X45425Y16079D3*
X41984Y19724D2*
D10*
X46302D1*
Y15254D1*
X41984D1*
Y19724D1*
X46527Y21107D2*
Y22406D1*
X65571Y21114D2*
X68111D1*
Y13494D1*
X65571D1*
Y21114D1*
X40588Y13832D2*
Y12533D1*
X64306Y11272D2*
D16*
X64307Y11311D1*
X64312Y11349D1*
X64319Y11387D1*
X64329Y11425D1*
X64342Y11462D1*
X64357Y11498D1*
X64375Y11533D1*
X64396Y11566D1*
X64419Y11598D1*
X64445Y11629D1*
X64472Y11658D1*
X64502Y11685D1*
X64534Y11710D1*
X64567Y11733D1*
X64602Y11753D1*
X64639Y11771D1*
X64677Y11787D1*
X64716Y11800D1*
X64755Y11811D1*
X64796Y11819D1*
X64837Y11824D1*
X64878Y11827D1*
X64920D1*
X64961Y11824D1*
X65002Y11819D1*
X65042Y11811D1*
X65082Y11800D1*
X65121Y11787D1*
X65159Y11771D1*
X65195Y11753D1*
X65230Y11733D1*
X65264Y11710D1*
X65296Y11685D1*
X65325Y11658D1*
X65353Y11629D1*
X65379Y11598D1*
X65402Y11566D1*
X65422Y11533D1*
X65441Y11498D1*
X65456Y11462D1*
X65469Y11425D1*
X65479Y11387D1*
X65486Y11349D1*
X65490Y11311D1*
X65492Y11272D1*
X65490Y11233D1*
X65486Y11195D1*
X65479Y11156D1*
X65469Y11119D1*
X65456Y11082D1*
X65441Y11046D1*
X65422Y11011D1*
X65402Y10977D1*
X65379Y10945D1*
X65353Y10915D1*
X65325Y10886D1*
X65296Y10859D1*
X65264Y10834D1*
X65230Y10811D1*
X65195Y10791D1*
X65159Y10772D1*
X65121Y10757D1*
X65082Y10743D1*
X65042Y10733D1*
X65002Y10725D1*
X64961Y10719D1*
X64920Y10717D1*
X64878D1*
X64837Y10719D1*
X64796Y10725D1*
X64755Y10733D1*
X64716Y10743D1*
X64677Y10757D1*
X64639Y10772D1*
X64602Y10791D1*
X64567Y10811D1*
X64534Y10834D1*
X64502Y10859D1*
X64472Y10886D1*
X64445Y10915D1*
X64419Y10945D1*
X64396Y10977D1*
X64375Y11011D1*
X64357Y11046D1*
X64342Y11082D1*
X64329Y11119D1*
X64319Y11156D1*
X64312Y11195D1*
X64307Y11233D1*
X64306Y11272D1*
X64936Y11986D2*
Y13097D1*
X64068Y11278D2*
X62957D1*
X60434Y13515D2*
D10*
Y12216D1*
X51992Y19349D2*
X56538D1*
Y14472D1*
X51992D1*
Y19349D1*
D17*
X52487Y15069D3*
X58576Y19314D2*
D10*
X59875D1*
X48256Y18996D2*
X49555D1*
X50273Y13832D2*
Y12533D1*
X26438Y18999D2*
X27810D1*
Y15316D1*
X26438D1*
Y18999D1*
X64381Y12542D2*
D16*
X64857Y13097D1*
X65492Y12542D2*
X64976Y13137D1*
X62714Y11272D2*
X63190Y11827D1*
Y10796D2*
X62634Y11192D1*
X31056Y12987D2*
D70*
X30764Y13753D1*
D2*
X30472Y12987D1*
X30582Y13242D2*
X30947D1*
X31291Y13753D2*
Y12987D1*
D2*
X31547D1*
D2*
X31656Y13024D1*
D2*
X31729Y13096D1*
D2*
X31766Y13170D1*
D2*
X31802Y13278D1*
D2*
Y13461D1*
D2*
X31766Y13571D1*
D2*
X31729Y13643D1*
D2*
X31656Y13716D1*
D2*
X31547Y13753D1*
D2*
X31291D1*
X32037D2*
X32547Y12987D1*
Y13753D2*
X32037Y12987D1*
X32783Y13753D2*
Y12987D1*
D2*
X33220D1*
X33529Y13752D2*
X33929D1*
D2*
X33710Y13460D1*
D2*
X33820D1*
D2*
X33892Y13424D1*
D2*
X33929Y13388D1*
D2*
X33966Y13278D1*
D2*
Y13206D1*
D2*
X33929Y13096D1*
D2*
X33856Y13023D1*
D2*
X33747Y12987D1*
D2*
X33637D1*
D2*
X33529Y13023D1*
D2*
X33492Y13060D1*
D2*
X33455Y13133D1*
X34566Y12987D2*
Y13752D1*
D2*
X34201Y13242D1*
D2*
X34748D1*
X35420Y13752D2*
X35056D1*
D2*
X35020Y13424D1*
D2*
X35056Y13460D1*
D2*
X35166Y13497D1*
D2*
X35274D1*
D2*
X35384Y13460D1*
D2*
X35457Y13388D1*
D2*
X35493Y13278D1*
D2*
Y13206D1*
D2*
X35457Y13096D1*
D2*
X35384Y13023D1*
D2*
X35274Y12987D1*
D2*
X35166D1*
D2*
X35056Y13023D1*
D2*
X35020Y13060D1*
D2*
X34983Y13133D1*
X16599Y23562D2*
X16526Y23526D1*
D2*
X16453Y23453D1*
D2*
X16417Y23380D1*
D2*
X16380Y23270D1*
D2*
Y23088D1*
D2*
X16417Y22979D1*
D2*
X16453Y22907D1*
D2*
X16526Y22833D1*
D2*
X16599Y22797D1*
D2*
X16745D1*
D2*
X16818Y22833D1*
D2*
X16890Y22907D1*
D2*
X16926Y22979D1*
D2*
X16964Y23088D1*
D2*
Y23270D1*
D2*
X16926Y23380D1*
D2*
X16890Y23453D1*
D2*
X16818Y23526D1*
D2*
X16745Y23562D1*
D2*
X16599D1*
X16708Y22943D2*
X16926Y22724D1*
X17199Y23415D2*
X17272Y23452D1*
D2*
X17382Y23561D1*
D2*
Y22796D1*
X16440Y12168D2*
X16368Y12133D1*
D2*
X16294Y12059D1*
D2*
X16258Y11986D1*
D2*
X16221Y11877D1*
D2*
Y11695D1*
D2*
X16258Y11585D1*
D2*
X16294Y11513D1*
D2*
X16368Y11439D1*
D2*
X16440Y11403D1*
D2*
X16586D1*
D2*
X16659Y11439D1*
D2*
X16731Y11513D1*
D2*
X16768Y11585D1*
D2*
X16805Y11695D1*
D2*
Y11877D1*
D2*
X16768Y11986D1*
D2*
X16731Y12059D1*
D2*
X16659Y12133D1*
D2*
X16586Y12168D1*
D2*
X16440D1*
X16550Y11549D2*
X16768Y11330D1*
X17077Y11985D2*
Y12021D1*
D2*
X17113Y12095D1*
D2*
X17150Y12131D1*
D2*
X17223Y12167D1*
D2*
X17369D1*
D2*
X17441Y12131D1*
D2*
X17477Y12095D1*
D2*
X17514Y12021D1*
D2*
Y11949D1*
D2*
X17477Y11876D1*
D2*
X17405Y11767D1*
D2*
X17040Y11402D1*
D2*
X17550D1*
X20863Y23197D2*
X21190D1*
D2*
X21300Y23234D1*
D2*
X21337Y23270D1*
D2*
X21373Y23343D1*
D2*
Y23416D1*
D2*
X21337Y23489D1*
D2*
X21300Y23526D1*
D2*
X21190Y23562D1*
D2*
X20863D1*
D2*
Y22796D1*
X21118Y23197D2*
X21373Y22796D1*
X22045Y23561D2*
X21682D1*
D2*
X21645Y23233D1*
D2*
X21682Y23270D1*
D2*
X21791Y23307D1*
D2*
X21900D1*
D2*
X22009Y23270D1*
D2*
X22083Y23197D1*
D2*
X22119Y23088D1*
D2*
Y23015D1*
D2*
X22083Y22906D1*
D2*
X22009Y22832D1*
D2*
X21900Y22796D1*
D2*
X21791D1*
D2*
X21682Y22832D1*
D2*
X21645Y22869D1*
D2*
X21608Y22942D1*
X23683Y20741D2*
Y19976D1*
D2*
X23938D1*
D2*
X24048Y20013D1*
D2*
X24121Y20085D1*
D2*
X24157Y20158D1*
D2*
X24193Y20267D1*
D2*
Y20450D1*
D2*
X24157Y20559D1*
D2*
X24121Y20632D1*
D2*
X24048Y20705D1*
D2*
X23938Y20741D1*
D2*
X23683D1*
X24502D2*
X24902D1*
D2*
X24684Y20449D1*
D2*
X24794D1*
D2*
X24866Y20413D1*
D2*
X24902Y20377D1*
D2*
X24939Y20267D1*
D2*
Y20195D1*
D2*
X24902Y20085D1*
D2*
X24830Y20012D1*
D2*
X24720Y19976D1*
D2*
X24611D1*
D2*
X24502Y20012D1*
D2*
X24466Y20049D1*
D2*
X24429Y20121D1*
X18481Y17164D2*
X18809D1*
D2*
X18918Y17201D1*
D2*
X18955Y17237D1*
D2*
X18991Y17310D1*
D2*
Y17383D1*
D2*
X18955Y17455D1*
D2*
X18918Y17492D1*
D2*
X18809Y17529D1*
D2*
X18481D1*
D2*
Y16763D1*
X18736Y17164D2*
X18991Y16763D1*
X19592D2*
Y17528D1*
D2*
X19227Y17018D1*
D2*
X19773D1*
X20825Y12327D2*
Y11561D1*
D2*
X21080D1*
D2*
X21190Y11598D1*
D2*
X21263Y11671D1*
D2*
X21299Y11744D1*
D2*
X21336Y11852D1*
D2*
Y12035D1*
D2*
X21299Y12145D1*
D2*
X21263Y12217D1*
D2*
X21190Y12290D1*
D2*
X21080Y12327D1*
D2*
X20825D1*
X21608Y12144D2*
Y12180D1*
D2*
X21644Y12253D1*
D2*
X21680Y12290D1*
D2*
X21754Y12326D1*
D2*
X21899D1*
D2*
X21972Y12290D1*
D2*
X22008Y12253D1*
D2*
X22045Y12180D1*
D2*
Y12108D1*
D2*
X22008Y12034D1*
D2*
X21936Y11926D1*
D2*
X21571Y11561D1*
D2*
X22081D1*
X26929Y11510D2*
X26893Y11582D1*
D2*
X26819Y11655D1*
D2*
X26747Y11692D1*
D2*
X26601D1*
D2*
X26528Y11655D1*
D2*
X26455Y11582D1*
D2*
X26418Y11510D1*
D2*
X26382Y11400D1*
D2*
Y11217D1*
D2*
X26418Y11109D1*
D2*
X26455Y11035D1*
D2*
X26528Y10963D1*
D2*
X26601Y10926D1*
D2*
X26747D1*
D2*
X26819Y10963D1*
D2*
X26893Y11035D1*
D2*
X26929Y11109D1*
X27164Y11545D2*
X27237Y11582D1*
D2*
X27347Y11691D1*
D2*
Y10926D1*
X27582Y11545D2*
X27655Y11582D1*
D2*
X27765Y11691D1*
D2*
Y10926D1*
X26382Y23038D2*
X26710D1*
D2*
X26819Y23075D1*
D2*
X26856Y23112D1*
D2*
X26893Y23184D1*
D2*
Y23257D1*
D2*
X26856Y23330D1*
D2*
X26819Y23367D1*
D2*
X26710Y23403D1*
D2*
X26382D1*
D2*
Y22637D1*
X26637Y23038D2*
X26893Y22637D1*
X27565Y23294D2*
X27529Y23366D1*
D2*
X27419Y23402D1*
D2*
X27347D1*
D2*
X27237Y23366D1*
D2*
X27164Y23257D1*
D2*
X27128Y23075D1*
D2*
Y22893D1*
D2*
X27164Y22747D1*
D2*
X27237Y22674D1*
D2*
X27347Y22637D1*
D2*
X27383D1*
D2*
X27492Y22674D1*
D2*
X27565Y22747D1*
D2*
X27601Y22856D1*
D2*
Y22893D1*
D2*
X27565Y23002D1*
D2*
X27492Y23075D1*
D2*
X27383Y23111D1*
D2*
X27347D1*
D2*
X27237Y23075D1*
D2*
X27164Y23002D1*
D2*
X27128Y22893D1*
X36772Y23576D2*
X36736Y23648D1*
D2*
X36663Y23722D1*
D2*
X36590Y23758D1*
D2*
X36445D1*
D2*
X36371Y23722D1*
D2*
X36299Y23648D1*
D2*
X36262Y23576D1*
D2*
X36226Y23466D1*
D2*
Y23284D1*
D2*
X36262Y23175D1*
D2*
X36299Y23102D1*
D2*
X36371Y23029D1*
D2*
X36445Y22992D1*
D2*
X36590D1*
D2*
X36663Y23029D1*
D2*
X36736Y23102D1*
D2*
X36772Y23175D1*
X37482Y23503D2*
X37445Y23393D1*
D2*
X37372Y23320D1*
D2*
X37263Y23284D1*
D2*
X37227D1*
D2*
X37117Y23320D1*
D2*
X37045Y23393D1*
D2*
X37008Y23503D1*
D2*
Y23539D1*
D2*
X37045Y23648D1*
D2*
X37117Y23721D1*
D2*
X37227Y23757D1*
D2*
X37263D1*
D2*
X37372Y23721D1*
D2*
X37445Y23648D1*
D2*
X37482Y23503D1*
D2*
Y23320D1*
D2*
X37445Y23138D1*
D2*
X37372Y23028D1*
D2*
X37263Y22992D1*
D2*
X37190D1*
D2*
X37081Y23028D1*
D2*
X37045Y23102D1*
X37566Y18972D2*
X37530Y19044D1*
D2*
X37457Y19117D1*
D2*
X37384Y19154D1*
D2*
X37238D1*
D2*
X37165Y19117D1*
D2*
X37093Y19044D1*
D2*
X37056Y18972D1*
D2*
X37019Y18862D1*
D2*
Y18679D1*
D2*
X37056Y18571D1*
D2*
X37093Y18498D1*
D2*
X37165Y18425D1*
D2*
X37238Y18388D1*
D2*
X37384D1*
D2*
X37457Y18425D1*
D2*
X37530Y18498D1*
D2*
X37566Y18571D1*
X37875Y19153D2*
X38275D1*
D2*
X38057Y18861D1*
D2*
X38166D1*
D2*
X38239Y18825D1*
D2*
X38275Y18789D1*
D2*
X38312Y18679D1*
D2*
Y18607D1*
D2*
X38275Y18498D1*
D2*
X38202Y18424D1*
D2*
X38093Y18388D1*
D2*
X37983D1*
D2*
X37875Y18424D1*
D2*
X37838Y18461D1*
D2*
X37801Y18534D1*
X40759Y14931D2*
D12*
Y14421D1*
X41099Y14931D2*
Y14421D1*
X40759Y14688D2*
X41099D1*
X41645Y14421D2*
Y14931D1*
D2*
X41450Y14421D1*
D2*
X41256Y14931D1*
D2*
Y14421D1*
X42166Y14810D2*
X42142Y14858D1*
D2*
X42093Y14907D1*
D2*
X42045Y14931D1*
D2*
X41948D1*
D2*
X41899Y14907D1*
D2*
X41851Y14858D1*
D2*
X41826Y14810D1*
D2*
X41802Y14737D1*
D2*
Y14615D1*
D2*
X41826Y14543D1*
D2*
X41851Y14494D1*
D2*
X41899Y14445D1*
D2*
X41948Y14421D1*
D2*
X42045D1*
D2*
X42093Y14445D1*
D2*
X42142Y14494D1*
D2*
X42166Y14543D1*
X42614Y14931D2*
X42372D1*
D2*
X42348Y14712D1*
D2*
X42372Y14736D1*
D2*
X42445Y14761D1*
D2*
X42517D1*
D2*
X42590Y14736D1*
D2*
X42639Y14688D1*
D2*
X42663Y14615D1*
D2*
Y14567D1*
D2*
X42639Y14494D1*
D2*
X42590Y14445D1*
D2*
X42517Y14421D1*
D2*
X42445D1*
D2*
X42372Y14445D1*
D2*
X42348Y14470D1*
D2*
X42323Y14518D1*
X42941Y14931D2*
X42869Y14906D1*
D2*
X42844Y14858D1*
D2*
Y14809D1*
D2*
X42869Y14761D1*
D2*
X42917Y14736D1*
D2*
X43014Y14712D1*
D2*
X43087Y14688D1*
D2*
X43136Y14639D1*
D2*
X43160Y14591D1*
D2*
Y14518D1*
D2*
X43136Y14470D1*
D2*
X43112Y14445D1*
D2*
X43039Y14421D1*
D2*
X42941D1*
D2*
X42869Y14445D1*
D2*
X42844Y14470D1*
D2*
X42820Y14518D1*
D2*
Y14591D1*
D2*
X42844Y14639D1*
D2*
X42893Y14688D1*
D2*
X42966Y14712D1*
D2*
X43063Y14736D1*
D2*
X43112Y14761D1*
D2*
X43136Y14809D1*
D2*
Y14858D1*
D2*
X43112Y14906D1*
D2*
X43039Y14931D1*
D2*
X42941D1*
X43438D2*
X43366Y14906D1*
D2*
X43341Y14858D1*
D2*
Y14809D1*
D2*
X43366Y14761D1*
D2*
X43414Y14736D1*
D2*
X43511Y14712D1*
D2*
X43584Y14688D1*
D2*
X43632Y14639D1*
D2*
X43656Y14591D1*
D2*
Y14518D1*
D2*
X43632Y14470D1*
D2*
X43608Y14445D1*
D2*
X43535Y14421D1*
D2*
X43438D1*
D2*
X43366Y14445D1*
D2*
X43341Y14470D1*
D2*
X43317Y14518D1*
D2*
Y14591D1*
D2*
X43341Y14639D1*
D2*
X43390Y14688D1*
D2*
X43462Y14712D1*
D2*
X43559Y14736D1*
D2*
X43608Y14761D1*
D2*
X43632Y14809D1*
D2*
Y14858D1*
D2*
X43608Y14906D1*
D2*
X43535Y14931D1*
D2*
X43438D1*
X43862D2*
X44129D1*
D2*
X43983Y14736D1*
D2*
X44056D1*
D2*
X44105Y14712D1*
D2*
X44129Y14688D1*
D2*
X44154Y14615D1*
D2*
Y14567D1*
D2*
X44129Y14494D1*
D2*
X44081Y14445D1*
D2*
X44008Y14421D1*
D2*
X43935D1*
D2*
X43862Y14445D1*
D2*
X43838Y14470D1*
D2*
X43813Y14518D1*
X44310Y14931D2*
Y14421D1*
D2*
X44602D1*
X44958Y22964D2*
D70*
Y22198D1*
D2*
X45213D1*
D2*
X45323Y22235D1*
D2*
X45396Y22308D1*
D2*
X45432Y22381D1*
D2*
X45468Y22490D1*
D2*
Y22673D1*
D2*
X45432Y22782D1*
D2*
X45396Y22855D1*
D2*
X45323Y22928D1*
D2*
X45213Y22964D1*
D2*
X44958D1*
X45704Y22818D2*
X45777Y22855D1*
D2*
X45886Y22963D1*
D2*
Y22198D1*
X59882Y23393D2*
X60210D1*
D2*
X60319Y23430D1*
D2*
X60356Y23466D1*
D2*
X60392Y23539D1*
D2*
Y23612D1*
D2*
X60356Y23685D1*
D2*
X60319Y23722D1*
D2*
X60210Y23758D1*
D2*
X59882D1*
D2*
Y22992D1*
X60137Y23393D2*
X60392Y22992D1*
X60701Y23757D2*
X61101D1*
D2*
X60883Y23466D1*
D2*
X60992D1*
D2*
X61065Y23429D1*
D2*
X61101Y23393D1*
D2*
X61138Y23284D1*
D2*
Y23211D1*
D2*
X61101Y23102D1*
D2*
X61029Y23028D1*
D2*
X60919Y22992D1*
D2*
X60810D1*
D2*
X60701Y23028D1*
D2*
X60665Y23066D1*
D2*
X60628Y23138D1*
X64962Y21928D2*
X65291D1*
D2*
X65400Y21964D1*
D2*
X65437Y22001D1*
D2*
X65473Y22074D1*
D2*
Y22183D1*
D2*
X65437Y22256D1*
D2*
X65400Y22293D1*
D2*
X65291Y22329D1*
D2*
X64962D1*
D2*
Y21563D1*
X65708Y22074D2*
Y21709D1*
D2*
X65744Y21600D1*
D2*
X65818Y21563D1*
D2*
X65927D1*
D2*
X66000Y21600D1*
D2*
X66109Y21709D1*
Y22074D2*
Y21563D1*
X66344Y22329D2*
Y21563D1*
X66580Y22329D2*
Y21563D1*
X66815Y22074D2*
Y21709D1*
D2*
X66851Y21600D1*
D2*
X66924Y21563D1*
D2*
X67034D1*
D2*
X67106Y21600D1*
D2*
X67216Y21709D1*
Y22074D2*
Y21563D1*
X67451Y22074D2*
Y21308D1*
Y21964D2*
X67524Y22037D1*
D2*
X67597Y22074D1*
D2*
X67706D1*
D2*
X67780Y22037D1*
D2*
X67852Y21964D1*
D2*
X67889Y21855D1*
D2*
Y21782D1*
D2*
X67852Y21673D1*
D2*
X67780Y21600D1*
D2*
X67706Y21563D1*
D2*
X67597D1*
D2*
X67524Y21600D1*
D2*
X67451Y21673D1*
X38519Y14844D2*
X38482Y14916D1*
D2*
X38409Y14990D1*
D2*
X38337Y15026D1*
D2*
X38191D1*
D2*
X38118Y14990D1*
D2*
X38045Y14916D1*
D2*
X38008Y14844D1*
D2*
X37972Y14734D1*
D2*
Y14552D1*
D2*
X38008Y14443D1*
D2*
X38045Y14370D1*
D2*
X38118Y14297D1*
D2*
X38191Y14260D1*
D2*
X38337D1*
D2*
X38409Y14297D1*
D2*
X38482Y14370D1*
D2*
X38519Y14443D1*
X39191Y15025D2*
X38827D1*
D2*
X38791Y14697D1*
D2*
X38827Y14733D1*
D2*
X38937Y14771D1*
D2*
X39045D1*
D2*
X39155Y14733D1*
D2*
X39228Y14661D1*
D2*
X39264Y14552D1*
D2*
Y14479D1*
D2*
X39228Y14370D1*
D2*
X39155Y14296D1*
D2*
X39045Y14260D1*
D2*
X38937D1*
D2*
X38827Y14296D1*
D2*
X38791Y14333D1*
D2*
X38754Y14406D1*
X60890Y11923D2*
D71*
Y11048D1*
X60453Y11485D2*
X61328D1*
X61691Y11656D2*
X61982Y10976D1*
D2*
X61885Y10781D1*
D2*
X61788Y10684D1*
D2*
X61691Y10635D1*
D2*
X61642D1*
X62274Y11656D2*
X61982Y10976D1*
X66287Y12955D2*
Y12080D1*
X65850Y12517D2*
X66725D1*
X67039Y12688D2*
X67574Y12007D1*
Y12688D2*
X67039Y12007D1*
X66287Y11526D2*
Y10651D1*
X65850Y11088D2*
X66725D1*
X67039Y11259D2*
X67574D1*
D2*
X67039Y10579D1*
D2*
X67574D1*
X60914Y20536D2*
D70*
X61241D1*
D2*
X61351Y20573D1*
D2*
X61388Y20609D1*
D2*
X61424Y20681D1*
D2*
Y20755D1*
D2*
X61388Y20827D1*
D2*
X61351Y20864D1*
D2*
X61241Y20900D1*
D2*
X60914D1*
D2*
Y20135D1*
X61169Y20536D2*
X61424Y20135D1*
X61697Y20718D2*
Y20754D1*
D2*
X61733Y20827D1*
D2*
X61769Y20863D1*
D2*
X61842Y20900D1*
D2*
X61988D1*
D2*
X62060Y20863D1*
D2*
X62097Y20827D1*
D2*
X62134Y20754D1*
D2*
Y20681D1*
D2*
X62097Y20608D1*
D2*
X62024Y20499D1*
D2*
X61659Y20135D1*
D2*
X62170D1*
X62660Y17361D2*
X62988D1*
D2*
X63097Y17398D1*
D2*
X63134Y17434D1*
D2*
X63170Y17506D1*
D2*
Y17580D1*
D2*
X63134Y17652D1*
D2*
X63097Y17689D1*
D2*
X62988Y17725D1*
D2*
X62660D1*
D2*
Y16960D1*
X62915Y17361D2*
X63170Y16960D1*
X63406Y17579D2*
X63479Y17616D1*
D2*
X63589Y17725D1*
D2*
Y16960D1*
X58365Y11590D2*
X58329Y11663D1*
D2*
X58255Y11736D1*
D2*
X58183Y11772D1*
D2*
X58037D1*
D2*
X57964Y11736D1*
D2*
X57891Y11663D1*
D2*
X57854Y11590D1*
D2*
X57818Y11481D1*
D2*
Y11298D1*
D2*
X57854Y11189D1*
D2*
X57891Y11116D1*
D2*
X57964Y11044D1*
D2*
X58037Y11007D1*
D2*
X58183D1*
D2*
X58255Y11044D1*
D2*
X58329Y11116D1*
D2*
X58365Y11189D1*
X59037Y11663D2*
X59001Y11735D1*
D2*
X58891Y11771D1*
D2*
X58819D1*
D2*
X58710Y11735D1*
D2*
X58636Y11626D1*
D2*
X58600Y11444D1*
D2*
Y11262D1*
D2*
X58636Y11116D1*
D2*
X58710Y11043D1*
D2*
X58819Y11007D1*
D2*
X58855D1*
D2*
X58964Y11043D1*
D2*
X59037Y11116D1*
D2*
X59073Y11226D1*
D2*
Y11262D1*
D2*
X59037Y11371D1*
D2*
X58964Y11444D1*
D2*
X58855Y11480D1*
D2*
X58819D1*
D2*
X58710Y11444D1*
D2*
X58636Y11371D1*
D2*
X58600Y11262D1*
X51419Y14161D2*
Y13396D1*
X51910Y14161D2*
Y13396D1*
X51655Y14161D2*
X52165D1*
X52947Y13979D2*
X52911Y14052D1*
D2*
X52838Y14125D1*
D2*
X52765Y14161D1*
D2*
X52619D1*
D2*
X52546Y14125D1*
D2*
X52474Y14052D1*
D2*
X52437Y13979D1*
D2*
X52400Y13870D1*
D2*
Y13687D1*
D2*
X52437Y13578D1*
D2*
X52474Y13505D1*
D2*
X52546Y13433D1*
D2*
X52619Y13396D1*
D2*
X52765D1*
D2*
X52838Y13433D1*
D2*
X52911Y13505D1*
D2*
X52947Y13578D1*
D2*
Y13687D1*
D2*
X52765D1*
X53256Y14160D2*
X53656D1*
D2*
X53438Y13869D1*
D2*
X53547D1*
D2*
X53619Y13833D1*
D2*
X53656Y13797D1*
D2*
X53693Y13687D1*
D2*
Y13615D1*
D2*
X53656Y13505D1*
D2*
X53583Y13432D1*
D2*
X53474Y13396D1*
D2*
X53364D1*
D2*
X53256Y13432D1*
D2*
X53219Y13469D1*
D2*
X53182Y13541D1*
X53965Y13979D2*
Y14015D1*
D2*
X54001Y14088D1*
D2*
X54038Y14124D1*
D2*
X54111Y14160D1*
D2*
X54257D1*
D2*
X54329Y14124D1*
D2*
X54365Y14088D1*
D2*
X54402Y14015D1*
D2*
Y13942D1*
D2*
X54365Y13869D1*
D2*
X54293Y13760D1*
D2*
X53928Y13396D1*
D2*
X54438D1*
X54893Y14160D2*
X54783Y14124D1*
D2*
X54710Y14015D1*
D2*
X54674Y13833D1*
D2*
Y13723D1*
D2*
X54710Y13541D1*
D2*
X54783Y13432D1*
D2*
X54893Y13396D1*
D2*
X54965D1*
D2*
X55075Y13432D1*
D2*
X55147Y13541D1*
D2*
X55184Y13723D1*
D2*
Y13833D1*
D2*
X55147Y14015D1*
D2*
X55075Y14124D1*
D2*
X54965Y14160D1*
D2*
X54893D1*
X55147Y14015D2*
X54710Y13541D1*
X55638Y14160D2*
X55529Y14124D1*
D2*
X55456Y14015D1*
D2*
X55419Y13833D1*
D2*
Y13723D1*
D2*
X55456Y13541D1*
D2*
X55529Y13432D1*
D2*
X55638Y13396D1*
D2*
X55711D1*
D2*
X55820Y13432D1*
D2*
X55893Y13541D1*
D2*
X55930Y13723D1*
D2*
Y13833D1*
D2*
X55893Y14015D1*
D2*
X55820Y14124D1*
D2*
X55711Y14160D1*
D2*
X55638D1*
X55893Y14015D2*
X55456Y13541D1*
X61064Y17623D2*
X61027Y17695D1*
D2*
X60954Y17769D1*
D2*
X60882Y17805D1*
D2*
X60736D1*
D2*
X60663Y17769D1*
D2*
X60590Y17695D1*
D2*
X60553Y17623D1*
D2*
X60517Y17513D1*
D2*
Y17331D1*
D2*
X60553Y17222D1*
D2*
X60590Y17149D1*
D2*
X60663Y17076D1*
D2*
X60736Y17039D1*
D2*
X60882D1*
D2*
X60954Y17076D1*
D2*
X61027Y17149D1*
D2*
X61064Y17222D1*
X61445Y17039D2*
X61809Y17804D1*
D2*
X61299D1*
X50665Y18655D2*
X50629Y18727D1*
D2*
X50556Y18800D1*
D2*
X50483Y18837D1*
D2*
X50338D1*
D2*
X50264Y18800D1*
D2*
X50192Y18727D1*
D2*
X50155Y18655D1*
D2*
X50119Y18545D1*
D2*
Y18362D1*
D2*
X50155Y18254D1*
D2*
X50192Y18181D1*
D2*
X50264Y18108D1*
D2*
X50338Y18071D1*
D2*
X50483D1*
D2*
X50556Y18108D1*
D2*
X50629Y18181D1*
D2*
X50665Y18254D1*
X51083Y18836D2*
X50974Y18800D1*
D2*
X50937Y18727D1*
D2*
Y18654D1*
D2*
X50974Y18581D1*
D2*
X51046Y18544D1*
D2*
X51192Y18508D1*
D2*
X51302Y18472D1*
D2*
X51374Y18399D1*
D2*
X51410Y18326D1*
D2*
Y18217D1*
D2*
X51374Y18144D1*
D2*
X51338Y18107D1*
D2*
X51228Y18071D1*
D2*
X51083D1*
D2*
X50974Y18107D1*
D2*
X50937Y18144D1*
D2*
X50901Y18217D1*
D2*
Y18326D1*
D2*
X50937Y18399D1*
D2*
X51010Y18472D1*
D2*
X51119Y18508D1*
D2*
X51265Y18544D1*
D2*
X51338Y18581D1*
D2*
X51374Y18654D1*
D2*
Y18727D1*
D2*
X51338Y18800D1*
D2*
X51228Y18836D1*
D2*
X51083D1*
X48205Y14924D2*
X48169Y14997D1*
D2*
X48095Y15070D1*
D2*
X48023Y15106D1*
D2*
X47877D1*
D2*
X47804Y15070D1*
D2*
X47731Y14997D1*
D2*
X47694Y14924D1*
D2*
X47658Y14815D1*
D2*
Y14632D1*
D2*
X47694Y14523D1*
D2*
X47731Y14450D1*
D2*
X47804Y14377D1*
D2*
X47877Y14340D1*
D2*
X48023D1*
D2*
X48095Y14377D1*
D2*
X48169Y14450D1*
D2*
X48205Y14523D1*
X48805Y14340D2*
Y15105D1*
D2*
X48440Y14596D1*
D2*
X48987D1*
X26306Y20139D2*
X26634D1*
D2*
X26743Y20176D1*
D2*
X26780Y20212D1*
D2*
X26817Y20285D1*
D2*
Y20358D1*
D2*
X26780Y20430D1*
D2*
X26743Y20467D1*
D2*
X26634Y20504D1*
D2*
X26306D1*
D2*
Y19738D1*
X26561Y20139D2*
X26817Y19738D1*
X27052Y20029D2*
X27489D1*
D2*
Y20103D1*
D2*
X27453Y20176D1*
D2*
X27417Y20212D1*
D2*
X27343Y20248D1*
D2*
X27234D1*
D2*
X27161Y20212D1*
D2*
X27088Y20139D1*
D2*
X27052Y20029D1*
D2*
Y19957D1*
D2*
X27088Y19847D1*
D2*
X27161Y19775D1*
D2*
X27234Y19738D1*
D2*
X27343D1*
D2*
X27417Y19775D1*
D2*
X27489Y19847D1*
X28162Y20212D2*
Y19628D1*
D2*
X28125Y19520D1*
D2*
X28089Y19483D1*
D2*
X28016Y19446D1*
D2*
X27906D1*
D2*
X27834Y19483D1*
X28162Y20103D2*
X28089Y20175D1*
D2*
X28016Y20212D1*
D2*
X27906D1*
D2*
X27834Y20175D1*
D2*
X27761Y20103D1*
D2*
X27724Y19993D1*
D2*
Y19920D1*
D2*
X27761Y19811D1*
D2*
X27834Y19738D1*
D2*
X27906Y19702D1*
D2*
X28016D1*
D2*
X28089Y19738D1*
D2*
X28162Y19811D1*
M02*
